<?xml version="1.0" encoding="utf-8"?>
<!-- Generator: Adobe Illustrator 16.0.0, SVG Export Plug-In . SVG Version: 6.00 Build 0)  -->
<!DOCTYPE svg PUBLIC "-//W3C//DTD SVG 1.1//EN" "http://www.w3.org/Graphics/SVG/1.1/DTD/svg11.dtd">
<svg version="1.1" id="Calque_1" xmlns="http://www.w3.org/2000/svg" xmlns:xlink="http://www.w3.org/1999/xlink" x="0px" y="0px"
	 width="283px" height="283px" viewBox="0 0 283 283" enable-background="new 0 0 283 283" xml:space="preserve">
<g>
	<path fill="#0000FF" d="M120.292,108.208c-0.762,21.745,1.414,42.336,2.71,63.067c1.348,0.159,2.389,0.383,3.433,0.395
		c18.656,0.21,37.312,0.396,55.97,0.562c0.404,0.003,0.815-0.336,1.584-0.672C161.734,151.478,140.298,131.155,120.292,108.208z"/>
	<path fill="#0000FF" d="M-0.23,0v283.46H283V0H-0.23L-0.23,0z M258.418,208.21c-2.572,0-5.067,0-8.041,0
		c2.418,6.229,4.664,12.016,7.102,18.299c-9.259,1.111-18.373,0.665-27.441,1.025c-9.037,0.358-18.08,0.572-27.186,0.851
		c-2.479-6.729-4.812-13.058-7.363-19.97c3.728,0,6.972,0,10.513,0c-0.229-1.639-0.384-2.764-0.597-4.28
		c-1.777,0-3.355,0.031-4.936-0.006c-17.465-0.424-34.932-0.856-52.396-1.292c-9.597-0.233-19.194-0.414-28.787-0.76
		c-2.25-0.08-3.568,0.67-4.125,2.79c-0.741,2.814-2.572,3.522-5.372,3.462c-8.123-0.176-16.251-0.062-24.66-0.062
		c-1.581,4.803-3.111,9.453-4.646,14.104c-0.75,2.274-1.534,4.537-2.259,6.82c-1.112,3.499-1.096,3.542-4.626,3.628
		c-14.928,0.362-29.858,0.699-44.785,1.04c-1.302,0.029-2.604,0.004-4.517,0.004c3.02-8.777,5.861-17.035,8.774-25.499
		c8.006,0,15.869-0.121,23.729,0.062c2.934,0.066,4.315-1.023,5.818-3.562c7.501-12.663,9.318-26.483,9.121-40.813
		c-0.107-7.812-0.17-15.624-0.211-23.438c-0.042-7.574-0.29-15.158,0.021-22.719c0.421-10.207,0.942-20.421,4.562-30.201
		c2.731-7.382,5.725-14.504,10.249-21.077c2.21-3.211,4.725-6.5,5.869-10.476c0.879-3.051,3.195-4.299,6.389-4.414
		c12.259-0.438,24.513-1,36.771-1.522c4.515-0.19,9.03-0.399,13.886-0.618c1.186,5.824,2.711,11.406,2.894,17.266
		c0.192,6.306,1.132,12.456,4.235,18.103c0.637,1.158,1.094,2.438,1.492,3.702c2.059,6.499,5.943,11.841,10.461,16.803
		c6.002,6.599,11.711,13.485,18.033,19.753c11.434,11.333,22.961,22.604,34.965,33.321c9.256,8.264,18.268,16.669,26.022,26.371
		c5.03,6.299,9.087,13.128,11.021,21.052C258.545,206.562,258.418,207.235,258.418,208.21z"/>
</g>
</svg>
