<?xml version="1.0" encoding="utf-8"?>
<!-- Generator: Adobe Illustrator 16.0.0, SVG Export Plug-In . SVG Version: 6.00 Build 0)  -->
<!DOCTYPE svg PUBLIC "-//W3C//DTD SVG 1.1//EN" "http://www.w3.org/Graphics/SVG/1.1/DTD/svg11.dtd">
<svg version="1.1" id="Calque_1" xmlns="http://www.w3.org/2000/svg" xmlns:xlink="http://www.w3.org/1999/xlink" x="0px" y="0px"
	 width="283px" height="283px" viewBox="0 0 283 283" enable-background="new 0 0 283 283" xml:space="preserve">
<g>
	<path fill="#0000FF" d="M141.92,93.431c-1.066-0.781-2.174-1.519-3.312-2.188c-3.742-2.203-7.545-4.308-11.258-6.567
		c-2.023-1.231-4.099-2.312-6.552-3.314c0,0.548-0.07,0.848,0.011,1.095c0.736,2.257,1.183,4.622,2.501,6.66
		c0.408,0.632,0.638,1.382,0.982,2.059c0.773,1.521,0.816,3.022,0.364,4.7c-0.582,2.167-1.807,3.767-3.508,5.027
		c-1.387,1.03-2.528,2.254-3.569,3.638c-0.907,1.205-2.057,2.215-3.039,3.364c-1.233,1.442-2.637,2.806-3.541,4.446
		c-1.24,2.241-2.903,3.978-4.867,5.488c-1.354,1.04-2.708,2.076-4.064,3.109c-1.285,0.979-2.065,2.36-2.148,3.896
		c-0.113,2.089,0.013,4.212,0.279,6.284c0.376,2.938,1.024,5.841,1.458,8.772c0.265,1.793,0.227,3.635,0.538,5.42
		c0.495,2.842,0.676,5.682,0.518,8.562c-0.062,1.145,0.216,2.312,0.11,3.443c-0.298,3.336-0.686,6.664-1.082,9.99
		c-0.421,3.512-0.911,7.057-0.469,10.561c0.306,2.425-0.338,4.531-0.958,6.727c-0.207,0.732-0.505,1.441-0.697,2.184
		c-0.877,3.336-2.049,6.562-3.394,9.729c-0.169,0.396-0.262,0.838-0.443,1.441c1.346,0.035,2.466,0.092,3.589,0.09
		c8.467-0.021,16.936-0.047,25.404-0.092c4.044-0.021,8.088-0.084,12.131-0.148c0.431-0.012,0.86-0.18,1.262-0.268
		c-0.021-0.369,0.023-0.588-0.057-0.729c-1.425-2.572-2.725-5.221-4.694-7.449c-0.859-0.979-1.537-2.166-2.095-3.357
		c-0.764-1.639-1.221-3.428-2.01-5.053c-1.356-2.791-2.148-5.711-2.329-8.803c-0.195-3.248-0.299-6.5-0.526-9.744
		c-0.148-2.098-0.274-4.229-0.729-6.271c-0.563-2.52-0.896-5.051-1.019-7.611c-0.083-1.723,0.11-3.449-0.456-5.131
		c-0.142-0.43-0.055-0.951,0.003-1.423c0.348-2.851,0.65-5.71,1.11-8.536c0.194-1.204,0.641-2.393,1.128-3.514
		c0.565-1.309,1.379-2.506,1.943-3.812c0.75-1.729,1.892-3.062,3.415-4.085c0.784-0.529,1.593-1.021,2.379-1.546
		c1.099-0.738,2.243-1.426,3.268-2.261c1.816-1.479,3.152-3.195,2.954-5.839c-0.161-2.121,0.223-4.188,1.532-5.981
		c0.265-0.367,0.316-0.896,0.493-1.34c0.593-1.509,1.216-3,1.787-4.516c0.2-0.521,0.472-1.121,0.394-1.637
		C144.352,96.786,143.742,94.765,141.92,93.431z"/>
	<path fill="#0000FF" d="M0,0v283.462h283V0H0z M228.59,251.206c-0.364,0.062-0.736,0.146-1.104,0.131
		c-11.666-0.432-23.332-0.873-34.998-1.323c-0.555-0.022-1.104-0.179-1.799-0.288c-0.312-0.875-0.668-1.746-0.936-2.646
		c-0.553-1.854-1.312-3.561-2.625-5.02c-0.887-0.984-1.719-2.062-2.364-3.225c-1.84-3.299-4.575-5.562-7.81-7.264
		c-2.344-1.229-4.733-2.361-7.104-3.533c-1.205-0.596-2.459-0.855-3.818-0.83c-8.379,0.191-16.76,0.355-25.143,0.49
		c-7.816,0.123-15.633,0.199-23.451,0.297c-2.73,0.033-5.461,0.058-8.194,0.117c-0.624,0.014-1.242,0.17-2.055,0.289
		c0.548,0.957,0.994,1.662,1.367,2.405c0.951,1.896,1.155,3.892,0.237,5.819c-1.307,2.76-2.752,5.451-4.151,8.162
		c-0.22,0.42-0.55,0.777-0.785,1.188c-0.748,1.307-1.841,1.721-3.313,1.68c-5.084-0.146-10.169-0.156-15.257-0.271
		c-6.027-0.143-12.049-0.331-18.078-0.507c-0.373-0.015-0.746-0.063-1.094-0.103c-0.383-0.729,0.22-1.095,0.484-1.549
		c1.648-2.797,3.312-5.576,4.975-8.359c1.103-1.848,1.255-3.812,0.545-5.807c-0.312-0.887-0.776-1.779-1.382-2.478
		c-1.059-1.207-2.183-2.414-3.461-3.354c-3.144-2.312-6.147-4.752-8.648-7.801c-0.476-0.582-1.052-1.097-1.639-1.574
		c-3.401-2.801-3.596-6.795-1.948-10.394c0.471-1.034,1.188-1.954,1.76-2.946c1.523-2.645,3.208-5.213,4.496-7.974
		c1.85-3.964,3.279-8.116,4.482-12.343c0.751-2.623,0.51-5.289,0.397-7.951c-0.028-0.668-0.147-1.361-0.018-2.002
		c0.748-3.672,0.757-7.42,1.185-11.127c0.184-1.609,0.196-3.246,0.435-4.849c0.5-3.352,0.348-6.666-0.168-9.993
		c-0.776-5.014-1.507-10.031-2.24-15.05c-0.221-1.518-0.413-3.034-0.562-4.561c-0.115-1.146,0.045-2.263,0.424-3.38
		c0.261-0.771,0.613-1.372,1.234-1.85c1.276-0.98,2.53-1.997,3.827-2.951c1.924-1.416,3.616-2.988,4.842-5.141
		c1.272-2.229,2.773-4.328,4.895-5.884c0.823-0.604,1.415-1.452,1.96-2.396c0.697-1.214,1.765-2.214,2.717-3.267
		c0.702-0.771,1.429-1.536,2.229-2.204c1.558-1.306,1.995-3.204,2.642-4.982c0.182-0.492,0.086-1.146-0.035-1.688
		c-0.184-0.837-0.398-1.692-0.777-2.452c-1.241-2.505-1.751-5.223-2.431-7.9c-0.395-1.563-0.93-3.139-1.675-4.561
		c-1.358-2.589-0.541-5.035,0.197-7.498c0.144-0.488,0.674-0.914,1.117-1.239c0.528-0.391,1.165-0.626,1.739-0.952
		c1.742-0.998,3.252-2.26,4.393-3.967c1.848-2.774,3.435-5.68,4.397-8.906c0.534-1.785,1.451-3.317,2.959-4.443
		c1.739-1.305,3.442-2.663,5.219-3.911c1.877-1.317,3.494-2.904,4.929-4.694c0.414-0.519,0.816-1.058,1.299-1.503
		c1.005-0.938,1.598-2.089,2.015-3.396c0.377-1.18,0.961-2.285,1.332-3.467c0.423-1.339,1.353-1.727,2.593-1.735
		c1.036-0.015,2.07-0.094,3.104-0.099c7.999-0.023,15.998-0.036,23.997-0.058c2.445-0.008,4.889-0.033,7.338-0.036
		c0.554,0,1.107,0.062,1.744,0.099c1.121,2.054,2.102,4.078,2.211,6.452c0.058,1.278-0.062,2.479-0.758,3.591
		c-0.305,0.481-0.615,0.986-0.777,1.527c-0.43,1.432-1.327,2.479-2.377,3.479c-0.957,0.913-1.827,1.938-2.639,2.988
		c-0.974,1.271-1.382,2.666-0.738,4.299c0.664,1.688,1.184,3.433,1.767,5.147c0.153,0.452,0.345,0.896,0.446,1.363
		c0.541,2.479-0.123,4.297-2.221,5.712c-1.172,0.79-2.475,1.382-3.701,2.091c-0.483,0.278-0.924,0.64-1.426,0.986
		c-0.328,1.992,0.2,3.614,1.744,4.854c0.734,0.589,1.475,1.205,2.297,1.646c4.164,2.22,8.369,4.354,12.53,6.579
		c2.08,1.11,4.097,2.354,6.14,3.532c2.377,1.367,4.764,2.711,7.127,4.101c1.383,0.812,2.773,1.631,4.069,2.568
		c0.832,0.599,1.585,1.354,2.224,2.159c1.481,1.888,1.763,4.018,0.746,6.206c-0.49,1.062-0.838,2.082-0.862,3.278
		c-0.019,0.826-0.31,1.723-0.716,2.445c-0.965,1.728-1.446,3.521-1.229,5.496c0.144,1.309-0.265,2.47-0.897,3.549
		c-0.33,0.562-0.752,1.128-1.264,1.507c-1.597,1.185-3.168,2.438-4.906,3.365c-2.465,1.32-4.115,3.296-5.265,5.793
		c-0.677,1.472-1.44,2.922-1.928,4.459c-0.576,1.812-1.042,3.686-1.293,5.563c-0.394,2.938-0.573,5.888-0.349,8.875
		c0.315,4.195,0.856,8.354,1.369,12.521c0.342,2.817,0.795,5.651,0.866,8.534c0.08,3.521,0.613,7.013,1.487,10.48
		c0.851,3.389,2.066,6.536,3.759,9.521c0.694,1.229,1.585,2.345,2.444,3.464c3.148,4.104,5.509,8.631,7.436,13.442
		c0.715,1.784,1.188,3.627,1.666,5.456c1.235,4.727,3.936,8.157,8.084,10.541c2.639,1.513,5.421,2.646,8.241,3.73
		c3.866,1.492,7.75,2.959,11.552,4.621c2.852,1.243,5.619,2.705,8.344,4.209c2.176,1.198,3.926,2.967,5.405,4.981
		c1.575,2.146,3.093,4.336,4.638,6.506c0.221,0.31,0.491,0.59,0.66,0.927c0.213,0.424,0.367,0.883,0.512,1.34
		c0.516,1.623,1.024,3.242,1.508,4.783C228.73,251.098,228.666,251.194,228.59,251.206z"/>
</g>
</svg>
