<?xml version="1.0" encoding="utf-8"?>
<!-- Generator: Adobe Illustrator 16.0.0, SVG Export Plug-In . SVG Version: 6.00 Build 0)  -->
<!DOCTYPE svg PUBLIC "-//W3C//DTD SVG 1.1//EN" "http://www.w3.org/Graphics/SVG/1.1/DTD/svg11.dtd">
<svg version="1.1" id="Calque_1" xmlns="http://www.w3.org/2000/svg" xmlns:xlink="http://www.w3.org/1999/xlink" x="0px" y="0px"
	 width="283px" height="283px" viewBox="0 0 283 283" enable-background="new 0 0 283 283" xml:space="preserve">
<g>
	<path fill="#0000FF" d="M158.648,85.1c-0.561-1.102-1.178-2.172-1.658-3.308c-0.558-1.312-0.912-2.718-1.502-4.012
		c-1.209-2.616-2.846-4.914-5.146-6.627c-1.829,2.087-3.543,4.101-5.321,6.052c-1.021,1.118-2.109,2.179-3.233,3.188
		c-1.825,1.646-3.663,3.276-5.573,4.813c-1.47,1.186-3.055,2.223-4.602,3.31c-2.622,1.852-5.058,3.965-7.874,5.531
		c-2.228,1.238-4.394,2.587-6.569,3.907c-0.271,0.165-0.463,0.468-0.895,0.919c0.874,0.125,1.412,0.237,1.958,0.272
		c4.684,0.315,9.374,0.646,14.064,0.929c6.473,0.393,12.944,0.768,19.423,1.109c1.581,0.083,3.176,0.013,4.923,0.013
		c0.675-2.106,2.042-3.93,3.163-5.896c1.115-1.96,1.383-4.207,0.729-6.381C160.13,87.579,159.292,86.37,158.648,85.1z"/>
	<path fill="#0000FF" d="M0,0v283.23h283V0H0L0,0z M219.423,181.254c1.452,0.388,2.905,0.749,4.375,1.034
		c1.091,0.213,2.205,0.299,3.479,0.465c-0.218,0.714-0.307,1.278-0.551,1.765c-0.98,1.962-1.986,3.913-3.027,5.843
		c-0.972,1.796-1.346,3.667-1.478,5.738c-0.344,5.438,1.256,10.376,3.218,15.269c0.598,1.491,1.178,2.989,1.84,4.682
		c-0.625,0.146-1.043,0.293-1.474,0.324c-7.588,0.608-15.183,1.206-22.776,1.803c-3.938,0.31-7.873,0.614-11.812,0.896
		c-0.836,0.061-1.668,0.008-2.451,0.008c-0.249-0.328-0.481-0.526-0.569-0.778c-1.31-3.79-2.439-7.649-3.949-11.354
		c-0.898-2.21-0.827-4.497-1.271-6.731c-0.237-1.216-0.301-2.477-0.339-3.72c-0.059-1.728,0.15-3.37,0.979-4.984
		c1.599-3.14,2.983-6.389,4.484-9.58c0.646-1.37,0.547-2.837,0.418-4.237c-0.154-1.71-0.668-3.38-0.934-5.082
		c-0.234-1.479-1.016-2.367-2.373-2.919c-3.232-1.312-6.424-2.729-9.646-4.071c-4.353-1.81-8.716-3.585-13.07-5.391
		c-0.609-0.251-1.238-0.505-1.774-0.882c-1.56-1.092-3.248-1.323-5.101-1.17c-7.223,0.603-14.454,1.131-21.682,1.674
		c-2.817,0.213-5.636,0.402-8.455,0.576c-4.886,0.294-9.776,0.554-14.661,0.851c-3.192,0.189-6.386,0.423-9.536,0.634
		c-0.415,0.557-0.07,0.899,0.214,1.286c1.405,1.912,2.79,3.841,4.196,5.749c0.757,1.021,0.798,2.032,0.301,3.225
		c-2.442,5.813-3.77,11.812-2.638,18.172c0.083,0.47,0.152,0.951,0.148,1.428c-0.021,1.806,0.524,3.378,1.682,4.754
		c1.833,2.178,2.012,4.645,1.206,7.299c-2.106,6.951-4.191,13.907-6.296,20.86c-0.053,0.178-0.18,0.332-0.371,0.671
		c-3.933,0.896-8.08,0.717-12.184,1.048c-4.03,0.326-8.069,0.68-12.111,0.856c-4.107,0.184-8.199,0.926-12.438,0.596
		c0.183-1.731,0.565-3.202,1.043-4.648c0.804-2.449,1.646-4.892,2.433-7.348c1.223-3.821,2.488-7.632,3.592-11.486
		c0.847-2.961,0.8-5.862-1.38-8.357c-0.71-0.812-1.072-1.793-1.198-2.865c-0.311-2.66-0.65-5.316-0.921-7.979
		c-0.063-0.655,0.027-1.347,0.152-1.999c0.732-3.85,1.469-7.7,3.263-11.227c0.483-0.95,0.41-1.812-0.108-2.719
		c-1.469-2.568-3.101-5.019-4.87-7.392c-1.532-2.055-2.916-4.225-4.345-6.357c-0.263-0.395-0.511-0.825-0.638-1.275
		c-0.542-1.886-1.663-3.426-2.777-4.972c-2.543-3.538-3.103-7.511-2.534-11.738c0.375-2.746,1.042-5.445,1.096-8.245
		c0.046-2.219,0.005-4.424-0.576-6.557c-0.359-1.319-0.137-2.463,0.455-3.59c0.353-0.673,0.711-1.394,1.231-1.919
		c2.333-2.357,4.274-5.115,6.908-7.166c3.517-2.729,6.845-5.698,10.464-8.306c3.472-2.499,7.13-4.646,10.783-6.824
		c1.942-1.154,3.781-2.498,5.663-3.763c2.353-1.578,4.645-3.248,7.057-4.719c2.436-1.486,4.627-3.278,6.767-5.147
		c1.926-1.685,3.781-3.453,5.7-5.143c2.842-2.505,4.961-5.435,5.826-9.262c0.309-1.372,0.9-2.77,1.698-3.914
		c1.281-1.849,2.142-3.811,2.595-5.995c0.095-0.457,0.307-0.891,0.511-1.454c1.325-0.047,2.632-0.131,3.938-0.133
		c10.735-0.021,21.469-0.013,32.206-0.053c1.265-0.006,2.39,0.239,3.498,0.873c2.705,1.543,5.461,2.995,8.191,4.501
		c0.495,0.271,0.988,0.572,1.415,0.941c3.176,2.748,6.825,4.734,10.446,6.775c2.728,1.536,5.197,3.418,7.193,5.919
		c1.389,1.736,2.434,3.646,3.19,5.725c0.723,1.983,1.589,3.851,2.864,5.558c1.263,1.69,2.018,3.622,2.064,5.845
		c0.033,1.697-0.396,3.238-1.133,4.674c-1.102,2.133-1.902,4.357-2.609,6.645c-1.476,4.755-3.541,9.266-5.711,13.722
		c-0.91,1.863-1.357,3.734-0.961,5.818c0.577,3.046,0.336,6.063-0.23,9.109c-0.752,4.049-1.135,8.12-0.549,12.27
		c0.25,1.772,0.707,3.437,1.703,4.791c1.45,1.985,3.092,3.858,4.859,5.56c1.141,1.101,2.6,1.893,3.997,2.669
		c4.958,2.764,10.065,5.187,15.438,7.025c1.248,0.428,2.441,1.006,3.66,1.509c3.223,1.335,6.449,2.664,9.67,4.009
		c0.605,0.254,1.215,0.525,1.773,0.874c0.921,0.574,1.518,1.354,1.616,2.539c0.077,0.938,0.383,1.859,0.587,2.789
		c0.137,0.641,0.273,1.282,0.503,2.319c-1.481,0.353-2.657,0.616-3.827,0.905c-1.729,0.424-3.457,0.85-5.171,1.317
		c-0.203,0.059-0.454,0.395-0.464,0.606C219.02,180.812,219.238,181.207,219.423,181.254z"/>
</g>
</svg>
