<?xml version="1.0" encoding="utf-8"?>
<!-- Generator: Adobe Illustrator 16.0.0, SVG Export Plug-In . SVG Version: 6.00 Build 0)  -->
<!DOCTYPE svg PUBLIC "-//W3C//DTD SVG 1.1//EN" "http://www.w3.org/Graphics/SVG/1.1/DTD/svg11.dtd">
<svg version="1.1" id="Calque_1" xmlns="http://www.w3.org/2000/svg" xmlns:xlink="http://www.w3.org/1999/xlink" x="0px" y="0px"
	 width="283px" height="283px" viewBox="0 0 283 283" enable-background="new 0 0 283 283" xml:space="preserve">
<g>
	<path fill="#0000FF" d="M129.289,134.39c-0.994-3.199-1.474-6.354,0.607-9.355c0.534-0.771,0.991-1.602,1.451-2.421
		c1.116-2.001,2.438-3.926,3.28-6.04c1.938-4.849,2.479-9.788,0.092-14.713c-0.415-0.856-0.656-1.798-1.037-2.673
		c-0.963-2.213-1.96-4.41-4.021-5.95c-0.27,1.599-0.43,2.997-0.749,4.356c-1.074,4.594-2.614,8.896-5.867,12.562
		c-4.104,4.63-8.875,8.419-13.776,12.104c-3.514,2.644-7.243,5.113-9.366,9.146c-1.148,2.18-2.076,4.488-2.965,6.789
		c-1.793,4.648-2.87,9.463-3.027,14.998c14.41-0.617,28.719-0.312,43.273-1.062c-0.561-1.147-0.908-2.03-1.388-2.845
		C133.02,144.585,130.912,139.597,129.289,134.39z"/>
	<path fill="#0000FF" d="M-0.46,0v283.46H283V0H-0.46L-0.46,0z M215.197,225.064c-3.908-0.311-7.811-0.709-11.722-1.004
		c-5.157-0.396-10.317-0.746-15.479-1.057c-1.396-0.084-2.166-0.582-2.715-1.979c-3.133-8.008-6.365-15.969-8.506-24.324
		c-0.924-3.602-2.111-7.137-3.062-10.729c-0.382-1.445-1.105-2.021-2.59-2.08c-3.734-0.146-7.469-0.439-11.203-0.646
		c-15.314-0.854-30.635-1.709-45.955-2.547c-1.608-0.088-3.536-0.609-4.744,0.078c-1.037,0.588-1.272,2.611-1.831,4.016
		c-3.88,9.775-7.752,19.559-11.626,29.332c-0.312,0.787-0.624,1.574-1.016,2.562c-12.562-0.756-25.062-1.506-38.016-2.283
		c6.086-16.396,13.58-31.668,19.698-47.854c-6.229,0-12.064,0-18.038,0c-1.836-3.463-1.992-7.113-1.617-10.689
		c0.457-4.371,1.284-8.729,2.248-13.02c0.448-2,1.878-3.771,2.372-5.768c1.217-4.92,4.383-8.412,7.993-11.601
		c1.784-1.573,3.717-3.018,5.698-4.34c5.467-3.638,10.312-7.935,14.359-13.104c0.701-0.896,1.41-1.847,1.826-2.887
		c1.697-4.248,3.624-8.459,3.109-13.236c-0.383-3.538-2.309-6.439-3.851-9.503c-1.805-3.585-3.695-7.131-5.332-10.791
		c-1.444-3.234-1.727-6.563-0.312-10.013c0.68-1.662,1.704-2.082,3.271-2.148c4.021-0.173,8.039-0.424,12.062-0.643
		c6.977-0.375,13.957-0.766,20.936-1.119c1.229-0.062,2.464-0.008,3.748-0.008c0.428,1.166,0.844,2.225,1.21,3.303
		c1.35,3.982,4.028,6.941,7.425,9.229c7.627,5.145,15.382,10.094,22.979,15.276c4.488,3.065,9.026,6.146,11.883,11.032
		c1.996,3.417,3.819,6.973,4.271,10.887c0.541,4.677-0.816,9.104-3.234,13.147c-1.717,2.867-3.732,5.637-3.609,9.182
		c0.062,1.692,0.221,3.479,0.803,5.053c3.12,8.439,7.503,16.256,12.404,23.767c1.711,2.614,3.93,4.925,6.082,7.218
		c0.535,0.566,1.707,0.746,2.594,0.758c4.604,0.062,9.21,0.018,13.814-0.004c3.241-0.019,3.402,0.229,4.365,3.254
		c1.734,5.455,3.657,10.854,5.461,16.291c0.754,2.266,1.331,4.592,2.096,6.854c2.166,6.414,4.261,12.859,6.629,19.201
		c1.668,4.461,3.738,8.771,5.854,13.674C222.049,225.539,218.619,225.334,215.197,225.064z"/>
</g>
</svg>
