<?xml version="1.0" encoding="utf-8"?>
<!-- Generator: Adobe Illustrator 16.0.0, SVG Export Plug-In . SVG Version: 6.00 Build 0)  -->
<!DOCTYPE svg PUBLIC "-//W3C//DTD SVG 1.1//EN" "http://www.w3.org/Graphics/SVG/1.1/DTD/svg11.dtd">
<svg version="1.1" id="Calque_1" xmlns="http://www.w3.org/2000/svg" xmlns:xlink="http://www.w3.org/1999/xlink" x="0px" y="0px"
	 width="283px" height="283px" viewBox="0 0 283 283" enable-background="new 0 0 283 283" xml:space="preserve">
<g>
	<path fill="#0000FF" d="M0,0v283h283V0H0z M219.574,224.607c-10.368,0.022-20.736,0.006-31.104,0.026
		c-2.649,0.007-2.592-0.459-3.157-2.321c-1.524-5.017-3.024-10.068-5.007-14.902c-1.213-2.955-3.116-5.677-5.031-8.25
		c-2.242-3.012-4.883-5.706-7.25-8.627c-0.768-0.944-1.523-1.271-2.709-1.256c-7.979,0.1-15.959,0.098-23.941,0.151
		c-10.011,0.07-20.021,0.17-30.034,0.256c-1.059,0.007-2.11,0-3.533,0c0.121,1.365,0.191,2.498,0.326,3.614
		c0.334,2.785,0.868,5.558,0.989,8.351c0.082,1.865-0.135,3.843-0.682,5.618c-1.592,5.185-3.407,10.294-5.157,15.424
		c-0.23,0.675-0.604,1.294-0.957,2.037c-11.652,0-23.23,0-35.09,0c1.11-3.048,2.121-5.827,3.14-8.606
		c0.713-1.956,1.367-3.938,2.177-5.855c2.139-5.058,1.953-10.264,1.036-15.518c-0.692-3.97-0.107-7.772,1.252-11.493
		c0.712-1.949,1.445-3.886,2.212-5.931c4.014,0,7.906,0,11.653,0c0.253-0.305,0.394-0.419,0.468-0.573
		c1.906-3.853,1.154-7.224-1.468-10.519c-2.061-2.591-3.761-5.488-5.588-8.273c-0.696-1.063-1.116-2.167-0.944-3.571
		c0.275-2.282-1.25-3.85-2.542-5.446c-1.494-1.85-1.485-1.842-0.312-3.945c0.304-0.546,0.546-1.135,0.761-1.724
		c3.484-9.484,6.958-18.974,10.43-28.466c2.789-7.629,5.59-15.251,8.344-22.891c3.551-9.848,7.051-19.711,10.594-29.558
		c0.61-1.69,1.327-3.345,2.074-5.229c4.417,0,8.757,0.003,13.09,0c6.739-0.002,13.478-0.016,20.216-0.008
		c2.584,0.002,2.572,0.021,3.508,2.57c4.651,12.724,9.303,25.445,13.971,38.16c4.016,10.932,8.029,21.866,12.099,32.774
		c1.792,4.804,3.759,9.533,5.594,14.321c0.771,2.007,1.708,4.021,2.032,6.123c0.618,4.006,2.954,6.747,5.82,9.097
		c3.179,2.601,6.479,5.055,9.832,7.412c2.97,2.093,5.537,4.479,6.996,7.932c0.199,0.479,0.281,1.005,0.48,1.757
		c-2.289,0-4.39,0-6.718,0c1.344,5.516,3.425,10.344,6.961,14.433c2.343,2.71,4.803,5.319,7.121,8.056
		c2.563,3.021,4.688,6.323,5.987,10.166c1.586,4.686,3.33,9.319,5.151,14.392C221.407,224.442,220.491,224.607,219.574,224.607z"/>
	<path fill="#0000FF" d="M147.59,154.901c-0.416-0.635-0.754-1.359-0.979-2.088c-0.614-2.012-0.49-4.214-1.532-6.132
		c-0.464-0.857-0.816-1.795-1.135-2.716c-2.254-6.56-4.518-13.113-6.714-19.69c-2.748-8.216-5.429-16.456-8.162-24.679
		c-0.174-0.521-0.531-0.976-1.038-1.886c-5.718,16.769-11.263,33.045-16.938,49.708c1.528,1.597,3.081,3.188,3.375,5.626
		c0.562,4.669,3,8.424,5.831,11.961c0.786,0.979,1.789,1.88,2.25,3.009c0.724,1.769,1.924,2.138,3.562,2.062
		c3.008-0.146,6.02-0.252,9.028-0.336c8.583-0.245,17.167-0.463,25.748-0.695c0.576-0.017,1.148-0.081,2.201-0.161
		c-0.806-0.701-1.205-1.144-1.684-1.456C156.146,163.997,151.127,160.3,147.59,154.901z"/>
</g>
</svg>
