<?xml version="1.0" encoding="utf-8"?>
<!-- Generator: Adobe Illustrator 16.0.0, SVG Export Plug-In . SVG Version: 6.00 Build 0)  -->
<!DOCTYPE svg PUBLIC "-//W3C//DTD SVG 1.1//EN" "http://www.w3.org/Graphics/SVG/1.1/DTD/svg11.dtd">
<svg version="1.1" id="Calque_1" xmlns="http://www.w3.org/2000/svg" xmlns:xlink="http://www.w3.org/1999/xlink" x="0px" y="0px"
	 width="283px" height="283px" viewBox="0 0 283 283" enable-background="new 0 0 283 283" xml:space="preserve">
<g>
	<path fill="#0000FF" d="M173.198,186.501c-17.317,0.177-34.632,0.392-51.946,0.582c-2.517,0.029-5.032,0.004-7.551,0.004
		c3.291,1.23,61.232,1.06,63.118,0.33C175.859,185.989,174.428,186.489,173.198,186.501z"/>
	<path fill="#0000FF" d="M160.874,158.793c-1.479-3.713-2.864-7.477-4.569-11.08c-1.401-2.961-1.676-6-1.558-9.165
		c0.113-3.085,1.625-5.618,3.027-8.229c1.39-2.59,2.993-5.171,3.767-7.967c1.905-6.895,3.362-13.906,5.051-20.858
		c0.715-2.938,1.564-5.84,2.353-8.758c-0.213-0.062-0.427-0.121-0.636-0.181c-0.797,1.145-1.575,2.305-2.399,3.431
		c-2.914,3.979-5.897,7.908-8.749,11.933c-3.295,4.646-6.261,9.554-9.773,14.017c-3.225,4.088-6.94,7.779-10.517,11.572
		c-3.781,4.013-6.381,8.688-8.157,13.913c-1.376,4.062-2.834,8.095-4.351,12.103c-1.071,2.834-2.302,5.604-3.667,8.904
		c14.626-0.357,28.803-1.007,43.156-1.795C162.77,163.771,161.861,161.269,160.874,158.793z"/>
	<path fill="#0000FF" d="M0,0v283.46h283V0H0L0,0z M185.141,234.262c-4.256-12.493-8.524-25.024-12.769-37.483
		c-21.124,0-42.059,0-62.926,0c-4.423,12.869-8.731,25.404-13.096,38.094c-12.325,0-24.534,0-36.956,0
		c0.952-2.812,1.837-5.604,2.834-8.354c3.961-10.962,7.711-22.017,12.019-32.832c3.263-8.203,6.183-16.562,10.694-24.265
		c4.279-7.297,7.651-15.102,10.224-23.25c1.783-5.646,5.132-10.458,9.335-14.502c5.507-5.297,10.061-11.309,14.214-17.727
		c4.277-6.61,8.658-13.156,13.56-19.332c2.696-3.401,5.02-7.115,7.436-10.74c2.797-4.192,5.516-8.438,8.252-12.677
		c3.823-5.926,6.685-12.321,8.871-19.04c0.383-1.172,0.913-2.294,1.405-3.521c3.464,0,6.66-0.104,9.849,0.021
		c8.076,0.321,16.148,0.759,24.225,1.13c4.597,0.212,4.585,0.202,6.389,4.418c2.557,5.966,4.873,12.048,5.768,18.507
		c0.535,3.854,0.543,7.828,0.355,11.729c-0.27,5.63-1.408,11.139-2.73,16.628c-1.383,5.746-2.27,11.614-3.455,17.415
		c-0.709,3.463-1.637,6.87-3.354,9.994c-0.458,0.834-0.822,1.726-1.328,2.522c-3.443,5.46-3.107,11.122-0.658,16.755
		c3.946,9.085,7.832,18.212,12.209,27.078c1.955,3.955,5.051,7.324,7.646,10.945c0.39,0.539,0.862,1.012,1.468,1.711
		c-2.559,0.869-5.093,0.041-7.857,0.646c5.296,15.413,11.524,30.438,16.839,46.128C210.668,234.262,198.016,234.262,185.141,234.262
		z"/>
</g>
</svg>
