<?xml version="1.0" encoding="utf-8"?>
<!-- Generator: Adobe Illustrator 16.0.0, SVG Export Plug-In . SVG Version: 6.00 Build 0)  -->
<!DOCTYPE svg PUBLIC "-//W3C//DTD SVG 1.1//EN" "http://www.w3.org/Graphics/SVG/1.1/DTD/svg11.dtd">
<svg version="1.1" id="Calque_1" xmlns="http://www.w3.org/2000/svg" xmlns:xlink="http://www.w3.org/1999/xlink" x="0px" y="0px"
	 width="283px" height="283px" viewBox="0 0 283 283" enable-background="new 0 0 283 283" xml:space="preserve">
<g>
	<path fill="#0000FF" d="M0.167,0v283.461H283V0H0.167z M220.445,248.488c-10.729,0.094-21.452,0.148-32.18,0.229
		c-3.219,0.021-3.231,0.055-4.733-2.941c-1.454-2.896-2.791-5.854-4.347-8.689c-1.416-2.59-2.967-5.113-4.629-7.549
		c-1.461-2.137-2.709-4.361-3.713-6.744c-0.293-0.689-0.694-1.334-1.065-2.043c-0.634-0.035-1.192-0.098-1.745-0.088
		c-19.854,0.229-39.711,0.471-59.568,0.723c-0.366,0.006-0.729,0.139-1.182,0.227c-0.243,0.498-0.524,0.984-0.728,1.506
		c-1.985,5.064-3.951,10.141-5.686,15.309c-1.214,3.619-2.799,7.104-4.252,10.74c-0.946,0.451-1.99,0.285-3,0.293
		c-8.191,0.062-16.378,0.092-24.567,0.146c-2.071,0.014-4.143,0.105-6.212,0.129c-1.017,0.01-2.035-0.066-3.277-0.111
		c0.16-0.643,0.221-1.094,0.384-1.504c1.166-2.928,2.386-5.834,3.531-8.771c0.902-2.314,1.664-4.688,2.596-6.994
		c1.714-4.256,3.459-8.494,5.274-12.703c1.302-3.021,1.472-6.082,0.795-9.273c-0.355-1.682-0.53-3.399-0.757-5.105
		c-0.348-2.598-0.035-5.158,0.455-7.699c0.343-1.775,1.198-3.562,1.078-5.293c-0.132-1.879,0.382-3.604,0.43-5.404
		c0.021-0.859-0.059-1.727-0.057-2.59c0.002-1.049,0.061-2.104,0.061-3.15c0.003-2.395-0.041-4.738-1.307-6.93
		c-1.58-2.73-1.304-4.695,0.719-7.086c1.354-1.596,2.72-3.178,4.062-4.781c1.465-1.758,2.815-3.559,3.615-5.779
		c0.593-1.65,1.923-2.824,3.31-3.844c1.765-1.293,3.288-2.854,4.884-4.348c2.126-1.982,3.739-4.309,4.963-6.924
		c0.905-1.934,2.088-3.645,3.557-5.146c2.026-2.08,3.313-4.643,4.57-7.221c0.287-0.592,0.467-1.27,0.551-1.924
		c0.396-3.047,1.235-5.98,2.237-8.857c0.931-2.674,1.294-5.291,0.797-8.156c-0.338-1.934,0.055-3.998,0.134-6.004
		c0.039-0.953,0.206-1.912,0.144-2.854c-0.118-1.732-0.561-3.377-1.457-4.904c-1.588-2.713-3.076-5.486-4.631-8.219
		c-1.002-1.762-1.692-3.631-2.011-5.645c-0.321-2.018,0.01-3.781,1.656-5.186c1.01-0.854,1.86-1.898,2.838-2.801
		c1.774-1.631,3.951-2.562,6.099-3.539c0.769-0.354,1.521-0.752,2.299-1.086c1.891-0.807,3.09-2.145,3.282-4.48
		c-0.681-1.268-1.774-1.844-2.884-2.354c-1.113-0.516-2.274-0.918-3.392-1.422c-0.682-0.309-1.365-0.652-1.972-1.09
		c-0.843-0.605-0.988-1.771-0.232-2.498c0.595-0.578,1.356-1.02,2.104-1.389c1.353-0.668,2.766-1.209,4.128-1.854
		c1.946-0.924,3.339-2.219,3.944-4.532c0.642-2.472,1.748-4.824,2.766-7.181c1.147-2.651,2.032-5.353,1.956-8.442
		c0.716-0.146,1.326-0.375,1.939-0.386c5.27-0.09,10.539-0.125,15.808-0.207c5.269-0.081,10.537-0.174,15.802-0.317
		c2.178-0.062,4.238,0.152,6.344,0.896c5.154,1.817,10.383,3.449,15.315,5.83c3.902,1.879,7.679,4.047,11.466,6.17
		c1.619,0.906,2.726,2.365,3.221,4.201c0.426,1.578,0.131,2.344-1.26,3.121c-0.979,0.551-2.051,0.944-3.105,1.342
		c-1.586,0.595-3.163,1.201-4.548,2.181c-0.251,1.338,0.375,2.146,1.354,2.635c0.92,0.457,1.911,0.797,2.905,1.062
		c3.729,0.994,7.478,1.904,11.196,2.929c0.885,0.239,1.705,0.771,2.537,1.2c1.154,0.604,1.289,1.812,1.548,2.916
		c0.057,0.244-0.079,0.568-0.214,0.812c-0.178,0.332-0.379,0.707-0.672,0.908c-2.432,1.688-4.459,3.777-6.319,6.088
		c-0.571,0.709-1.504,1.133-2.31,1.615c-3.494,2.107-6.762,4.531-9.623,7.477c-1.709,1.758-2.789,3.793-2.502,6.408
		c0.135,1.223,0.154,2.477,0.086,3.707c-0.121,2.133,0.746,3.92,1.752,5.662c0.902,1.564,1.826,3.123,2.8,4.646
		c1.134,1.781,2.53,3.342,4.188,4.627c2.99,2.326,6.072,4.531,9.01,6.936c3.686,3.012,7.629,5.596,11.776,7.869
		c1.655,0.904,3.39,1.652,5.054,2.529c1.334,0.699,2.649,1.445,3.926,2.25c4.275,2.695,5.816,6.807,5.763,11.729
		c-0.021,1.754-0.683,3.182-2.013,4.25c-0.809,0.648-1.655,1.295-2.58,1.736c-3.742,1.793-7.516,3.516-11.288,5.238
		c-1.543,0.705-3.124,1.33-4.664,2.046c-1.69,0.778-2.646,2.056-2.606,4.048c0.017,0.854-0.125,1.725-0.3,2.562
		c-0.711,3.435,0.063,6.479,2.324,9.094c0.991,1.146,2.065,2.229,3.177,3.255c1.78,1.646,3.165,3.55,3.85,5.907
		c0.263,0.908,0.451,1.869,0.486,2.814c0.081,2.201,0.178,4.387,0.406,6.588c0.236,2.25,0.059,4.607-0.348,6.848
		c-0.518,2.906-1.271,5.768-2.416,8.539c-1.116,2.707-2.219,5.521-2.062,8.58c0.044,0.854,0.081,1.758,0.377,2.537
		c1.252,3.305,2.311,6.701,4.161,9.73c1.39,2.271,2.845,4.496,4.282,6.732c1.23,1.922,2.449,3.854,3.705,5.758
		c2.146,3.256,3.669,6.855,5.795,10.363C222.451,248.594,221.424,248.48,220.445,248.488z"/>
	<path fill="#0000FF" d="M156.854,188.859c-4.027-0.055-8.056-0.109-12.085-0.15c-1.868-0.021-3.738,0.041-5.604-0.02
		c-3.267-0.104-6.542-0.498-9.794-0.359c-4.588,0.193-9.138-0.396-13.711-0.344c-1.3,0.016-2.605-0.115-3.904-0.066
		c-1.3,0.053-1.859,0.592-2.105,1.859c-0.09,0.467-0.257,1.051-0.074,1.408c0.626,1.234-0.094,2.225-0.398,3.293
		c-0.29,1.016-0.617,2.018-0.849,3.041c-0.276,1.209-0.515,2.438-0.061,3.625c0.205,0.135,0.361,0.324,0.52,0.326
		c16.431,0.295,32.861,0.59,49.292,0.848c4.024,0.064,8.056,0.012,12.265,0.012c2.164-3.945,2.194-8.312,2.203-13.094
		c-1.173-0.082-2.089-0.188-3.009-0.201C165.309,188.96,161.079,188.914,156.854,188.859z"/>
	<path fill="#0000FF" d="M180.002,128.693c-2.434-1.244-4.955-2.33-7.318-3.695c-3.67-2.123-7.344-4.246-10.613-7.033
		c-2.446-2.086-5.01-4.049-7.656-5.855c-1.738-1.189-3.363-2.479-4.709-4.072c-1.337-1.594-2.584-3.283-3.767-5.004
		c-2.388-3.473-3.933-7.197-2.951-11.578c0.063-0.271,0.062-0.57,0.077-0.854c0.186-2.619,1.178-4.779,3.332-6.336
		c0.918-0.666,1.779-1.416,2.623-2.182c1.837-1.662,3.771-3.17,6.025-4.213c1.391-0.641,2.662-1.549,3.508-2.824
		c1.242-1.863,2.817-3.311,4.629-4.543c0.233-0.16,0.439-0.355,0.646-0.555c1.268-1.191,1.4-2.035,0.617-3.559
		c-0.621-1.205-1.707-1.695-2.891-2.121c-3.73-1.35-7.604-2.146-11.426-3.113c-1.002-0.254-1.984-0.598-2.936-0.992
		c-1.042-0.426-1.627-1.225-1.592-2.521c1.916-1.244,4.039-1.984,6.135-2.793c0.783-0.305,1.566-0.65,2.281-1.092
		c0.89-0.547,1.252-1.465,1.089-2.479c-0.339-2.088-1.453-3.609-3.378-4.604c-0.368,0.721-0.69,1.287-0.961,1.885
		c-0.148,0.342-0.232,0.719-0.321,1.09c-0.642,2.613-2.125,4.395-4.7,5.248c-1.335,0.439-2.609,1.084-3.9,1.67
		c-0.594,0.271-1.211,0.557-1.729,0.957c-1.299,1.016-1.255,2.477,0.154,3.258c1.149,0.637,2.407,1.074,3.618,1.59
		c1.64,0.697,3.312,1.352,4.653,2.836c-0.682,3.186-0.979,3.562-3.399,4.674c-1.2,0.553-2.367,1.174-3.568,1.725
		c-3.335,1.52-5.988,3.918-8.373,6.684c-0.718,0.83-1.184,1.705-1.198,2.824c-0.027,2.531,0.341,5.059,1.593,7.195
		c1.697,2.885,3.144,5.879,4.558,8.896c0.98,2.102,1.462,4.271,1.228,6.654c-0.225,2.27-0.536,4.611,0.289,6.834
		c0.806,2.166,0.643,4.33,0.214,6.514c-0.309,1.6-0.727,3.168-0.978,4.771c-0.35,2.262-0.461,4.537-0.087,6.883
		c0.456,0.121,0.806,0.285,1.163,0.291c13.444,0.342,26.889,0.67,40.332,0.986c0.239,0.006,0.487-0.143,0.792-0.23
		C181.051,129.117,180.456,128.93,180.002,128.693z"/>
</g>
</svg>
