<?xml version="1.0" encoding="utf-8"?>
<!-- Generator: Adobe Illustrator 16.0.0, SVG Export Plug-In . SVG Version: 6.00 Build 0)  -->
<!DOCTYPE svg PUBLIC "-//W3C//DTD SVG 1.1//EN" "http://www.w3.org/Graphics/SVG/1.1/DTD/svg11.dtd">
<svg version="1.1" id="Calque_1" xmlns="http://www.w3.org/2000/svg" xmlns:xlink="http://www.w3.org/1999/xlink" x="0px" y="0px"
	 width="283px" height="283px" viewBox="0 0 283 283" enable-background="new 0 0 283 283" xml:space="preserve">
<g>
	<path fill="#0000FF" d="M152.195,135.128c-1.141-0.68-1.283-1.217-0.795-2.596c0.062-0.18,0.185-0.338,0.234-0.52
		c0.255-0.891,0.031-1.479-0.77-1.896c-0.752-0.396-1.551-0.697-2.291-1.106c-0.516-0.282-0.871-0.729-0.539-1.567
		c0.631-0.328,1.399-0.674,2.106-1.119c0.359-0.225,0.612-0.625,1.101-1.146c-0.816-0.334-1.381-0.645-1.983-0.797
		c-2.278-0.581-4.571-1.104-6.854-1.668c-0.521-0.129-1.083-0.267-1.145-1.065c1.6-1.479,4.227-0.736,5.704-2.455
		c-0.269-1.029-1.052-1.226-1.747-1.456c-0.893-0.3-1.838-0.438-2.727-0.741c-1.476-0.507-2.734-1.254-3.046-3.03
		c-0.186-1.062-0.975-1.555-1.961-1.812c-1.089-0.289-2.18-0.604-3.237-0.994c-0.796-0.297-1.548-0.729-1.678-1.909
		c0.683-0.607,1.424-1.269,2.082-1.854c-0.049-0.993-0.622-1.317-1.261-1.545c-0.889-0.314-1.812-0.536-2.678-0.897
		c-1.972-0.819-2.192-1.15-2.106-3.425c0.04-1.07-0.306-1.833-1.131-2.464c-0.598-0.455-1.16-0.979-1.667-1.533
		c-0.414-0.449-0.361-1.151,0.104-1.547c0.577-0.486,1.225-0.883,1.822-1.349c0.95-0.733,0.904-1.684-0.121-2.278
		c-0.486-0.285-1.046-0.445-1.519-0.753c-1.231-0.794-2.207-1.819-2.419-3.366c-0.233-1.695-1.003-3.047-2.244-4.188
		c-1.213-1.11-1.587-2.541-1.327-4.185c0.103-0.646,0.103-1.329,0.027-1.98c-0.054-0.474-0.312-0.904-1.104-0.646
		c0.013,1.296-0.856,2.161-1.79,2.992c-1.079,0.957-1.662,2.25-1.222,3.594c0.471,1.437,0.083,2.617-0.4,3.854
		c-0.38,0.961-0.827,1.896-1.272,2.907c0.799,0.778,1.527,1.483,2.197,2.136c0.017,0.987-0.428,1.556-1.157,1.934
		c-0.586,0.305-1.167,0.628-1.758,0.917c-1.163,0.562-1.737,1.571-1.562,2.795c0.224,1.565-0.199,2.812-1.187,3.964
		c-0.52,0.604-0.716,1.334-0.469,2c0.645,1.113,2.143,1.067,2.551,2.319c-0.426,1.021-1.301,1.411-2.082,1.919
		c-0.891,0.577-1.208,1.396-0.985,2.408c0.846,1.141,2.602,0.737,3.325,2.204c-0.081,0.308-0.167,0.667-0.269,1.023
		c-0.592,2.054-0.556,2.147,1.191,3.207c0.32,0.194,0.664,0.354,0.963,0.578c0.474,0.347,0.45,1.161-0.058,1.467
		c-0.398,0.24-0.835,0.434-1.274,0.576c-1.167,0.377-2.352,0.681-3.503,1.092c-0.38,0.137-0.676,0.521-1.086,0.854
		c1.626,1.962,4.201,1.459,6.009,2.958c-0.263,0.438-0.404,0.941-0.731,1.158c-0.706,0.469-1.542,0.722-2.249,1.188
		c-0.423,0.273-0.696,0.788-1.091,1.262c0.534,0.637,0.985,1.115,1.364,1.646c0.445,0.619,0.395,1.3-0.102,1.819
		c-0.262,0.273-0.594,0.474-0.866,0.736c-1.329,1.309-1.278,2.182,0.275,3.172c0.537,0.338,1.191,0.562,1.82,0.664
		c0.735,0.125,1.499,0.082,2.253,0.086c9.884,0.063,19.771,0.125,29.655,0.18c3.088,0.02,6.18,0.002,9.271,0.002
		c0.056-0.184,0.111-0.364,0.168-0.551c-0.319-0.115-0.646-0.221-0.961-0.352C153.393,135.677,152.76,135.462,152.195,135.128z"/>
	<path fill="#0000FF" d="M0,0v283.462h283V0H0z M208.814,233.452c0.461,1.047,1.008,2.055,1.535,3.068
		c0.309,0.59,0.704,1.141,0.975,1.746c0.773,1.727,1.502,3.473,2.351,5.441c-1.166,0.066-2.161,0.172-3.159,0.175
		c-10.549,0.026-21.102,0.05-31.65,0.052c-3.297,0.002-3.564,0.555-5.182-3.479c-0.566-1.414-1.348-2.732-1.969-4.131
		c-0.542-1.221-1.01-2.471-1.479-3.723c-0.381-1.025-0.054-1.936,0.729-2.584c2.36-1.97,4.836-3.438,8.124-3.402
		c10.923,0.115,21.85,0.027,32.777,0.037c0.604,0,1.283-0.229,1.986,0.432c-0.527,0.334-0.978,0.609-1.419,0.904
		c-0.938,0.631-1.926,1.207-2.799,1.924C208.339,230.981,208.14,231.927,208.814,233.452z M222.365,203.838
		c-0.646,0.027-1.34-0.01-1.947-0.219c-3.161-1.088-6.458-1.146-9.723-1.438c-3.471-0.312-6.938-0.623-10.41-0.887
		c-3.94-0.293-7.887-0.523-11.832-0.793c-0.745-0.049-1.489-0.111-2.394-0.188c-0.731-2.693-2.756-4.188-5.005-5.461
		c-0.824-0.466-1.627-0.975-2.41-1.5c-1.119-0.763-2.051-1.658-2.289-3.123c-0.348-2.156-1.863-3.265-3.701-3.974
		c-1.322-0.511-2.677-0.919-4.031-1.313c-2.549-0.748-4.957-1.812-7.189-3.266c-0.818-0.531-1.654-0.85-2.652-0.758
		c-0.937,0.084-1.883,0.021-2.822,0.062c-10.534,0.479-21.071,1.002-31.608,1.451c-7.151,0.307-14.305,0.512-21.458,0.766
		c-0.913,0.033-1.822,0.101-2.733,0.147c-0.054,0.185-0.106,0.367-0.157,0.554c1.083,0.877,2.172,1.754,3.165,2.557
		c0.22,1.031-0.298,1.627-0.775,2.203c-0.422,0.51-0.868,1.035-1.398,1.414c-2.153,1.533-3.68,3.541-4.511,6.051
		c-1.147,0.523-2.291,0.35-3.401,0.326c-8.476-0.158-16.951-0.348-25.422-0.516c-2.071-0.041-4.146-0.031-6.217-0.068
		c-0.716-0.014-1.434-0.102-2.352-0.168c0.477-1.574,1.413-2.492,2.394-3.346c0.929-0.812,1.928-1.539,2.895-2.308
		c0.52-0.411,1.07-0.791,1.551-1.245c1.51-1.426,1.786-2.188-0.045-3.628c-2.19-1.72-2.497-3.007-1.276-5.448
		c0.961-1.921,1.406-3.938,1.819-6.018c0.466-2.344,1.162-4.641,1.811-6.938c0.521-1.847,1.168-3.646,1.165-5.607
		c-0.003-1.082,0.267-2.133,1.06-2.896c2.828-2.73,3.417-6.354,3.63-10.004c0.176-2.971,1.159-5.596,2.403-8.186
		c0.165-0.344,0.426-0.637,0.604-0.973c0.757-1.424,0.662-1.81-0.691-2.855c-2.013-1.562-2.037-1.922-0.244-3.702
		c0.269-0.269,0.587-0.5,0.798-0.808c0.347-0.502,0.429-1.045,0.038-1.598c-0.423-0.602-1.282-0.992-1.076-1.9
		c0.223-0.975,1.13-1.186,1.887-1.562c0.646-0.322,1.485-0.479,1.583-1.652c-1.125-1.67-3.558-1.3-4.889-2.665
		c-0.076-0.729,0.336-1.004,0.771-1.15c1.336-0.453,2.694-0.848,4.042-1.271c0.658-0.206,1.219-0.521,1.329-1.521
		c-0.903-0.641-1.876-1.33-2.952-2.093c0.312-1.216,0.614-2.383,0.934-3.625c-1.265-0.635-2.423-1.215-3.531-1.771
		c0.02-1.396,0.832-2.042,1.726-2.604c0.757-0.477,1.39-1.002,1.248-2.271c-0.439-0.351-1.033-0.793-1.593-1.271
		c-0.668-0.573-0.782-1.281-0.343-2.046c0.188-0.327,0.41-0.652,0.675-0.918c0.801-0.803,1.05-1.729,0.929-2.866
		c-0.198-1.85,0.668-3.104,2.293-3.889c0.932-0.449,1.902-0.901,2.095-2.352c-0.512-0.604-1.111-1.312-1.699-2.015
		c-0.044-1.465,0.847-2.558,1.255-3.812c0.202-0.617,0.545-1.396,0.348-1.904c-0.79-2.033,0.061-3.612,1.319-4.917
		c1.125-1.166,1.715-2.462,1.927-3.788c-0.471-1.65-0.941-3.103-1.289-4.58c-0.347-1.495-0.672-2.923-1.704-4.185
		c-0.988-1.2-0.792-2.161,0.271-3.332c0.378-0.416,0.846-0.754,1.307-1.077c0.542-0.383,1.127-0.693,1.675-1.068
		c1.085-0.744,2.157-1.511,3.236-2.271c0.605-1.898,1.241-3.794,1.808-5.706c0.339-1.146-0.139-2.046-1.018-2.772
		c-0.943-0.782-1.878-1.577-2.784-2.403c-0.416-0.379-0.806-0.811-1.113-1.278c-1.987-3.076-0.061-5.146,2.685-5.517
		c2.516-0.342,5.061-0.471,7.594-0.665c7.503-0.575,15.003-1.159,22.509-1.694c2.147-0.15,4.299-0.151,6.66-0.229
		c0,0.646,0.03,1.187-0.006,1.717c-0.056,0.768-0.219,1.522-0.223,2.287c-0.008,1.415,0.52,2.547,1.659,3.471
		c1.594,1.287,3.48,1.917,5.316,2.605c2.023,0.761,4.142,1.268,6.231,1.827c2.572,0.69,4.688,1.939,5.833,4.539
		c0.427,0.96,0.972,1.859,1.431,2.807c0.371,0.771,0.312,1.535-0.354,2.094c-0.869,0.726-1.798,1.363-2.705,2.039
		c-0.958,0.712-1.124,1.422-0.619,2.479c0.523,1.097,1.373,1.874,2.461,2.257c2.598,0.909,4.451,2.775,6.266,4.74
		c0.508,0.551,1.16,0.966,1.738,1.44c0.877,0.719,1.799,1.384,2.611,2.168c0.934,0.899,1.396,2.03,1.083,3.382
		c-0.487,2.104,0.112,3.795,1.913,4.965c1.068,0.693,1.518,1.834,1.597,2.922c0.175,2.464,1.601,3.765,3.567,4.729
		c0.863,0.423,1.691,0.877,1.72,2.212c-0.55,0.367-1.171,0.767-1.771,1.191c-1.39,0.998-1.438,1.906-0.164,2.956
		c0.365,0.301,0.783,0.541,1.143,0.85c0.83,0.714,1.348,1.491,1.053,2.74c-0.279,1.171,0.435,2.027,1.41,2.549
		c0.826,0.438,1.737,0.729,2.602,1.094c0.52,0.222,1.051,0.426,1.541,0.7c0.688,0.394,0.806,1.123,0.276,1.677
		c-0.327,0.341-0.737,0.593-1.075,0.922c-0.744,0.729-0.604,1.608,0.348,2.043c0.597,0.271,1.236,0.457,1.865,0.648
		c0.899,0.275,1.805,0.547,2.719,0.778c1.117,0.285,1.859,0.876,1.876,2.149c0.021,1.256,0.802,1.896,1.856,2.243
		c1.164,0.384,2.365,0.646,3.518,1.052c0.683,0.241,1.3,0.666,2.154,1.116c-0.41,0.419-0.604,0.768-0.887,0.878
		c-0.785,0.31-1.605,0.543-2.421,0.761c-0.901,0.238-1.791,0.493-2.494,0.945c-0.178,0.805,0.277,1.089,0.694,1.192
		c1.818,0.472,3.66,0.854,5.488,1.295c1.065,0.261,2.281,0.218,2.963,1.354c-0.387,1.611-2.432,1.045-3.006,2.541
		c0.148,0.246,0.281,0.638,0.547,0.854c0.431,0.354,0.934,0.642,1.439,0.888c0.754,0.36,1.652,0.476,2.104,1.313
		c0.511,0.942-0.167,1.606-0.531,2.369c-0.308,0.646-0.062,1.364,0.625,1.698c1.183,0.58,2.386,1.159,3.634,1.545
		c1.723,0.53,2.52,1.533,2.93,3.396c0.549,2.49,1.607,4.875,2.537,7.271c0.808,2.089,0.621,4.132-0.1,6.15
		c-0.245,0.69-0.75,1.296-1.166,1.916c-0.156,0.229-0.412,0.396-0.609,0.6c-2.416,2.521-2.397,2.521-2.33,6.078
		c0.037,2.024,0.209,3.993,1.082,5.883c0.515,1.117,0.533,2.347,0.33,3.646c-0.529,3.386,0.75,6.229,3.209,8.431
		c2.053,1.836,4.393,3.274,7.01,4.196c1.779,0.628,3.537,1.312,5.298,1.988c0.702,0.271,1.432,0.521,2.063,0.916
		c0.971,0.61,1.816,1.379,1.93,2.672c0.168,1.889,1.189,3.144,2.771,4.062c1.223,0.711,2.32,1.647,3.553,2.343
		c2.354,1.319,2.924,3.59,3.25,6.008C224.007,202.866,223.209,203.802,222.365,203.838z"/>
</g>
</svg>
