<?xml version="1.0" encoding="utf-8"?>
<!-- Generator: Adobe Illustrator 16.0.0, SVG Export Plug-In . SVG Version: 6.00 Build 0)  -->
<!DOCTYPE svg PUBLIC "-//W3C//DTD SVG 1.1//EN" "http://www.w3.org/Graphics/SVG/1.1/DTD/svg11.dtd">
<svg version="1.1" id="Calque_1" xmlns="http://www.w3.org/2000/svg" xmlns:xlink="http://www.w3.org/1999/xlink" x="0px" y="0px"
	 width="283px" height="283px" viewBox="0 0 283 283" enable-background="new 0 0 283 283" xml:space="preserve">
<g>
	<path fill="#0000FF" d="M126.609,117.643c-0.539,15.628,0.998,30.426,1.913,45.322c0.951,0.114,1.685,0.274,2.423,0.283
		c13.17,0.15,26.342,0.285,39.512,0.401c0.287,0.002,0.576-0.24,1.119-0.482C155.867,148.737,140.734,134.133,126.609,117.643z"/>
	<path fill="#0000FF" d="M0,0v283.462h283V0H0z M224.123,189.513c-1.817,0-3.578,0-5.676,0c1.707,4.478,3.291,8.635,5.014,13.148
		c-6.536,0.799-12.973,0.479-19.372,0.735c-6.38,0.258-12.767,0.412-19.192,0.607c-1.752-4.837-3.4-9.384-5.199-14.353
		c2.631,0,4.92,0,7.42,0c-0.162-1.178-0.27-1.985-0.422-3.076c-1.254,0-2.369,0.021-3.483-0.003
		c-12.33-0.306-24.66-0.618-36.991-0.93c-6.773-0.171-13.552-0.299-20.323-0.547c-1.586-0.061-2.517,0.479-2.912,2.006
		c-0.523,2.021-1.817,2.528-3.79,2.485c-5.737-0.128-11.473-0.046-17.409-0.046c-1.116,3.451-2.196,6.795-3.279,10.139
		c-0.531,1.636-1.084,3.263-1.596,4.899c-0.786,2.518-0.771,2.545-3.266,2.606c-10.539,0.261-21.08,0.502-31.616,0.747
		c-0.921,0.021-1.838,0.003-3.188,0.003c2.132-6.312,4.138-12.242,6.195-18.325c5.651,0,11.203-0.088,16.751,0.045
		c2.068,0.048,3.046-0.736,4.109-2.562c5.297-9.104,6.576-19.033,6.44-29.334c-0.076-5.612-0.121-11.229-0.149-16.846
		c-0.029-5.44-0.204-10.894,0.018-16.327c0.298-7.336,0.666-14.678,3.219-21.704c1.928-5.308,4.041-10.426,7.235-15.146
		c1.561-2.31,3.333-4.672,4.144-7.528c0.623-2.189,2.258-3.089,4.511-3.173c8.652-0.312,17.307-0.718,25.96-1.094
		c3.185-0.141,6.372-0.289,9.803-0.444c0.836,4.188,1.912,8.197,2.039,12.406c0.14,4.531,0.799,8.952,2.992,13.011
		c0.449,0.832,0.771,1.749,1.053,2.66c1.453,4.671,4.195,8.511,7.385,12.076c4.232,4.738,8.266,9.689,12.73,14.193
		c8.072,8.146,16.211,16.247,24.683,23.948c6.534,5.938,12.899,11.979,18.372,18.952c3.554,4.527,6.416,9.438,7.783,15.131
		C224.212,188.327,224.123,188.813,224.123,189.513z"/>
</g>
</svg>
