<?xml version="1.0" encoding="utf-8"?>
<!-- Generator: Adobe Illustrator 16.0.0, SVG Export Plug-In . SVG Version: 6.00 Build 0)  -->
<!DOCTYPE svg PUBLIC "-//W3C//DTD SVG 1.1//EN" "http://www.w3.org/Graphics/SVG/1.1/DTD/svg11.dtd">
<svg version="1.1" id="Calque_1" xmlns="http://www.w3.org/2000/svg" xmlns:xlink="http://www.w3.org/1999/xlink" x="0px" y="0px"
	 width="283px" height="283px" viewBox="0 0 283 283" enable-background="new 0 0 283 283" xml:space="preserve">
<g>
	<path fill="#0000FF" d="M93.609,150.383c0.689,1.591,0.378,3.091-0.155,4.601c2.303-1.34,2.48-1.842,1.512-4.15
		c-0.074-0.174-0.166-0.342-0.245-0.518c-0.48-1.062-0.308-2.062,0.347-2.978c0.503-0.69,1.058-1.33,1.84-1.729
		c0.583-0.301,1.135-0.662,1.688-1.023c1.336-0.879,1.788-2.065,1.438-3.688c-0.396-1.82-0.15-2.354,1.409-3.256
		c1.3-0.761,2.677-1.384,4.022-2.06c1.733-0.871,2.835-1.822,1.178-3.969c-0.058-0.076-0.114-0.15-0.163-0.234
		c-0.771-1.42-0.586-2.305,0.812-3.069c1.069-0.591,2.21-1.041,3.339-1.511c0.876-0.354,1.697-0.762,2.413-1.426
		c0.98-0.904,1.548-1.76,0.919-3.229c-0.551-1.291-0.189-1.933,0.965-2.604c0.566-0.332,1.187-0.563,1.794-0.819
		c0.868-0.361,1.756-0.679,2.613-1.062c2.513-1.127,2.78-1.949,1.02-3.961c-1.899-2.166-1.6-2.764,0.863-3.896
		c0.683-0.312,1.405-0.535,2.105-0.812c0.614-0.238,1.246-0.443,1.83-0.736c1.677-0.838,1.786-2.182,0.21-3.27
		c-0.749-0.521-1.475-1.148-2.444-1.26c-0.056,0.252,0.049,0.463,0.18,0.686c0.679,1.17,0.663,1.662-0.03,2.498
		c-0.562,0.678-1.275,1.127-2.075,1.436c-1.05,0.406-2.128,0.763-3.168,1.188c-0.691,0.281-1.452,0.528-1.999,1.008
		c-1.403,1.229-1.507,1.734-0.443,3.111c0.117,0.146,0.252,0.287,0.351,0.448c0.877,1.408,0.7,2.146-0.767,3.023
		c-0.483,0.291-1.005,0.52-1.522,0.74c-0.865,0.373-1.763,0.672-2.604,1.092c-1.964,0.984-2.22,1.742-1.395,3.834
		c0.653,1.656,0.543,2.146-0.986,3.021c-1.141,0.65-2.383,1.12-3.559,1.716c-0.755,0.381-1.518,0.768-2.181,1.282
		c-0.741,0.574-0.803,1.433-0.318,2.291c0.231,0.408,0.544,0.779,0.756,1.205c0.593,1.166,0.4,1.935-0.697,2.688
		c-0.463,0.32-0.981,0.562-1.484,0.815c-0.925,0.47-1.875,0.888-2.785,1.384c-2.495,1.358-2.78,1.885-1.768,4.483
		c0.636,1.646,0.101,2.771-0.955,3.853c-0.328,0.336-0.751,0.571-1.107,0.881c-0.68,0.592-1.056,1.32-0.925,2.271
		C93.514,149.249,93.393,149.89,93.609,150.383z"/>
	<path fill="#0000FF" d="M122.837,103.687c-0.117-0.099-0.232-0.195-0.357-0.275c-0.021-0.012-0.158,0.117-0.149,0.133
		C122.464,103.815,122.647,103.79,122.837,103.687z"/>
	<path fill="#0000FF" d="M0,0v283.461h283V0H0z M220.473,223.928c-2.255-0.026-4.51-0.229-6.768-0.315
		c-7.713-0.312-15.428-0.637-23.143-0.892c-2.419-0.079-4.641-0.631-6.654-2.021c-1.09-0.752-2.244-1.408-3.313-2.188
		c-4.052-2.951-8.125-5.886-12.103-8.938c-2.17-1.668-4.168-3.572-6.241-5.373c-0.572-0.496-1.147-0.99-1.71-1.5
		c-0.816-0.74-1.74-0.979-2.846-0.951c-4.803,0.131-9.603,0.205-14.403,0.264c-11.962,0.142-23.917,0.255-35.879,0.396
		c-3.009,0.035-6.025,0.115-9.036,0.211c-1.398,0.045-1.585,0.146-1.942,1.576c-0.528,2.129-1.385,4.166-1.597,6.389
		c-0.103,1.068-0.239,2.129,0.197,3.109c0.79,1.771,0.354,3.586,0.319,5.387c-0.012,0.551-0.441,0.826-0.96,0.844
		c-0.752,0.027-1.507,0.025-2.259,0.015c-8.757-0.185-17.518-0.359-26.274-0.56c-1.786-0.041-3.578-0.115-5.363-0.252
		c-1.716-0.129-2.014-0.41-2.08-2.045c-0.053-1.352-0.178-2.678-0.537-3.979c-0.397-1.445-0.261-2.849,0.319-4.222
		c0.78-1.848,1.517-3.717,2.311-5.557c0.766-1.771,1.441-3.537,1.084-5.549c-0.225-1.271,0.209-2.465,0.639-3.646
		c0.632-1.727,1.025-3.483,0.838-5.352c-0.077-0.766,0.003-1.484,0.413-2.207c0.796-1.396,0.464-2.783-0.356-4.062
		c-0.561-0.886-1.189-1.688-2.035-2.354c-1.411-1.111-2.821-2.238-3.987-3.643c-0.632-0.765-1.071-1.576-1.083-2.586
		c-0.027-1.812-0.055-3.625-0.053-5.438c0-0.885,0.268-1.695,0.78-2.42c0.388-0.545,0.746-1.113,1.142-1.646
		c0.917-1.224,1.327-2.584,0.838-4.058c-0.618-1.858-0.119-3.475,1.115-4.754c1.092-1.135,1.22-2.287,0.824-3.668
		c-0.132-0.459-0.19-0.945-0.367-1.385c-0.738-1.859-0.227-3.353,1.192-4.646c0.693-0.631,1.327-1.283,1.547-2.321
		c0.187-0.875,0.261-1.63-0.035-2.503c-0.653-1.953-0.434-2.473,1.276-3.516c0.802-0.49,1.664-0.891,2.494-1.346
		c2.361-1.308,2.756-2.354,1.845-4.89c-0.1-0.271-0.226-0.526-0.312-0.803c-0.167-0.504-0.034-0.947,0.326-1.311
		c0.868-0.88,1.71-1.74,3.01-2.021c0.907-0.19,1.801-0.588,2.616-1.051c1.612-0.912,1.808-1.812,0.914-3.521
		c-0.176-0.341-0.407-0.652-0.542-1.009c-0.314-0.817-0.017-1.817,0.77-2.241c0.829-0.443,1.714-0.783,2.597-1.117
		c0.973-0.367,1.949-0.726,2.786-1.365c0.886-0.681,1.055-1.545,0.452-2.521c-0.347-0.562-0.825-1.047-1.18-1.606
		c-0.465-0.736-0.329-1.568,0.389-2.01c0.715-0.445,1.502-0.789,2.279-1.121c1.3-0.558,2.633-1.037,3.93-1.604
		c0.51-0.223,1.01-0.522,1.425-0.897c0.894-0.816,0.902-1.822,0.052-2.76c-0.512-0.562-1.104-1.052-1.608-1.619
		c-0.66-0.75-0.584-1.549,0.12-2.279c0.679-0.707,1.529-1.086,2.42-1.43c1.23-0.476,2.427-1.037,3.647-1.545
		c1.54-0.638,1.984-1.925,1.983-3.461c0-0.38-0.143-0.755-0.182-1.136c-0.138-1.396,0.43-2.444,1.646-3.057
		c0.839-0.422,1.748-0.693,2.623-1.043c1.311-0.525,2.633-1.031,3.922-1.604c0.927-0.41,1.423-1.184,1.616-2.205
		c0.123-0.646-0.052-1.157-0.517-1.529c-0.439-0.354-0.945-0.618-1.438-0.896c-0.989-0.553-2.013-1.043-2.975-1.639
		c-1.062-0.656-1.101-1.438-0.107-2.273c0.5-0.42,1.098-0.732,1.694-1.01c0.941-0.438,1.9-0.842,2.877-1.188
		c1.924-0.676,2.728-2.194,3.092-4.075c0.09-0.474,0.119-0.955,0.253-1.408c0.576-1.955,1.842-3.306,3.651-4.121
		c1.451-0.655,2.473-1.648,3.045-3.207c0.379-1.028,0.667-1.866-0.027-2.938c-0.585-0.901-0.215-1.315,0.943-1.363
		c0.471-0.021,0.941-0.014,1.413-0.01c12.431,0.022,24.859,0.062,37.29,0.062c0.974,0,1.864,0.13,2.681,0.683
		c0.941,0.64,1.867,1.301,2.838,1.882c1.146,0.688,1.17,1.936,1.439,3.005c0.217,0.873-0.749,1.229-1.238,1.77
		c-0.314,0.354-0.691,0.65-1.043,0.972c-0.623,0.57-0.828,1.232-0.517,2.064c0.333,0.893,0.476,1.864,1.101,2.627
		c0.121,0.147,0.272,0.281,0.348,0.451c1.095,2.479,1.166,2.578-1.102,3.734c-1.007,0.518-2.092,0.875-3.082,1.421
		c-1.064,0.586-1,1.904,0.104,2.484c0.578,0.309,1.23,0.467,1.847,0.691c2.124,0.777,4.247,1.559,6.369,2.34
		c0.536,0.197,1.036,0.436,1.396,0.926c0.733,1.013,0.623,2.066-0.451,2.684c-0.978,0.56-2.039,0.978-3.088,1.388
		c-0.877,0.344-1.778,0.604-2.558,1.172c-0.881,0.639-1.108,1.59-0.507,2.479c0.268,0.391,0.646,0.688,0.966,1.039
		c0.32,0.352,0.688,0.666,0.937,1.062c1.166,1.852,0.873,2.811-1.098,3.771c-1.102,0.534-2.229,1.022-3.302,1.618
		c-0.771,0.434-0.872,1.271-0.306,1.947c0.551,0.658,1.182,1.235,1.943,1.644c0.752,0.397,1.519,0.771,2.248,1.205
		c0.482,0.284,0.971,0.604,1.366,1.002c0.754,0.771,0.576,1.854-0.351,2.403c-0.322,0.193-0.668,0.354-1.01,0.504
		c-1.037,0.459-2.053,0.977-3.119,1.346c-2.183,0.763-2.383,2.438-0.871,3.918c0.338,0.332,0.729,0.613,1.023,0.98
		c0.715,0.897,0.561,1.852-0.453,2.402c-0.994,0.534-2.059,0.934-3.086,1.409c-0.853,0.396-1.738,0.747-2.527,1.254
		c-1.021,0.648-1.158,1.271-0.758,2.441c0.236,0.703,0.821,1.339,0.49,2.158c-0.382,0.957-1.208,1.453-2.055,1.881
		c-0.842,0.427-1.727,0.766-2.588,1.146c-0.688,0.307-1.406,0.566-2.053,0.948c-1.276,0.754-1.436,1.574-0.613,2.845
		c0.207,0.316,0.48,0.594,0.686,0.913c0.949,1.474,0.779,2.373-0.714,3.335c-0.715,0.459-1.512,0.771-2.269,1.163
		c-0.921,0.476-1.853,0.937-2.759,1.439c-0.539,0.303-0.798,0.798-0.695,1.443c0.076,0.473,0.126,0.953,0.239,1.418
		c0.445,1.854-0.233,3.168-1.815,4.098c-0.569,0.334-1.116,0.725-1.625,1.146c-1.501,1.234-1.937,2.061-1.076,3.715
		c1.199,2.303,1.106,4.084-0.943,5.744c-0.536,0.434-0.527,1.219-0.225,1.881c0.51,1.131,0.888,2.354,1.771,3.256
		c0.644,0.66,0.62,1.336,0.313,2.102c-0.391,0.978-0.781,1.949-1.168,2.931c-0.527,1.323-0.617,2.604,0.395,3.766
		c0.061,0.072,0.121,0.15,0.159,0.236c1.646,3.721,4.699,5.469,8.39,6.592c5.776,1.754,11.653,3.026,17.524,4.354
		c3.393,0.767,6.75,1.711,10.108,2.64c3.506,0.969,6.549,2.879,9.41,5.088c0.754,0.584,1.524,1.102,2.337,1.586
		c1.371,0.819,2.68,1.718,3.891,2.822c3.225,2.948,6.805,5.437,10.573,7.606c1.905,1.1,3.591,2.475,5.155,3.99
		c3.478,3.383,7.34,6.277,11.143,9.242c1.639,1.274,3.52,2.233,5.115,3.561c2.869,2.383,6.064,4.187,9.312,5.922
		c0.24,0.129,0.424,0.362,0.961,0.836C224.572,224.338,222.521,223.95,220.473,223.928z"/>
</g>
</svg>
