<?xml version="1.0" encoding="utf-8"?>
<!-- Generator: Adobe Illustrator 16.0.0, SVG Export Plug-In . SVG Version: 6.00 Build 0)  -->
<!DOCTYPE svg PUBLIC "-//W3C//DTD SVG 1.1//EN" "http://www.w3.org/Graphics/SVG/1.1/DTD/svg11.dtd">
<svg version="1.1" id="Calque_1" xmlns="http://www.w3.org/2000/svg" xmlns:xlink="http://www.w3.org/1999/xlink" x="0px" y="0px"
	 width="283px" height="283px" viewBox="0 0 283 283" enable-background="new 0 0 283 283" xml:space="preserve">
<g>
	<path fill="#0000FF" d="M0,0v283.462h283V0H0z M223.195,209.233c-1.084,0.078-1.957,0.211-2.832,0.192
		c-11.279-0.212-22.558-0.438-33.84-0.677c-2.111-0.045-2.156-0.08-2.855-2.332c-2.45-7.914-4.87-15.844-7.346-23.748
		c-0.881-2.807-1.9-5.562-2.926-8.555c-0.957,0-1.979,0.039-3.002-0.006c-11.471-0.502-22.939-1.021-34.411-1.525
		c-2.82-0.125-5.644-0.234-8.467-0.312c-1.082-0.023-2.25-0.312-2.783,1.271c-0.125,0.373-1.299,0.521-1.995,0.527
		c-4.237,0.049-8.477,0.029-12.712,0.033c-0.561,0-1.125,0-1.984,0c-4.035,10.844-8.077,21.696-12.113,32.539
		c-2.214,0.648-34.115,0.25-37.405-0.533c4.083-10.605,8.151-21.166,12.276-31.877c5.377,0,10.722,0,16.437,0
		c1.041-2.881,2.372-5.654,3.031-8.582c1.571-6.996,2.823-14.064,4.204-21.104c0.495-2.508,1.074-5.002,1.49-7.521
		c1.35-8.187,2.481-16.409,4.006-24.562c1.348-7.213,3.05-14.356,4.701-21.512c1.09-4.737,2.359-9.433,3.56-14.144
		c0.044-0.177,0.182-0.323,0.506-0.888c12.314-0.62,24.875-1.255,37.59-1.896c2.175,3.127,4.326,6.351,6.601,9.479
		c6.981,9.602,13.739,19.37,21.655,28.232c6.882,7.701,13.574,15.574,20.35,23.37c4.473,5.146,8.977,10.262,13.402,15.45
		c3.865,4.533,7.726,9.087,11.425,13.765c2.178,2.754,3.966,5.812,4.718,9.664c-4.283,0.42-8.65-0.011-13.427,0.291
		C215.096,185.929,219.08,197.385,223.195,209.233z"/>
	<path fill="#0000FF" d="M129.757,150.848c5.24,0.889,40.997,1.48,43.161,0.706c-13.12-14.25-24.387-30.041-37.811-44.354
		C133.294,121.995,131.524,136.429,129.757,150.848z"/>
</g>
</svg>
