<?xml version="1.0" encoding="utf-8"?>
<!-- Generator: Adobe Illustrator 16.0.0, SVG Export Plug-In . SVG Version: 6.00 Build 0)  -->
<!DOCTYPE svg PUBLIC "-//W3C//DTD SVG 1.1//EN" "http://www.w3.org/Graphics/SVG/1.1/DTD/svg11.dtd">
<svg version="1.1" id="Calque_1" xmlns="http://www.w3.org/2000/svg" xmlns:xlink="http://www.w3.org/1999/xlink" x="0px" y="0px"
	 width="283px" height="283px" viewBox="0 0 283 283" enable-background="new 0 0 283 283" xml:space="preserve">
<g>
	<g>
		<path fill="#0000FF" d="M0.1,0v283.462H283V0H0.1z M212.25,200.333c0.778,5.056-0.727,9.277-4.224,13.035
			c-5.381,5.773-12.011,9.562-19.144,12.206c-6.59,2.438-13.487,4.192-20.604,4.288c-15.598,0.209-31.193,0.346-46.791,0.447
			c-12.887,0.084-25.773,0.08-38.66,0.114c-1.109,0.002-2.22,0-3.621,0c0-4.174,0.001-8.069,0-11.969
			c0-3.936,0.225-7.928-1.397-11.621c-1.306-2.975-2.948-5.785-4.281-8.744c-0.933-2.071-1.934-4.215-2.301-6.43
			c-0.556-3.365-0.59-6.82-0.877-10.693c3.721,0,6.804,0,10.043,0c0.255-3.631-0.439-6.618-2.989-9.021
			c-2.555-2.406-5.111-4.816-7.587-7.309c-3.211-3.231-5.577-6.976-6.334-11.619c-0.091-0.56-0.207-1.232-0.56-1.604
			c-1.569-1.632-1.387-3.649-1.388-5.653c-0.021-21-0.048-42.005-0.07-63.01c-0.011-9.189-0.029-18.386-0.034-27.575
			c-0.002-0.47,0.079-0.938,0.152-1.738c3.245,0,6.428,0.019,9.612-0.002c21.897-0.129,43.796-0.271,65.694-0.396
			c8.827-0.055,17.61,0.262,26.288,2.203c5.09,1.145,10.049,2.784,14.488,5.423c5.936,3.523,10.545,8.601,13.389,15.099
			c2.513,5.751,3.642,11.798,3.674,18.115c0.021,4.809-0.082,9.535-1.373,14.22c-2.297,8.295-7.113,14.614-14.039,19.381
			c-2.02,1.386-4.062,2.729-6.26,4.205c2.5,1.116,4.856,2.172,7.216,3.229c4.887,2.191,8.967,5.467,12.577,9.459
			c1.611,1.779,3.033,3.604,3.854,5.881c0.161,0.444,0.502,0.908,0.456,1.328c-0.356,3.246,1.748,5.15,3.785,6.938
			c2.919,2.559,6.048,4.86,9.065,7.301c2.871,2.314,5.746,4.619,8.561,7.01c2.332,1.979,2.959,4.715,3.095,8.054
			c-3.254,0-6.396,0-9.454,0C211.014,187.629,211.273,193.976,212.25,200.333z"/>
		<path fill="#0000FF" d="M140.849,150.314c1.159,0.004,2.309-0.428,3.468-0.654c-4.175-1.262-41.443-1.195-45.547-0.162
			c0.963,0.202,1.452,0.39,1.943,0.396c3.917,0.086,7.835,0.162,11.751,0.201C121.928,150.189,131.387,150.288,140.849,150.314z"/>
		<path fill="#0000FF" d="M177.159,169.722c-5.407-3.619-10.989-6.861-17.157-9.123c-5.912-2.168-11.887-3.479-18.138-3.474
			c-9.582,0.011-19.162,0.07-28.745,0.179c-3.497,0.041-6.996,0.268-10.998,0.43c0.932,1.547,1.413,2.721,2.206,3.602
			c2.411,2.672,4.839,5.349,7.453,7.808c3.347,3.147,6.806,6.133,5.806,11.778c-3.043,0-6.204,0-9.455,0
			c-0.86,7.312-0.042,13.949,4.384,20.039c0.872,0,1.898,0.004,2.923,0c10.616-0.024,21.231-0.071,31.847-0.069
			c4.605,0.002,9.223,0.11,13.723-1.043c1.78-0.457,3.554-1.188,5.155-2.109c4.438-2.549,6.041-7.1,7.485-11.688
			c0.508-1.612,0.847-3.28,1.32-5.155c3.287-0.002,6.455-0.002,10.145-0.002c-0.6-1.91-0.975-3.457-1.572-4.906
			C182.307,172.993,179.635,171.377,177.159,169.722z"/>
	</g>
	<path fill="#0000FF" d="M113.387,123.072c8.162-0.076,16.322-0.188,24.483-0.318c3.999-0.061,7.795-1.032,11.366-2.858
		c3.812-1.949,6.751-4.763,8.263-8.945c1.365-3.766,1.648-7.691,1.24-11.598c-0.297-2.826-1.185-5.556-2.828-8.011
		c-3.338-4.983-8.278-6.895-13.771-7.928c-4.84-0.912-9.712-0.717-14.597-0.662c-9.019,0.103-18.043,0.049-27.064,0.084
		c-0.613,0.002-1.226,0.209-1.777,0.312c-0.521,4.438-0.146,37.744,0.546,39.934C103.874,123.08,108.631,123.117,113.387,123.072z"
		/>
</g>
</svg>
