<?xml version="1.0" encoding="utf-8"?>
<!-- Generator: Adobe Illustrator 16.0.0, SVG Export Plug-In . SVG Version: 6.00 Build 0)  -->
<!DOCTYPE svg PUBLIC "-//W3C//DTD SVG 1.1//EN" "http://www.w3.org/Graphics/SVG/1.1/DTD/svg11.dtd">
<svg version="1.1" id="Calque_1" xmlns="http://www.w3.org/2000/svg" xmlns:xlink="http://www.w3.org/1999/xlink" x="0px" y="0px"
	 width="283px" height="283px" viewBox="0 0 283 283" enable-background="new 0 0 283 283" xml:space="preserve">
<g>
	<g>
		<path fill="#0000FF" d="M148.131,130.974c3.793-0.066,7.543-1.062,10.877-3.479c2.947-2.135,4.078-4.729,3.988-8.269
			c-0.076-3.25-1.167-6.196-2.303-9.111c-2.624-6.764-7.158-11.604-14.168-13.684c-4.727-1.405-9.591-1.878-14.492-1.711
			c-7.893,0.271-15.781,0.672-23.668,1.022c-3.654,0.163-7.302,0.348-11.19,0.533c1.887,12.268,6.988,23.258,11.089,34.789
			C121.802,131.067,134.97,131.216,148.131,130.974z"/>
		<path fill="#0000FF" d="M0,0v283.462h283V0H0z M227.434,179.626c-5.541,0-10.897,0-16.192,0c-1.187,3.25-2.25,6.396-3.481,9.467
			c-0.703,1.757-1.535,3.492-2.551,5.074c-3.367,5.246-7.664,9.67-12.689,13.209c-2.812,1.984-6.059,3.422-9.247,4.764
			c-8.04,3.386-16.417,5.416-25.163,5.509c-6.193,0.062-12.387,0.067-18.578-0.023c-17.116-0.27-34.224-0.606-51.34-0.908
			c-5.073-0.088-10.146-0.141-15.22-0.2c-1.021-0.015-2.041-0.005-3.396-0.005c-0.084-12.358,0.333-24.45,0.589-36.771
			c5.433,0,10.582,0,15.789,0c0.852-2.666,0.249-5.115-0.118-7.529c-0.226-1.504-0.726-2.979-1.262-4.41
			c-2.659-7.062-5.439-14.073-8.042-21.155c-2.637-7.177-5.08-14.423-7.68-21.608c-1.458-4.044-3.116-8.017-4.596-12.054
			c-3.038-8.292-4.625-16.979-6.454-25.586c-1.008-4.757-1.562-9.617-2.301-14.437c-0.069-0.453-0.009-0.927-0.009-1.504
			c1.905-0.197,3.662-0.434,5.43-0.557c8.909-0.627,17.82-1.232,26.731-1.834c11.351-0.768,22.702-1.521,34.054-2.278
			c5.528-0.368,11.06-1.058,16.584-1.015c8.691,0.063,17.444,0.008,25.903,2.599c12.263,3.756,21.052,11.663,26.633,23.351
			c3.814,7.991,5.757,16.525,6.939,25.268c0.863,6.38-1.168,11.891-5.25,16.634c-1.279,1.49-2.93,2.654-4.436,3.941
			c-0.771,0.657-1.587,1.262-2.581,2.043c6.242,1.812,11.962,4.166,17.198,7.483c6.299,3.998,12.436,8.271,16.82,14.611
			c1.886,2.729,3.992,5.309,5.748,8.121C227.077,172.7,227.815,176.643,227.434,179.626z"/>
	</g>
	<path fill="#0000FF" d="M179.535,161.09c-6.255-4.041-13.271-5.871-20.579-6.2c-9.108-0.412-18.237-0.418-27.356-0.636
		c-4.764-0.112-9.526-0.305-14.816-0.479c1.471,4.153,2.737,7.947,4.153,11.684c1.703,4.482,3.037,9.011,2.453,14.217
		c-5.287,0-10.5,0-15.814,0c0,2.746,0,5.177,0,7.726c0.742,0.07,1.287,0.162,1.839,0.172c3.758,0.062,7.519,0.094,11.276,0.168
		c9.399,0.193,18.797,0.451,28.197,0.592c4.347,0.062,8.595-0.742,12.738-2.061c2.834-0.896,5.432-2.396,7.289-4.672
		c1.338-1.64,2.689-1.979,4.562-1.955c5.544,0.082,11.09,0.03,16.773,0.03c0.519-3.245,0.383-4.633-0.455-6.829
		C187.814,167.624,184.024,163.987,179.535,161.09z"/>
</g>
</svg>
