<?xml version="1.0" encoding="utf-8"?>
<!-- Generator: Adobe Illustrator 16.0.0, SVG Export Plug-In . SVG Version: 6.00 Build 0)  -->
<!DOCTYPE svg PUBLIC "-//W3C//DTD SVG 1.1//EN" "http://www.w3.org/Graphics/SVG/1.1/DTD/svg11.dtd">
<svg version="1.1" id="Calque_1" xmlns="http://www.w3.org/2000/svg" xmlns:xlink="http://www.w3.org/1999/xlink" x="0px" y="0px"
	 width="283px" height="283px" viewBox="0 0 283 283" enable-background="new 0 0 283 283" xml:space="preserve">
<g>
	<path fill="#0000FF" d="M178.641,104.752c-4.791-1.467-9.752-1.979-14.713-2.397c-2.621-0.226-5.252-0.315-7.877-0.438
		c-5.543-0.248-11.088-0.479-16.63-0.708c-3.381-0.138-6.768-0.262-10.149-0.357c-0.328-0.015-0.662,0.189-1.096,0.329
		c0.99,3.358,0.625,6.544-0.389,9.693c-0.291,0.907-0.547,1.831-0.736,2.77c-0.493,2.453-1.252,4.8-2.484,6.979
		c-0.175,0.303-0.218,0.684-0.364,1.175c1.989,0.366,3.849,0.479,5.703,0.576c9.301,0.519,18.599,0.938,27.892,1.545
		c6.325,0.414,12.57,0.217,18.789-1.19c2.144-0.486,4.11-1.328,6.078-2.201c0.922-0.407,1.773-1.104,2.508-1.822
		c2.752-2.692,2.901-6.812,0.436-9.823C183.771,106.643,181.258,105.557,178.641,104.752z"/>
	<path fill="#0000FF" d="M164.867,139.504c-3.21-1.477-6.621-2.178-10.107-2.43c-4.412-0.32-8.832-0.52-13.249-0.76
		c-6.296-0.34-12.593-0.674-18.891-0.994c-3.381-0.172-6.768-0.287-10.15-0.48c-0.948-0.053-1.625,0.326-2.234,0.98
		c-1.166,1.252-2.317,2.514-3.513,3.738c-2.65,2.727-4.941,5.762-7.249,8.776c-1.074,1.404-1.558,2.98-1.41,4.822
		c0.144,1.808,0.075,3.625-0.326,5.435c-0.618,2.793-1.125,5.61-1.623,8.432c-0.508,2.854-0.468,5.688,0.343,8.596
		c0.78-0.047,1.429-0.043,2.064-0.137c3.53-0.521,7.046-1.15,10.585-1.584c4.852-0.592,9.719-1.062,14.584-1.543
		c2.998-0.302,5.993-0.627,8.999-0.777c3.774-0.188,7.48-0.711,11.096-1.832c2.155-0.668,4.414-1.146,6.42-2.141
		c4.229-2.095,8.302-4.492,11.578-8.06c1.653-1.795,2.938-3.834,3.123-6.28c0.125-1.689,0.56-3.164,1.321-4.617
		c0.531-1.016,0.971-2.078,1.408-3.141c0.494-1.201,0.431-2.369-0.09-3.604C167.004,140.629,165.987,140.021,164.867,139.504z"/>
	<path fill="#0000FF" d="M0,0v283.462h283V0H0z M224.078,111.585c-0.162,0.748-0.438,1.477-0.554,2.229
		c-0.459,2.923-2.022,5.052-4.298,6.829c-3.129,2.448-6.672,3.896-10.445,4.861c-5.104,1.312-10.198,2.681-15.418,3.457
		c-0.727,0.109-1.423,0.418-2.555,0.767c1.088,0.393,1.766,0.688,2.468,0.879c2.75,0.756,5.258,2.043,7.7,3.504
		c1.68,1.004,2.882,2.496,3.691,4.217c1.178,2.504,0.698,5.047-0.369,7.488c-0.574,1.309-1.246,2.574-1.84,3.873
		c-0.568,1.235-0.809,2.524-0.604,3.916c0.215,1.442-0.14,2.819-0.623,4.192c-0.86,2.447-2.021,4.711-3.374,6.924
		c-2.332,3.81-4.488,7.729-6.626,11.65c-0.539,0.986-0.779,2.158-1.062,3.271c-0.488,1.932-1.602,3.459-2.968,4.791
		c-0.946,0.922-2.024,1.67-2.455,3.047c-0.12,0.389-0.646,0.654-1.001,0.959c-3.477,2.967-7.49,4.742-11.943,5.477
		c-5.664,0.937-11.358,1.521-17.092,1.812c-3.852,0.19-7.689,0.647-11.539,0.922c-4.508,0.312-9.019,0.549-13.525,0.824
		c-9.019,0.547-18.034,1.11-27.053,1.637c-4.979,0.289-9.965,0.465-14.947,0.766c-1.191,0.07-2.189-0.16-3.196-0.812
		c-4.199-2.738-8.486-5.349-12.636-8.16c-2.267-1.535-4.57-3.154-6.402-5.164c-2.153-2.367-3.866-5.166-5.658-7.854
		c-0.507-0.761-0.763-1.775-0.875-2.712c-0.394-3.342-0.482-6.666,0.38-9.989c1.057-4.076,2.003-8.191,1.604-12.479
		c-0.144-1.514,0.423-2.854,1.284-4.02c1.638-2.224,3.265-4.461,5.061-6.543c3.104-3.604,6.297-7.123,9.53-10.606
		c1.548-1.664,3.144-3.34,4.945-4.697c4.396-3.312,6.926-7.719,8.08-13.078c0.384-1.773,0.95-3.512,1.411-5.271
		c1.026-3.923,0.312-7.429-2.527-10.355c-1.615-1.658-2.812-3.551-3.712-5.704c-0.508-1.214-1.289-2.336-2.095-3.384
		c-1.04-1.353-2.223-2.587-3.765-4.354c3.003-0.039,5.427-0.064,7.854-0.104c7.997-0.133,15.997-0.305,23.995-0.396
		c9.978-0.114,19.957-0.141,29.936-0.255c5.833-0.068,11.667-0.265,17.501-0.357c1.309-0.021,2.618,0.132,3.929,0.188
		c1.688,0.066,3.375,0.166,5.065,0.171c5.676,0.018,11.229,1.101,16.802,1.999c5.108,0.82,10.198,1.806,15.149,3.312
		c3.047,0.932,6.053,2.076,8.828,3.751c2.83,1.708,5.715,3.319,8.551,5.022c1.21,0.729,2.393,1.524,3.513,2.394
		C223.889,103.26,225.062,107.043,224.078,111.585z"/>
</g>
</svg>
