<?xml version="1.0" encoding="utf-8"?>
<!-- Generator: Adobe Illustrator 16.0.0, SVG Export Plug-In . SVG Version: 6.00 Build 0)  -->
<!DOCTYPE svg PUBLIC "-//W3C//DTD SVG 1.1//EN" "http://www.w3.org/Graphics/SVG/1.1/DTD/svg11.dtd">
<svg version="1.1" id="Calque_1" xmlns="http://www.w3.org/2000/svg" xmlns:xlink="http://www.w3.org/1999/xlink" x="0px" y="0px"
	 width="283px" height="283px" viewBox="0 0 283 283" enable-background="new 0 0 283 283" xml:space="preserve">
<g>
	<path fill="#0000FF" d="M188.576,168.076c-4.989,0-10.061,0-15.578,0c-1.799-3.844-3.484-7.563-5.277-11.238
		c-2.117-4.33-4.811-8.17-8.922-10.848c-5.911-3.852-12.419-5.307-19.318-5.238c-9.576,0.097-19.153,0.238-28.729,0.406
		c-3.725,0.062-7.448,0.254-11.408,0.396c0,1.271-0.142,2.321,0.022,3.323c0.664,4.062,1.16,8.183,2.226,12.14
		c0.861,3.188,2.469,6.168,3.721,9.254c0.637,1.569,1.786,1.926,3.375,1.896c5.169-0.09,10.345-0.035,15.517-0.014
		c0.804,0.002,1.611,0.117,2.694,0.201c-0.429,12.272-0.842,24.28-1.263,36.401c5.411,0.429,10.445,0.854,15.484,1.207
		c7.213,0.513,14.438,0.865,21.642,1.478c5.275,0.442,10.473,0.489,15.643-0.92c5.795-1.578,10-5.15,12.662-10.498
		c2.547-5.121,2.778-10.688,2.021-16.271C192.519,175.574,191.604,171.466,188.576,168.076z"/>
	<path fill="#0000FF" d="M112.023,90.734c4.86,5.195,5.491,17.031,1.817,22.422c-0.551,0.809-0.88,1.775-1.453,2.961
		c1.41,0,2.348,0.012,3.282-0.002c11.541-0.184,23.089-0.225,34.628-0.619c6.406-0.217,12.594-1.66,18.385-4.779
		c5.609-3.021,10.467-11.971,3.516-19.657c-2.836-3.146-6.35-5.324-9.951-7.427c-9.069-5.28-18.92-7.223-29.209-7.034
		c-7.416,0.135-14.827,0.612-22.239,0.944c-3.437,0.154-6.874,0.322-11.032,0.521c1.504,1.563,2.518,2.635,3.542,3.688
		C106.213,84.746,109.171,87.688,112.023,90.734z"/>
	<path fill="#0000FF" d="M0.494,0v283.461H283V0H0.494z M229.133,199.82c-0.842,4.439-1.814,8.824-3.45,12.973
		c-2.231,5.662-4.603,11.357-9.032,15.697c-1.869,1.83-4.024,3.406-6.213,4.84c-10.002,6.56-21.184,8.49-32.804,8.201
		c-5.714-0.145-11.413-0.848-17.118-1.344c-4.673-0.402-9.341-0.896-14.012-1.312c-8.508-0.762-17.014-1.502-25.52-2.246
		c-9.446-0.819-18.89-1.641-28.333-2.469c-0.927-0.082-1.849-0.242-2.583-0.338c-2.937-21.85-0.891-43.566-0.442-65.447
		c-1.024-0.104-1.736-0.233-2.447-0.239c-5.172-0.031-10.348-0.146-15.513-0.007c-1.922,0.058-2.906-0.776-3.776-2.305
		c-2.257-3.957-3.368-8.303-4.312-12.717c-1.087-5.078-1.5-10.211-1.644-15.412c-0.124-4.549,1.447-8.24,4.306-11.492
		c2.007-2.281,4.152-4.432,6.202-6.678c2.463-2.699,4.537-5.812,5.536-9.262c2.068-7.146,1.556-14.162-3.522-20.006
		c-3.421-3.937-7.303-7.451-10.951-11.188c-2.121-2.172-4.22-4.371-6.272-6.609c-3.883-4.229-4.863-9.196-3.173-14.639
		c0.493-1.586,1.605-2.996,2.558-4.396c0.528-0.772,1.403-1.295,1.979-2.039c2.124-2.741,4.811-3.741,8.268-3.916
		c10.954-0.551,21.89-1.448,32.83-2.237c11.97-0.86,23.937-1.771,35.906-2.617c4.494-0.317,9.019-0.899,13.492-0.662
		c5.261,0.279,10.646-0.188,15.763,1.646c1.939,0.694,4.006,1.192,5.76,2.229c2.508,1.48,4.359,3.557,5.011,6.732
		c0.485,2.375,1.462,4.74,2.649,6.854c3.487,6.197,8.192,11.322,13.564,15.933c5.165,4.43,10.197,9.065,14.904,14
		c5.043,5.287,5.266,11.688,1.054,17.756c-1.175,1.688-2.649,3.272-4.276,4.518c-5.9,4.5-12.354,7.976-19.377,10.312
		c-1.41,0.471-2.779,1.08-4.736,1.844c5.434,2.432,8.838,6.463,12.324,10.478c5.863,6.762,9.846,14.596,13.188,22.854
		c1.211,2.994,2.622,5.912,4,8.836c0.744,1.582,1.883,2.348,3.79,2.256c3.751-0.18,7.521-0.051,11.28-0.049c0.927,0,1.855,0,3.105,0
		c0.838,3.055,1.988,5.932,2.385,8.914C230.488,184.643,230.574,192.207,229.133,199.82z"/>
</g>
</svg>
