<?xml version="1.0" encoding="utf-8"?>
<!-- Generator: Adobe Illustrator 16.0.0, SVG Export Plug-In . SVG Version: 6.00 Build 0)  -->
<!DOCTYPE svg PUBLIC "-//W3C//DTD SVG 1.1//EN" "http://www.w3.org/Graphics/SVG/1.1/DTD/svg11.dtd">
<svg version="1.1" id="Calque_1" xmlns="http://www.w3.org/2000/svg" xmlns:xlink="http://www.w3.org/1999/xlink" x="0px" y="0px"
	 width="283px" height="283px" viewBox="0 0 283 283" enable-background="new 0 0 283 283" xml:space="preserve">
<g>
	<path fill="#0000FF" d="M179.62,207.056c-0.389-0.277-0.795-0.521-1.173-0.804c-2.553-1.896-4.714-4.063-4.818-7.426
		c-1.328-1.246-2.769-1.979-4.291-2.479c-4.312-1.418-8.705-2.41-13.27-2.408c-11.859,0.004-23.719,0.014-35.576,0.028
		c-1.59,0.003-3.18,0.063-4.776,0.101c0.054,0.914,0.069,1.684,0.144,2.44c0.134,1.365-0.322,2.438-1.443,3.214
		c-0.311,0.215-0.61,0.444-0.92,0.67c-0.575,0.414-0.825,0.987-0.928,1.692c-0.224,1.517,0.013,2.855,1.139,3.961
		c0.407,0.396,0.716,0.924,1.167,1.244c1.778,1.271,1.985,3.198,2.002,5.116c0.034,4.103-0.127,8.204-0.078,12.31
		c0.018,1.31-0.184,2.509-0.82,3.574c-1.994,3.346-2.004,7.092-2.443,11.109c0.953,0.051,1.503,0.123,2.051,0.102
		c3.664-0.147,7.326-0.373,10.99-0.472c9.403-0.257,18.808-0.452,28.212-0.698c1.028-0.022,2.065-0.151,3.073-0.354
		c2.958-0.573,5.896-1.234,8.854-1.812c2.145-0.41,4.113-1.254,6.076-2.181c2.769-1.304,4.978-3.432,7.504-5.082
		c1.769-1.153,2.689-2.888,3.061-4.964c0.683-3.812,0.502-7.594-0.084-11.418C182.887,209.999,181.514,208.407,179.62,207.056z"/>
	<path fill="#0000FF" d="M119.832,139.561c1.125,2.312,1.821,4.615,1.786,7.137c-0.042,2.965,0.083,5.941-0.519,8.881
		c-0.401,1.959-0.722,3.938-1.075,5.906c-0.201,1.129-0.399,2.257,0.038,3.514c0.526,0.084,1.067,0.238,1.607,0.243
		c4.516,0.032,9.029,0.06,13.542,0.05c5.083-0.012,10.164-0.035,15.246-0.1c4.501-0.055,8.995,0.199,13.475-0.859
		c4.029-0.955,7.625-2.625,10.754-5.3c1.895-1.614,3.423-3.653,4.316-5.97c0.918-2.388,1.369-4.957,2.016-7.451
		c0.595-2.293-0.154-4.387-1.151-6.34c-1.452-2.838-3.448-5.246-6.131-7.006c-2.214-1.457-4.407-2.949-6.619-4.41
		c-1.837-1.211-3.474-2.655-4.758-4.459c-2.373-3.336-2.917-6.974-1.58-10.897c0.397-1.171,0.683-2.389,0.924-3.604
		c0.445-2.249,0.729-4.534,1.252-6.764c0.416-1.76,1.354-3.422,1.583-5.19c0.355-2.729,1.415-5.146,2.456-7.612
		c1.373-3.254,2.731-6.519,3.169-10.079c0.348-2.842,1.154-5.599,1.352-8.479c0.181-2.661,0.684-5.299,1.031-7.948
		c0.075-0.567,0.094-1.146,0.121-1.722c0.221-4.373-1.478-8.211-3.238-12.03c-0.117-0.253-0.312-0.489-0.524-0.672
		c-1.66-1.406-3.267-2.937-5.37-3.628c-1.877-0.619-3.775-1.284-5.711-1.57c-3.346-0.494-6.713-0.844-10.12-0.751
		c-4.139,0.11-8.282,0.075-12.421,0.136c-6.586,0.094-13.173,0.205-19.759,0.331c-0.524,0.011-1.044,0.188-1.466,0.272
		c-0.326,3.261-0.7,6.289-0.918,9.33c-0.3,4.197-0.497,8.396-1.119,12.576c-0.701,4.723-0.78,9.526-1.754,14.229
		c-0.816,3.939-1.463,7.915-3.389,11.521c-0.491,0.918-0.792,1.946-1.122,2.943c-0.655,1.993-1.315,3.979-2.146,5.917
		c-0.665,1.555-0.974,3.294-1.26,4.981c-0.398,2.357-0.603,4.744-1.596,6.974c-0.384,0.861-0.674,1.807-0.807,2.742
		c-0.332,2.284-0.596,4.639,0.659,6.722c1.631,2.708,3.485,5.229,6.297,6.854c1.718,0.993,3.358,2.127,5.014,3.227
		C115.183,133.365,118.033,135.857,119.832,139.561z"/>
	<path fill="#0000FF" d="M0,0v283.462h283V0H0z M220.797,225.111c0.041,1.252-0.572,2.393-1.391,3.375
		c-1.096,1.315-1.961,2.768-2.743,4.318c-0.981,1.942-2.366,3.672-3.548,5.512c-1.083,1.684-2.107,3.401-3.193,5.078
		c-0.979,1.508-1.893,3.08-3.053,4.431c-1.292,1.509-2.761,2.884-4.281,4.155c-2.676,2.24-5.297,4.576-8.438,6.158
		c-1.513,0.76-2.976,1.631-4.521,2.312c-6.568,2.903-13.308,5.132-20.451,6.186c-4.855,0.717-9.697,0.971-14.578,1.122
		c-8.842,0.277-17.679,0.72-26.519,1.039c-8.18,0.3-16.364,0.507-24.543,0.798c-7.427,0.264-14.851,0.594-22.275,0.879
		c-1.219,0.047-2.44,0.006-3.792,0.006c-0.147-0.588-0.381-1.109-0.4-1.646c-0.125-3.354-0.204-6.709-0.301-10.062
		c-0.145-5.08-0.195-10.17-0.47-15.244c-0.205-3.771,0.196-7.478,0.819-11.156c0.218-1.287,0.888-2.516,1.476-3.705
		c0.472-0.961,0.865-1.901,0.869-2.996c0.02-4.793,0.044-9.586,0.08-14.375c0.01-1.438-0.582-2.602-1.512-3.608
		c-0.514-0.56-1.09-1.06-1.615-1.605c-1.159-1.223-1.27-2.731-1.049-4.301c0.049-0.35,0.278-0.717,0.521-0.982
		c0.316-0.35,0.716-0.62,1.107-0.888c1.952-1.329,1.847-3.493,1.082-5.104c-0.286-0.601-0.68-1.148-1.027-1.72
		c-1.486-2.438-1.072-5.438,1.019-7.282c0.353-0.314,0.74-0.597,1.129-0.859c0.629-0.424,1.268-0.824,1.907-1.229
		c2.479-1.562,3.286-4.227,2.039-6.928c-0.315-0.688-0.756-1.33-1.226-1.924c-1.481-1.854-1.447-3.994-0.7-5.979
		c0.79-2.103,1.226-4.214,1.441-6.412c0.085-0.855,0.238-1.709,0.425-2.55c0.898-4.036,1.221-8.125,1.313-12.266
		c0.131-6.071-2.452-10.743-6.96-14.373c-2.351-1.895-4.989-3.426-7.525-5.077c-1.754-1.143-3.378-2.422-4.799-3.983
		c-2.638-2.906-3.487-6.266-2.543-10.097c0.114-0.465,0.265-0.923,0.439-1.365c1.052-2.689,1.664-5.488,2.052-8.35
		c0.116-0.854,0.225-1.729,0.513-2.53c1.387-3.863,2.719-7.76,4.295-11.545c1.222-2.934,2.312-5.854,2.739-9.029
		c0.369-2.753,1.041-5.469,1.338-8.228c0.675-6.189,1.203-12.396,1.783-18.599c0.09-0.954,0.005-1.944,0.23-2.861
		c0.894-3.604,0.45-7.262,0.475-10.896c0.005-0.719-0.369-1.448-0.614-2.157c-0.185-0.539-0.51-1.03-0.657-1.575
		c-0.401-1.477-0.167-2.102,1.134-2.869c0.892-0.527,1.864-0.912,2.776-1.41c1.318-0.719,1.488-2.363,0.324-3.322
		c-0.506-0.418-1.119-0.7-1.689-1.034c-1.142-0.67-2.328-1.271-3.421-2.013c-1.369-0.928-1.467-2.219-0.326-3.363
		c0.469-0.469,1.016-0.852,1.525-1.277c1.41-1.191,1.697-2.051,1.13-3.771c-0.204-0.62-0.568-1.2-0.929-1.75
		c-0.352-0.545-0.798-1.021-1.577-1.992c3.701-0.124,6.792-0.293,9.883-0.318c12.606-0.109,25.212-0.146,37.818-0.27
		c9.501-0.096,19-0.273,28.501-0.434c2.353-0.037,4.711-0.3,7.049-0.152c5.53,0.349,11.067,0.724,16.567,1.396
		c3.148,0.387,6.228,1.376,9.336,2.096c1.102,0.254,2.242,0.395,3.287,0.793c2.369,0.903,4.69,1.938,7.058,2.935
		c0.13,0.646,0.347,1.198,0.335,1.748c-0.038,1.769,0.891,2.896,2.302,3.632c1.167,0.607,2.409,1.068,3.64,1.535
		c1.766,0.668,3.565,1.232,5.312,1.933c1.321,0.524,2.617,1.154,2.979,2.83c-0.266,1.052-1.305,1.252-2.039,1.798
		c-1.229,0.914-1.396,1.646-0.605,2.899c0.1,0.159,0.238,0.297,0.376,0.43c2.013,1.937,2.726,4.521,3.382,7.114
		c0.641,2.542,0.711,5.111,0.104,7.688c-0.128,0.555-0.175,1.145-0.165,1.713c0.084,4.535-0.559,8.986-1.46,13.404
		c-0.539,2.618-1.198,5.209-1.743,7.822c-0.527,2.521-0.993,5.058-1.461,7.59c-0.441,2.382-1.374,4.57-2.492,6.688
		c-0.898,1.697-1.486,3.503-2.064,5.336c-1.642,5.211-2.873,10.52-3.834,15.896c-0.104,0.563-0.123,1.182-0.364,1.683
		c-0.921,1.908-0.692,3.943-0.634,5.934c0.031,1.019,0.355,2.099,0.809,3.017c1.33,2.688,3.117,4.987,5.708,6.589
		c2.657,1.644,5.231,3.416,7.862,5.104c3.38,2.163,5.205,5.399,6.265,9.2c0.425,1.521,0.394,3.021,0,4.54
		c-0.597,2.312-1.228,4.615-1.722,6.949c-0.25,1.176-0.948,2.045-1.481,3.038c-2.577,4.796-6.223,8.593-10.444,11.896
		c-2.229,1.748-4.356,3.625-6.802,5.092c-0.713,0.424-1.165,1.183-1.382,2.084c1.748,0.5,3.458,0.979,5.166,1.478
		c0.268,0.077,0.537,0.187,0.784,0.319c1.899,1.047,3.801,2.084,5.682,3.168c0.562,0.32,1.108,0.729,1.562,1.193
		c0.609,0.625,0.635,1.367,0.21,2.102c-0.095,0.164-0.234,0.304-0.337,0.461c-1.602,2.47-1.61,3.104,0.207,5.308
		c1.326,1.606,2.775,3.1,4.533,4.233c1.729,1.121,2.842,2.724,3.606,4.779c-0.604,0.851-1.207,1.685-1.8,2.521
		c0.102,2.491,1.438,4.237,3.238,5.772c3.265,2.781,3.17,2.822,3.713,7.229C221.016,217.681,220.672,221.397,220.797,225.111z"/>
</g>
</svg>
