<?xml version="1.0" encoding="utf-8"?>
<!-- Generator: Adobe Illustrator 16.0.0, SVG Export Plug-In . SVG Version: 6.00 Build 0)  -->
<!DOCTYPE svg PUBLIC "-//W3C//DTD SVG 1.1//EN" "http://www.w3.org/Graphics/SVG/1.1/DTD/svg11.dtd">
<svg version="1.1" id="Calque_1" xmlns="http://www.w3.org/2000/svg" xmlns:xlink="http://www.w3.org/1999/xlink" x="0px" y="0px"
	 width="283px" height="283px" viewBox="0 0 283 283" enable-background="new 0 0 283 283" xml:space="preserve">
<g>
	<path fill="#0000FF" d="M156.973,145.475c-5.276-3.188-11.104-4.016-17.082-3.902c-3.465,0.062-6.923,0.604-10.391,0.836
		c-7.41,0.496-14.824,0.912-22.232,1.404c-2.874,0.188-5.738,0.508-8.656,0.771c-0.103,0.918-0.241,1.57-0.244,2.228
		c-0.032,6.133-0.046,12.268-0.059,18.397c-0.011,4.308-0.442,8.642,0.634,12.883c0.537,2.113,1.164,4.207,1.779,6.435
		c-1.355,0.127-2.621,0.246-3.981,0.375c0,5.449,0,10.684,0,16.102c0.872,0.074,1.594,0.193,2.316,0.189
		c13.062-0.07,26.121-0.154,39.185-0.238c5.245-0.033,10.223-1.158,14.973-3.512c4.488-2.229,7.422-5.756,9.16-10.418
		c0.242-0.648,0.246-1.392,0.391-2.273c-1.98-0.002-3.662-0.002-5.676-0.002c1.541-1.646,2.864-2.959,4.066-4.377
		c2.039-2.404,2.646-5.416,3.416-8.397c1.527-5.931,1.271-11.763-0.539-17.523C162.823,150.577,160.43,147.561,156.973,145.475z"/>
	<path fill="#0000FF" d="M177.436,79.755c-4.805-1.488-9.727-2.119-14.725-2.184c-7.709-0.095-15.418-0.145-23.125-0.192
		c-3.464-0.021-6.928-0.004-10.638-0.004c-4.683,12.981-11.84,24.941-17.096,38.028c2.814,0,5.25,0.082,7.677-0.016
		c7.609-0.31,15.227-0.556,22.823-1.072c4.852-0.333,9.725-0.198,14.552-1.354c11.789-2.813,20.644-9.25,25.918-20.547
		C185.463,86.774,183.312,81.58,177.436,79.755z"/>
	<path fill="#0000FF" d="M0,0v283.462h283V0H0z M216.598,95.279c-6.387,9.127-14.877,15.912-24.405,21.372
		c-3.011,1.726-6.14,3.243-9.407,4.959c1.246,0.568,2.322,1.073,3.411,1.557c2.869,1.273,5.26,3.314,6.479,6.141
		c3.014,6.991,5.929,14.058,8.371,21.271c1.787,5.277,1.452,10.949,1.328,16.494c-0.078,3.522-0.361,7.043-0.492,10.565
		c-0.051,1.337,0.146,2.681,0.1,4.017c-0.042,1.201,0.706,2.68-1.119,3.396c-0.34,0.138-0.391,1.213-0.455,1.863
		c-0.865,9.021-4.044,17.062-9.79,23.994c-4.165,5.027-9.151,8.965-14.983,11.883c-8.729,4.371-17.92,6.947-27.607,7.291
		c-10.619,0.379-21.254,0.441-31.882,0.51c-17.42,0.107-34.84,0.107-52.26,0.152c-1.206,0.002-2.415,0.002-4.1,0.002
		c0-15.49,0-30.514,0-45.76c1.202-0.113,2.474-0.232,3.907-0.367c-0.611-2.383-1.347-4.631-1.737-6.938
		c-0.431-2.534-0.727-5.125-0.758-7.692c-0.093-8.729-0.038-17.455-0.046-26.183c-0.004-4.497,0.801-8.763,3.423-12.515
		c0.271-0.391,0.468-0.846,0.779-1.193c5.854-6.584,9.266-14.586,12.82-22.543c3.427-7.683,7.263-15.172,10.694-22.851
		c2.884-6.457,5.341-13.111,6.392-20.178c0.558-3.771,0.752-7.598,1.131-11.646c0.835-0.055,1.744-0.192,2.649-0.158
		c8.367,0.326,16.735,0.699,25.104,1.023c7.994,0.312,15.985,0.579,23.98,0.865c10.444,0.372,20.903,0.484,31.322,1.188
		c9.842,0.664,19.654,1.926,28.979,5.573c4.521,1.771,8.681,4.104,11.801,8.043c2.027,2.563,3.08,5.41,2.979,8.729
		C223.008,84.668,220.153,90.198,216.598,95.279z"/>
</g>
</svg>
