<?xml version="1.0" encoding="utf-8"?>
<!-- Generator: Adobe Illustrator 16.0.0, SVG Export Plug-In . SVG Version: 6.00 Build 0)  -->
<!DOCTYPE svg PUBLIC "-//W3C//DTD SVG 1.1//EN" "http://www.w3.org/Graphics/SVG/1.1/DTD/svg11.dtd">
<svg version="1.1" id="Calque_1" xmlns="http://www.w3.org/2000/svg" xmlns:xlink="http://www.w3.org/1999/xlink" x="0px" y="0px"
	 width="283px" height="283px" viewBox="0 0 283 283" enable-background="new 0 0 283 283" xml:space="preserve">
<g>
	<path fill="#0000FF" d="M101.866,102.684c0.672,2.294,1.596,4.515,2.182,6.823c0.817,3.229,2.212,6.049,4.433,8.521
		c0.974,1.084,1.88,1.631,3.354,1.612c7.334-0.102,14.667-0.031,22.001-0.133c4.787-0.062,9.571-0.37,14.358-0.443
		c1.88-0.029,3.228-0.721,4.192-2.405c-0.106-0.214-0.186-0.499-0.357-0.697c-0.717-0.812-0.7-1.812-0.379-2.68
		c0.559-1.503,1.283-2.948,2.027-4.37c1.209-2.316,1.029-4.938-0.556-6.979c-0.462-0.598-0.983-1.167-1.313-1.834
		c-1.36-2.751-2.842-5.368-5.844-6.606c-0.256-0.104-0.504-0.271-0.709-0.463c-2.27-2.158-5.079-2.77-8.037-2.877
		c-6.481-0.242-12.966-0.444-19.446-0.661c-2.351-0.077-4.697-0.156-7.047-0.226c-3.286-0.099-6.569-0.186-9.908-0.272
		c-1.372,1.717-1.745,3.331-1.274,5.122C100.3,96.977,101.035,99.844,101.866,102.684z"/>
	<path fill="#0000FF" d="M104.16,65.55c1.239,0.651,2.587,1.113,3.917,1.564c1.958,0.664,3.991,1.126,5.91,1.891
		c3.078,1.229,4.034,2.062,2.802,5.587c-0.027,0.073,0.034,0.187,0.086,0.4c0.698,0.036,1.429,0.106,2.16,0.108
		c9.688,0.026,19.378,0.051,29.066,0.072c4.322,0.014,8.65,0.136,12.949-0.528c3.492-0.539,6.73-1.658,9.567-3.857
		c0.599-0.467,0.672-1.272,0.041-1.705c-0.925-0.631-1.925-1.161-2.933-1.649c-1.182-0.578-2.453-0.982-3.6-1.623
		c-1.187-0.66-1.193-2.297-0.074-3.116c0.449-0.33,0.988-0.55,1.506-0.771c1.393-0.588,2.803-1.123,4.186-1.726
		c0.773-0.338,1.575-0.677,2.25-1.174c1.252-0.921,1.735-2.144,1.311-3.771c-0.506-1.931-1.791-3.146-3.375-4.04
		c-3.315-1.865-6.895-3.097-10.614-3.732c-4.265-0.729-8.569-1.196-12.911-1.174c-3.292,0.02-6.584-0.008-9.876,0.008
		c-8.845,0.039-17.688,0.088-26.532,0.144c-0.339,0.002-0.677,0.112-1.208,0.207c0.23,0.519,0.329,0.872,0.529,1.153
		c0.88,1.238,1.76,2.482,2.702,3.676c0.929,1.176,1.286,2.495,1.381,3.979c0.117,1.852-0.524,3.182-2.2,3.93
		c-1.549,0.688-3.127,1.312-4.67,2.016c-0.854,0.389-1.727,0.781-2.486,1.322C102.936,63.526,102.969,64.921,104.16,65.55z"/>
	<path fill="#0000FF" d="M184.578,141.77c-1.511-1.043-3.169-1.662-4.895-2.164c-5.01-1.453-10.16-2.037-15.336-2.302
		c-7.709-0.396-15.428-0.706-23.146-0.975c-6.022-0.205-12.046-0.289-18.069-0.414c-0.154-0.002-0.312,0.183-0.47,0.271
		c-0.061,0.176-0.205,0.36-0.178,0.521c0.401,2.279-0.203,4.367-1.1,6.416c-0.422,0.963-0.802,1.941-1.173,2.929
		c-0.907,2.397-2.418,4.284-4.481,5.771c-3.549,2.553-7.289,4.756-11.222,6.633c-1.018,0.484-1.983,1.088-2.952,1.685
		c-1.102,0.674-1.735,1.709-2.124,2.938c-0.401,1.273-0.906,2.514-1.323,3.777c-0.448,1.358-0.807,2.754-1.281,4.104
		c-0.93,2.67,0.046,4.889,1.562,6.955c0.504,0.689,1.217,1.229,1.697,1.932c0.69,1.015,1.487,2.054,1.811,3.201
		c0.433,1.545,0.6,3.203,0.625,4.814c0.031,2.201-0.317,4.406-0.256,6.604c0.12,4.189-1.054,8.154-1.902,12.168
		c-0.552,2.625-1.193,5.238-1.125,7.923c0.144,5.463,0.427,10.92,0.663,16.379c0.009,0.18,0.129,0.35,0.355,0.93
		c0.78,0,1.523,0.002,2.264-0.004c10.735-0.039,21.472-0.064,32.206-0.129c6.125-0.037,12.196-0.324,18.188-2.004
		c3.619-1.017,6.551-2.906,8.996-5.607c1.411-1.557,2.172-3.535,2.055-5.809c-0.103-1.945-0.625-3.756-1.146-5.604
		c-0.985-3.479-1.146-7.002,0.2-10.434c0.832-2.123,2.021-4.109,2.285-6.441c0.012-0.088,0.07-0.176,0.119-0.26
		c1.396-2.438,1.984-5.129,2.558-7.863c0.729-3.485,0.13-6.336-2.642-8.756c-2.18-1.896-3.27-4.436-2.699-7.471
		c0.388-2.068,0.828-4.127,1.214-6.195c0.575-3.063,2.468-5.063,5.045-6.516c0.412-0.232,0.849-0.416,1.271-0.629
		c3.701-1.892,7.408-3.769,11.096-5.683c1.683-0.873,3.224-1.896,4.451-3.451C187.727,146.481,186.905,143.37,184.578,141.77z"/>
	<path fill="#0000FF" d="M0,0v283.462h283V0H0z M223.666,146.495c-0.103,0.994-0.404,1.867-1.025,2.623
		c-1.092,1.33-2.293,2.562-3.812,3.383c-3.481,1.896-6.983,3.75-10.479,5.623c-0.25,0.138-0.495,0.279-0.75,0.398
		c-2.514,1.172-4.316,2.899-5.06,5.772c-0.663,2.57-1.854,4.979-2.157,7.687c-0.261,2.277,0.307,4.149,1.875,5.758
		c0.73,0.748,1.479,1.49,2.116,2.312c1.438,1.854,2.325,3.843,1.996,6.354c-0.458,3.5-0.61,7.039-1.014,10.545
		c-0.163,1.416-0.585,2.812-1.001,4.182c-0.922,3.037-1.492,6.146-1.779,9.295c-0.109,1.23-0.152,2.479-0.125,3.716
		c0.053,2.104,0.238,4.2,0.268,6.309c0.035,2.316-0.371,4.584-1.145,6.762c-1.148,3.24-2.316,6.447-4.576,9.152
		c-2.088,2.498-4.344,4.76-7.078,6.479c-6.396,4.035-13.414,6.392-20.756,7.812c-4.531,0.881-9.097,1.582-13.705,1.812
		c-4.131,0.205-8.271,0.238-12.41,0.293c-7.625,0.103-15.249,0.189-22.875,0.23c-11.958,0.065-23.914,0.09-35.874,0.139
		c-4.99,0.021-9.98,0.068-14.969,0.088c-1.308,0.005-2.617-0.051-4.221-0.082c-0.236-2.562-0.563-4.741-0.612-6.932
		c-0.072-3.279-0.622-6.481-1.059-9.715c-0.387-2.846-0.65-5.713-0.852-8.58c-0.209-2.963-0.209-5.939-0.428-8.902
		c-0.31-4.25,0.216-8.391,1.146-12.526c0.754-3.354,1.47-6.701,1.746-10.174c0.26-3.261,0.321-6.503,0.384-9.757
		c0.051-2.633-0.815-4.881-2.525-6.817c-0.691-0.785-1.437-1.531-2.061-2.371c-1.375-1.854-2.026-3.859-1.212-6.193
		c1.005-2.889,1.946-5.797,2.913-8.696c0.317-0.951,0.94-1.673,1.754-2.188c1.119-0.707,2.234-1.432,3.421-2.002
		c3.498-1.68,6.769-3.764,10.077-5.791c2.521-1.547,4.288-3.695,5.341-6.479c0.576-1.521,1.124-3.055,1.752-4.553
		c1.171-2.793,0.551-5.254-1.267-7.496c-0.475-0.588-1.055-1.093-1.621-1.597c-3.005-2.668-5.562-5.688-7.452-9.305
		c-1.234-2.369-2.725-4.581-4.48-6.616c-1.37-1.592-2.282-3.477-2.876-5.549c-1.238-4.321-2.624-8.604-3.915-12.905
		c-0.329-1.1-0.511-2.24-0.806-3.354c-0.504-1.868-0.141-3.609,0.707-5.28c1.307-2.582,2.855-4.943,5.345-6.557
		c0.943-0.605,1.801-1.403,2.556-2.247c1.615-1.799,3.531-3.146,5.611-4.302c0.743-0.412,1.494-0.83,2.167-1.347
		c1.943-1.497,1.841-4.089-0.327-5.153c-1.852-0.908-3.862-1.49-5.818-2.164c-1.425-0.488-2.891-0.854-4.315-1.349
		c-0.614-0.212-1.211-0.539-1.738-0.924c-0.81-0.597-0.814-1.923-0.013-2.479c0.538-0.373,1.147-0.656,1.75-0.914
		c1.476-0.629,2.978-1.188,4.448-1.83c3.407-1.479,4.565-4.545,2.506-7.685c-2.185-3.325-4.362-6.741-7.708-9.093
		c-1.471-1.033-2.899-2.129-4.348-3.197c-0.458-0.338-0.942-0.646-1.364-1.025c-1.125-1.021-1.355-2.176-0.375-3.275
		c1.509-1.697,3.134-3.164,5.664-3.328c6.578-0.427,13.161-0.555,19.749-0.657c4.14-0.065,8.278-0.315,12.416-0.446
		c3.004-0.096,6.007-0.119,9.01-0.189c8.743-0.215,17.485-0.451,26.229-0.653c5.646-0.131,11.292-0.334,16.935-0.276
		c3.649,0.037,7.315,0.324,10.938,0.787c4.295,0.547,8.406,1.76,12.334,3.785c3.842,1.982,7.863,3.639,12.069,4.754
		c3.918,1.039,7.778,2.258,11.483,3.963c3.945,1.817,7.209,4.47,9.801,7.99c0.111,0.153,0.236,0.301,0.324,0.469
		c1.931,3.754,1.438,6.521-2.562,8.029c-1.94,0.732-3.864,1.5-5.769,2.318c-1.289,0.554-1.268,0.604-1.735,2.666
		c0.844,1.256,2.226,1.641,3.53,2.166c1.398,0.562,2.824,1.083,4.152,1.781c1.284,0.679,1.418,1.611,0.629,2.863
		c-0.896,1.425-2.147,2.355-3.701,2.963c-3.073,1.204-6.137,2.438-9.168,3.748c-2.592,1.121-5.141,2.338-7.467,4.009
		c-1.347,0.974-2.211,2.061-1.84,3.833c0.039,0.188,0.021,0.387,0.012,0.573c-0.174,2.937,0.356,5.698,1.644,8.354
		c1.034,2.14,1.911,4.356,2.798,6.565c0.535,1.328,0.999,2.689,1.407,4.062c0.185,0.625,0.315,1.341,0.213,1.971
		c-0.55,3.299,0.626,6.011,2.612,8.48c0.477,0.593,0.967,1.18,1.383,1.814c1.34,2.074,1.234,3.562-0.445,5.435
		c-1.074,1.192-2.172,2.381-3.74,2.967c-0.389,0.146-0.693,0.533-1.147,0.896c0.705,0.771,1.532,0.577,2.2,0.776
		c5.781,1.695,11.585,3.312,17.35,5.059c4.178,1.268,8.057,3.233,11.516,5.934C222.668,141.043,223.988,143.405,223.666,146.495z"/>
</g>
</svg>
