<?xml version="1.0" encoding="utf-8"?>
<!-- Generator: Adobe Illustrator 16.0.0, SVG Export Plug-In . SVG Version: 6.00 Build 0)  -->
<!DOCTYPE svg PUBLIC "-//W3C//DTD SVG 1.1//EN" "http://www.w3.org/Graphics/SVG/1.1/DTD/svg11.dtd">
<svg version="1.1" id="Calque_1" xmlns="http://www.w3.org/2000/svg" xmlns:xlink="http://www.w3.org/1999/xlink" x="0px" y="0px"
	 width="283px" height="283px" viewBox="0 0 283 283" enable-background="new 0 0 283 283" xml:space="preserve">
<g>
	<g>
		<path fill="#0000FF" d="M188.832,160.303c-0.832-1.694-1.791-3.321-2.212-4.987c-0.333-0.252-0.47-0.404-0.638-0.476
			c-1.488-0.596-2.98-1.166-4.467-1.77c-2.311-0.938-2.309-0.943-2.976-3.479c-0.809-0.459-1.683-1.03-2.62-1.454
			c-0.764-0.347-1.6-0.556-2.418-0.755c-1.555-0.375-3.115-0.726-4.681-1.041c-4.519-0.903-9.035-1.721-13.681-1.502
			c-2.627,0.121-5.258,0.08-7.894,0.097c-9.294,0.062-18.59,0.114-27.888,0.203c-0.285,0.004-0.64,0.338-0.819,0.616
			c-0.102,0.162,0.028,0.552,0.156,0.776c0.135,0.233,0.384,0.416,0.603,0.593c1.91,1.506,1.912,1.504,0.53,3.39
			c-0.686,0.938-0.552,1.778,0.439,2.401c0.473,0.301,1.007,0.504,1.521,0.748c0.51,0.238,1.042,0.441,1.53,0.728
			c0.816,0.471,1.225,1.186,0.998,2.159c-0.355,1.511-0.362,3.015-0.197,4.56c0.171,1.604,0.388,3.268,0.17,4.844
			c-0.449,3.238-1.224,6.42-3.92,8.641c-0.073,0.062-0.136,0.136-0.209,0.193c-1.279,1.039-1.723,2.447-1.772,4.055
			c-0.038,1.242-0.091,2.486-0.176,3.728c-0.161,2.373-0.349,4.748-0.557,7.5c2.776-0.135,5.296-0.209,7.81-0.387
			c6.655-0.468,13.311-0.994,19.967-1.466c4.127-0.293,8.262-0.483,12.39-0.791c4.333-0.321,8.504-1.399,12.671-2.639
			c3.688-1.098,6.887-2.996,9.945-5.205c2.299-1.66,4.445-3.537,6.654-5.326c0.588-0.479,1.166-0.969,1.734-1.471
			c1.996-1.764,2.256-4.271,2.047-6.576C190.692,164.185,189.746,162.167,188.832,160.303z"/>
		<path fill="#0000FF" d="M0,0v283.462h283V0H0z M205.756,199.87c1.36,0.836,2.803,1.555,4.285,2.139
			c1.574,0.619,3.217,1.062,4.852,1.511c2.748,0.746,4.711,2.313,5.543,5.172c0.363,1.25,1.117,2.178,2.226,2.852
			c0.728,0.438,1.376,1.004,2.072,1.496c0.866,0.611,1.604,1.33,1.938,2.404c-0.123,0.885-0.562,1.565-1.164,2.219
			c-1.713,1.846-3.711,3.188-6.076,4.062c-2.944,1.09-6.021,1.498-9.058,2.118c-3.415,0.697-6.834,1.384-10.198,2.285
			c-2.453,0.655-4.705,1.894-6.854,3.287c-0.623,0.404-1.288,0.82-1.99,1.017c-4.84,1.315-9.755,1.979-14.782,2.063
			c-6.691,0.115-13.357-0.354-20.035-0.574c-9.318-0.304-18.639-0.562-27.958-0.83c-12.145-0.354-24.29-0.674-36.434-1.055
			c-3.667-0.113-7.336-0.359-11.002-0.578c-0.55-0.033-1.122-0.16-1.625-0.375c-1.383-0.588-1.611-2.106-0.38-2.908
			c0.938-0.61,1.995-1.088,3.057-1.438c1.7-0.56,3.465-0.898,5.167-1.445c1.338-0.438,2.639-1.004,3.925-1.578
			c1.124-0.5,1.736-1.45,1.936-2.662c0.125-0.758,0.184-1.522,0.282-2.284c0.141-1.115-0.193-2.074-0.884-2.937
			c-0.776-0.965-1.544-1.938-2.294-2.921c-0.614-0.81-0.829-1.712-0.477-2.704c0.032-0.094,0.062-0.186,0.083-0.274
			c0.702-2.984,0.517-3.4-2.146-4.677c-1.106-0.532-2.225-1.043-3.345-1.534c-1.252-0.55-2.159-1.529-3.057-2.515
			c-0.86-0.938-1.37-2.078-1.438-3.362c-0.138-2.677-0.435-5.363,0.37-8c0.11-0.361,0.141-0.757,0.164-1.136
			c0.177-2.771,0.36-5.533,0.501-8.305c0.06-1.113,0.465-2.033,1.208-2.832c0.783-0.826,1.567-1.656,2.339-2.5
			c0.921-1.006,1.486-2.195,1.796-3.533c0.498-2.147,0.782-4.272,0.579-6.521c-0.197-2.17-0.438-4.39,0.185-6.58
			c0.296-1.043-0.057-1.576-1.036-2.094c-0.832-0.443-1.731-0.757-2.547-1.224c-1.569-0.896-1.657-1.432-0.601-2.896
			c0.167-0.229,0.385-0.429,0.536-0.668c0.395-0.634,0.3-1.326-0.305-1.773c-0.605-0.449-1.28-0.807-1.885-1.254
			c-0.448-0.33-0.419-1.217,0.061-1.508c0.807-0.482,1.673-0.869,2.483-1.351c0.21-0.127,0.468-0.485,0.423-0.672
			c-0.073-0.321-0.308-0.766-0.577-0.854c-1.333-0.449-2.693-0.844-4.064-1.181c-1.093-0.272-2.208-0.444-3.022-1.45
			c0.625-1.104,1.763-1.054,2.684-1.392c0.879-0.321,1.816-0.498,2.686-0.844c0.704-0.273,0.715-1.223,0.019-1.584
			c-0.749-0.387-1.559-0.646-2.339-0.971c-1.943-0.802-2.038-0.963-2.035-3.197c0-0.373-0.042-0.741-0.074-1.254
			c-0.797-0.312-1.573-0.612-2.35-0.912c-0.706-0.271-1.43-0.484-2.108-0.809c-0.587-0.281-0.708-1.257-0.225-1.746
			c0.392-0.402,0.879-0.716,1.301-1.093c0.998-0.89,0.892-1.846-0.294-2.489c-0.745-0.401-1.553-0.688-2.287-1.113
			c-0.792-0.457-0.975-1.043-0.729-1.954c0.072-0.271,0.181-0.549,0.316-0.797c0.591-1.057,0.401-2.021-0.291-2.939
			c-0.171-0.229-0.362-0.456-0.469-0.715c-0.392-0.949-0.1-1.917,0.771-2.499c0.705-0.477,1.465-0.86,2.146-1.369
			c0.534-0.397,0.514-1.335,0.008-1.784c-0.349-0.312-0.735-0.61-1.148-0.828c-1.392-0.732-1.749-1.918-1.487-3.388
			c0.295-1.658,0.2-3.207-0.797-4.675c-0.557-0.822-0.383-1.856-0.128-2.798c0.179-0.646,0.411-1.276,0.678-1.892
			c0.605-1.378,0.403-2.703-0.512-3.775c-1.303-1.53-2.364-3.218-3.432-4.903c-0.726-1.153-1.731-1.991-2.822-2.773
			c-0.509-0.364-0.998-0.911-1.231-1.488c-0.425-1.042-0.057-2.08,0.883-2.771c0.916-0.671,1.877-1.283,2.855-1.855
			c1.287-0.758,1.875-1.823,1.642-3.344c-0.146-0.948-0.367-1.896-0.389-2.85c-0.038-1.922-1.16-2.979-2.703-3.681
			c-1.63-0.739-3.333-1.315-4.944-2.104c-1.088-0.531-2.149-1.199-3.081-1.984c-1.25-1.059-1.785-2.439-1.121-4.107
			c0.28-0.707,0.447-1.481,0.826-2.131c1.106-1.89,2.295-3.724,2.384-6.06c2.272-0.533,4.447-0.337,6.589-0.408
			c8.741-0.297,17.485-0.452,26.225-0.764c13.178-0.466,26.354-0.595,39.532-0.486c7.819,0.065,15.642,0.05,23.46,0.031
			c2.077-0.004,4.114,0.192,6.161,0.592c4.351,0.849,8.634,1.87,12.781,3.485c1.878,0.729,3.524,1.791,5.06,3.062
			c1.314,1.09,2.646,2.167,3.854,3.376c2.817,2.829,6.207,4.611,9.899,5.897c1.69,0.59,3.357,1.253,5.062,1.793
			c2.131,0.677,3.163,2.148,3.605,4.336c0.771,3.789,0.754,3.979-2.511,6.05c-0.557,0.354-1.161,0.665-1.653,1.104
			c-1.396,1.229-1.418,3.146,0.145,4.136c2.123,1.343,3.414,3.229,4.316,5.507c0.209,0.528,0.49,1.047,0.824,1.502
			c1.236,1.669,0.834,3.229-0.242,4.758c-0.272,0.393-0.551,0.779-0.869,1.132c-1.008,1.101-1.541,2.336-1.508,3.892
			c0.019,0.715-0.266,1.519-0.64,2.145c-0.728,1.224-1.595,2.354-2.438,3.5c-0.471,0.646-0.871,1.283-0.48,2.104
			c0.375,0.787-0.042,1.327-0.572,1.729c-0.515,0.396-1.125,0.676-1.731,0.924c-2.272,0.934-4.458,1.963-6.324,3.659
			c-0.96,0.877-2.203,1.438-3.295,2.165c-0.308,0.2-0.552,0.49-0.86,0.775c3.106,2.709,6.764,3.789,10.577,4.41
			c1.796,0.293,3.379,0.938,5.05,2.131c-0.711,0.711-1.266,1.276-1.843,1.855c1.538,1.206,3.269,1.936,5.458,2.346
			c1.11,0.207,2.221,0.411,3.334,0.606c1.396,0.246,2.521,0.938,2.967,2.336c0.471,1.486,1.498,2.089,2.868,2.412
			c1.097,0.264,2.187,0.6,3.245,0.992c0.393,0.146,0.932,0.521,0.991,0.867c0.12,0.715-0.593,0.893-1.112,1.049
			c-1.173,0.354-2.375,0.596-3.542,0.969c-0.385,0.125-0.69,0.512-0.993,0.742c0.37,1.047,1.213,1.111,1.9,1.32
			c1.35,0.409,2.752,0.646,4.102,1.062c0.857,0.262,1.896,0.303,2.404,1.566c-0.43,0.28-0.861,0.58-1.309,0.854
			c-0.467,0.285-0.946,0.551-1.375,0.797c0.002,1.316,0.814,1.806,1.709,2.146c1.066,0.406,2.141,0.762,2.787,2.082
			c-0.287,0.668-0.614,1.432-0.953,2.213c0.13,0.279,0.176,0.625,0.365,0.766c0.678,0.498,1.377,0.979,2.117,1.361
			c1.164,0.606,2.358,1.135,3.555,1.703c-0.002,3.574,1.541,6.625,2.117,9.906c0.59,3.331-0.027,6.27-2.488,8.672
			c-0.678,0.659-1.354,1.336-2.09,1.926c-0.845,0.676-1.396,1.533-1.806,2.521c-1.33,3.191-3.307,6.002-5.226,8.824
			c-0.67,0.984-1.803,1.664-2.782,2.398c-2.188,1.646-4.563,3.053-6.326,5.227c-0.594,0.736-1.202,1.48-1.696,2.283
			C204.342,198.256,204.467,199.083,205.756,199.87z"/>
	</g>
	<path fill="#0000FF" d="M150.27,110.812c2.09-0.081,4.146-0.519,6-1.42c1.941-0.943,3.783-2.147,5.521-3.441
		c1.604-1.188,2.964-2.654,3.015-4.928c0.024-1.09,0.703-1.948,1.265-2.841c0.604-0.963,1.183-1.95,1.655-2.982
		c0.431-0.938,0.233-1.829-0.478-2.644c-0.752-0.854-1.595-1.714-2.053-2.729c-1.006-2.228-2.671-3.684-4.726-4.742
		c-1.463-0.754-2.314-1.864-2.438-3.719c1.211-1.122,2.51-2.32,3.792-3.51c-0.468-1.425-1.372-2.235-2.364-2.987
		c-1.448-1.104-3.059-1.901-4.805-2.343c-4.483-1.134-9.058-1.688-13.672-1.621c-3.384,0.047-6.769,0.216-10.15,0.358
		c-8.176,0.354-16.349,0.72-24.525,1.093c-0.453,0.021-0.902,0.149-1.534,0.268c0.089,1.025,0.148,1.966,0.258,2.897
		c0.157,1.354-0.156,2.401-1.444,3.107c-1.074,0.59-2.08,1.315-3.055,2.064c-0.972,0.747-1.338,2.037-0.817,3.065
		c0.291,0.562,0.798,1.114,1.34,1.415c1.759,0.965,2.716,2.592,3.695,4.23c0.433,0.729,0.838,1.53,1.445,2.096
		c2.034,1.898,2.506,3.957,0.92,6.367c-0.102,0.152-0.122,0.36-0.188,0.538c-0.414,1.055-0.454,2.184,0.309,2.981
		c1.006,1.05,1.073,2.334,0.855,3.481c-0.429,2.295,0.18,3.881,2.207,4.986c0.771,0.419,0.843,1.203,0.479,2.007
		c-0.1,0.216-0.181,0.438-0.273,0.665c1.698,0,3.292,0.073,4.874-0.016c5.437-0.303,10.868-0.718,16.306-0.979
		C137.875,111.24,144.072,111.053,150.27,110.812z"/>
</g>
</svg>
