<?xml version="1.0" encoding="utf-8"?>
<!-- Generator: Adobe Illustrator 16.0.0, SVG Export Plug-In . SVG Version: 6.00 Build 0)  -->
<!DOCTYPE svg PUBLIC "-//W3C//DTD SVG 1.1//EN" "http://www.w3.org/Graphics/SVG/1.1/DTD/svg11.dtd">
<svg version="1.1" id="Calque_1" xmlns="http://www.w3.org/2000/svg" xmlns:xlink="http://www.w3.org/1999/xlink" x="0px" y="0px"
	 width="283px" height="283px" viewBox="0 0 283 283" enable-background="new 0 0 283 283" xml:space="preserve">
<g>
	<path fill="#0000FF" d="M150.379,114.165c-1.875-3.675-4.943-6.257-8.882-7.513c-4.409-1.4-8.935-2.148-13.573-1.97
		c-8.54,0.335-17.078,0.688-25.621,1.02c-3.358,0.132-6.718,0.226-10.337,0.346c-0.142,4.496-0.224,8.515,0.968,12.399
		c2.438,7.944,5.797,15.494,9.597,22.854c0.706,1.367,1.767,1.453,3.057,1.433c12.491-0.203,24.984-0.325,37.476-0.588
		c2.906-0.062,5.799-0.64,8.395-2.125c2.076-1.187,3.74-2.662,4.508-5.196c0.853-2.807,0.769-5.571-0.168-8.145
		C154.243,122.408,152.439,118.203,150.379,114.165z"/>
	<path fill="#0000FF" d="M0,0v283.462h283V0H0z M227.233,196.73c-12.612,0-25.201,0-37.991,0c0.225-0.611,0.348-1.158,0.596-1.635
		c2.904-5.5,1.512-10.563-1.553-15.412c-3.915-6.188-9.781-9.634-16.469-11.828c-6.794-2.229-13.803-2.707-20.891-2.688
		c-11.017,0.023-22.03-0.045-33.048-0.073c-0.463-0.003-0.924,0-1.911,0c5.125,10.184,10.45,19.821,7.73,31.702
		c21.062,0,41.918,0,62.774,0c0.062,0.207,0.123,0.412,0.185,0.621c-1.883,0.89-3.706,1.948-5.655,2.64
		c-9.287,3.289-18.865,5.006-28.701,5.269c-11.939,0.319-23.878,0.716-35.817,1.073c-10.628,0.319-21.255,0.627-31.881,0.957
		c-3.946,0.123-7.887,0.299-12.193,0.465c0-3.607,0-7.002,0-10.74c4.449,0,9.111,0,13.854,0c1.216-4.74,1.235-9.164,0.144-13.615
		c-1.783-7.244-5.161-13.739-8.893-20.108c-7.724-13.177-15.075-26.546-20.632-40.875c-2.144-5.521-2.364-11.217-2.269-16.967
		c0.044-2.551,0.608-5.109,1.105-7.631c0.888-4.503,1.848-8.994,2.89-13.464c0.492-2.106,1.247-4.15,1.891-6.248
		c7.325-0.194,14.275-0.354,21.221-0.578c9.591-0.312,19.178-0.716,28.771-1.02c9.684-0.308,19.381-0.396,29.06-0.858
		c4.511-0.216,8.98,0.102,13.47,0.149c5.611,0.062,11.047,1.27,16.253,3.163c5.903,2.149,11.054,5.556,14.544,11.173
		c2.146,3.462,2.314,7.341,3.054,11.172c1.392,7.209,1.421,14.59,3.372,21.757c1.855,6.825,2.012,13.896-2.23,20.167
		c-1.207,1.781-2.834,3.271-4.33,4.84c-0.633,0.666-1.432,1.179-2.35,1.921c6,1.538,11.547,3.577,16.831,6.28
		c3.015,1.541,5.964,3.24,8.849,5.023c5.08,3.147,9.797,6.772,13.646,11.453c3.84,4.668,7.161,9.649,7.631,15.938
		C228.487,191.372,228.581,194.105,227.233,196.73z"/>
</g>
</svg>
