<?xml version="1.0" encoding="utf-8"?>
<!-- Generator: Adobe Illustrator 16.0.0, SVG Export Plug-In . SVG Version: 6.00 Build 0)  -->
<!DOCTYPE svg PUBLIC "-//W3C//DTD SVG 1.1//EN" "http://www.w3.org/Graphics/SVG/1.1/DTD/svg11.dtd">
<svg version="1.1" id="Calque_1" xmlns="http://www.w3.org/2000/svg" xmlns:xlink="http://www.w3.org/1999/xlink" x="0px" y="0px"
	 width="283px" height="283px" viewBox="0 0 283 283" enable-background="new 0 0 283 283" xml:space="preserve">
<g>
	<g>
		<path fill="#0000FF" d="M163.998,211.4c-0.046-0.183-0.041-0.387-0.016-0.572c0.169-1.229,0.248-2.486,0.546-3.688
			c0.585-2.353,0.528-4.755,0.592-7.134c0.027-1.002-0.381-2.055-0.753-3.021c-1.031-2.695-2.939-4.738-5.369-6.064
			c-3.398-1.856-6.994-3.352-10.855-3.926c-3.354-0.5-6.729-0.807-10.13-0.74c-2.828,0.054-5.652,0.028-8.477,0.047
			c-9.793,0.062-19.586,0.121-29.38,0.191c-0.549,0.004-1.094,0.088-1.552,0.127c-0.168,0.309-0.336,0.473-0.332,0.631
			c0.021,0.664,0.07,1.326,0.146,1.984c0.427,3.635,0.516,7.254-0.089,10.875c-0.391,2.367-0.547,4.748-0.375,7.154
			c0.12,1.688,0.647,3.271,1.668,4.495c1.881,2.261,3.828,4.509,6.407,6.007c1.547,0.899,3.156,1.692,4.734,2.536
			c3.251,1.732,6.557,3.367,9.724,5.242c1.365,0.806,2.646,1.246,4.224,1.203c9.503-0.246,19.002-0.406,28.504-0.629
			c3.387-0.08,6.782-0.139,10.159-0.416c2.339-0.193,4.624-0.801,6.267-2.877c-0.866-1.424-1.615-2.816-2.682-4.072
			C165.202,216.681,164.647,213.997,163.998,211.4z"/>
		<path fill="#0000FF" d="M0,0v283.462h283V0H0z M225.543,234.959c-0.244,0.724-0.646,1.42-0.758,2.16
			c-0.544,3.758-2.918,6.168-5.843,8.043c-2.373,1.521-4.858,2.922-7.433,4.051c-6.045,2.648-12.172,4.961-18.822,5.754
			c-4.108,0.49-8.204,1.013-12.332,1.199c-3.463,0.157-6.932-0.014-10.397-0.188c-4.419-0.226-8.837-0.396-13.259-0.607
			c-6.768-0.332-13.529-0.69-20.297-1.021c-5.454-0.263-10.91-0.455-16.361-0.75c-5.071-0.271-10.136-0.675-15.207-0.963
			c-3.479-0.197-6.963-0.279-10.444-0.453c-1.111-0.058-2.219-0.24-3.479-0.377c-0.263-2.195,0.214-3.976,0.615-5.738
			c0.626-2.76,0.874-5.469-0.034-8.229c-0.325-0.985-0.386-2.071-0.502-3.118c-0.224-1.992-1.084-3.613-2.467-5.037
			c-2.757-2.841-6.059-4.854-9.506-6.646c-3.014-1.57-6.083-3.035-9.101-4.604c-3.173-1.646-5.53-4.297-7.801-6.983
			c-1.066-1.261-1.427-2.94-1.421-4.591c0.008-2.105,0.076-4.229,0.354-6.312c0.601-4.508,0.699-8.974-0.352-13.433
			c-0.528-2.237-0.882-4.5-0.921-6.821c-0.023-1.621-0.279-3.25-0.541-4.854c-0.72-4.476-0.771-8.978-0.614-13.486
			c0.157-4.518,0.023-9.012-0.42-13.512c-0.583-5.917-0.843-11.859-0.822-17.812c0.01-2.907,0.586-5.724,1.31-8.503
			c0.451-1.73,1.676-2.962,3.111-3.965c1.396-0.979,2.786-1.971,4.17-2.964c1.909-1.372,3.281-3.176,3.895-5.478
			c0.559-2.094,1.506-3.901,3.056-5.407c0.461-0.447,0.853-1.045,1.084-1.647c0.709-1.817,1.785-3.359,3.095-4.768
			c0.389-0.413,0.729-0.886,1.014-1.378c1.341-2.309,1.107-4.974-0.74-6.886c-1.316-1.363-2.789-2.571-4.203-3.836
			c-0.849-0.759-1.797-1.418-2.567-2.25c-2.986-3.224-6.429-5.896-9.8-8.657c-0.879-0.719-1.697-1.533-2.415-2.412
			c-0.466-0.563-0.834-1.294-1.005-2.009c-0.602-2.49-0.19-3.396,1.979-4.741c0.803-0.499,1.619-0.978,2.438-1.445
			c2.805-1.604,3.979-4.226,4.294-7.321c0.125-1.232,0.157-2.5,0.037-3.731c-0.259-2.627,0.731-4.685,2.567-6.394
			c0.831-0.774,1.713-1.498,2.606-2.192c2.616-2.023,4.292-4.812,5.875-7.644c0.596-1.064,0.759-2.345,0.741-3.627
			c-0.022-1.701-0.05-3.414,0.133-5.156c1.265-0.4,2.402-0.293,3.504-0.301c7.899-0.062,15.803-0.033,23.7-0.117
			c7.414-0.078,14.824-0.303,22.237-0.381c7.151-0.076,14.304-0.035,21.457-0.07c3.953-0.019,7.908-0.155,11.861-0.103
			c2.427,0.029,4.848,0.322,7.272,0.505c0.562,0.043,1.12,0.135,1.681,0.146c3.595,0.076,7.092,0.732,10.566,1.634
			c3.371,0.867,6.768,1.616,9.973,3.024c2.16,0.949,4.246,1.99,5.957,3.711c1.336,1.348,1.752,3.105,2.311,4.803
			c0.279,0.857-0.033,1.688-0.523,2.445c-0.673,1.039-1.252,2.145-1.953,3.16c-0.961,1.395-1.002,2.863-0.467,4.383
			c0.348,0.99,0.771,1.953,1.207,2.908c1.043,2.271,1.068,4.658,0.627,7.037c-0.27,1.476-1.312,2.504-2.553,3.299
			c-1.033,0.666-2.049,1.362-3.077,2.037c-0.791,0.517-1.042,1.246-1.091,2.188c-0.111,2.071,0.562,3.735,2.109,5.082
			c1.931,1.685,3.865,3.365,5.726,5.127c1.579,1.495,3.063,3.101,4.585,4.658c1.393,1.429,2.782,2.855,4.163,4.292
			c0.394,0.41,0.798,0.817,1.142,1.271c1.67,2.191,1.33,4.559-0.943,6.177c-0.756,0.544-1.604,1.022-2.477,1.327
			c-2.404,0.832-4.824,1.624-7.272,2.305c-3.085,0.854-6.207,1.564-9.304,2.377c-0.692,0.185-1.351,0.521-2.299,0.896
			c1.207,0.704,2.323,0.868,3.379,1.17c2.265,0.643,4.562,1.197,6.623,2.401c2.784,1.642,4.895,3.814,5.196,7.216
			c-0.437,1.234-1.167,2.072-2.135,2.737c-0.938,0.644-1.791,1.416-2.761,2.006c-2.963,1.812-5.207,4.312-7.103,7.23
			c-0.756,1.164-1.888,2.123-2.974,3.013c-2.118,1.729-3.411,4.022-4.57,6.436c-0.33,0.683-0.502,1.462-0.917,2.077
			c-1.487,2.208-2.519,4.615-3.375,7.135c-0.364,1.078-0.938,2.084-1.403,3.09c0.295,1.175,0.502,2.302,0.871,3.367
			c0.274,0.793,0.704,1.545,1.164,2.25c0.776,1.203,1.611,2.354,1.9,3.812c0.09,0.459,0.283,0.932,0.543,1.315
			c1.04,1.558,1.307,3.386,1.599,5.144c0.382,2.291,1.003,4.47,1.915,6.582c0.225,0.521,0.404,1.065,0.535,1.617
			c0.416,1.762,0.688,3.567,1.241,5.286c0.271,0.854,0.946,1.64,1.592,2.302c3.038,3.121,6.207,6.104,9.168,9.299
			c2.208,2.379,3.851,5.186,4.842,8.346c0.615,1.954,0.688,3.941,0.597,5.969c-0.096,2.009-0.162,4.021-0.18,6.031
			c-0.017,2.072,0.664,3.851,1.924,5.551c2.207,2.976,4.83,5.275,8.119,6.962c2.76,1.418,5.377,3.159,7.977,4.891
			c1.979,1.32,3.576,3.104,4.986,5.047C225.965,231.745,226.096,233.312,225.543,234.959z"/>
	</g>
	<path fill="#0000FF" d="M164.844,80.412c-0.332-0.338-0.711-0.627-1.082-0.922c-2.516-2.002-5.041-3.992-7.543-6.006
		c-0.515-0.414-0.959-0.924-1.451-1.359c-1.409-1.238-1.903-3.049-2.766-4.623c-0.184-0.338-0.025-0.926,0.088-1.367
		c0.56-2.178,0.289-2.953-1.785-3.719c-1.852-0.684-3.758-1.275-5.692-1.615c-2.772-0.481-5.59-0.662-8.421-0.588
		c-6.389,0.172-12.78,0.305-19.166,0.424c-4.326,0.08-8.651,0.119-12.98,0.158c-0.776,0.008-1.55,0.014-2.031,0.73
		c-1.219,1.816-3.095,2.738-4.866,3.822c-0.797,0.488-1.559,1.072-2.236,1.725c-0.3,0.285-0.495,0.844-0.494,1.275
		c0.007,1.865,0.358,3.625,1.867,4.92c1.15,0.983,2.269,2.012,3.414,3.002c2.148,1.854,4.319,3.68,6.447,5.559
		c1.629,1.438,3.198,2.947,4.807,4.408c1.053,0.955,2.151,1.861,3.198,2.826c1.921,1.771,2.623,3.899,1.75,6.473
		c-0.117,0.346-0.143,0.727-0.23,1.195c0.457,0.086,0.808,0.205,1.165,0.209c3.579,0.039,7.156,0.035,10.736,0.092
		c6.21,0.098,12.423,0.229,18.637,0.35c5.461,0.104,10.932,0.185,16.36-0.442c2.416-0.277,4.798-0.939,7.164-1.556
		c0.78-0.2,1.565-0.682,2.172-1.233c2.638-2.402,2.708-3.562,0.272-6.189C169.791,85.382,167.297,82.916,164.844,80.412z"/>
</g>
</svg>
