<?xml version="1.0" encoding="utf-8"?>
<!-- Generator: Adobe Illustrator 16.0.0, SVG Export Plug-In . SVG Version: 6.00 Build 0)  -->
<!DOCTYPE svg PUBLIC "-//W3C//DTD SVG 1.1//EN" "http://www.w3.org/Graphics/SVG/1.1/DTD/svg11.dtd">
<svg version="1.1" id="Calque_1" xmlns="http://www.w3.org/2000/svg" xmlns:xlink="http://www.w3.org/1999/xlink" x="0px" y="0px"
	 width="283px" height="283px" viewBox="0 0 283 283" enable-background="new 0 0 283 283" xml:space="preserve">
<g>
	<g>
		<path fill="#0000FF" d="M173.801,174.49c-0.527-0.388-1.138-0.666-1.722-0.97c-2.515-1.308-5.049-2.568-7.546-3.908
			c-2.064-1.105-3.635-2.697-4.395-5.021c-0.235-0.728-0.584-1.394-1.02-2.032c-0.966-1.422-1.732-2.927-1.722-4.752
			c0.01-1.593-0.935-2.627-2.189-3.445c-0.968-0.633-2.04-0.98-3.13-1.266c-1.275-0.332-2.6-0.484-3.848-0.904
			c-4.516-1.519-9.122-1.092-13.697-0.609c-3.071,0.318-6.085,1.146-9.145,1.631c-8.45,1.336-16.666,3.843-25.098,5.254
			c-2.882,0.483-5.609,1.558-8.479,2.046c-0.695,0.118-1.003,0.536-0.863,1.211c0.189,0.935,0.545,1.844,0.675,2.784
			c0.257,1.882,1.411,3.084,2.791,4.144c0.45,0.346,0.932,0.66,1.44,0.906c2.37,1.159,4.701,2.396,7.217,3.233
			c2.508,0.836,4.831,2.116,7.128,3.431c0.832,0.473,1.602,1.088,2.083,1.907c1.875,3.196,4.261,6.091,5.667,9.562
			c0.558,1.373,1.359,2.531,2.388,3.506c1.329,1.266,2.394,2.736,3.207,4.342c0.558,1.109,1.166,1.541,2.376,1.519
			c6.578-0.125,13.158-0.175,19.736-0.25c0-0.054,0-0.104,0-0.16c3.006,0,6.014,0.051,9.02-0.013
			c3.758-0.079,7.521-0.137,11.267-0.422c3.312-0.252,6.46-1.082,8.716-3.938c0.5-0.633,0.811-1.182,0.828-2.019
			c0.062-3.424,0.102-6.849,0.605-10.254C176.578,176.689,176.404,176.404,173.801,174.49z"/>
		<path fill="#0000FF" d="M0,0v283.462h283V0H0z M230.061,218.865c-1.141,1.418-2.461,2.513-3.904,3.612
			c-2.707,2.065-5.689,3.188-8.887,4.062c-3.375,0.922-6.829,1.273-10.245,1.912c-4.19,0.781-8.416,0.604-12.646,0.566
			c-5.568-0.043-11.023-1.138-16.541-1.677c-4.309-0.424-8.615-0.838-12.931-1.211c-6.646-0.569-13.302-1.108-19.954-1.653
			c-6.847-0.562-13.688-1.148-20.542-1.646c-4.878-0.354-9.765-0.565-14.649-0.843c-0.658-0.036-1.316-0.087-1.977-0.112
			c-2.005-0.086-3.611-0.582-3.932-3.052c-0.146-1.146-0.969-2.081-1.907-2.772c-2.771-2.041-5.223-4.389-7.076-7.346
			c-0.25-0.397-0.631-0.713-0.965-1.05c-2.806-2.771-4.949-6.013-6.522-9.646c-1.187-2.745-2.61-5.293-4.879-7.312
			c-1.054-0.94-1.726-2.27-2.288-3.599c-0.787-1.86-1.808-3.572-3.065-5.148c-0.529-0.662-0.947-1.426-1.376-2.162
			c-1.085-1.858-2.552-3.236-4.442-4.281c-2.668-1.473-5.545-2.381-8.319-3.565c-1.736-0.738-3.456-1.521-5.174-2.299
			c-1.04-0.472-1.938-1.158-2.805-1.908c-0.827-0.709-1.375-1.555-1.675-2.599c-0.346-1.192-0.695-2.387-1.058-3.577
			c-0.293-0.966-0.232-1.896,0.229-2.785c0.265-0.511,0.554-1.004,0.831-1.508c0.782-1.438,0.96-2.875,0.079-4.36
			c-0.29-0.485-0.473-1.039-0.665-1.575c-0.414-1.175-0.242-2.268,0.513-3.252c0.23-0.305,0.479-0.594,0.729-0.88
			c0.725-0.832,0.716-1.771,0.252-2.681c-0.612-1.188-1.44-2.312-1.145-3.742c0.273-1.324,1.451-1.955,2.344-2.786
			c1.226-1.145,1.82-2.431,1.03-4.097c-0.122-0.259-0.221-0.535-0.275-0.812c-0.21-1.039,0.04-1.928,0.988-2.466
			c0.819-0.466,1.681-0.854,2.524-1.274c1.012-0.504,2.064-0.953,2.91-1.742c0.617-0.575,0.761-1.323,0.374-2.084
			c-0.262-0.508-0.652-0.946-0.89-1.461c-0.595-1.293-0.339-2.19,0.861-2.916c0.726-0.438,1.509-0.779,2.272-1.147
			c0.848-0.409,1.732-0.763,2.558-1.212c1.903-1.029,2.112-1.548,1.192-3.643c-0.478-1.096-0.45-1.928,0.726-2.698
			c0.782-0.517,1.675-0.858,2.53-1.256c0.941-0.436,1.939-0.762,2.832-1.276c1.188-0.688,1.384-1.793,0.615-2.926
			c-0.318-0.473-0.752-0.862-1.081-1.328c-0.582-0.82-0.47-1.682,0.423-2.203c0.97-0.571,2.017-1.033,3.067-1.436
			c1.062-0.402,2.116-0.794,3.073-1.427c1.372-0.905,1.422-2.174,0.081-3.212c-0.749-0.58-1.576-1.053-2.32-1.639
			c-1.553-1.217-1.39-2.618,0.416-3.521c0.756-0.379,1.578-0.622,2.353-0.969c0.686-0.308,1.382-0.614,2.017-1.021
			c1.251-0.799,1.559-1.788,1.001-3.185c-0.281-0.707-0.735-1.347-0.985-2.062c-0.424-1.208-0.06-2.005,1.138-2.521
			c1.04-0.444,2.132-0.759,3.18-1.181c1.045-0.424,2.125-0.812,3.091-1.39c1.548-0.916,1.536-2.8-0.009-3.658
			c-0.985-0.55-2.069-0.906-3.102-1.366c-1.121-0.495-2.268-0.945-3.335-1.539c-0.989-0.547-0.949-1.684,0.04-2.303
			c0.555-0.352,1.175-0.598,1.776-0.873c0.941-0.433,1.912-0.807,2.832-1.283c1.349-0.705,1.572-1.229,1.33-2.77
			c-0.136-0.848-0.528-1.619-0.553-2.516c-0.039-1.354,0.257-2.453,1.484-3.16c0.491-0.283,0.937-0.646,1.425-0.936
			c1.376-0.819,1.875-2.067,1.751-3.635c-0.037-0.447-0.085-0.896-0.129-1.345c-0.024,0.002-0.046,0.001-0.07,0.003l0.062-0.083
			c0.002,0.026,0.005,0.054,0.008,0.08c3.175-0.271,6.35-0.011,9.515,0.138c9.768,0.455,19.54,0.857,29.315,1.197
			c9.024,0.312,18.042,0.854,27.065,1.276c5.729,0.27,11.442,0.952,17.19,0.827c2.096,0.58,4.269,0.568,6.396,0.896
			c0.465,0.07,0.914,0.229,1.378,0.283c5.111,0.627,9.755,2.758,14.478,4.645c1.834,0.732,3.652,1.512,5.464,2.303
			c0.774,0.34,1.545,0.711,2.266,1.156c1.046,0.653,1.083,1.432,0.171,2.291c-0.414,0.394-0.873,0.732-1.289,1.125
			c-0.51,0.484-0.479,0.959,0.084,1.441c0.946,0.812,1.991,1.37,3.217,1.698c2.815,0.76,5.602,1.646,8.393,2.495
			c1.016,0.311,1.883,0.83,2.484,1.776c0.382,0.597,0.279,1.098-0.127,1.559c-0.576,0.659-1.354,1.019-2.145,1.347
			c-0.872,0.358-1.756,0.698-2.588,1.146c-1.338,0.721-1.559,1.837-0.667,3.1c0.22,0.308,0.542,0.533,0.788,0.821
			c0.248,0.289,0.488,0.59,0.676,0.918c1.135,1.999,0.891,2.855-1.127,3.843c-0.759,0.371-1.559,0.681-2.352,0.979
			c-0.635,0.239-1.18,0.578-1.612,1.114c-0.604,0.753-0.599,1.677,0.112,2.312c0.492,0.438,1.084,0.755,1.621,1.138
			c0.541,0.384,1.107,0.737,1.599,1.181c1.099,0.983,0.999,2.374-0.286,3.062c-1.164,0.62-2.412,1.064-3.621,1.593
			c-0.775,0.337-1.593,0.601-2.312,1.031c-1.143,0.687-1.322,1.466-0.731,2.657c0.169,0.342,0.437,0.631,0.599,0.976
			c0.504,1.06,0.301,1.752-0.641,2.488c-0.842,0.657-1.85,0.93-2.814,1.303c-1.494,0.575-2.978,1.172-4.463,1.771
			c-1.027,0.414-1.769,1.112-1.949,2.271c-0.328,2.047-1.684,3.143-3.434,3.836c-1.137,0.45-2.31,0.805-3.472,1.188
			c-0.894,0.297-1.783,0.604-2.69,0.855c-2.371,0.659-4.209,1.984-5.478,4.184c-1.001,1.73-2.683,2.646-4.483,3.271
			c-1.154,0.396-2.363,0.639-3.555,0.911c-2.203,0.509-4.283,1.337-6.753,2.446c2.718,0.78,4.979,1.53,7.292,2.067
			c2.672,0.619,5.205,1.631,7.75,2.603c1.331,0.507,2.461,1.315,2.494,3.096c0.011,0.695,0.482,1.299,1.131,1.854
			c1.449,1.236,2.964,2.336,4.587,3.298c0.406,0.239,0.826,0.47,1.202,0.752c0.88,0.664,1.48,1.518,1.32,2.688
			c-0.271,1.985,0.611,3.523,1.763,4.979c0.293,0.373,0.608,0.729,0.897,1.108c0.746,0.976,0.986,2.041,0.562,3.233
			c-0.157,0.448-0.21,0.941-0.41,1.368c-0.535,1.141-0.284,2.25,0.039,3.362c0.32,1.104,0.68,2.189,1.014,3.287
			c0.516,1.699,1.455,3.097,2.902,4.111c2.095,1.479,4.318,2.721,6.682,3.7c1.135,0.472,2.204,1.062,3.271,1.675
			c2.314,1.329,3.781,3.059,4.41,5.883c0.638,2.855,2.062,5.541,3.222,8.264c0.332,0.773,0.894,1.471,1.442,2.117
			c1.052,1.246,1.91,2.604,2.679,4.045c0.412,0.771,0.782,1.533,0.851,2.414c0.238,3.01,1.588,5.695,2.391,8.541
			c0.051,0.185,0.111,0.383,0.229,0.521c1.512,1.806,2.094,4,2.639,6.236c0.223,0.91,0.735,1.759,1.166,2.609
			C231.088,216.497,231.053,217.64,230.061,218.865z"/>
	</g>
	<path fill="#0000FF" d="M99.689,127.913c-0.977,0.9-2.206,1.294-3.366,1.823c0.508,0.245,1.058,0.366,1.585,0.2
		c2.552-0.808,5.225-0.55,7.823-1.021c2.305-0.418,4.665-0.549,7.006-0.746c2.996-0.254,6.003-0.395,8.998-0.678
		c5.05-0.477,10.091-1.074,15.143-1.533c4.07-0.369,7.958-1.312,11.6-3.228c2.432-1.277,4.949-2.313,7.628-2.934
		c1.739-0.396,3.497-0.773,5.122-1.57c1.509-0.739,2.738-1.752,2.92-3.575c0.086-0.885,0.568-1.402,1.223-1.805
		c0.723-0.441,1.471-0.856,2.249-1.188c1.302-0.552,2.638-1.012,3.953-1.539c0.604-0.243,1.228-0.479,1.656-1.048
		c0.37-0.486,0.622-0.969,0.213-1.553c-0.435-0.622-0.897-1.229-1.325-1.858c-0.596-0.88-0.523-1.582,0.33-2.214
		c0.602-0.446,1.277-0.81,1.963-1.114c0.943-0.424,1.952-0.704,2.887-1.145c2.312-1.095,1.711-2.149,0.453-3.445
		c-0.32-0.327-0.792-0.517-1.213-0.718c-0.936-0.442-1.89-0.854-2.833-1.278c-0.868-0.392-1.688-0.859-2.304-1.618
		c-0.661-0.815-1.081-1.759,0.347-2.572c0.485-0.276,0.938-0.643,1.343-1.032c0.305-0.299,0.254-0.688-0.084-0.985
		c-0.145-0.125-0.287-0.271-0.459-0.334c-3.703-1.354-7.384-2.811-11.396-2.955c-4.317-0.156-8.632-0.398-12.951-0.503
		c-6.583-0.155-13.167-0.227-19.752-0.312c-2.235-0.03-4.471-0.01-6.648-0.01c-0.082,0.262-0.147,0.357-0.132,0.438
		c0.066,0.27,0.15,0.538,0.25,0.797c0.928,2.408,0.031,3.34-1.668,4.11c-0.857,0.388-1.781,0.613-2.649,0.979
		c-0.604,0.251-1.211,0.543-1.736,0.935c-0.828,0.61-0.92,1.765-0.225,2.521c0.38,0.415,0.856,0.746,1.319,1.069
		c0.62,0.434,1.301,0.78,1.901,1.242c0.883,0.684,0.911,1.965,0.143,2.768c-0.55,0.576-1.25,0.815-1.964,1.074
		c-1.327,0.479-2.674,0.93-3.949,1.529c-1.686,0.801-1.871,1.894-0.708,3.438c0.286,0.377,0.649,0.695,0.927,1.077
		c0.424,0.582,0.384,1.321-0.165,1.805c-0.491,0.435-1.046,0.817-1.631,1.101c-1.191,0.564-2.437,1.016-3.63,1.573
		c-2.123,0.996-2.316,1.521-1.178,3.71c0.441,0.852,0.195,1.439-0.226,2.108c-0.382,0.597-0.969,0.913-1.554,1.202
		c-1.436,0.712-2.911,1.341-4.344,2.061c-1.589,0.802-1.847,1.699-0.979,3.23c0.184,0.328,0.466,0.604,0.64,0.938
		C100.844,126.271,100.675,127,99.689,127.913z"/>
</g>
</svg>
