<?xml version="1.0" encoding="utf-8"?>
<!-- Generator: Adobe Illustrator 16.0.0, SVG Export Plug-In . SVG Version: 6.00 Build 0)  -->
<!DOCTYPE svg PUBLIC "-//W3C//DTD SVG 1.1//EN" "http://www.w3.org/Graphics/SVG/1.1/DTD/svg11.dtd">
<svg version="1.1" id="Calque_1" xmlns="http://www.w3.org/2000/svg" xmlns:xlink="http://www.w3.org/1999/xlink" x="0px" y="0px"
	 width="283px" height="283px" viewBox="0 0 283 283" enable-background="new 0 0 283 283" xml:space="preserve">
<path fill="#0000FF" d="M0.168,0v283.462H283V0H0.168z M232.44,191.518c-1.798,9.489-3.495,19.01-5.604,28.432
	c-1.232,5.508-3.64,10.623-6.9,15.264c-6.975,9.938-16.59,16.078-27.678,20.164c-8.761,3.229-17.776,4.338-27.065,4.285
	c-8.418-0.051-16.656-1.272-24.733-3.36c-5.879-1.521-11.506-3.988-16.866-7.017c-6.548-3.69-12.309-8.373-17.316-14.002
	c-1.685-1.894-3.104-4.06-4.495-6.199c-2.685-4.137-5.428-8.246-7.846-12.547c-2.649-4.719-5.134-9.557-7.378-14.49
	c-4.913-10.807-6.92-22.387-8.267-34.108c-0.227-1.978-0.412-3.955-0.632-6.08c-0.848-0.08-1.573-0.201-2.296-0.209
	c-2.448-0.023-4.929-0.264-7.335,0.061c-3.108,0.418-5.209-0.955-7.067-3.153c-5.174-6.119-9.029-12.953-10.587-20.954
	c-0.493-2.521-0.78-5.104-0.866-7.664c-0.136-4.076,1.763-7.4,4.39-10.272c2.242-2.449,4.728-4.666,6.978-7.104
	c4.859-5.279,8.23-11.307,9.168-18.66c0.598-4.698-0.245-8.875-2.758-12.847c-2.336-3.694-4.525-7.492-6.628-11.338
	c-0.86-1.566-1.52-3.32-1.909-5.074c-0.673-3.021,0.494-5.688,2.253-8.032c3.344-4.468,7.316-8.229,12.353-10.662
	c8.817-4.261,17.572-8.619,26.106-13.478c7.09-4.033,14.944-6.211,23.03-7.192c5.589-0.683,11.213-1.497,16.818-1.472
	c5.885,0.026,11.828,0.621,17.626,1.652c5.244,0.936,10.352,2.708,15.472,4.271c3.63,1.104,6.869,3.061,9.843,5.463
	c3.012,2.436,4.749,5.604,4.168,9.502c-1.299,8.709,2.805,15.018,8.609,20.42c5.131,4.777,10.693,9.075,15.982,13.685
	c2.422,2.111,4.681,4.427,6.938,6.722c1.474,1.498,2.405,3.352,3.054,5.705c-11.979,0.272-23.766,0.549-35.503,0.816
	c-1.78-4.39-4.802-7.442-8.208-10.016c-7.103-5.361-14.542-10.21-22.396-14.385c-3.992-2.123-7.869-4.485-11.881-6.571
	c-10.765-5.593-21.82-5.778-32.995-1.438c-7.024,2.73-7.597,7.26-6.602,13.289c0.366,2.208,1.407,4.364,2.442,6.386
	c2.515,4.902,2.928,9.896,1.729,15.296c-2.031,9.131-7.336,15.955-13.886,22.091c-1.986,1.855-3.743,4.038-5.302,6.291
	c-1.473,2.126-1.972,4.562-1.805,7.322c0.796,13.127,7.166,22.896,17.258,30.479c0.828,0.617,2.075,0.846,3.144,0.902
	c2.425,0.129,4.858,0.039,7.512,0.039c0.37,2.778,0.78,5.309,1.034,7.85c0.908,9.15,3.403,17.851,7.487,26.012
	c2.744,5.48,6.457,10.32,10.977,14.439c2.513,2.285,5.083,4.516,7.758,6.592c6.766,5.248,14.596,7.076,22.946,7.248
	c3.821,0.08,7.5-0.43,10.948-2.129c4.155-2.049,7.351-5.131,9.537-9.33c1.708-3.281,3.683-6.42,5.377-9.707
	c3.472-6.736,5.888-13.867,7.25-21.358c0.101-0.544,0.331-1.062,0.567-1.802c11.744,0.818,23.437,1.633,35.223,2.453
	C233.899,185.405,233.021,188.452,232.44,191.518z"/>
</svg>
