<?xml version="1.0" encoding="utf-8"?>
<!-- Generator: Adobe Illustrator 16.0.0, SVG Export Plug-In . SVG Version: 6.00 Build 0)  -->
<!DOCTYPE svg PUBLIC "-//W3C//DTD SVG 1.1//EN" "http://www.w3.org/Graphics/SVG/1.1/DTD/svg11.dtd">
<svg version="1.1" id="Calque_1" xmlns="http://www.w3.org/2000/svg" xmlns:xlink="http://www.w3.org/1999/xlink" x="0px" y="0px"
	 width="283px" height="283px" viewBox="0 0 283 283" enable-background="new 0 0 283 283" xml:space="preserve">
<path fill="#0000FF" d="M0,0v283.462h283V0H0z M230.155,247.165c-2.022,3.241-4.284,6.322-7.254,8.697
	c-1.829,1.465-3.905,2.688-6.029,3.66c-3.96,1.812-8.198,2.809-12.45,3.664c-11.85,2.395-23.813,3.63-35.9,3.544
	c-4.708-0.027-9.422,0.052-14.121-0.16c-6.867-0.309-13.721-0.891-20.448-2.42c-3.579-0.812-7.108-1.854-10.482-3.365
	c-3.925-1.762-7.169-4.463-10.258-7.451c-1.943-1.879-3.359-4.112-4.935-6.248c-0.112-0.151-0.273-0.295-0.32-0.47
	c-0.736-2.829-2.649-5.036-3.86-7.612c-0.324-0.688-0.66-1.395-0.836-2.127c-0.943-3.97-3.338-6.782-6.641-8.936
	c-3.341-2.178-6.917-3.875-10.513-5.561c-3.415-1.597-6.749-3.382-10.101-5.117c-2.182-1.133-4.283-2.424-6.503-3.465
	c-2.429-1.14-4.518-2.763-6.56-4.439c-2.278-1.879-3.488-4.449-4.229-7.311c-1.004-3.882-2.096-7.74-3.168-11.604
	c-0.281-1.012-0.688-1.984-0.942-3c-0.434-1.754-0.714-3.518-0.732-5.354c-0.021-2.002-0.475-3.993-0.649-5.997
	c-0.207-2.388-0.423-4.779-0.454-7.173c-0.053-3.834,0.059-7.674,0.067-11.51c0.005-1.147-0.046-2.307-0.143-3.451
	c-0.307-3.631-0.721-7.254-0.957-10.891c-0.156-2.485-0.085-4.987-0.108-7.481c-0.02-1.909-0.146-3.812,0.048-5.731
	c0.224-2.229,0.907-4.297,1.696-6.342c0.565-1.46,1.543-2.572,2.873-3.439c1.656-1.089,3.221-2.325,4.812-3.521
	c1.087-0.815,1.859-1.894,2.344-3.181c0.2-0.533,0.46-1.055,0.592-1.604c0.552-2.308,1.672-4.258,3.383-5.863
	c0.205-0.189,0.402-0.422,0.525-0.674c1.4-2.864,3.854-4.646,6.351-6.368c1.302-0.896,2.207-2.028,2.652-3.588
	c0.405-1.408,0.276-2.658-0.76-3.721c-1.26-1.288-2.508-2.601-3.846-3.798c-1.133-1.015-2.165-2.104-3.196-3.229
	c-1.926-2.095-4.085-3.968-6.152-5.926c-1.104-1.044-2.229-2.064-3.324-3.117c-1.045-1.002-1.339-2.134-0.98-3.638
	c0.451-1.861,1.447-3.062,3.156-3.703c1.585-0.6,3.188-1.16,4.788-1.731c0.176-0.062,0.365-0.096,0.544-0.147
	c4.249-1.301,7.387-4.034,9.789-7.771c1.185-1.845,2.487-3.606,3.766-5.384c0.846-1.175,1.926-2.096,3.202-2.768
	c2.759-1.45,5.523-2.889,8.272-4.354c0.666-0.354,1.265-0.838,1.923-1.201c1.736-0.96,3.482-1.897,5.229-2.827
	c3.083-1.639,6.33-3.018,9.204-4.971c2.358-1.604,4.821-2.938,7.327-4.213c2.524-1.277,5.133-2.387,7.732-3.499
	c0.858-0.364,1.813-0.493,2.708-0.778c0.322-0.104,0.777-0.068,0.911-0.742c-2.688-0.387-5.378-0.104-8.048-0.166
	c-2.731-0.062-5.463,0.002-8.196-0.018c-2.674-0.02-5.353,0.1-8.528-0.104c1.543-1.035,2.82-1.307,4.053-1.666
	c3.347-0.979,6.727-1.852,10.038-2.941c6.111-2.02,12.421-3.109,18.706-4.277c10.233-1.901,20.584-2.149,30.954-1.611
	c4.601,0.236,9.201,0.688,13.728,1.613c4.362,0.896,8.55,2.303,12.246,4.967c0.832,0.6,1.329,1.314,1.551,2.295
	c0.222,0.966-0.106,1.555-1.026,1.627c-1.033,0.082-2.07,0.095-3.105,0.104c-2.072,0.02-4.148,0.008-6.219,0.022
	c-0.35,0.004-0.692,0.095-1.029,0.144c-0.01,0.674,0.464,0.608,0.781,0.719c4.652,1.588,9.121,3.635,13.382,6.088
	c2.11,1.218,4.036,2.789,5.968,4.312c0.723,0.572,1.271,1.414,1.805,2.199c1.875,2.769,1.862,2.873,0.476,5.962
	c-0.115,0.266-0.224,0.532-0.353,0.785c-1.201,2.275-0.852,4.422,0.494,6.5c0.571,0.88,1.08,1.8,1.656,2.673
	c1.204,1.81,1.689,3.806,1.754,5.974c0.061,1.944,0.17,3.844-1.443,5.312c-0.533,0.481-0.498,1.155-0.488,1.86
	c0.051,2.954,1.74,4.987,3.646,6.891c1.275,1.271,2.643,2.447,3.955,3.682c1.105,1.036,2.26,2.03,3.271,3.157
	c1.656,1.85,3.455,3.516,5.369,5.077c1.025,0.839,2.023,1.731,2.933,2.701c1.685,1.802,2.604,3.908,2.368,6.34
	c-0.364,0.229-0.521,0.412-0.68,0.412c-10.83-0.025-21.662-0.061-32.49-0.111c-0.746-0.004-1.486-0.161-2.344-0.261
	c-0.322-0.814-0.684-1.582-0.932-2.387c-0.466-1.516-1.301-2.749-2.479-3.77c-1.078-0.931-2.185-1.833-3.207-2.818
	c-1.98-1.91-3.907-3.88-5.866-5.812c-1.419-1.4-2.854-2.788-4.286-4.178c-0.957-0.928-1.891-1.874-2.879-2.766
	c-2.197-1.987-3.529-4.496-4.059-7.393c-0.326-1.78-1.207-2.822-2.769-3.651c-1.985-1.054-3.813-2.399-5.546-3.907
	c-2.088-1.812-4.627-2.976-7.301-3.603c-4.605-1.082-9.277-1.397-14.008-0.879c-2.616,0.288-5.209,0.563-7.775,1.224
	c-3.311,0.85-6.319,2.391-9.345,3.891c-2.459,1.22-4.923,2.332-7.612,2.949c-3.942,0.9-7.841,1.979-11.758,3
	c-0.724,0.188-1.427,0.467-2.14,0.717c-1.881,0.666-2.693,2.303-3.408,3.992c-0.286,0.675-0.057,1.361,0.416,1.873
	c1.154,1.261,2.309,2.528,3.558,3.688c1.532,1.419,3.207,2.679,4.737,4.1c2.919,2.711,5.784,5.479,8.653,8.24
	c0.405,0.392,0.744,0.862,1.077,1.322c0.672,0.928,0.757,1.907,0.297,2.979c-0.615,1.438-1.418,2.688-2.789,3.51
	c-1.298,0.773-2.571,1.597-3.861,2.396c-1.138,0.706-2.104,1.588-2.893,2.697c-0.879,1.235-1.797,2.456-2.791,3.602
	c-1.223,1.407-1.975,3.035-2.319,4.844c-0.435,2.286-1.691,3.989-3.434,5.376c-0.817,0.646-1.647,1.296-2.537,1.825
	c-1.928,1.147-3.301,2.753-4.419,4.722c-0.633,1.114-1.109,2.186-1.247,3.452c-0.083,0.757-0.253,1.517-0.486,2.237
	c-0.449,1.397-0.64,2.795-0.31,4.245c0.064,0.277,0.118,0.568,0.107,0.854c-0.216,7.301,0.486,14.549,1.15,21.801
	c0.1,1.043,0.076,2.103,0.064,3.153c-0.064,4.98-0.48,9.968,0.088,14.943c0.411,3.613,0.761,7.24,1.286,10.839
	c0.188,1.296,0.797,2.524,1.207,3.788c0.557,1.729,1.144,3.445,1.661,5.188c0.906,3.028,2.313,5.844,3.562,8.729
	c0.956,2.215,2.638,3.701,4.538,4.949c3.204,2.102,6.831,3.166,10.45,4.213c5.178,1.496,10.497,2.146,15.824,2.781
	c4.417,0.528,8.836,0.574,13.261,0.365c5.56-0.266,11.062-0.998,16.407-2.648c3.348-1.032,6.527-2.508,9.519-4.311
	c3.86-2.332,6.413-5.846,7.862-10.177c0.361-1.078,0.697-2.164,1.023-3.188c2.988-0.371,33.127-0.414,35.496-0.052
	c0.326,2.56-0.63,4.854-1.611,7.103c-1.309,2.998-3.006,5.729-5.502,7.916c-1.207,1.057-2.147,2.412-3.232,3.604
	c-0.744,0.816-1.02,1.771-1.131,2.867c-0.143,1.396,0.322,2.467,1.398,3.238c0.842,0.604,1.739,1.145,2.666,1.611
	c1.26,0.639,2.549,1.233,3.864,1.76c5.619,2.25,10.812,5.371,16.147,8.197c1.076,0.569,2.076,1.342,2.975,2.168
	c1.271,1.168,2.264,2.562,2.605,4.346c0.234,1.227,0.451,2.459,0.807,3.648C231.785,243.538,231.256,245.394,230.155,247.165z"/>
</svg>
