<?xml version="1.0" encoding="utf-8"?>
<!-- Generator: Adobe Illustrator 16.0.0, SVG Export Plug-In . SVG Version: 6.00 Build 0)  -->
<!DOCTYPE svg PUBLIC "-//W3C//DTD SVG 1.1//EN" "http://www.w3.org/Graphics/SVG/1.1/DTD/svg11.dtd">
<svg version="1.1" id="Calque_1" xmlns="http://www.w3.org/2000/svg" xmlns:xlink="http://www.w3.org/1999/xlink" x="0px" y="0px"
	 width="283px" height="283px" viewBox="0 0 283 283" enable-background="new 0 0 283 283" xml:space="preserve">
<path fill="#0000FF" d="M0,0v283.462h283V0H0z M226.639,143.322c-0.805,1.287-1.743,2.488-2.558,3.641
	c-1.782,0.229-30.522-0.708-34.556-1.122c0.236-0.701,0.322-1.188,0.552-1.579c0.92-1.606,0.386-2.905-0.704-4.17
	c-1.251-1.457-2.76-2.547-4.417-3.471c-5.377-3-11.202-4.304-17.237-5.033c-4.328-0.521-8.651-0.621-12.971-0.433
	c-5.173,0.229-10.292,0.919-15.324,2.276c-3.731,1.005-7.318,2.417-10.891,3.837c-5.69,2.265-11.315,4.709-16.906,7.228
	c-1.87,0.844-3.619,2.041-5.296,3.258c-3.221,2.332-6.142,5.037-8.995,7.828c-2.116,2.068-3.352,4.604-4.167,7.385
	c-0.45,1.551-0.22,3.115,0.994,4.252c1.306,1.225,2.667,2.443,4.17,3.391c4.863,3.047,10.268,4.707,15.795,5.977
	c6.752,1.553,13.596,1.938,20.49,1.604c7.64-0.369,15.198-1.299,22.501-3.761c2.139-0.724,4.291-1.476,6.299-2.487
	c1.666-0.844,3.188-2.021,4.668-3.188c1.709-1.352,3.352-2.795,4.928-4.299c0.912-0.867,1.883-1.113,3.08-1.098
	c6.592,0.092,13.185,0.113,19.775,0.193c3.861,0.043,7.719,0.146,11.577,0.236c0.554,0.014,1.108,0.107,1.923,0.191
	c-0.288,0.557-0.41,1.006-0.688,1.293c-1.266,1.295-2.414,2.662-3.475,4.146c-1.044,1.461-2.348,2.711-3.857,3.758
	c-3.814,2.647-7.713,5.123-11.879,7.173c-3.469,1.705-6.902,3.491-10.287,5.366c-3.412,1.895-7.019,3.25-10.734,4.32
	c-3.613,1.047-7.285,1.872-10.898,2.913c-4.459,1.288-9.043,1.843-13.613,2.409c-3.916,0.486-7.881,0.73-11.832,0.771
	c-6.494,0.069-12.998,0.052-19.484-0.226c-8.012-0.341-15.906-1.729-23.61-3.995c-4.599-1.357-9.181-2.854-13.318-5.451
	c-2.407-1.511-4.673-3.203-6.814-5.061c-4.093-3.532-7.764-7.509-11.374-11.541c-0.062-0.066-0.133-0.138-0.193-0.209
	c-2.535-3.061-2.555-4.577-0.863-8.354c1.249-2.782,3.085-4.979,5.189-7.071c2.018-2.004,3.936-4.099,6.103-5.954
	c2.393-2.043,4.875-3.896,7.709-5.268c5.293-2.553,10.117-5.864,14.874-9.33c4.971-3.62,9.769-7.464,14.637-11.222
	c2.501-1.929,4.07-4.361,4.115-7.431c0.053-3.232,1.544-5.558,3.776-7.356c2.225-1.794,2.516-4.042,2.588-6.465
	c-1.42-1.525-2.812-2.773-4.431-3.793c-1.525-0.958-2.942-2.098-3.283-4.2c1.178-1.741,3.025-2.517,4.935-2.975
	c2.834-0.68,5.71-1.229,8.597-1.624c2.79-0.386,5.639-0.354,8.422-0.774c4.877-0.746,9.781-0.554,14.652-0.437
	c6.579,0.164,13.148,0.743,19.653,1.941c4.302,0.792,8.321,2.208,12.298,4.026c2.919,1.334,5.926,2.438,8.641,4.204
	c1.738,1.133,3.532,2.159,4.907,3.812c0.593,0.715,1.468,1.184,2.212,1.77c1.043,0.819,2.07,1.656,3.121,2.471
	c0.676,0.521,1.357,1.02,2.055,1.5c0.471,0.319,1.049,0.515,1.435,0.908c2.676,2.744,6.006,4.567,9.071,6.753
	c2.271,1.611,4.031,3.725,5.922,5.689c1.695,1.771,3.037,3.886,4.607,5.785c1.207,1.464,2.478,2.882,3.81,4.231
	c1.737,1.765,3.327,3.609,4.591,5.784C228.059,138.687,228.088,141.004,226.639,143.322z"/>
</svg>
