<?xml version="1.0" encoding="utf-8"?>
<!-- Generator: Adobe Illustrator 16.0.0, SVG Export Plug-In . SVG Version: 6.00 Build 0)  -->
<!DOCTYPE svg PUBLIC "-//W3C//DTD SVG 1.1//EN" "http://www.w3.org/Graphics/SVG/1.1/DTD/svg11.dtd">
<svg version="1.1" id="Calque_1" xmlns="http://www.w3.org/2000/svg" xmlns:xlink="http://www.w3.org/1999/xlink" x="0px" y="0px"
	 width="283px" height="283px" viewBox="0 0 283 283" enable-background="new 0 0 283 283" xml:space="preserve">
<path fill="#0000FF" d="M0.168,0v283.462H283V0H0.168z M227.922,181.469c-3.324,0-6.759,0-10.386,0
	c-1.226,4.49-3.362,8.443-3.646,13.021c-0.252,3.995-0.689,7.983-1.143,11.962c-0.266,2.367-1.613,4.288-3.109,5.967
	c-5.309,5.949-11.645,10.562-18.664,14.148c-7.027,3.589-14.58,5.545-22.311,6.787c-11.828,1.901-23.562,1.373-35.25-1.304
	c-12.447-2.854-23.365-8.646-33.021-17.108c-5.624-4.933-11.417-9.674-17.185-14.437c-5.36-4.426-9.623-9.651-11.971-16.354
	c-0.248-0.693-0.4-1.432-0.69-2.49c2.91,0,5.581,0,8.594,0c-0.89-3.053-1.862-5.646-3.953-7.521c-2.751-2.47-5.736-4.658-8.5-7.104
	c-2.264-2.002-4.421-4.143-6.495-6.348c-1.372-1.459-2.124-3.31-2.637-5.308c-0.391-1.534-1.328-2.918-1.774-4.444
	c-0.471-1.604-0.808-3.293-0.917-4.963c-0.146-2.283-0.022-4.586-0.014-6.882c0.068-15.104,2.653-29.729,8.92-43.465
	c3.729-8.165,8.488-15.692,14.719-22.279c4.335-4.589,8.938-8.792,14.179-12.122c6.862-4.356,14.245-7.721,22.175-9.62
	c9.954-2.384,20.066-3.13,30.229-2.331c12.629,0.992,24.583,4.521,35.325,11.533c8.484,5.543,15.443,12.647,20.73,21.521
	c4.721,7.926,7.327,16.507,8.803,25.538c0.146,0.907,0.02,1.866,0.02,3.057c-11.876,0-23.668,0-35.378,0
	c-1.11-3.145-1.95-6.284-3.306-9.179c-1.9-4.065-4.705-7.446-7.996-10.561c-5.273-4.984-11.348-8.074-18.309-9.456
	c-8.504-1.688-16.891-0.968-24.858,2.438c-10.402,4.446-17.553,12.354-22.098,22.827c-2.796,6.438-4.361,13.165-5.299,20.121
	c-0.901,6.667-0.857,13.324-0.545,20.004c0.046,1.021,0.34,2.057,0.662,3.031c0.712,2.174,1.452,4.334,2.292,6.455
	c1.65,4.164,4.968,6.877,8.283,9.541c2.432,1.955,4.989,3.748,7.493,5.612c3.255,2.427,5.697,5.498,7.433,9.75
	c-2.766,0-5.297,0-8.521,0c0.963,1.416,1.533,2.234,2.087,3.066c4.197,6.332,10.086,10.355,16.884,13.354
	c5.946,2.623,12.077,4.138,18.502,4.582c4.516,0.314,9.012,0.164,13.425-0.914c4.056-0.989,7.429-3.191,9.905-6.637
	c3.048-4.233,5.99-8.551,9.244-13.207c3.082,0,6.637,0,10.049,0c2.288-3.81,2.156-6.537-0.438-9.606
	c-1.592-1.888-3.334-3.644-4.945-5.519c-0.781-0.908-1.407-1.959-2.363-3.31c1.311-0.104,2.195-0.22,3.084-0.229
	c9.785-0.131,19.564-0.18,29.346-0.416c2.153-0.053,3.639,0.392,4.981,2.254c1.606,2.229,3.495,4.298,5.522,6.132
	C228.195,173.883,228.997,177.215,227.922,181.469z"/>
</svg>
