<?xml version="1.0" encoding="utf-8"?>
<!-- Generator: Adobe Illustrator 16.0.0, SVG Export Plug-In . SVG Version: 6.00 Build 0)  -->
<!DOCTYPE svg PUBLIC "-//W3C//DTD SVG 1.1//EN" "http://www.w3.org/Graphics/SVG/1.1/DTD/svg11.dtd">
<svg version="1.1" id="Calque_1" xmlns="http://www.w3.org/2000/svg" xmlns:xlink="http://www.w3.org/1999/xlink" x="0px" y="0px"
	 width="283px" height="283px" viewBox="0 0 283 283" enable-background="new 0 0 283 283" xml:space="preserve">
<path fill="#0000FF" d="M0,0v283.462h283V0H0z M226.691,217.37c-0.797,4.92-1.689,9.814-3.322,14.543
	c-0.531,1.529-1.67,2.515-2.923,3.394c-0.849,0.603-1.778,1.1-2.579,1.758c-3.439,2.836-7.059,5.397-10.787,7.832
	c-1.551,1.013-2.82,2.508-4.117,3.879c-3.668,3.879-7.548,7.473-12.285,9.973c-3.172,1.676-6.305,3.437-9.524,5.004
	c-1.771,0.857-3.673,1.451-5.544,2.076c-5.381,1.787-10.912,2.965-16.518,3.615c-4.386,0.516-8.812,0.812-13.225,0.885
	c-3.271,0.058-6.556-0.342-9.821-0.643c-4.114-0.379-8.157-1.256-12.17-2.219c-4.589-1.104-9.114-2.548-13.303-4.691
	c-4.691-2.396-9.423-4.822-13.607-8.123c-1.778-1.396-3.442-2.957-5.091-4.514c-2.761-2.595-5.434-5.283-8.2-7.865
	c-2.476-2.311-4.288-4.992-5.427-8.248c-1.888-5.404-3.955-10.746-5.16-16.379c-0.131-0.617-0.514-1.248-0.948-1.717
	c-0.899-0.974-1.863-1.9-2.889-2.736c-1.367-1.109-1.845-2.594-1.972-4.266c-0.053-0.697,0.163-1.256,0.715-1.771
	c2.341-2.188,2.506-3.783,0.766-6.479c-0.154-0.24-0.296-0.511-0.503-0.691c-1.328-1.154-1.3-2.668-1.093-4.223
	c0.205-1.523,1.034-2.654,2.245-3.508c0.851-0.604,1.748-1.134,2.602-1.732c2.411-1.699,3.149-4.207,2.056-7.012
	c-0.242-0.621-0.5-1.277-0.909-1.783c-1.622-2.012-1.308-4.264-0.339-6.229c1.34-2.709,1.897-5.602,2.624-8.467
	c0.049-0.186,0.023-0.396,0.104-0.562c1.622-3.338,1.76-7.033,2.429-10.593c0.382-2.045,0.739-4.114,0.387-6.258
	c-0.559-3.401-2.325-6.01-4.801-8.223c-2.704-2.418-5.738-4.336-8.934-5.988c-2.585-1.338-4.641-3.309-6.307-5.646
	c-1.724-2.422-2.531-5.281-1.777-8.184c1.415-5.452,2.119-11.104,4.336-16.345c0.925-2.191,1.654-4.479,2.456-6.729
	c0.416-1.173,0.917-2.279,1.574-3.354c1.044-1.701,1.787-3.533,2.155-5.572c0.474-2.626,1.388-5.168,1.537-7.866
	c1.066-2.085,1.091-4.443,1.697-6.648c0.256-0.919,0.578-1.819,0.897-2.72c0.959-2.688,1.879-5.392,2.913-8.049
	c0.722-1.856,1.445-3.701,2.59-5.385c1.551-2.273,2.853-4.728,4.272-7.096c0.686-1.145,1.408-2.266,2.091-3.413
	c0.631-1.062,1.295-2.104,1.461-3.394c0.264-2.02,1.438-3.236,3.307-3.892c1.69-0.594,3.352-1.269,5.004-1.952
	c0.684-0.285,1.398-0.604,1.951-1.084c1.281-1.115,1.321-1.979,0.373-3.484c-0.348-0.547-0.655-1.125-0.994-1.711
	c1.312-2.135,3.063-3.112,4.952-3.729c3.09-1.013,5.717-2.854,8.437-4.542c0.711-0.439,1.385-1.023,1.898-1.688
	c0.858-1.104,1.992-1.765,3.193-2.293c3.365-1.479,6.728-3.021,10.325-3.805c4.68-1.021,9.381-1.979,14.108-2.724
	c3.795-0.599,7.633-0.972,11.493-0.959c1.595,0.006,3.201-0.151,4.764,0.358c0.178,0.058,0.374,0.062,0.562,0.057
	c5.617-0.15,10.984,1.354,16.408,2.525c3.974,0.859,7.744,2.271,11.471,3.906c3.016,1.32,6.13,2.42,9.23,3.541
	c2.437,0.881,4.514,2.276,6.437,4.102c-0.079,0.896-0.151,1.734-0.216,2.479c0.142,0.269,0.199,0.466,0.324,0.597
	c1.473,1.532,3.211,2.59,5.232,3.233c2.15,0.688,4.279,1.468,6.376,2.308c1.576,0.631,1.547,0.703,2.974,2.629
	c-0.552,0.6-1.166,1.182-1.68,1.845c-0.427,0.557-0.588,1.245-0.134,1.868c0.552,0.762,1.098,1.562,1.787,2.176
	c1.438,1.279,2.698,2.646,3.435,4.486c0.46,1.145,1.094,2.215,1.616,3.332c0.896,1.906,1.449,3.918,1.81,6.002
	c0.344,1.979,0.782,3.938,1.219,5.896c0.486,2.181,0.463,4.381,0.363,6.581c-0.127,2.859-0.277,5.722-0.438,8.575
	c-0.075,1.327-0.051,2.688-0.909,3.955c-11.677,0.562-23.382,1.123-35.229,1.69c-0.086-0.738-0.267-1.295-0.189-1.812
	c0.689-4.693,0.125-9.367-0.236-14.036c-0.3-3.868-2.154-7.066-4.453-10.044c-0.289-0.374-0.636-0.705-0.889-1.103
	c-2.701-4.242-6.625-6.934-11.008-9.045c-0.339-0.164-0.73-0.225-1.053-0.408c-6.002-3.424-12.574-3.715-19.195-3.436
	c-2.709,0.112-5.418,0.614-8.095,1.141c-1.645,0.323-3.25,0.938-4.812,1.574c-1.651,0.672-3.298,1.398-4.827,2.317
	c-2.651,1.601-5.212,3.354-7.385,5.627c-1.175,1.229-2.57,2.213-3.824,3.354c-2.023,1.849-3.456,4.06-4.705,6.392
	c-2.156,4.026-4.184,8.106-5.355,12.617c-1.083,4.156-2.112,8.329-3.207,12.483c-0.314,1.19-0.651,2.459-1.313,3.46
	c-1.167,1.757-2.174,3.562-2.957,5.521c-1.303,3.272-2.884,6.438-3.86,9.847c-0.131,0.459-0.345,0.911-0.376,1.379
	c-0.199,2.808-1.212,5.404-1.919,8.082c-0.616,2.325-1.18,4.675-0.389,7.067c0.353,1.08,0.682,2.229,1.314,3.143
	c1.412,2.041,3.062,3.881,5.254,5.142c2.375,1.366,4.757,2.731,7.062,4.211c3.379,2.161,6.455,4.653,8.142,8.524
	c0.59,1.353,0.899,2.722,0.674,4.189c-0.49,3.218-0.907,6.444-1.517,9.641c-0.34,1.773-1.001,3.488-1.535,5.229
	c-0.532,1.733-1.062,3.472-1.642,5.188c-0.394,1.17-0.88,2.31-1.32,3.463c-0.202,0.535-0.469,1.062-0.558,1.617
	c-0.2,1.223-0.309,2.457-0.448,3.648c0.538,0.778,1.147,1.427,1.485,2.196c0.617,1.41,0.837,2.912,0.695,4.492
	c-0.12,1.351-0.578,2.392-1.732,3.094c-0.81,0.49-1.592,1.027-2.404,1.513c-4.306,2.563-3.81,6.78-1.192,9.362
	c0.675,0.666,0.9,1.308,1.042,2.209c0.257,1.595-0.061,2.783-1.403,3.729c-1.187,0.839-1.219,1.989-0.766,3.325
	c0.389,1.137,1.007,2.041,1.849,2.819c0.557,0.517,1.125,1.041,1.758,1.447c1.617,1.032,2.567,2.625,3.04,4.362
	c1.035,3.825,2.82,7.257,4.75,10.653c1.286,2.26,2.774,4.308,4.824,5.883c0.672,0.521,1.385,0.992,2.13,1.395
	c5.833,3.146,12.061,4.705,18.655,5.037c4.903,0.245,9.788,0.161,14.676-0.072c5.207-0.248,10.275-1.295,15.158-3.139
	c3.256-1.229,6.453-2.628,9.676-3.951c1.738-0.715,2.918-1.989,3.805-3.666c2.023-3.812,3.479-7.826,4.582-12.008
	c0.552-2.082,0.142-3.742-1.25-5.272c-0.445-0.486-0.817-1.058-1.137-1.642c-0.162-0.296-0.135-0.699-0.211-1.184
	c0.482-0.088,0.832-0.209,1.172-0.209c11.394-0.013,22.791-0.009,34.017-0.009c1.202,1.449,2.289,2.75,3.362,4.062
	C226.561,215.478,226.859,216.336,226.691,217.37z"/>
</svg>
