<?xml version="1.0" encoding="utf-8"?>
<!-- Generator: Adobe Illustrator 16.0.0, SVG Export Plug-In . SVG Version: 6.00 Build 0)  -->
<!DOCTYPE svg PUBLIC "-//W3C//DTD SVG 1.1//EN" "http://www.w3.org/Graphics/SVG/1.1/DTD/svg11.dtd">
<svg version="1.1" id="Calque_1" xmlns="http://www.w3.org/2000/svg" xmlns:xlink="http://www.w3.org/1999/xlink" x="0px" y="0px"
	 width="283px" height="283px" viewBox="0 0 283 283" enable-background="new 0 0 283 283" xml:space="preserve">
<path fill="#0000FF" d="M0,0v283.461h283V0H0z M228.496,91.752c-11.848,0.184-23.572,0.362-35.408,0.544
	c-0.062-0.799-0.151-1.262-0.121-1.715c0.326-4.66-2.105-7.729-5.605-10.214c-5.088-3.61-10.894-5.083-16.912-5.814
	c-8.871-1.079-17.674-0.308-26.316,1.767c-8.404,2.016-16.08,5.802-23.101,10.953c-8.037,5.895-13.988,13.545-18.425,22.479
	c-2.295,4.626-5.048,8.956-8.036,13.138c-3.843,5.377-4.412,11.18-2.393,17.413c2.093,6.457,4.467,12.794,7.86,18.667
	c3.972,6.871,9.068,12.655,16.147,16.369c2.566,1.35,5.174,2.608,8.18,4.118c-8.833,0-17.384,0-26.315,0
	c0.492,0.904,0.731,1.607,1.18,2.121c7.414,8.504,16.457,13.72,27.771,14.729c5.122,0.457,10.181,0.32,15.131-0.812
	c7.235-1.657,13.496-5.166,18.056-11.364c0.676-0.92,1.481-1.738,2.148-2.662c0.355-0.49,0.552-1.109,0.953-1.963
	c-5.58,0-10.823,0-16.418,0c1.936-1.681,3.625-3.048,5.199-4.548c1.217-1.163,2.463-2.372,3.396-3.771
	c2.94-4.42,5.926-8.826,8.546-13.443c3.493-6.145,6.191-12.66,7.496-19.716c0.377-2.051,1.141-4.029,1.748-6.037
	c0.633-2.082,1.975-3.035,4.175-3.098c5.459-0.154,10.91-0.453,16.363-0.725c5.721-0.282,11.432-0.602,17.438-0.918
	c-0.332,0.716-0.57,1.266-0.839,1.795c-1.938,3.798-2.604,7.955-3.418,12.085c-0.721,3.657-1.509,7.311-2.511,10.895
	c-1.359,4.871-3.045,9.648-4.417,14.52c-1.168,4.142-1.696,8.381-1.013,12.84c0.928,0.08,1.841,0.156,3.02,0.261
	c-0.324,1.207-0.512,2.311-0.91,3.332c-3.273,8.303-7.628,15.989-13.572,22.573c-4.32,4.785-9.174,9.015-14.808,12.288
	c-4.261,2.478-8.56,4.873-13.233,6.246c-5.215,1.528-10.563,2.655-15.914,3.61c-6.229,1.112-12.568,0.967-18.842,0.467
	c-9.59-0.766-18.931-2.748-27.805-6.766c-9.494-4.3-17.889-10.184-24.839-18.014c-4.979-5.607-9.35-11.742-12.479-18.688
	c-0.727-1.611-1.46-3.224-2.35-5.183c4.274,0,8.028,0,12.182,0c-0.499-0.741-0.738-1.213-1.082-1.586
	c-4.595-5.016-7.483-11.021-9.343-17.498c-2-6.973-3.727-14.024-5.36-21.099c-1.365-5.908-0.272-11.408,3.572-16.177
	c3.782-4.689,6.747-9.904,9.437-15.28c3.843-7.682,8.958-14.379,15.016-20.334c6.52-6.407,13.619-12.048,21.528-16.612
	c11.976-6.913,24.773-11.464,38.251-14.144c6.489-1.29,13.043-1.836,19.642-1.862c4.412-0.017,8.829-0.003,13.236,0.208
	c8.189,0.396,16.222,1.855,24.126,4.062c6.554,1.827,12.944,4.081,18.771,7.727c4.111,2.569,7.965,5.443,10.402,9.869
	C230.33,81.624,230.537,86.56,228.496,91.752z"/>
</svg>
