<?xml version="1.0" encoding="utf-8"?>
<!-- Generator: Adobe Illustrator 16.0.0, SVG Export Plug-In . SVG Version: 6.00 Build 0)  -->
<!DOCTYPE svg PUBLIC "-//W3C//DTD SVG 1.1//EN" "http://www.w3.org/Graphics/SVG/1.1/DTD/svg11.dtd">
<svg version="1.1" id="Calque_1" xmlns="http://www.w3.org/2000/svg" xmlns:xlink="http://www.w3.org/1999/xlink" x="0px" y="0px"
	 width="283px" height="283px" viewBox="0 0 283 283" enable-background="new 0 0 283 283" xml:space="preserve">
<g>
	<path fill="#0000FF" d="M0,0v283.462h283V0H0z M228.786,150.138c-1.882,1.459-3.926,2.665-6.157,3.452
		c-4.621,1.636-9.273,3.181-13.916,4.75c-3.392,1.146-6.812,2.207-10.17,3.449c-1.302,0.479-2.541,1.248-3.675,2.08
		c-1.351,0.988-1.599,2.396-0.583,3.773c2.703,3.666,5.018,7.662,8.374,10.791c1.244,1.158,2.659,2.133,4.021,3.151
		c2.481,1.857,3.312,4.002,2.593,6.996c-0.761,3.164-2.024,6.16-3.042,9.234c-1.344,4.065-3.375,7.914-3.891,12.262
		c-0.271,2.289-0.529,4.521,0.062,6.84c0.814,3.188,0.236,6.351-1.206,9.216c-1.714,3.401-3.649,6.698-5.638,9.946
		c-1.859,3.039-4.52,5.354-7.317,7.459c-2.964,2.229-6.29,3.812-9.667,5.312c-3.891,1.729-7.848,3.221-11.986,4.188
		c-7.086,1.646-14.244,2.713-21.522,2.732c-6.208,0.021-12.422,0.09-18.63-0.039c-5.649-0.116-11.259-0.826-16.786-2.039
		c-3.578-0.784-7.217-1.478-10.653-2.717c-5.573-2.017-11.119-4.181-16.203-7.351c-2.407-1.5-4.865-2.934-7.15-4.604
		c-3.439-2.521-6.487-5.5-8.824-9.142c-1.281-1.997-2.507-4.047-3.62-6.146c-1.493-2.801-1.224-5.676-0.221-8.607
		c0.989-2.889,1.873-5.819,2.616-8.78c0.488-1.949,0.331-3.945,0.066-5.984c-0.311-2.396-0.792-4.678-1.616-6.943
		c-0.647-1.778-0.867-3.721-1.365-5.562c-0.602-2.234-1.574-4.312-2.914-6.191c-0.336-0.467-0.716-0.916-0.935-1.438
		c-0.81-1.918-1.213-3.744,0.358-5.619c1.657-1.979,3.452-3.791,5.376-5.479c0.568-0.5,1.168-0.963,1.76-1.438
		c0.839-0.678,1.469-1.469,1.526-2.629c0.097-1.916,1.177-3.279,2.708-4.119c2.686-1.479,3.879-4.072,5.174-6.611
		c0.636-1.248,0.575-2.625,0.177-3.93c-0.787-2.562-0.738-5.166-0.082-7.667c0.822-3.143-0.46-5.395-2.416-7.486
		c-0.97-1.041-2.006-2.022-3.04-3.003c-1.959-1.858-3.39-4.088-4.501-6.551c-1.028-2.275-2.271-4.438-4.006-6.229
		c-2.279-2.351-3.28-5.337-4.182-8.359c-0.679-2.285-1.33-4.562-2.147-6.812c-1.07-2.941-1.767-6.055-2.121-9.192
		c-0.102-0.922-0.004-1.979,0.353-2.819c1.043-2.469,2.258-4.838,4.469-6.524c1.502-1.146,2.82-2.542,4.313-3.703
		c1.489-1.159,3.076-2.194,4.653-3.229c1.107-0.727,2.252-1.394,3.416-2.02c0.95-0.512,1.273-1.361,1.418-2.339
		c0.172-1.154-0.163-2.157-1.219-2.67c-1.614-0.775-3.273-1.448-4.93-2.125c-1.218-0.498-2.475-0.905-3.694-1.41
		c-0.419-0.176-0.775-0.52-1.083-0.729c-0.509-1.466,0.06-2.397,1.235-2.896c1.907-0.807,3.869-1.48,5.809-2.227
		c0.96-0.369,1.907-0.798,2.88-1.146c1.683-0.604,2.98-1.627,3.595-3.394c0.526-1.514,1.293-2.909,0.961-4.69
		c-0.259-1.379-0.011-2.861,0.063-4.297c0.072-1.426,0.159-2.84,0.149-4.273c-0.018-1.934,0.739-3.729,2.554-4.805
		c2.226-1.312,4.672-2.079,7.125-2.678c7.766-1.896,15.576-3.631,23.374-5.404c2.57-0.584,5.139-1.195,7.734-1.625
		c3.622-0.598,7.256-1.18,10.901-1.512c7.691-0.701,15.396-1.102,23.127-0.854c5.945,0.188,11.835,0.769,17.678,1.845
		c3.904,0.721,7.637,2.021,11.342,3.436c3.621,1.384,6.955,3.371,10.422,5.074c4.49,2.207,9.064,4.223,13.541,6.463
		c2.187,1.098,4.273,2.424,6.299,3.812c2.584,1.771,4.619,4.197,6.893,6.335c1.193,1.12,1.721,2.729,2.191,4.291
		c0.414,1.373,0.092,2.196-1.168,2.856c-1.42,0.746-2.903,1.363-4.342,2.074c-0.662,0.326-1.279,0.748-1.793,1.053
		c-0.297,1.412,0.229,2.373,1.364,3.514c-1.039,0-1.573-0.001-2.106,0c-9.98,0.029-19.961,0.062-29.943,0.094
		c-1.609,0.008-3.206-0.021-4.643-0.933c-0.582-0.367-1.057-0.765-1.24-1.479c-0.203-0.793-0.098-1.346,0.593-1.729
		c1.072-0.598,2.19-1.096,3.284-1.66c0.83-0.434,1.744-0.783,2.124-2.014c-1.488-2.59-3.63-4.738-6.171-6.377
		c-2.691-1.73-5.475-3.332-8.42-4.625c-2.508-1.104-5.047-2.066-7.74-2.599c-3.227-0.638-6.424-1.44-9.662-1.989
		c-7.057-1.191-14.067-0.856-20.976,1.062c-1.447,0.402-2.854,0.997-4.208,1.656c-0.739,0.357-1.355,1.01-1.98,1.584
		c-0.551,0.509-1.005,1.125-1.56,1.634c-0.643,0.591-1.027,1.276-1.37,2.104c-1.408,3.356-3.628,6.035-7.032,7.396
		c-3.062,1.226-6.208,2.229-9.314,3.337c-0.711,0.253-1.436,0.479-2.107,0.812c-0.71,0.351-1.152,0.971-1.31,1.773
		c-0.122,0.617-0.003,1.171,0.54,1.51c0.476,0.297,0.994,0.549,1.519,0.748c1.321,0.504,2.667,0.944,3.986,1.457
		c0.88,0.338,1.781,0.663,2.581,1.146c2.121,1.275,2.179,3.992,0.108,5.384c-1.019,0.685-2.119,1.255-3.227,1.781
		c-1.553,0.734-2.915,1.73-4.22,2.85c-1.582,1.354-3.211,2.65-4.837,3.949c-1.971,1.571-3.43,3.521-4.403,5.878
		c-0.782,1.9-1.099,3.767-0.699,5.87c0.467,2.462,1.1,4.853,1.916,7.202c0.909,2.616,1.778,5.23,2.432,7.943
		c0.552,2.301,1.698,4.442,3.292,6.271c1.621,1.862,3.234,3.742,4.35,5.993c0.212,0.426,0.498,0.817,0.676,1.26
		c1.484,3.643,4.045,6.438,6.907,8.951c1.341,1.18,2.148,2.631,2.743,4.26c0.364,1.004,0.517,2.016,0.189,3.094
		c-0.22,0.728-0.274,1.503-0.365,2.264c-0.256,2.164,0.069,4.188,1.343,6.01c1.148,1.639,2.312,3.271,3.356,4.977
		c0.785,1.275,1.854,2.109,3.121,2.814c1.229,0.682,2.397,1.481,3.55,2.297c1.36,0.957,2.884,1.4,4.478,1.615
		c2.709,0.362,5.434,0.475,8.161,0.268c7.045-0.533,14.014-1.609,20.967-2.852c3.89-0.693,7.812-1.252,11.658-2.138
		c5.502-1.262,10.977-2.668,16.408-4.204c2.621-0.74,5.126-1.937,7.333-3.63c0.793-0.61,1.646-0.85,2.626-0.827
		c1.791,0.036,3.578-0.011,5.37,0.002c8.858,0.062,17.712,0.138,26.567,0.216c0.531,0.006,1.063,0.1,1.928,0.188
		C229.204,149.615,229.043,149.938,228.786,150.138z"/>
	<path fill="#0000FF" d="M169.244,182.157c-0.882-0.712-1.863-1.294-2.803-1.927c-1.955-1.316-3.945-2.586-5.862-3.961
		c-4.498-3.224-9.348-5.64-14.708-6.974c-4.797-1.188-9.711-1.062-14.583-1.34c-0.751,0-1.498-0.014-2.25,0.002
		c-3.672,0.062-7.348,0.269-10.946,1.021c-4.992,1.041-9.737,2.896-14.384,5.002c-0.769,0.35-1.543,0.75-2.195,1.281
		c-2.465,2.012-3.095,4.438-1.596,7.34c1.139,2.198,2.31,4.383,3.456,6.576c0.175,0.336,0.324,0.688,0.479,1.032
		c0.419,0.949,0.676,2.021,1.279,2.832c1.942,2.621,3.13,5.644,4.553,8.535c1.076,2.188,1.465,4.523,0.471,6.93
		c-0.474,1.146-0.75,2.38-1.272,3.494c-0.524,1.109-1.075,2.312-1.931,3.136c-1.126,1.086-1.456,2.321-1.725,3.772
		c-0.31,1.697,0.145,2.91,1.316,4.109c3.812,3.896,8.447,6.352,13.476,8.063c4.12,1.41,8.444,1.894,12.762,2.109
		c5.388,0.272,10.695-0.473,15.88-1.992c3.945-1.156,7.451-3.229,10.468-6.012c2.023-1.859,3.172-4.277,2.352-7.217
		c-0.205-0.729-0.443-1.474-0.803-2.132c-0.817-1.495-1.006-3.075-0.801-4.729c0.178-1.428,0.334-2.855,0.592-4.268
		c0.119-0.644,0.395-1.287,0.729-1.851c1.656-2.77,3.354-5.514,5.05-8.257c1.652-2.666,3.583-5.155,4.648-8.175
		C171.795,186.04,171.284,183.806,169.244,182.157z"/>
</g>
</svg>
