<?xml version="1.0" encoding="utf-8"?>
<!-- Generator: Adobe Illustrator 16.0.0, SVG Export Plug-In . SVG Version: 6.00 Build 0)  -->
<!DOCTYPE svg PUBLIC "-//W3C//DTD SVG 1.1//EN" "http://www.w3.org/Graphics/SVG/1.1/DTD/svg11.dtd">
<svg version="1.1" id="Calque_1" xmlns="http://www.w3.org/2000/svg" xmlns:xlink="http://www.w3.org/1999/xlink" x="0px" y="0px"
	 width="283px" height="283px" viewBox="0 0 283 283" enable-background="new 0 0 283 283" xml:space="preserve">
<g>
	<path fill="#0000FF" d="M0,0v283.461h283V0H0z M82.308,173.46c-1.153-0.647-2.298-1.312-3.424-1.998
		c-1.022-0.619-1.646-1.485-1.813-2.752c-0.178-1.33-0.761-2.533-1.349-3.752c-1.026-2.145-2.063-4.317-2.719-6.592
		c-0.684-2.369-1.161-4.855-0.902-7.363c0.129-1.265-0.333-2.002-1.412-2.485c-0.948-0.425-1.905-0.834-2.801-1.354
		c-0.9-0.524-1.015-1.266-0.518-2.209c0.376-0.717,1.441-1.287,0.835-2.226c-0.38-0.58-1.194-0.857-1.804-1.291
		c-0.306-0.215-0.604-0.443-0.879-0.701c-0.361-0.336-0.348-1.017,0.062-1.256c0.646-0.383,1.331-0.695,2-1.043
		c0.512-0.261,1.095-0.515,1.002-1.215c-0.092-0.679-0.72-0.828-1.262-0.979c-1.268-0.359-2.554-0.656-3.812-1.053
		c-0.875-0.271-1.873-0.324-2.594-1.361c0.346-0.271,0.634-0.65,1.003-0.772c1.07-0.358,2.183-0.585,3.257-0.929
		c0.526-0.168,1.063-0.416,1.479-0.771c0.164-0.14,0.145-0.822-0.027-0.979c-0.407-0.365-0.946-0.596-1.458-0.815
		c-1.033-0.441-2.081-0.845-3.234-1.304c-0.083-1.194-0.161-2.315-0.256-3.631c-1.29-0.479-2.606-0.942-3.901-1.456
		c-1.157-0.457-1.37-1.348-0.521-2.181c0.47-0.468,1.044-0.819,1.521-1.277c0.492-0.473,0.426-1.421-0.15-1.76
		c-0.645-0.382-1.366-0.63-2.032-0.977c-1.494-0.765-1.794-1.33-1.137-2.952c0.677-1.656,0.281-2.979-0.771-4.073
		c0.026-1.222,0.486-1.992,1.378-2.514c0.49-0.281,0.975-0.581,1.451-0.886c0.633-0.396,0.805-1.019,0.785-1.954
		c-0.479-0.356-1.078-0.782-1.644-1.241c-0.715-0.575-1.094-1.271-0.802-2.262c0.186-0.638,0.149-1.352,0.379-1.969
		c0.434-1.172,0.391-2.186-0.379-3.229c-0.288-0.392-0.345-1.103-0.244-1.613c0.196-1.03,0.615-1.973,1.338-2.797
		c1.329-1.515,1.498-3.149,0.483-5.012c-0.628-1.148-0.982-2.479-1.316-3.771c-0.345-1.331-0.731-2.543-2.001-3.304
		c-0.745-0.447-0.799-1.206-0.503-2.029c0.549-1.521,1.472-2.796,2.944-3.312c2.754-0.971,4.253-2.923,5.035-5.665
		c0.338-1.18,0.862-2.303,1.279-3.392c-1.314-2.272-3.713-2.84-5.443-4.469c-0.667-1.867,0.144-3.25,1.714-4.276
		c2.377-1.556,4.873-2.902,7.55-3.818c3.209-1.098,6.484-1.987,9.538-3.522c1.513-0.76,3.034-1.504,4.536-2.286
		c1.608-0.84,3.24-1.328,5.107-1.313c12.902,0.097,25.809,0.106,38.709,0.122c14.695,0.018,29.385,0.017,44.08-0.016
		c1.357-0.002,2.482,0.32,3.704,1c3.051,1.694,6.034,3.5,9.016,5.317c0.806,0.487,1.582,1.036,2.336,1.604
		c2.115,1.6,4.15,3.312,6.332,4.804c2.188,1.493,4.545,2.698,7.041,3.606c1.596,0.577,3.164,1.237,4.727,1.896
		c1.729,0.729,3.004,1.866,3.605,3.78c0.344,1.082,0.973,2.054,1.086,3.242c0.084,0.853-0.103,1.53-0.729,2.051
		c-0.58,0.481-1.215,0.896-1.833,1.33c-0.541,0.382-1.137,0.697-1.622,1.144c-1.318,1.2-1.24,2.854,0.18,3.914
		c0.527,0.396,1.159,0.647,1.685,1.05c0.448,0.341,0.834,0.772,1.202,1.207c0.226,0.261,0.367,0.595,0.522,0.854
		c-0.516,0.676-1.122,0.49-1.651,0.509c-4.047,0.129-8.096,0.211-12.142,0.354c-5.929,0.205-11.856,0.44-17.786,0.669
		c-0.471,0.02-0.938,0.051-1.408,0.089c-1.008,0.085-1.806-0.227-2.438-1.102c-1.021-1.409-2.359-2.47-3.916-3.222
		c-1.409-0.682-2.178-1.769-2.168-3.457c1.023-1.875,3.587-2.035,4.676-4.166c-0.354-1.275-1.062-2.418-1.947-3.572
		c-2.271-2.953-5.33-4.514-8.717-5.502c-5.422-1.583-10.865-3.104-16.318-4.566c-4.929-1.322-9.938-2.039-15.05-2.146
		c-4.903-0.104-9.781,0.101-14.651,0.679c-2.634,0.312-5.155,1.062-7.658,1.901c-0.994,0.336-1.881,0.845-2.473,1.728
		c0.265,1.668,1.61,2.55,2.555,3.873c-0.549,1.16-1.242,2.246-2.054,3.274c-0.759,0.963-1.531,1.939-2.117,3.015
		c-0.584,1.062-1.392,1.769-2.409,2.331c-1.237,0.688-2.432,1.453-3.655,2.174c-1.2,0.702-1.993,1.711-2.369,2.971
		c0.073,0.29,0.061,0.534,0.176,0.646c1.521,1.482,2.045,3.354,2.188,5.431c0.051,0.737,0.24,1.537,0.598,2.167
		c0.955,1.646,0.57,3.112-0.338,4.582c-0.545,0.882-1.124,1.751-1.574,2.686c-0.426,0.892-0.543,1.861,0.103,2.729
		c0.522,0.698,0.419,1.435,0.233,2.188c-0.141,0.561-0.279,1.114-0.43,1.668c-0.451,1.682-0.138,3.021,1.549,3.812
		c0.319,0.147,0.567,0.455,0.832,0.672c-0.046,1.036-0.484,1.722-1.251,2.199c-0.399,0.25-0.83,0.451-1.23,0.703
		c-1.511,0.95-1.709,1.625-0.752,3.221c0.542,0.896,0.672,1.767,0.363,2.729c-0.085,0.271-0.258,0.521-0.322,0.8
		c-0.312,1.377-0.068,1.94,1.13,2.58c0.582,0.309,1.216,0.517,1.794,0.837c1.062,0.586,1.18,1.474,0.345,2.3
		c-2.436,2.414-2.374,2.725,0.761,3.795c0.879,0.302,1.741,0.655,2.646,0.995c0,1.088,0,2.025,0,2.812
		c0.593,1.093,1.562,1.287,2.41,1.666c0.686,0.309,1.422,0.53,2.046,0.94c0.312,0.207,0.42,0.742,0.604,1.103
		c-1.812,1.436-4.423,0.715-5.955,2.813c2.31,1.816,5.399,1.267,7.586,2.982c-0.478,1.646-2.367,1.276-3.032,2.477
		c-0.104,1.021,0.431,1.627,1.247,2.041c0.775,0.394,1.506,0.812,1.686,2.005c-0.308,0.488-0.736,1.097-1.09,1.744
		c-0.314,0.576-0.156,1.144,0.319,1.545c0.43,0.365,0.914,0.679,1.412,0.938c0.667,0.354,1.375,0.619,2.056,0.949
		c0.845,0.411,1.395,1.1,1.166,2.063c-0.611,2.604,0.803,4.854,1.125,7.293c1.855,3.082,3.338,6.478,6.773,8.221
		c0.755,0.384,1.468,0.863,2.153,1.367c2.843,2.08,6.107,2.881,9.494,3.361c8.902,1.266,17.823,1.26,26.775,0.652
		c5.837-0.396,11.625-1.08,17.301-2.507c3.464-0.87,6.861-2.012,10.294-3.02c3.021-0.891,5.257-2.947,7.245-5.264
		c0.763-0.892,1.052-2.201,1.725-3.691c11.758-0.135,23.479,0.682,35.068,0.529c0.663,1.426,0.307,2.325-0.318,3.264
		c-2.021,3.027-4.677,5.098-8.059,6.428c-6.669,2.615-13.277,5.394-19.862,8.226c-2.594,1.117-5.063,2.541-7.569,3.858
		c-2.689,1.416-5.457,2.502-8.476,3.043c-7.054,1.263-14.112,2.33-21.26,2.875c-5.257,0.402-10.501,0.845-15.767,1.13
		c-4.705,0.252-9.397,0.387-14.099,0.262c-3.197-0.086-6.397-0.271-9.578-0.572c-4.401-0.422-8.806-0.9-13.182-1.537
		c-3.442-0.502-6.862-1.205-10.258-1.967c-2.02-0.451-3.915-1.289-5.661-2.496c-2.407-1.664-4.861-3.258-7.334-4.815
		C84.836,174.753,83.548,174.153,82.308,173.46z M224.252,216.337c-2.623,0.729-5.31,1.242-7.971,1.834
		c-2.842,0.631-5.704,1.175-8.529,1.888c-1.451,0.364-2.89,0.881-3.779,2.312c-0.357,0.577-0.687,1.08-0.627,1.83
		c0.125,1.531-0.766,2.426-1.979,3.188c-2.681,1.685-5.601,2.676-8.625,3.448c-6.03,1.543-12.127,2.662-18.278,3.539
		c-5.306,0.758-10.589,1.715-15.906,2.39c-4.192,0.532-8.42,0.748-12.631,1.147c-5.362,0.51-10.72,0.06-16.057-0.295
		c-4.477-0.303-9.007-0.584-13.336-2.098c-0.918-0.316-1.753-0.644-2.45-1.604c0.273-0.396,0.509-0.916,0.895-1.25
		c0.568-0.49,1.276-0.822,1.452-1.845c-0.368-0.819-1.188-1.327-1.972-1.804c-1.698-1.021-3.406-2.027-5.396-2.396
		c-2.683-0.488-5.354-1.052-8.031-1.57c-2.772-0.536-5.561-0.995-8.316-1.608c-2.004-0.445-2.683-1.029-4.125-2.974
		c0.661-1.159,1.71-1.87,2.965-2.323c1.167-0.422,2.231-0.998,3.07-1.965c0.88-1.021,1.09-1.724,0.347-2.845
		c-1.267-1.914-1.026-4.037-1.002-6.108c0.012-1.312,0.931-2.302,1.955-3c1.091-0.736,2.25-1.431,3.467-1.907
		c6.218-2.459,12.431-4.944,19.029-6.22c4.356-0.838,8.742-1.336,13.162-1.479c7.433-0.248,14.867-0.184,22.298,0.08
		c2.726,0.096,5.451,0.284,8.166,0.521c5.625,0.495,11.241,1.043,16.862,1.592c4.21,0.412,8.433,0.783,12.629,1.313
		c4.013,0.506,8.031,1.054,11.991,1.861c2.38,0.484,4.717,1.35,6.956,2.32c3.985,1.733,8.131,2.977,12.194,4.479
		c1.76,0.651,3.453,1.498,5.164,2.281c0.803,0.365,1.405,0.947,1.707,1.938C228.799,213.774,226.971,215.582,224.252,216.337z"/>
	<path fill="#0000FF" d="M185.008,209.764c-0.084-0.043-0.168-0.093-0.256-0.121c-2.925-1.058-5.89-2.006-8.988-2.314
		c-3.741-0.375-7.486-0.703-11.239-0.906c-6.209-0.338-12.404-0.047-18.566,0.812c-2.089,0.291-3.974,1.129-5.641,2.44
		c-0.757,0.597-0.768,1.599-0.087,2.246c0.205,0.192,0.429,0.367,0.672,0.519c1.674,1.057,3.316,2.175,5.05,3.119
		c0.974,0.532,2.076,0.994,3.163,1.116c3.826,0.441,7.666,0.724,11.498,1.062c0.006-0.062,0.016-0.117,0.021-0.178
		c1.496-0.104,2.998-0.265,4.5-0.297c3.773-0.08,7.506-0.511,11.193-1.272c1.65-0.341,3.311-0.769,4.852-1.437
		c1.453-0.63,2.791-1.563,4.104-2.479C186.206,211.434,186.014,210.294,185.008,209.764z"/>
</g>
</svg>
