<?xml version="1.0" encoding="utf-8"?>
<!-- Generator: Adobe Illustrator 16.0.0, SVG Export Plug-In . SVG Version: 6.00 Build 0)  -->
<!DOCTYPE svg PUBLIC "-//W3C//DTD SVG 1.1//EN" "http://www.w3.org/Graphics/SVG/1.1/DTD/svg11.dtd">
<svg version="1.1" id="Calque_1" xmlns="http://www.w3.org/2000/svg" xmlns:xlink="http://www.w3.org/1999/xlink" x="0px" y="0px"
	 width="283px" height="283px" viewBox="0 0 283 283" enable-background="new 0 0 283 283" xml:space="preserve">
<path fill="#0000FF" d="M0,0v283.462h283V0H0z M104.615,133.015c0.377,6.979,2.597,13.389,5.185,19.844
	c3.083,7.688,7.368,14.578,11.6,21.563c3.884,6.408,7.714,12.854,11.343,19.416c1.827,3.31,3.146,6.906,4.75,10.492
	c16.388,0,32.622,0,48.856,0c0.035,0.188,0.074,0.383,0.107,0.568c-3.025,0.91-6.012,1.996-9.085,2.695
	c-8.659,1.973-17.462,2.659-26.309,2.178c-8.552-0.467-16.961-1.875-25.032-4.98c-1.103-0.424-2.39-0.481-3.592-0.487
	c-6.971-0.035-13.938-0.005-20.908,0.006c-1.031,0-2.065,0-3.24,0c-1.003-3.095-1.82-6.134-2.97-9.037
	c-2.604-6.57-5.924-12.779-9.666-18.765c-4.838-7.739-9.95-15.321-13.107-24.019c-1.463-4.026-3.333-7.938-4.415-12.062
	c-1.205-4.597-2.062-9.348-1.582-14.18c0.166-1.688,0.347-3.427,0.903-5c1.627-4.604,3.465-9.171,6.674-12.883
	c2.35-2.718,5.018-5.164,7.683-7.57c6.262-5.65,12.617-11.236,20.43-14.592c6.14-2.64,12.33-5.198,18.64-7.359
	c7.598-2.604,15.526-3.844,23.489-4.675c12.165-1.271,24.212-0.752,36.021,2.813c6.236,1.886,11.8,4.871,16.175,9.918
	c2.789,3.22,5.755,6.274,8.47,9.559c2.27,2.749,3.422,6.146,4.477,9.522c2.353,7.549,4.64,15.117,6.94,22.683
	c0.079,0.258,0.073,0.543,0.136,1.039c-11.699,0.484-23.312,0.969-34.931,1.449c-2.013-3.75-3.782-7.35-5.823-10.778
	c-3.494-5.861-7.888-10.863-13.89-14.212c-6.519-3.638-13.563-4.334-20.796-3.783c-5.923,0.451-11.733,1.552-17.267,3.854
	c-5.099,2.12-9.633,5.073-13.035,9.589c-1.25,1.661-2.371,3.428-3.596,5.11C104.608,124.565,104.389,128.754,104.615,133.015z"/>
</svg>
