<?xml version="1.0" encoding="utf-8"?>
<!-- Generator: Adobe Illustrator 16.0.0, SVG Export Plug-In . SVG Version: 6.00 Build 0)  -->
<!DOCTYPE svg PUBLIC "-//W3C//DTD SVG 1.1//EN" "http://www.w3.org/Graphics/SVG/1.1/DTD/svg11.dtd">
<svg version="1.1" id="Calque_1" xmlns="http://www.w3.org/2000/svg" xmlns:xlink="http://www.w3.org/1999/xlink" x="0px" y="0px"
	 width="283px" height="283px" viewBox="0 0 283 283" enable-background="new 0 0 283 283" xml:space="preserve">
<g>
	<path fill="#0000FF" d="M184.211,203.566c-1.658-0.75-3.017-1.875-4.281-3.156c-0.867-0.885-1.875-1.549-2.985-2.088
		c-2.769-1.342-5.517-2.729-8.274-4.096c-0.216,0-0.43,0.002-0.64,0.004c-0.253-0.277-0.556-0.527-0.751-0.844
		c-0.696-1.13-1.75-1.515-2.971-1.822c-3.485-0.888-7.002-0.842-10.534-0.619c-0.353,0.021-0.694,0.258-1.041,0.393l0.071-0.08
		c-0.264,0.108-0.531,0.197-0.776,0.338c-0.75,0.425-0.832,0.688-0.41,1.308c0.265,0.396,0.509,0.832,0.862,1.125
		c1.037,0.869,1.162,1.885,0.652,3.078c-0.473,1.106-0.177,2.062,0.685,2.828c0.774,0.688,1.565,1.37,2.399,1.981
		c0.523,0.392,1.303,0.517,1.691,0.986c1.521,1.863,3.715,2.518,5.707,3.539c0.414,0.215,0.949,0.369,1.188,0.723
		c0.801,1.193,2.022,1.525,3.222,2.094c1.403,0.664,2.813,0.968,4.3,1.188c0.828,0.123,1.646,0.377,2.445,0.646
		c0.486,0.166,0.634,0.576,0.606,1.144c-0.069,1.326-0.038,1.365,0.905,1.604c2.389,0.603,4.785,0.271,7.175-0.014
		c0.431-0.049,0.706-0.266,0.665-0.721c-0.033-0.388-0.184-0.847-0.619-0.838c-0.588,0.01-1.123,0.018-1.511-0.515l0.017-0.006
		c-0.062-0.271-0.168-0.635,0.19-0.705c1.215-0.24,2.231-0.912,3.272-1.521c0.895-0.521,1.235-1.33,1.162-2.396
		C186.516,205.424,185.684,204.234,184.211,203.566z"/>
	<path fill="#0000FF" d="M0,0v283.462h283V0H0z M240.555,214.74c-0.905,1.716-1.998,3.271-3.599,4.354
		c-2.028,1.382-4.129,2.658-6.179,4.015c-2.883,1.903-6.064,3.053-9.391,3.785c-7.092,1.562-14.271,2.463-21.498,3.097
		c-5.256,0.459-10.517,0.729-15.784,0.857c-3.478,0.084-6.968,0.037-10.444-0.118c-5.174-0.229-10.342-0.537-15.503-0.949
		c-3.565-0.283-7.112-0.742-10.655-1.234c-3.168-0.44-6.316-1.021-9.472-1.563c-5.901-1.021-11.453-3.025-16.61-6.148
		c-0.72-0.438-1.51-0.772-2.287-1.104c-2.99-1.267-4.665-3.804-5.994-6.593c-1.248-2.616-2.925-4.934-4.78-7.069
		c-1.226-1.404-2.864-2.465-4.521-3.396c-1.908-1.078-3.627-2.43-4.962-4.19c-0.984-1.308-2.11-2.447-3.312-3.523
		c-2.834-2.541-4.748-5.674-5.792-9.354c-0.207-0.729-0.407-1.504-0.379-2.25c0.053-1.396-0.263-2.644-0.955-3.834
		c-0.956-1.634-1.07-3.238,0.265-4.765c0.309-0.354,0.573-0.772,0.757-1.207c0.304-0.729,0.363-1.504-0.043-2.227
		c-0.708-1.24-1.404-2.49-2.167-3.695c-1.735-2.729-4.142-4.63-6.962-6.13c-4.421-2.353-8.756-4.87-13.121-7.323
		c-0.249-0.139-0.516-0.268-0.711-0.465c-1.965-1.998-4.398-3.262-6.807-4.569c-1.355-0.738-2.452-1.777-3.306-3.074
		c-1.33-2.021-2.905-3.736-5.093-4.843c-0.738-0.375-1.436-0.955-1.977-1.597c-0.859-1.02-1.667-2.146-1.557-3.601
		c0.101-1.354-0.704-2.126-1.583-2.874c-0.863-0.736-1.738-1.463-2.638-2.158c-0.548-0.42-0.932-0.927-1.178-1.571
		c-0.219-0.566-0.283-1.095,0.089-1.629c0.38-0.55,0.707-1.138,1.084-1.688c0.738-1.082,0.715-2.132-0.061-3.188
		c-0.279-0.384-0.5-0.812-0.754-1.215c-0.759-1.198-0.69-1.786,0.216-2.729c0.552-0.571,1.265-0.825,1.937-1.153
		c1.107-0.54,2.223-1.062,3.174-1.857c0.75-0.628,0.877-1.126,0.465-2.014c-0.278-0.604-0.674-1.151-0.948-1.762
		c-0.539-1.196-0.217-2.324,0.897-2.973c0.564-0.329,1.214-0.506,1.831-0.734c1.507-0.562,2.964-1.225,4.281-2.176
		c0.842-0.609,1.162-1.39,1.019-2.479c-0.307-2.319-0.149-2.597,1.882-3.488c1.377-0.604,2.81-1.079,4.221-1.613
		c0.704-0.269,1.433-0.482,2.104-0.819c1.194-0.604,1.824-1.463,1.622-2.985c-0.271-2.038,0.212-2.767,1.997-3.562
		c0.771-0.347,1.606-0.532,2.412-0.8c1.696-0.564,3.399-1.121,5.087-1.711c0.529-0.188,1.07-0.405,1.526-0.729
		c0.916-0.64,1.129-1.835,0.568-2.807c-0.14-0.245-0.351-0.445-0.524-0.676c-1.049-1.425-1.042-2.004,0.152-3.103
		c0.702-0.645,1.511-1.1,2.454-1.354c1.636-0.445,3.237-1.014,4.859-1.512c2.119-0.648,3.598-1.918,4.325-4.142
		c0.66-2.021,1.985-3.369,4.156-3.85c2.76-0.606,5.464-1.438,8.21-2.084c2.147-0.506,4.127-1.27,5.799-2.789
		c1.222-1.109,1.261-1.1,0.64-2.629c-0.038-0.088-0.098-0.168-0.132-0.257c-0.621-1.584-0.476-1.813,1.063-2.629
		c2.138-1.123,4.472-1.53,6.775-1.905c4.55-0.742,9.099-1.472,13.608-2.447c0.458-0.101,0.918-0.207,1.365-0.354
		c3.866-1.27,7.845-1.931,11.876-2.326c5.523-0.549,11.056-0.873,16.604-0.543c5.919,0.354,11.808,1.06,17.606,2.312
		c2.283,0.494,4.479,1.438,6.692,2.229c0.611,0.219,1.244,0.521,1.724,0.953c2.718,2.45,6.102,3.32,9.492,4.083
		c3.399,0.763,6.832,1.369,10.178,2.356c0.988,0.291,1.945,0.705,2.879,1.156c0.492,0.238,0.955,0.623,1.328,1.037
		c0.629,0.7,0.568,1.59-0.11,2.311c-0.571,0.604-1.503,0.973-1.426,2.003c0.081,1.116,1.095,1.493,1.804,2.079
		c0.432,0.354,1.008,0.514,1.465,0.837c0.77,0.547,1.646,1.033,2.208,1.763c1.332,1.722,1.919,2.038-0.405,3.49
		c-0.238,0.151-0.47,0.325-0.715,0.457c-1.953,1.036-1.955,1.957-0.08,3.363c1.195,0.896,2.602,1.525,3.984,2.117
		c0.814,0.352,1.488,0.827,2.057,1.462c0.724,0.806,0.557,1.86-0.353,2.444c-0.556,0.354-1.164,0.634-1.74,0.951
		c-0.495,0.271-1.018,0.51-1.475,0.838c-1.142,0.818-1.212,1.643-0.216,2.585c0.55,0.521,1.211,0.913,1.764,1.431
		c0.408,0.38,0.757,0.842,1.064,1.312c0.268,0.408-0.043,1.047-0.514,1.09c-0.75,0.064-1.502,0.104-2.257,0.106
		c-9.886,0.04-19.776,0.068-29.669,0.104c-0.566,0.002-1.131,0.026-1.698,0.008c-0.872-0.028-1.553-0.205-2.03-1.186
		c-0.562-1.139-1.85-1.576-2.889-2.227c-0.795-0.497-1.677-0.86-2.249-1.693c-0.364-0.531-0.462-0.981-0.083-1.561
		c0.573-0.864,1.594-1.381,1.893-2.507c-1.277-1.604-2.957-2.53-4.902-3.062c-3.088-0.84-6.105-1.912-9.107-3.021
		c-1.344-0.495-2.6-1.096-3.769-1.915c-1.336-0.938-2.769-1.479-4.433-1.669c-3.391-0.385-6.771-0.329-10.151-0.104
		c-4.22,0.283-8.424,0.808-12.591,1.586c-2.772,0.521-5.56,0.99-8.063,2.449c-0.499,0.291-1.014,0.529-1.116,1.185
		c-0.533,3.474-3.308,4.412-5.984,5.319c-1.775,0.604-3.678,0.806-5.498,1.293c-1.451,0.391-2.868,0.906-4.279,1.436
		c-1.126,0.422-1.967,1.235-2.104,2.484c-0.273,2.438-2.072,3.27-3.936,4.007c-1.313,0.52-2.682,0.889-4.026,1.332
		c-0.536,0.179-1.072,0.361-1.599,0.567c-1.465,0.571-2.388,1.518-2.097,3.267c0.264,1.587-0.545,2.558-1.839,3.194
		c-0.93,0.457-1.875,0.893-2.843,1.251c-1.162,0.434-2.238,1.014-3.23,1.751c-0.697,0.521-0.844,1.247-0.436,2.029
		c0.349,0.677,0.802,1.296,1.18,1.957c0.523,0.917,0.414,1.614-0.42,2.248c-0.521,0.4-1.118,0.706-1.686,1.045
		c-0.892,0.531-1.812,1.021-2.679,1.598c-0.949,0.628-1.158,1.461-0.559,2.46c0.436,0.729,1.019,1.373,1.573,2.021
		c0.881,1.027,1.167,2.154,0.697,3.464c-0.592,1.68-0.14,2.993,1.351,3.938c1.041,0.654,2.027,1.376,3.181,1.847
		c2.443,0.996,4.785,2.208,6.932,3.776c3.915,2.868,8.366,4.358,13.092,4.855c4.294,0.451,8.609,0.965,12.953,0.546
		c3.375-0.325,6.752-0.598,10.124-0.904c2.37-0.221,4.646-0.922,6.812-1.817c3.412-1.415,6.974-2.278,10.476-3.38
		c1.342-0.423,2.665-0.938,3.948-1.522c1.748-0.796,3.201-1.983,4.231-3.67c0.865-1.423,2.104-2.408,3.566-3.174
		c1.167-0.606,2.348-1.196,3.391-2.057c0.879-0.726,1.396-1.522,1.201-2.707c-0.061-0.377-0.103-0.762-0.117-1.145
		c-0.02-0.44,0.233-0.739,0.639-0.795c1.303-0.176,2.609-0.375,3.92-0.446c6.671-0.375,13.344-0.712,20.02-1.063
		c3.76-0.2,7.519-0.412,11.278-0.605c0.366-0.021,0.733,0.04,1.413,0.084c-1.248,1.151-1.453,2.425-1.225,3.812
		c0.265,1.629-0.4,2.779-1.787,3.564c-0.656,0.371-1.287,0.791-1.934,1.181c-1.602,0.962-2.808,2.277-3.335,4.111
		c-0.544,1.895-1.765,3.106-3.435,3.969c-1.26,0.647-2.49,1.353-3.744,2.008c-0.855,0.443-1.672,0.997-2.15,1.817
		c-1.472,2.53-3.853,3.879-6.277,5.147c-1.418,0.739-2.902,1.383-4.407,1.93c-3.288,1.193-6.44,2.688-9.593,4.181
		c-1.206,0.567-2.383,1.188-3.284,2.19c-0.786,0.875-1.904,1.229-2.745,1.998c-0.909,0.826-0.975,1.565-0.154,2.459
		c1.139,1.234,2.646,1.838,4.172,2.3c2.613,0.788,5.248,1.536,7.914,2.122c4.061,0.895,7.961,2.283,11.902,3.578
		c1.402,0.461,2.475,1.437,3.324,2.572c2.17,2.909,5.025,4.887,8.266,6.234c5.508,2.291,10.553,5.479,15.854,8.162
		c3.175,1.606,5.9,3.684,8.236,6.364c0.553,0.64,1.278,1.127,1.945,1.658c1.257,1.004,2.507,2.012,3.52,3.305
		c0.521,0.668,1.142,1.312,1.838,1.779c2.681,1.807,4.898,4.17,7.357,6.237c1.083,0.911,2.26,1.745,3.493,2.431
		c2.302,1.281,3.733,3.229,4.356,5.742c0.31,1.24,0.752,2.357,1.453,3.391C240.99,213.312,240.958,213.978,240.555,214.74z"/>
</g>
</svg>
