<?xml version="1.0" encoding="utf-8"?>
<!-- Generator: Adobe Illustrator 16.0.0, SVG Export Plug-In . SVG Version: 6.00 Build 0)  -->
<!DOCTYPE svg PUBLIC "-//W3C//DTD SVG 1.1//EN" "http://www.w3.org/Graphics/SVG/1.1/DTD/svg11.dtd">
<svg version="1.1" id="Calque_1" xmlns="http://www.w3.org/2000/svg" xmlns:xlink="http://www.w3.org/1999/xlink" x="0px" y="0px"
	 width="283px" height="283px" viewBox="0 0 283 283" enable-background="new 0 0 283 283" xml:space="preserve">
<path fill="#0000FF" d="M0.167,0v283.461H283V0H0.167z M228.729,183.337c-0.013,0.062-0.097,0.146-0.161,0.164
	c-0.27,0.062-0.546,0.144-0.822,0.144c-6.398,0.006-12.802,0.006-19.333,0.006c-1.202,2.701-2.36,5.387-3.584,8.035
	c-2.655,5.754-6.274,10.84-10.396,15.588c-3.502,4.039-7.481,7.475-11.832,10.541c-5.217,3.684-10.889,6.33-16.84,8.461
	c-9.797,3.504-19.924,4.41-30.221,4.086c-7.623-0.238-15.167-1.188-22.448-3.443c-10.702-3.313-20.538-8.498-28.953-16.074
	c-7.579-6.819-13.554-14.997-18.047-24.26c-0.404-0.828-0.625-1.752-1.023-2.893c3.465,0,6.646,0,10.137,0
	c-0.352-1.508-0.635-2.773-0.95-4.034c-1.186-4.769-3.739-8.933-5.636-13.388c-3.132-7.354-6.483-14.612-8.693-22.371
	c-2.198-7.724-4.062-15.497-5.086-23.463c-1.076-8.379,0.008-16.542,2.764-24.479c1.124-3.24,2.191-6.529,3.66-9.609
	c3.471-7.273,8.86-12.965,15.135-17.771c7.701-5.899,16.594-9.122,25.763-11.769c8.658-2.498,17.537-3.447,26.441-3.719
	c13.387-0.408,26.425,1.562,38.484,8.008c6.211,3.316,11.449,7.94,16.043,13.28c7.312,8.509,12.362,18.406,16.515,28.818
	c1.929,4.825,3.868,9.646,5.88,14.653c-3.917,0.176-7.547,0.397-11.182,0.485c-5.905,0.146-11.814,0.174-17.719,0.31
	c-1.666,0.039-3.322,0.301-4.981,0.425c-1.009,0.074-1.699-0.255-2.25-1.285c-1.97-3.695-3.874-7.452-6.183-10.93
	c-2.926-4.409-6.143-8.574-10.287-12.016c-2.773-2.298-5.459-4.667-8.627-6.341c-7.114-3.762-14.666-5.068-22.618-3.819
	c-4.092,0.646-8.132,1.439-11.847,3.455c-2.678,1.454-5.033,3.283-6.943,5.702c-1.333,1.688-2.839,3.25-4.077,5.005
	c-3.524,4.989-5.502,10.634-5.899,16.729c-0.466,7.207,0.718,14.279,2.407,21.266c0.854,3.521,1.596,7.082,2.685,10.526
	c1.062,3.355,2.385,6.646,3.808,9.87c2.719,6.164,5.649,12.233,8.375,18.396c1.067,2.414,1.82,4.974,2.883,7.914
	c-2.349,0-4.327,0-6.619,0c1.002,2.465,2.731,3.646,4.271,4.974c4.953,4.265,10.456,7.556,16.843,8.881
	c6.858,1.428,13.794,1.61,20.727,0.303c7.746-1.471,13.885-5.633,18.692-11.837c1.261-1.634,2.51-2.225,4.478-2.188
	c5.933,0.113,11.865,0.035,17.801,0.033c1.027,0,2.056,0,3.104,0c0.348-0.963,0.633-1.752,0.997-2.744
	c11.79,0.603,23.565,1.203,35.285,1.806C228.709,183.149,228.75,183.251,228.729,183.337z"/>
</svg>
