<?xml version="1.0" encoding="utf-8"?>
<!-- Generator: Adobe Illustrator 16.0.0, SVG Export Plug-In . SVG Version: 6.00 Build 0)  -->
<!DOCTYPE svg PUBLIC "-//W3C//DTD SVG 1.1//EN" "http://www.w3.org/Graphics/SVG/1.1/DTD/svg11.dtd">
<svg version="1.1" id="Calque_1" xmlns="http://www.w3.org/2000/svg" xmlns:xlink="http://www.w3.org/1999/xlink" x="0px" y="0px"
	 width="283px" height="283px" viewBox="0 0 283 283" enable-background="new 0 0 283 283" xml:space="preserve">
<g>
	<path d="M-0.465-1.098V283H283V-1.098H-0.465z M224.97,102.547c0.313,1.396,0.207,2.885,0.537,4.273
		c0.547,2.271-0.341,3.918-1.896,5.388c-0.695,0.654-1.463,1.248-2.078,1.974c-1.331,1.557-2.123,3.395-2.428,5.423
		c-0.172,1.154-0.547,2.196-1.125,3.229c-1.068,1.907-1.133,4.006-0.729,6.416c0.735,0.525,1.647,1.201,2.585,1.853
		c0.632,0.438,1.312,0.799,1.93,1.26c0.903,0.688,1.771,1.43,2.652,2.151c0.023,1.624,0.104,3.252,0.042,4.873
		c-0.019,0.397-0.427,0.884-0.79,1.131c-0.861,0.596-1.771,1.157-2.73,1.576c-2.105,0.92-4.254,1.754-6.396,2.604
		c-1.724,0.682-3.271,1.563-4.368,3.139c-0.43,0.615-1.014,1.164-1.62,1.61c-1.316,0.971-1.507,2.443-1.652,3.837
		c-0.109,1.042,0.313,2.106,1.248,2.782c1.317,0.957,2.592,1.996,4.002,2.787c2.042,1.145,3.768,2.641,5.383,4.287
		c2.032,2.082,2.376,4.508,1.024,7.086c-0.621,1.188-1.22,2.396-1.938,3.524c-1.112,1.742-1.287,3.373,0.241,4.962
		c0.115,0.123,0.113,0.358,0.178,0.571c-0.064,0.892-0.561,1.603-1.162,2.229c-1.193,1.237-2.35,2.537-3.666,3.637
		c-1.905,1.594-3.901,3.095-5.944,4.506c-1.123,0.773-2.193,1.515-2.812,2.773c-0.169,0.34-0.354,0.711-0.637,0.947
		c-2.746,2.355-5.301,4.95-8.432,6.829c-0.41,0.247-0.854,0.479-1.183,0.813c-1.657,1.717-3.867,2.453-5.94,3.432
		c-2.851,1.34-5.725,2.622-8.584,3.938c-0.352,0.16-0.811,0.256-1.012,0.529c-1.988,2.7-5.115,3.219-7.994,4.07
		c-4.046,1.193-8.246,1.691-12.445,1.929c-3.535,0.199-7.094,0.035-10.644,0.07c-7.573,0.075-15.146,0.166-22.722,0.271
		c-11.216,0.152-22.429,0.334-33.644,0.48c-2.973,0.037-5.945-0.014-8.92-0.04c-0.569-0.006-1.14-0.099-1.779-0.152
		c-0.684-1.584-0.832-3.159-0.158-4.743c0.782-1.845,0.809-3.724,0.475-5.656c-0.294-1.697-0.646-3.401-0.769-5.116
		c-0.101-1.425-0.042-2.894,0.188-4.297c0.385-2.374,1.16-4.655,2.128-6.865c0.963-2.2,1.737-4.447,1.798-6.911
		c0.036-1.504-0.362-2.629-1.692-3.369c-0.167-0.094-0.305-0.251-0.478-0.32c-2.614-1.053-3.81-3.196-4.102-5.811
		c-0.521-4.656-3.146-7.641-7.052-9.878c-2.166-1.241-4.34-2.435-6.606-3.479c-1.822-0.844-3.586-1.818-5.342-2.797
		c-1.608-0.898-2.138-2.348-1.965-4.146c0.098-1.017,0.394-1.903,1.234-2.491c0.819-0.57,1.401-1.268,1.739-2.216
		c0.271-0.763,0.885-1.229,1.617-1.554c1.748-0.776,3.485-1.584,5.229-2.373c1.568-0.715,3.156-1.391,4.709-2.14
		c1.608-0.774,2.572-1.967,2.271-3.899c-0.073-0.47-0.022-0.96-0.018-1.441c0.015-1.247-0.481-2.248-1.505-2.947
		c-1.027-0.704-2.091-1.357-3.138-2.036c-2.684-1.736-3.15-3.282-1.927-6.34c0.035-0.089,0.041-0.194,0.095-0.271
		c1.662-2.376,2.526-5.151,3.823-7.706c0.802-1.581,2.119-2.715,3.521-3.745c0.618-0.452,1.304-0.814,1.927-1.263
		c1.562-1.11,2.503-2.617,2.774-4.533c0.159-1.144,0.252-2.309,0.547-3.413c0.705-2.631,1.86-5.054,4.009-6.821
		c1.053-0.864,1.62-1.915,1.693-3.202c0.154-2.689,0.357-5.384,0.275-8.069c-0.079-2.614-1.065-5.067-2.046-7.465
		c-0.557-1.366-1.584-2.408-2.932-3.059c-1.118-0.542-2.268-1.022-3.397-1.542c-1.131-0.521-2.264-1.035-3.385-1.576
		c-1.332-0.641-2.04-1.706-2.059-3.202c-0.004-0.57,0.002-1.141,0.002-2.085c1.449-0.07,2.584-0.164,3.722-0.181
		c5.748-0.08,11.496-0.168,17.245-0.2c18.896-0.101,37.795-0.212,56.69-0.234c4.302-0.007,8.583,0.465,12.861,0.988
		c4.406,0.542,8.601,1.849,12.871,2.901c3.338,0.823,6.754,1.333,10.139,1.981c3.383,0.648,6.768,1.274,10.146,1.94
		c2.634,0.517,5.279,0.977,7.875,1.639c3.825,0.973,7.431,2.5,10.666,4.816c2.174,1.559,4.521,2.839,6.566,4.606
		c3.348,2.891,5.441,5.964,6.83,10.669c-0.436,0.993-0.889,1.942-1.268,2.919C224.858,99.874,224.657,101.149,224.97,102.547z"/>
	<path d="M186.65,136.191c0.103-1.534-0.666-2.536-1.932-3.25c-0.916-0.52-1.83-1.04-2.734-1.58
		c-0.652-0.393-1.301-0.798-1.928-1.23c-1.726-1.191-2.062-2.916-1.722-4.83c0.134-0.745,0.384-1.5,0.729-2.17
		c0.729-1.391,1.062-2.84,1.194-4.403c0.222-2.548,0.983-4.891,3.209-6.483c0.31-0.22,0.546-0.538,0.812-0.815
		c0.859-0.906,1.193-1.92,0.68-3.137c-0.406-0.961-0.744-1.953-1.165-2.906c-1.116-2.53-2.749-4.919-2.873-7.752
		c-0.073-1.705-0.946-2.671-2.118-3.517c-3.627-2.603-7.705-4.274-12.013-5.294c-5.337-1.269-10.808-1.576-16.269-1.735
		c-7.478-0.219-14.95-0.32-22.428-0.444c-1.699-0.025-3.399,0.06-5.223,0.095c-0.095,0.732-0.19,1.281-0.231,1.839
		c-0.131,1.724-0.241,3.445-0.358,5.172c-0.091,1.312-0.632,2.359-1.66,3.211c-1.823,1.51-2.938,3.526-3.666,5.732
		c-0.387,1.171-0.591,2.418-0.742,3.65c-0.297,2.431-1.232,4.423-3.46,5.649c-0.251,0.142-0.508,0.28-0.73,0.458
		c-2.104,1.683-4.217,3.345-5.125,6.051c-0.609,1.818-1.403,3.537-2.551,5.109c-0.491,0.674-0.72,1.566-0.957,2.395
		c-0.61,2.108-0.108,3.474,1.727,4.715c1.11,0.752,2.256,1.457,3.41,2.141c1.282,0.758,1.89,1.893,1.88,3.339
		c-0.021,3.329,0.254,3.775-3.306,5.622c-0.681,0.353-1.4,0.616-2.104,0.931c-2.101,0.93-4.196,1.867-6.302,2.789
		c-1.184,0.518-2.063,1.273-2.643,2.49c-0.306,0.643-0.997,1.107-1.555,1.609c-0.842,0.758-1.188,1.67-1.163,2.811
		c0.035,1.668,0.614,3.001,2.096,3.827c1.503,0.842,3.001,1.705,4.565,2.417c3.411,1.551,6.695,3.301,9.79,5.429
		c1.979,1.36,3.377,3.091,4.127,5.365c0.211,0.626,0.447,1.247,0.768,2.14c1.946,0.064,3.668,0.143,5.389,0.184
		c4.025,0.096,8.056,0.1,12.076,0.268c8.229,0.348,16.458,0.816,24.689,0.355c4.123-0.23,8.169-0.939,12.075-2.385
		c2.488-0.925,4.545-2.377,6.275-4.373c1.43-1.648,1.646-2.854,0.498-4.631c-0.512-0.791-1.207-1.482-1.91-2.117
		c-0.778-0.705-1.67-1.289-2.504-1.933c-2.604-2.009-2.455-5.409-0.543-7.315c0.674-0.672,1.221-1.47,1.885-2.15
		c0.527-0.54,1.084-1.118,1.744-1.452c1.873-0.951,3.808-1.78,5.713-2.668c1.729-0.813,3.5-1.556,5.162-2.484
		c1.354-0.756,2.151-1.899,1.469-3.597C186.568,136.994,186.627,136.568,186.65,136.191z"/>
</g>
</svg>
