<?xml version="1.0" encoding="utf-8"?>
<!-- Generator: Adobe Illustrator 16.0.0, SVG Export Plug-In . SVG Version: 6.00 Build 0)  -->
<!DOCTYPE svg PUBLIC "-//W3C//DTD SVG 1.1//EN" "http://www.w3.org/Graphics/SVG/1.1/DTD/svg11.dtd">
<svg version="1.1" id="Calque_1" xmlns="http://www.w3.org/2000/svg" xmlns:xlink="http://www.w3.org/1999/xlink" x="0px" y="0px"
	 width="283px" height="283px" viewBox="0 0 283 283" enable-background="new 0 0 283 283" xml:space="preserve">
<g>
	<path d="M193.754,119.292c-0.422-2.453-0.929-4.89-1.332-7.344c-0.771-4.678-2.33-9.105-4.42-13.322
		c-1.91-3.86-4.177-7.538-5.812-11.543c-0.281-0.691-0.779-1.325-1.291-1.887c-4.807-5.332-10.834-8.777-17.527-11.083
		c-5.842-2.012-11.936-2.79-18.076-2.859c-9.976-0.112-19.953-0.022-29.927,0.001c-0.647,0.004-1.293,0.133-2.019,0.212
		c-0.298,1.462-0.209,2.792-0.215,4.119c-0.019,3.653-0.06,7.302-0.091,10.957c-0.039,4.606-0.104,9.212-0.109,13.819
		c-0.005,3.256,0.104,6.511,0.089,9.767c-0.018,3.645-0.28,7.291-0.129,10.926c0.103,2.373-0.776,3.857-2.81,4.794
		c-0.689,0.32-1.418,0.616-2.157,0.769c-2.248,0.458-4.5,0.938-6.772,1.231c-3.705,0.48-7.427,0.854-11.146,1.203
		c-1.22,0.114-1.927,0.716-2.32,1.807c-0.495,1.371-0.758,2.774-0.664,4.242c0.128,2.015,0.279,4.03,0.302,6.045
		c0.082,8.655,0.114,17.307,0.174,25.958c0.006,0.672,0.016,1.352,0.107,2.013c0.182,1.255,0.827,2.146,2.141,2.389
		c1.787,0.337,3.565,0.755,5.369,0.955c4.379,0.489,8.776,0.826,13.154,1.329c1.577,0.184,3.229,0.221,4.715,1.082
		c0.057,0.631,0.146,1.195,0.15,1.762c0.025,2.985,0.018,5.961,0.054,8.938c0.009,0.632,0.16,1.264,0.253,1.944
		c1.604,0.168,3.021,0.428,4.442,0.438c4.209,0.037,8.418-0.013,12.627-0.049c2.772-0.021,5.545-0.11,8.317-0.119
		c2.199-0.008,4.397,0.095,6.601,0.093c1.621-0.002,3.248-0.193,4.861-0.119c2.504,0.108,4.996-0.062,7.41-0.594
		c6.379-1.4,12.604-3.287,17.944-7.271c2.052-1.526,4.082-3.123,5.573-5.399c-0.344-0.212-0.549-0.392-0.784-0.474
		c-0.546-0.178-1.099-0.373-1.661-0.443c-1.902-0.24-3.812-0.423-5.719-0.646c-3.327-0.396-6.656-0.795-9.982-1.226
		c-0.852-0.104-1.691-0.3-2.311-1.021c-0.238-1.041,0.238-1.852,0.781-2.664c2.317-3.478,3.601-7.407,4.743-11.365
		c1.521-5.256,2.354-10.645,2.673-16.118c0.153-2.678,0.731-5.325,0.524-8.035c-0.054-0.643,0.205-1.314,0.358-1.964
		c0.146-0.616,0.588-0.98,1.188-1.117c0.371-0.088,0.76-0.099,1.143-0.144c3.713-0.423,7.432-0.799,11.135-1.285
		c1.992-0.263,3.963-0.692,5.937-1.085c1.438-0.283,2.724-0.893,3.776-1.949c0.781-0.787,1.27-1.64,1.056-2.819
		C193.911,121.205,193.914,120.237,193.754,119.292z"/>
	<path d="M-0.465-1.098V283H283V-1.098H-0.465z M231.452,126.298c-0.976,0.388-2.006,0.683-3.041,0.834
		c-3.411,0.497-6.836,0.928-10.263,1.348c-2,0.245-4.008,0.402-6.008,0.637c-1.271,0.153-1.854,0.658-2.065,2.003
		c-0.291,1.801-0.604,3.62-0.631,5.435c-0.093,6.169-0.931,12.257-1.987,18.312c-0.796,4.529-1.578,9.07-3.164,13.422
		c-0.19,0.523-0.188,1.128-0.188,1.695c0.006,0.623,0.345,1.117,0.935,1.326c0.721,0.258,1.453,0.524,2.203,0.623
		c3.52,0.444,7.043,0.822,10.562,1.248c2.938,0.354,5.877,0.736,9.188,1.153c-0.683,2.347-1.562,4.142-2.472,5.918
		c-0.696,1.37-1.478,2.693-2.173,4.063c-1.48,2.923-3.262,5.64-5.354,8.162c-1.031,1.236-2.119,2.465-2.515,4.039
		c0.384,1.261,1.483,1.523,2.394,2.002c1.014,0.535,2.08,0.978,3.069,1.548c3.271,1.896,4.423,4.7,3.294,8.258
		c-0.436,1.362-1.018,2.721-1.771,3.929c-1.22,1.945-2.59,3.801-3.981,5.629c-1.911,2.512-3.854,4.991-6.12,7.217
		c-4.255,4.177-8.686,8.08-14.011,10.869c-1.437,0.752-2.694,1.849-4.136,2.59c-6.506,3.356-13.371,5.623-20.535,7.172
		c-5.077,1.098-10.195,1.506-15.331,1.884c-2.474,0.183-4.974-0.066-7.462-0.062c-5.853,0.01-11.702,0.09-17.555,0.076
		c-18.608-0.033-37.221-0.094-55.832-0.15c-0.949-0.004-1.899-0.077-2.993-0.127c-0.13-0.752-0.326-1.387-0.33-2.025
		c-0.04-5.96-0.033-11.921-0.069-17.885c-0.044-7.114-0.123-14.229-0.168-21.344c-0.009-1.729,0.229-3.473,0.067-5.186
		c-0.336-3.545,0.03-7.082-0.062-10.625c-0.094-3.447-0.029-6.904-0.072-10.355c-0.019-1.431-0.114-2.857-0.209-4.283
		c-0.022-0.371-0.166-0.733-0.272-1.172c-1.854-0.621-3.753-0.77-5.644-0.976c-5.335-0.587-10.668-1.184-16.002-1.793
		c-0.957-0.104-1.877-0.358-2.814-1.155c-0.062-0.795-0.204-1.736-0.204-2.679c0-12.411,0.018-24.819,0.037-37.228
		c0-0.28,0.093-0.562,0.167-0.982c0.504-0.126,1.033-0.318,1.577-0.386c5.041-0.608,10.097-1.122,15.123-1.835
		c1.863-0.265,3.751-0.589,5.442-1.681c1.706-1.097,2.523-2.407,2.463-4.487c-0.111-3.944-0.021-7.888-0.024-11.833
		c-0.013-7.021-0.054-14.04-0.045-21.059c0.009-8.173,0.058-16.348,0.087-24.52c0-0.098,0.005-0.193,0.005-0.288
		c0.021-3.838-0.396-4.532-4.032-6.024c-3.902-1.604-7.868-3.045-11.763-4.667c-2.116-0.882-4.169-1.934-6.19-3.019
		c-1.837-0.981-2.761-2.583-2.776-4.71c-0.023-2.79-0.116-5.578-0.148-8.368c-0.007-0.565,0.128-1.136,0.185-1.607
		c0.66-0.759,1.47-0.656,2.216-0.67c3.07-0.056,6.143-0.1,9.214-0.101c12.764-0.006,25.523,0.023,38.288,0.001
		c6.711-0.015,13.421-0.137,20.131-0.169c4.123-0.021,8.252-0.083,12.368,0.083c7.771,0.313,15.471,1.226,22.991,3.327
		c2.024,0.568,4.021,1.268,6.062,1.795c3.366,0.871,6.353,2.656,9.532,3.966c2.371,0.978,4.498,2.531,6.775,3.748
		c4.33,2.315,8.979,3.823,13.629,5.342c6.826,2.229,13.642,4.51,20.478,6.717c2.006,0.647,3.58,1.879,4.862,3.444
		c3.527,4.301,7.006,8.624,9.363,13.762c1.236,2.69,2.785,5.24,3.852,8.03c0.48,1.263,0.82,2.537,1.109,3.857
		c0.557,2.524,1.232,5.024,1.943,7.506c1.324,4.623,2.359,9.297,3.027,14.065c0.526,3.8,0.854,7.611,1.188,11.428
		C235.094,124.005,233.668,125.419,231.452,126.298z"/>
</g>
</svg>
