<?xml version="1.0" encoding="utf-8"?>
<!-- Generator: Adobe Illustrator 16.0.0, SVG Export Plug-In . SVG Version: 6.00 Build 0)  -->
<!DOCTYPE svg PUBLIC "-//W3C//DTD SVG 1.1//EN" "http://www.w3.org/Graphics/SVG/1.1/DTD/svg11.dtd">
<svg version="1.1" id="Calque_1" xmlns="http://www.w3.org/2000/svg" xmlns:xlink="http://www.w3.org/1999/xlink" x="0px" y="0px"
	 width="283px" height="283px" viewBox="0 0 283 283" enable-background="new 0 0 283 283" xml:space="preserve">
<g>
	<path d="M-0.465-1.098V283H283V-1.098H-0.465z M221.527,127.479c-0.678,2.695-1.104,5.45-1.218,8.248
		c-0.076,1.903-0.237,3.835-0.63,5.697c-0.287,1.366-0.346,2.601,0.166,3.904c0.238,0.611,0.272,1.309,0.406,1.997
		c-1.084,1.834-2.189,3.642-3.896,4.948c-1.137,0.873-1.739,1.94-1.955,3.365c-0.443,2.936-0.911,5.873-1.561,8.771
		c-0.715,3.164-1.045,6.41-2.104,9.512c-0.388,1.138-0.272,2.464-0.272,3.7c0,1.053,0.051,2.132,0.285,3.148
		c0.541,2.328-0.212,4.347-1.328,6.277c-1.732,3-3.938,5.68-6.246,8.221c-1.789,1.971-3.974,3.596-6.41,4.789
		c-1.03,0.506-2.076,1.021-3.019,1.67c-4.161,2.892-8.396,5.668-12.819,8.136c-0.494,0.276-0.901,0.704-1.354,1.063
		c-0.369,0.297-0.699,0.672-1.115,0.872c-5.947,2.865-11.936,5.589-18.309,7.47c-5.266,1.556-10.592,2.576-16.021,3.08
		c-3.139,0.291-6.311,0.344-9.467,0.319c-9.104-0.069-18.211-0.278-27.313-0.354c-11.794-0.094-23.587-0.099-35.381-0.15
		c-3.636-0.021-7.271-0.092-11.063-0.139c-0.069-0.604-0.22-1.062-0.154-1.486c0.242-1.521,0.508-3.035,0.865-4.531
		c0.152-0.628,0.42-1.355,0.881-1.76c0.917-0.795,1.057-1.773,1.095-2.848c0.023-0.674,0.064-1.348,0.068-2.021
		c0.021-3.492,1.567-6.288,4.026-8.611c2.067-1.955,3.209-4.196,3.075-7.133c-0.091-1.908,0.169-3.837,0.292-5.754
		c0.167-2.605-0.628-4.925-2.024-7.078c-0.104-0.16-0.216-0.316-0.336-0.468c-2.582-3.204-3.475-6.993-3.784-10.987
		c-0.146-1.914-0.305-3.83-0.546-5.733c-0.331-2.585-0.35-5.163-0.211-7.767c0.083-1.547,0.506-2.785,1.734-3.771
		c1.143-0.911,1.917-2.121,2.562-3.437c0.551-1.117,0.678-2.22,0.055-3.308c-0.76-1.325-0.767-2.705-0.656-4.18
		c0.285-3.926,0.625-7.845,1.265-11.731c0.155-0.942,0.396-1.881,0.696-2.79c0.475-1.442,0.392-2.837-0.186-4.219
		c-0.967-2.324-1.459-4.757-1.858-7.236c-0.208-1.303-0.661-2.624-1.291-3.78c-0.77-1.405-1.103-2.838-1.139-4.403
		c-0.046-1.903,0.211-3.821-0.757-5.655c-0.258-0.483,0.189-1.482,0.536-2.122c0.636-1.181,1.441-2.267,2.168-3.397
		c0.261-0.401,0.563-0.797,0.729-1.237c0.975-2.598,1.755-5.285,3.688-7.404c0.17-1.13,0.426-2.258,0.486-3.396
		c0.062-1.24-0.057-2.491-0.082-3.738c-0.034-1.514,0.503-2.802,1.497-3.939c1.331-1.525,2.453-3.184,3.311-5.035
		c1.062-2.293,0.947-4.438-0.49-6.533c-0.855-1.237-1.806-2.457-1.97-4.247c0.894-0.062,1.719-0.16,2.545-0.169
		c5.854-0.048,11.707-0.042,17.562-0.117c7.578-0.102,15.152-0.293,22.73-0.393c10.074-0.127,20.152-0.076,30.227-0.349
		c6.048-0.163,12.068,0.175,18.104,0.306c2.869,0.062,5.732,0.456,8.6,0.738c2.767,0.271,5.527,0.563,8.287,0.897
		c5.326,0.648,10.599,1.622,15.779,3.008c1.564,0.42,3.064,1.08,4.604,1.621c1.396,0.494,2.439,1.489,3.471,2.489
		c1.568,1.524,1.716,3.11,0.438,4.903c-0.555,0.779-1.291,1.427-1.854,2.198c-0.965,1.312-1.001,2.04,0.029,3.375
		c0.748,0.974,1.658,1.844,2.597,2.644c1.459,1.245,2.981,2.42,4.517,3.57c1.514,1.133,2.227,2.565,2.023,4.476
		c-0.076,0.752-0.122,1.583,0.117,2.277c0.521,1.506,0.119,2.854-0.445,4.188c-0.449,1.062-1.078,2.043-1.496,3.112
		c-0.311,0.788-0.621,1.674-0.562,2.489c0.197,2.715,1.02,5.271,2.588,7.521c0.602,0.858,1.334,1.63,2.037,2.413
		c1.047,1.165,1.729,2.532,2.205,4c0.707,2.185,1.448,4.337,2.457,6.417C221.84,123.645,222.026,125.499,221.527,127.479z"/>
	<path d="M180.661,117.183c-1.138-2.956-2.854-5.414-5.454-7.239c-1.123-0.784-1.979-1.785-2.572-3.034
		c-0.33-0.69-0.771-1.333-1.229-1.945c-1.351-1.797-1.312-3.745-0.653-5.749c0.237-0.727,0.633-1.399,0.914-2.111
		c0.467-1.181,0.801-2.436,0.336-3.652c-1.027-2.686-2.662-4.909-5.451-5.973c-1.604-0.608-3.26-1.161-4.938-1.496
		c-5.845-1.159-11.771-1.637-17.72-1.691c-9.589-0.088-19.183-0.042-28.771-0.041c-1.621-0.001-3.237,0.049-5.187,0.082
		c-0.134,2.005-0.961,3.388-1.843,4.773c-0.561,0.879-0.924,1.882-1.366,2.83c-0.69,1.471-1.133,3.137-2.114,4.373
		c-2.254,2.836-2.867,5.912-2.502,9.442c0.182,1.778,0.484,3.403,1.525,4.845c1.1,1.521,1.671,3.244,1.902,5.069
		c0.283,2.203,0.77,4.333,1.604,6.401c0.544,1.348,0.688,2.745,0.312,4.221c-1.051,4.103-1.712,8.267-1.681,12.517
		c0.005,0.771,0.017,1.55-0.112,2.302c-0.289,1.67-0.147,3.239,0.727,4.726c0.605,1.034,0.414,2.089-0.251,2.981
		c-0.911,1.226-1.872,2.429-2.942,3.512c-0.794,0.805-1.248,1.68-1.343,2.775c-0.034,0.381-0.042,0.768-0.054,1.147
		c-0.172,5.784,0.701,11.478,1.365,17.19c0.238,2.064,1.104,3.902,2.203,5.574c1.315,2,2.685,3.948,3.31,6.41
		c1.7,0.154,3.312,0.389,4.929,0.432c9.1,0.242,18.199,0.375,27.293,0.68c5.715,0.189,11.208-0.752,16.635-2.461
		c2.959-0.932,5.252-2.65,7.034-5.124c0.671-0.937,1.287-1.905,1.938-2.854c0.326-0.474,0.604-1.021,1.035-1.375
		c2.553-2.072,3.762-5.031,5.17-7.836c1.688-3.361,2.699-6.976,3.529-10.627c0.428-1.882,1.329-3.322,2.762-4.576
		c0.998-0.869,1.81-1.961,2.685-2.974c0.753-0.87,0.852-1.806,0.483-2.94c-0.523-1.646-0.678-3.323-0.211-5.087
		c0.396-1.469,0.394-3.042,0.58-4.564c0.375-3.038,0.576-6.112,1.209-9.096c0.414-1.95,0.127-3.553-0.799-5.211
		C182.109,120.303,181.274,118.779,180.661,117.183z"/>
</g>
</svg>
