<?xml version="1.0" encoding="utf-8"?>
<!-- Generator: Adobe Illustrator 16.0.0, SVG Export Plug-In . SVG Version: 6.00 Build 0)  -->
<!DOCTYPE svg PUBLIC "-//W3C//DTD SVG 1.1//EN" "http://www.w3.org/Graphics/SVG/1.1/DTD/svg11.dtd">
<svg version="1.1" id="Calque_1" xmlns="http://www.w3.org/2000/svg" xmlns:xlink="http://www.w3.org/1999/xlink" x="0px" y="0px"
	 width="283px" height="283px" viewBox="0 0 283 283" enable-background="new 0 0 283 283" xml:space="preserve">
<g>
	<path d="M-0.465-1.098V283H283V-1.098H-0.465z M221.534,202.288c-0.014,1.575-0.471,3.002-1.309,4.354
		c-2.777,4.459-6.306,8.199-10.568,11.252c-6.438,4.621-13.569,7.834-20.971,10.574c-8.123,3.012-16.522,4.963-24.953,6.738
		c-6.468,1.361-13.067,1.889-19.715,1.809c-18.227-0.221-36.455-0.319-54.68-0.506c-6.141-0.062-12.277-0.229-18.413-0.371
		c-0.942-0.02-1.919,0.08-2.809-0.375c-0.201-1.457,0.244-2.744,0.799-3.959c1.944-4.248,2.537-8.849,3.52-13.342
		c0.478-2.189,0.281-4.4-0.047-6.601c-0.155-1.046-0.366-2.103-0.349-3.146c0.049-2.619-0.32-5.179-0.832-7.731
		c-0.094-0.472-0.262-0.943-0.25-1.419c0.084-3.189-1.336-5.967-2.354-8.858c-0.634-1.795-1.799-3.103-3.456-4.077
		c-3.005-1.771-2.946-1.82-3.152-5.447c-0.063-1.138-0.254-2.28-0.53-3.389c-0.594-2.38-0.767-4.718,0.022-7.1
		c0.487-1.469,0.633-2.979,0.261-4.544c-0.384-1.615-0.123-3.229,0.3-4.841c0.979-3.729,1.47-7.521,1.448-11.396
		c-0.013-2.104,0.142-4.24,0.532-6.309c0.698-3.708,0.619-7.461,0.968-11.192c0.18-1.909,0.323-3.823,0.495-5.737
		c0.226-2.488,0.459-4.974,0.69-7.461c0.354-3.822,1.008-7.631,0.635-11.503c-0.062-0.656,0.071-1.342,0.183-2.003
		c0.458-2.747,0.988-5.483,1.396-8.236c0.167-1.135,0.271-2.329,0.095-3.446c-0.525-3.317,0.237-6.501,0.784-9.71
		c0.194-1.136,0.593-2.234,0.754-3.371c0.194-1.398,0.948-2.271,2.181-2.802c1.057-0.458,2.127-0.876,3.18-1.34
		c0.877-0.389,1.762-0.771,2.6-1.233c1.098-0.613,1.604-1.554,1.517-2.864c-0.091-1.346-0.074-2.696-0.046-4.04
		c0.035-1.64-0.756-2.801-2.146-3.468c-1.81-0.869-3.7-1.57-5.558-2.346c-0.97-0.406-1.991-0.729-2.895-1.25
		c-1.289-0.748-1.346-2.554-0.055-3.329c1.722-1.036,3.564-1.863,5.339-2.813c1.181-0.634,2.394-1.232,3.474-2.009
		c1.771-1.273,3.097-2.879,3.071-5.246c-0.002-0.172,0.163-0.338,0.313-0.621c0.681-0.073,1.433-0.201,2.188-0.23
		c5.939-0.23,11.882-0.436,17.821-0.666c8.621-0.339,17.238-0.745,25.863-1.022c10.354-0.331,20.716-0.647,31.074-0.772
		c4.01-0.051,8.03,0.13,12.053,0.479c5.201,0.451,10.193,1.695,15.172,3.094c2.117,0.597,4.141,1.467,5.979,2.75
		c0.676,0.473,1.07,1.025,1.411,1.737c0.437,0.915,0.226,1.688-0.36,2.4c-0.365,0.442-0.857,0.782-1.207,1.233
		c-0.459,0.589-0.832,1.241-1.25,1.884c1.127,1.771,2.731,2.607,4.483,3.144c2.017,0.618,4.075,1.085,6.112,1.631
		c2.5,0.667,5.009,1.311,7.492,2.035c1.961,0.567,3.721,1.501,5.004,3.187c1.217,1.599,2.539,3.121,3.696,4.759
		c0.929,1.311,0.722,1.954-0.711,2.775c-0.912,0.523-1.905,0.907-2.825,1.426c-1.839,1.026-2.123,1.807-1.395,3.774
		c1.078,2.911,1.695,5.876,1.216,8.999c-0.062,0.378-0.151,0.792-0.063,1.149c0.885,3.524-0.487,6.848-0.944,10.241
		c-0.216,1.584-1.013,3.081-1.464,4.641c-0.18,0.619-0.377,1.399-0.157,1.939c0.606,1.509,0.416,3.047,0.321,4.549
		c-0.118,1.905-0.525,3.795-0.799,5.696c-0.11,0.758-0.276,1.52-0.272,2.279c0.021,4.607,0.041,9.212,0.16,13.819
		c0.047,1.816,0.399,3.625,0.517,5.448c0.069,1.144,0.102,2.323-0.104,3.44c-0.422,2.315-0.481,4.618,0.07,6.87
		c0.701,2.853,0.522,5.734,0.473,8.594c-0.049,2.645,0.189,5.16,1.314,7.566c0.586,1.254,0.787,2.582,0.598,3.94
		c-0.356,2.524-0.024,4.931,0.81,7.339c0.562,1.615,0.989,3.307,0.879,5.071c-0.088,1.399,0.595,2.377,1.784,3.046
		c0.419,0.232,0.811,0.523,1.232,0.744c2.766,1.439,3.816,3.798,3.879,6.822c0.043,2.106,0.355,4.201,0.502,6.311
		C221.612,200.553,221.543,201.422,221.534,202.288z"/>
	<path d="M182.653,189.762c-0.396-1.25-1.215-2.143-2.428-2.701c-0.777-0.362-1.472-0.897-2.238-1.287
		c-1.233-0.627-1.812-1.652-1.965-2.979c-0.078-0.667-0.117-1.348-0.267-1.996c-0.231-1.021-0.412-2.087-0.848-3.021
		c-1.02-2.213-1.766-4.447-1.533-6.926c0.168-1.807-0.322-3.451-1.475-4.832c-1.205-1.449-1.945-3.101-2.295-4.909
		c-0.342-1.774-0.617-3.581-0.723-5.388c-0.111-1.942-0.379-3.776-1.412-5.49c-1.125-1.869-1.354-3.93-1.078-6.114
		c0.174-1.408,0.238-2.926-0.096-4.284c-0.597-2.416-0.867-4.898-1.744-7.268c-0.654-1.77-0.756-3.746-1.09-5.633
		c-0.187-1.04-0.244-2.109-0.533-3.117c-0.404-1.429-0.402-2.849-0.201-4.28c0.268-1.9,0.639-3.788,0.895-5.69
		c0.254-1.896,0.48-3.781-0.113-5.685c-0.182-0.575-0.014-1.314,0.148-1.94c0.725-2.783,2.559-5.163,2.947-8.078
		c0.035-0.26,0.248-0.529,0.447-0.727c1.016-0.992,0.979-2.191,0.83-3.484c-0.164-1.425-0.275-2.875-0.209-4.304
		c0.086-1.776-0.554-3.135-1.763-4.374c-1.983-2.033-4.37-3.414-6.942-4.517c-1.492-0.641-2.98-1.312-4.521-1.827
		c-1.989-0.669-3.909-1.636-6.062-1.725c-3.633-0.147-7.249-0.622-10.904-0.335c-2.387,0.187-4.791,0.163-7.188,0.205
		c-5.661,0.099-11.322,0.19-16.982,0.26c-1.172,0.014-2.3,0.164-3.355,0.669c-1.183,0.563-2.002,1.402-2.248,2.783
		c-0.438,2.459-0.955,4.903-1.455,7.348c-0.368,1.812-0.403,3.606-0.088,5.443c0.177,1.021,0.132,2.108,0.01,3.144
		c-0.227,1.908-0.526,3.812-0.896,5.696c-0.562,2.835-1.103,5.659-0.686,8.573c0.053,0.374-0.006,0.77-0.04,1.149
		c-0.419,4.401-0.88,8.793-1.259,13.197c-0.344,4.023-0.584,8.052-0.901,12.078c-0.146,1.816-0.38,3.625-0.562,5.439
		c-0.191,1.908-0.502,3.816-0.535,5.729c-0.075,4.531-0.383,9.012-1.705,13.389c-0.354,1.171-0.52,2.4-0.213,3.695
		c0.451,1.902,0.326,3.836-0.401,5.673c-0.794,1.993-0.612,4.017-0.022,5.946c0.461,1.508,0.59,2.996,0.629,4.531
		c0.016,0.575,0.043,1.149,0.053,1.729c0.012,0.728,0.311,1.308,0.882,1.732c0.462,0.344,0.911,0.732,1.429,0.967
		c2.426,1.092,3.488,3.143,4.119,5.567c0.312,1.204,0.824,2.354,1.188,3.541c1.062,3.492,2.201,6.986,2.525,10.636
		c0.363,4.104,0.491,8.229,0.741,12.668c0.961,0.035,1.812,0.107,2.66,0.094c6.616-0.104,13.233-0.178,19.853-0.362
		c6.896-0.194,13.799,0.137,20.686-0.72c5.154-0.637,10.273-1.42,15.18-3.109c4.816-1.66,9.371-3.882,13.07-7.587
		c1.301-1.306,2.027-2.774,2.219-4.546c0.175-1.622,0.285-3.25,0.406-4.881c0.033-0.478,0.113-0.983-0.012-1.428
		C183.977,193.973,183.323,191.863,182.653,189.762z"/>
</g>
</svg>
