<?xml version="1.0" encoding="utf-8"?>
<!-- Generator: Adobe Illustrator 16.0.0, SVG Export Plug-In . SVG Version: 6.00 Build 0)  -->
<!DOCTYPE svg PUBLIC "-//W3C//DTD SVG 1.1//EN" "http://www.w3.org/Graphics/SVG/1.1/DTD/svg11.dtd">
<svg version="1.1" id="Calque_1" xmlns="http://www.w3.org/2000/svg" xmlns:xlink="http://www.w3.org/1999/xlink" x="0px" y="0px"
	 width="283px" height="283px" viewBox="0 0 283 283" enable-background="new 0 0 283 283" xml:space="preserve">
<g>
	<path d="M191.368,126.238c-0.467-0.104-0.911-0.292-1.37-0.427c-3.31-0.97-6.623-1.923-9.929-2.906
		c-3.121-0.93-6.229-1.89-9.349-2.837c-1.606-0.486-2.909-1.457-4.062-2.64c-1.198-1.231-1.053-2.517,0.435-3.269
		c1.104-0.562,2.301-0.946,3.463-1.396c1.877-0.723,3.783-1.381,5.633-2.168c0.771-0.328,1.506-0.839,2.131-1.406
		c0.848-0.768,0.797-1.731-0.111-2.484c-0.654-0.546-1.406-0.999-2.17-1.397c-4.021-2.102-8.271-3.542-12.756-4.29
		c-4.254-0.71-8.488-1.545-12.758-2.126c-5.318-0.727-10.65-1.461-16-1.802c-6.408-0.404-12.842-0.479-19.268-0.548
		c-7.68-0.083-15.355-0.02-23.034,0.014c-0.694,0.004-1.554-0.322-2.121,0.671c0.362,0.394,0.672,0.918,1.13,1.186
		c1.154,0.671,2.321,1.399,3.58,1.799c4.244,1.357,8.002,3.679,11.878,5.772c0.421,0.229,0.825,0.496,1.202,0.787
		c1.339,1.037,1.297,2.288-0.146,3.264c-0.633,0.428-1.326,0.781-2.033,1.07c-1.771,0.725-3.586,1.357-5.354,2.089
		c-1.504,0.623-2.955,1.374-4.462,1.99c-2.073,0.853-2.229,4.414-0.174,5.457c0.854,0.436,1.681,0.94,2.567,1.289
		c2.141,0.848,4.297,1.646,6.465,2.417c1.984,0.71,4.011,1.31,5.98,2.051c2.303,0.867,2.967,2.054,2.577,4.414
		c-0.228,1.368-0.764,2.578-2.037,3.32c-2.235,1.302-4.46,2.622-6.71,3.903c-2.477,1.406-4.521,3.267-5.841,5.8
		c-1.042,1.996-0.56,3.75,1.247,5.06c0.691,0.506,1.466,0.91,2.229,1.314c1.444,0.76,2.901,1.487,4.362,2.215
		c1.91,0.945,3.108,2.49,3.884,4.447c0.424,1.075,0.407,2.07-0.341,2.968c-0.612,0.731-1.21,1.533-1.981,2.058
		c-1.183,0.801-2.461,1.498-3.778,2.037c-3.019,1.232-6.087,2.328-9.124,3.509c-0.896,0.35-1.811,0.69-2.613,1.19
		c-2.894,1.805-3.107,5.303-0.498,7.53c1.258,1.069,2.699,1.842,4.262,2.349c2.556,0.821,5.127,1.576,7.688,2.365
		c2.472,0.762,4.963,1.46,7.397,2.315c1.514,0.528,1.875,1.368,1.568,2.935c-0.412,2.104-1.688,3.652-3.359,4.854
		c-2.18,1.566-4.441,3.014-6.657,4.529c-1.663,1.143-3.327,2.277-4.949,3.473c-1.407,1.035-2.56,2.353-3.412,3.863
		c-1.528,2.705-0.995,4.45,1.634,6.026c2.469,1.476,5.121,1.979,7.979,1.955c10.174-0.074,20.35-0.09,30.521-0.063
		c5.76,0.014,11.496-0.281,17.217-0.97c5.061-0.604,9.68-2.446,13.889-5.192c4.904-3.2,9.941-6.152,15.139-8.854
		c2.221-1.155,4.289-2.551,6.182-4.198c1.025-0.896,1.42-1.981,1.146-3.354c-0.276-1.399-0.451-2.819-0.69-4.361
		c-0.103-0.101-0.273-0.368-0.521-0.476c-1.229-0.536-2.466-1.059-3.72-1.529c-2.511-0.953-5.054-1.816-7.533-2.834
		c-1.043-0.428-2.034-1.066-2.93-1.768c-1.504-1.182-1.927-2.766-1.457-4.635c0.532-2.129,1.812-3.57,3.823-4.354
		c2.591-1.011,5.198-1.968,7.791-2.974c1.606-0.625,3.233-1.218,4.787-1.961c2.03-0.974,3.668-2.401,4.563-4.543
		c-0.791-3.096-2.262-5.543-5.231-6.892c-1.132-0.517-2.198-1.173-3.276-1.797c-0.992-0.579-1.986-1.163-2.934-1.815
		c-1.236-0.857-1.529-2.16-1.334-3.551c0.105-0.736,0.391-1.482,0.73-2.15c0.99-1.948,2.578-3.303,4.477-4.334
		c2.443-1.329,4.886-2.664,7.3-4.047c1.705-0.979,2.2-2.611,2.06-4.445C194.114,127.931,193.234,126.659,191.368,126.238z"/>
	<path d="M-0.465-1.098V283H283V-1.098H-0.465z M233.928,133.394c-1.349,0.909-2.688,1.839-4.082,2.673
		c-1.396,0.837-2.844,1.594-4.295,2.335c-2.064,1.056-3.336,2.862-4.381,4.804c-1.27,2.353-0.797,4.179,1.396,5.757
		c1.241,0.895,2.608,1.613,3.933,2.395c0.66,0.389,1.324,0.787,2.028,1.08c2.149,0.896,3.108,2.812,3.955,4.74
		c0.638,1.451,0.216,2.9-0.995,3.91c-1.021,0.855-2.134,1.694-3.348,2.202c-3.443,1.44-6.969,2.699-10.45,4.05
		c-0.894,0.348-1.795,0.68-2.623,1.145c-0.655,0.367-1.28,0.857-1.795,1.408c-2.198,2.371-1.892,5.592,0.688,7.514
		c1.961,1.46,4.293,2.087,6.553,2.861c2.265,0.776,4.554,1.479,6.832,2.209c1.093,0.349,2.209,0.646,3.072,1.564
		c0.062,1.13,0.213,2.273,0.174,3.41c-0.045,1.374-0.461,2.672-1.539,3.611c-0.938,0.813-1.89,1.646-2.942,2.293
		c-2.771,1.707-5.616,3.289-8.401,4.979c-3.215,1.947-6.25,4.126-8.625,7.105c-0.299,0.375-0.621,0.733-0.894,1.13
		c-1.161,1.692-1.034,3.51,0.435,4.933c0.613,0.594,1.367,1.043,2.08,1.524s1.463,0.915,2.186,1.396
		c0.142,0.096,0.195,0.312,0.355,0.577c-0.107,0.883-0.451,1.779-1.115,2.492c-0.689,0.747-0.924,1.634-1.15,2.58
		c-0.178,0.718-0.438,1.571-0.953,2.021c-2.102,1.812-3.948,3.879-6.234,5.523c-4.302,3.095-9.08,4.917-14.147,6.068
		c-5.899,1.343-11.888,2.053-17.929,2.482c-13.133,0.938-26.276,0.562-39.418,0.584c-19.865,0.035-39.731-0.04-59.602-0.066
		c-1.146-0.002-2.291,0-3.521,0c-0.13-0.596-0.327-1.054-0.311-1.504c0.113-2.779,0.28-5.562,0.418-8.346
		c0.123-2.518,0.384-4.975,1.952-7.107c0.384-0.522,0.646-1.201,0.759-1.852c0.305-1.73,0.277-3.057-1.979-3.869
		c-1.352-0.484-2.707-0.96-4.059-1.443c-2.883-1.036-5.771-2.065-8.642-3.137c-0.712-0.269-1.396-0.646-2.032-1.066
		c-1.624-1.077-2.113-2.367-1.55-4.211c0.219-0.723,0.563-1.454,1.038-2.032c0.905-1.108,1.838-2.241,2.946-3.128
		c1.646-1.312,3.454-2.415,5.195-3.607c2.14-1.46,4.313-2.867,6.405-4.395c1.33-0.969,2.365-2.254,3.021-3.784
		c0.814-1.888,0.494-3.64-1.785-4.343c-2.379-0.732-4.764-1.453-7.146-2.176c-2.384-0.725-4.771-1.426-7.147-2.16
		c-1.758-0.549-3.391-1.358-4.799-2.551c-2.52-2.125-2.394-5.162,0.312-7.021c0.781-0.532,1.676-0.938,2.562-1.282
		c2.411-0.939,4.851-1.809,7.271-2.724c1.074-0.402,2.164-0.791,3.188-1.306c1.024-0.513,2.058-1.066,2.944-1.778
		c3.014-2.41,3.173-4.939,0.501-7.789c-0.645-0.687-1.462-1.241-2.279-1.726c-1.235-0.729-2.55-1.326-3.816-2.006
		c-0.933-0.496-1.896-0.953-2.751-1.56c-1.844-1.31-2.223-3.062-1.104-5.038c1.207-2.134,2.896-3.815,5.02-5.049
		c2.321-1.352,4.635-2.715,6.947-4.077c2.325-1.365,2.741-3.527,2.493-5.978c-0.1-0.972-0.595-1.619-1.465-1.961
		c-1.247-0.491-2.509-0.942-3.771-1.399c-3.246-1.163-6.509-2.288-9.738-3.49c-0.98-0.364-1.951-0.84-2.812-1.427
		c-1.704-1.165-1.749-3.358-0.095-4.626c0.75-0.576,1.631-1.017,2.51-1.379c2.307-0.95,4.646-1.804,6.957-2.734
		c0.888-0.355,1.773-0.745,2.58-1.251c0.547-0.344,1.011-0.873,1.405-1.399c0.433-0.573,0.334-1.336-0.21-1.828
		c-0.493-0.445-1.038-0.855-1.615-1.188c-1.917-1.088-3.812-2.229-5.805-3.166c-2.249-1.062-4.579-1.957-6.896-2.86
		c-1.725-0.675-3.316-1.512-4.506-2.979c-0.298-0.367-0.68-0.737-0.801-1.171c-0.88-3.152-1.899-6.317-0.275-9.548
		c0.13-0.255,0.199-0.54,0.393-1.069c0.976-0.393,2.101-0.896,3.261-1.301c4.435-1.548,8.881-3.052,13.315-4.598
		c1.085-0.378,2.17-0.782,3.192-1.298c0.668-0.337,1.294-0.831,1.813-1.376c0.558-0.585,0.658-1.325,0.318-2.139
		c-0.575-1.386-1.521-2.426-2.732-3.264c-3.168-2.189-6.466-4.119-10.09-5.474c-1.432-0.534-2.829-1.186-4.172-1.912
		c-1.909-1.033-3.012-2.719-3.104-4.886c-0.17-3.833-0.212-7.673-0.304-11.347c0.89-0.867,1.8-0.691,2.631-0.714
		c7.288-0.193,14.577-0.367,21.865-0.523c9.207-0.197,18.415-0.353,27.622-0.562c7.188-0.165,14.379-0.434,21.566-0.56
		c4.694-0.082,9.412-0.25,14.086,0.076c8.214,0.568,16.421,1.398,24.207,4.435c2.586,1.009,5.278,1.789,7.757,3.013
		c3.422,1.692,6.961,3.189,10.094,5.445c5.143,3.708,10.938,5.874,17.069,7.276c4.306,0.985,8.572,2.114,12.476,4.272
		c1.002,0.555,1.998,1.157,2.882,1.881c0.929,0.764,0.888,1.769-0.108,2.409c-1.275,0.825-2.609,1.607-4.017,2.188
		c-3.028,1.252-6.259,1.775-9.476,2.293c-5.011,0.807-10.039,1.488-14.963,2.789c-2.71,0.715-5.22,1.891-7.753,3.026
		c-0.325,0.146-0.582,0.447-0.862,0.674c2.278,3.412,5.459,5.438,9.088,6.833c5.184,1.996,10.388,3.935,15.567,5.927
		c3.229,1.243,6.544,2.175,9.899,2.972c4.418,1.052,8.554,2.807,12.488,5.058c0.986,0.564,2.238,1.06,2.293,2.351
		c0.06,1.509-1.389,1.962-2.449,2.519c-1.098,0.572-2.312,0.918-3.465,1.386c-1.86,0.759-3.778,1.406-5.559,2.334
		c-2.301,1.199-2.496,2.659-0.75,4.567c0.5,0.547,1.168,1,1.85,1.317c1.297,0.609,2.629,1.177,3.992,1.616
		c4.377,1.416,8.771,2.77,13.16,4.141c0.188,0.061,0.385,0.065,0.562,0.124c2.848,0.892,3.248,1.482,3.324,4.536
		C235.215,131.82,234.889,132.746,233.928,133.394z"/>
</g>
</svg>
