<?xml version="1.0" encoding="utf-8"?>
<!-- Generator: Adobe Illustrator 16.0.0, SVG Export Plug-In . SVG Version: 6.00 Build 0)  -->
<!DOCTYPE svg PUBLIC "-//W3C//DTD SVG 1.1//EN" "http://www.w3.org/Graphics/SVG/1.1/DTD/svg11.dtd">
<svg version="1.1" id="Calque_1" xmlns="http://www.w3.org/2000/svg" xmlns:xlink="http://www.w3.org/1999/xlink" x="0px" y="0px"
	 width="283px" height="283px" viewBox="0 0 283 283" enable-background="new 0 0 283 283" xml:space="preserve">
<g>
	<path d="M192.944,118.979c-1.651-0.752-3.408-1.275-5.094-1.962c-2.748-1.122-5.466-2.326-8.214-3.451
		c-1.657-0.681-2.366-1.829-2-3.733c0.351-0.221,0.718-0.556,1.146-0.708c1.713-0.606,3.451-1.146,5.174-1.729
		c2.084-0.705,4.197-1.34,6.234-2.165c1.812-0.735,1.982-2.314,0.469-3.56c-0.586-0.481-1.266-0.862-1.941-1.213
		c-2.209-1.145-4.479-2.18-6.651-3.391c-3.853-2.149-7.67-4.36-11.461-6.611c-2.488-1.48-5.131-2.583-7.845-3.552
		c-7.575-2.708-15.452-3.798-23.429-3.952c-11.604-0.225-23.215-0.151-34.822-0.189c-0.746-0.003-1.493,0.149-2.029,0.208
		c-1.59,1.773-1.799,3.617-1.404,5.604c0.146,0.755,0.318,1.513,0.361,2.278c0.1,1.838,0.934,3.308,2.165,4.583
		c1.406,1.457,2.97,2.727,4.718,3.757c0.989,0.584,1.99,1.162,2.928,1.832c0.529,0.379,1.018,0.882,1.384,1.425
		c0.543,0.813,0.321,1.766-0.543,2.215c-1.015,0.529-2.081,0.978-3.164,1.345c-2.354,0.802-4.745,1.511-7.106,2.298
		c-0.904,0.303-1.826,0.621-2.643,1.102c-1.53,0.901-1.657,2.777-0.241,3.83c0.914,0.681,1.947,1.235,2.993,1.694
		c3.068,1.348,6.156,2.655,9.271,3.898c1.094,0.438,2.086,0.964,2.892,1.819c0.838,0.887,0.786,2.335-0.179,3.044
		c-0.607,0.444-1.317,0.774-2.021,1.066c-1.855,0.776-3.743,1.481-5.593,2.27c-2.3,0.98-4.479,2.174-6.517,3.645
		c-1.516,1.096-2.338,2.417-2.258,4.363c0.1,2.402,0.025,4.81,0.025,7.214c0,1.66-0.262,3.267-1.124,4.712
		c-1.573,2.639-2.128,5.531-2.218,8.553c-0.209,7.215-0.59,14.408-1.307,21.598c-0.546,5.455-0.49,10.934-0.312,16.419
		c0.199,6.228,0.129,12.466,0.05,18.695c-0.031,2.543,0.706,4.653,2.278,6.632c2.582,3.245,5.42,6.247,8.479,9.017
		c1.758,1.59,2.85,3.325,2.639,5.754c-0.018,0.165,0.144,0.346,0.289,0.672c1.316,0.312,2.767,0.248,4.188,0.264
		c9.104,0.097,18.206,0.142,27.311,0.22c3.533,0.032,7.066,0.116,10.588-0.29c1.996-0.229,4.006-0.4,5.979-0.771
		c4.347-0.813,8.479-2.385,12.668-3.74c1.677-0.543,3.113-1.471,4.25-2.828c0.896-1.08,1.38-2.279,0.927-3.725
		c-0.435-1.367-0.681-2.818-1.263-4.115c-1.047-2.348-0.897-4.579-0.161-6.985c1.038-3.393,2.021-6.829,2.633-10.314
		c0.795-4.545,0.86-9.177,0.879-13.791c0.009-2.6-0.03-5.203,0.14-7.791c0.246-3.738,0.75-7.461,0.989-11.198
		c0.31-4.8,0.412-9.613,0.701-14.415c0.14-2.29,0.231-4.629,1.271-6.754c1.279-2.618,2.02-5.334,1.92-8.287
		c-0.061-1.727,0.182-3.461,0.135-5.189c-0.037-1.503,0.562-2.542,1.705-3.44c1.896-1.49,3.894-2.785,6.146-3.678
		c1.694-0.67,3.367-1.389,5.043-2.108c0.88-0.378,1.767-0.754,2.599-1.223c1.308-0.731,1.602-2.337,0.539-3.377
		C194.768,120.045,193.879,119.403,192.944,118.979z"/>
	<path d="M99.001,52.445c1.645,0.516,3.322,0.923,4.953,1.474c2.022,0.683,2.27,1.06,2.27,3.105
		c0.002,0.671-0.104,1.342-0.145,2.015c-0.051,0.862-0.176,1.735-0.104,2.589c0.128,1.535,0.305,3.053-0.956,4.789
		c1.089,0.136,1.646,0.272,2.202,0.269c11.021-0.151,22.042,0.244,33.064-0.233c4.979-0.215,9.961-0.293,14.922-0.758
		c2.195-0.207,4.398-0.363,6.562-0.753c2.062-0.368,4.113-0.903,6.098-1.576c0.951-0.323,1.807-1.058,2.58-1.738
		c0.654-0.576,0.596-1.361,0.045-2.075c-0.178-0.226-0.367-0.452-0.586-0.634c-2.395-1.947-4.91-3.736-7.957-4.441
		c-2.889-0.669-5.814-1.172-8.746-1.64c-5.762-0.92-11.531-1.791-17.311-2.624c-3.504-0.504-7.021-0.893-10.574-0.874
		c-7.769,0.038-15.535,0.021-23.303,0.023c-2.206,0.002-4.411-0.007-6.613,0.046c-0.396,0.01-0.787,0.302-1.453,0.574
		c0.676,0.55,1.051,1.012,1.535,1.216C96.631,51.678,97.814,52.072,99.001,52.445z"/>
	<path d="M-0.465-1.464V283H283V-1.464H-0.465z M235.021,124.425c-2.395,0.986-4.756,2.047-7.156,3.004
		c-2.258,0.898-4.23,2.236-6.17,3.663c-0.979,0.726-1.447,1.614-1.631,2.878c-0.398,2.771-0.432,5.554-0.551,8.333
		c-0.062,1.484-0.363,2.873-1.021,4.16c-1.562,3.073-2.096,6.387-2.268,9.76c-0.152,2.978,0.008,5.967-0.142,8.943
		c-0.223,4.51-0.588,9.012-0.897,13.52c-0.062,0.863-0.181,1.727-0.22,2.59c-0.268,5.76-0.51,11.52-0.789,17.279
		c-0.039,0.852-0.254,1.693-0.393,2.539c-0.637,3.979-0.918,8.019-2.102,11.902c-0.707,2.319,0.27,4.354,1.285,6.333
		c0.789,1.527,1.684,3.006,2.535,4.504c0.094,0.167,0.231,0.309,0.323,0.477c2.228,4.1,1.277,7.945-2.786,10.336
		c-2.056,1.207-4.308,2.108-6.541,2.966c-5.365,2.054-10.812,3.909-16.154,6.022c-2.926,1.157-5.736,2.629-8.56,4.051
		c-1.188,0.601-2.272,1.418-3.385,2.172c-3.006,2.041-5.901,4.266-9.017,6.125c-7.146,4.271-14.858,7.08-23.092,8.341
		c-4.438,0.678-8.895,1.274-13.358,1.708c-2.463,0.236-4.967,0.054-7.449,0.062c-6.902,0.031-13.81,0.033-20.711,0.108
		c-10.256,0.108-20.511,0.308-30.768,0.401c-7.293,0.072-14.588,0.059-21.883,0.054c-1.03,0-2.098,0.147-3.189-0.304
		c-0.438-1.422-0.35-2.873-0.378-4.287c-0.072-3.659-0.058-7.319-0.072-10.979c-0.002-0.48,0.031-0.962,0.025-1.441
		c-0.02-1.771,0.675-3.142,2.139-4.164c2.123-1.482,4.192-3.043,6.307-4.543c2.115-1.498,4.218-3.019,6.392-4.424
		c3.105-2.015,2.595-6.063,0.479-7.976c-0.998-0.901-2.021-1.78-2.947-2.754c-2.117-2.229-4.214-4.479-6.258-6.772
		c-1.791-2.013-2.573-4.334-2.546-7.119c0.097-9.724-0.082-19.447,0.032-29.169c0.047-4.025,0.567-8.049,0.881-12.07
		c0.045-0.573,0.16-1.148,0.187-1.723c0.205-4.521,0.45-9.037,0.572-13.558c0.079-2.942,0.68-5.706,2.134-8.271
		c0.923-1.623,1.353-3.377,1.342-5.247c-0.009-2.501,0.054-5.007-0.024-7.507c-0.05-1.519,0.518-2.603,1.783-3.351
		c1.896-1.12,3.757-2.318,5.724-3.297c1.799-0.894,3.726-1.525,5.578-2.307c0.969-0.41,1.945-0.827,2.844-1.365
		c1.368-0.822,1.478-2.471,0.339-3.668c-0.816-0.86-1.852-1.323-2.927-1.772c-3.273-1.355-6.524-2.768-9.777-4.174
		c-0.613-0.268-1.192-0.616-1.792-0.919c-0.979-0.497-1.343-1.309-1.243-2.376c0.067-0.722,0.318-1.312,1.023-1.605
		c0.796-0.33,1.583-0.69,2.399-0.963c2.452-0.816,4.925-1.582,7.377-2.404c0.905-0.306,1.812-0.648,2.651-1.094
		c1.357-0.727,1.568-2.212,0.514-3.36c-0.386-0.417-0.852-0.775-1.327-1.091c-0.962-0.632-1.992-1.166-2.931-1.83
		c-1.248-0.887-2.474-1.812-3.637-2.807c-1.59-1.358-2.622-3.042-2.707-5.221c-0.021-0.57-0.166-1.145-0.293-1.705
		c-0.459-2.046-0.419-3.975,0.914-5.766c0.64-0.858,0.753-1.947,0.735-3.035c-0.025-1.636,0.082-3.276,0.012-4.91
		c-0.082-1.948,0.215-3.811,0.798-5.672c0.405-1.292,0.787-2.549,1.579-3.681c0.726-1.039,1.138-2.186,0.75-3.533
		c-0.323-1.133,0.047-2.276,0.179-3.42c0.482-4.154,0.473-4.539-3.665-5.685c-1.847-0.511-3.684-1.066-5.501-1.665
		c-0.812-0.271-1.609-0.633-2.347-1.068c-0.709-0.419-0.714-1.833,0.013-2.231c0.83-0.453,1.737-0.792,2.646-1.067
		c2.748-0.839,5.518-1.61,8.269-2.437c0.73-0.221,1.438-0.53,2.145-0.827c0.667-0.279,1.049-0.782,1.171-1.52
		c0.204-1.224,0.058-1.886-1.033-2.418c-1.719-0.835-3.483-1.606-5.297-2.194c-3.828-1.24-7.713-2.3-11.543-3.533
		c-1.262-0.403-2.499-0.992-3.62-1.701c-1.396-0.885-1.665-2.35-0.421-3.384c1.899-1.581,2.017-3.573,2.021-5.724
		c0.005-2.405,0.062-4.812,0.107-7.217c0.005-0.182,0.109-0.359,0.232-0.739c1.171-0.717,2.627-0.624,4.03-0.64
		c4.317-0.045,8.638-0.037,12.955-0.042c21.397-0.023,42.796-0.137,64.192-0.023c7.47,0.04,14.91,0.837,22.155,2.857
		c5.641,1.57,11.123,3.577,16.457,5.983c1.216,0.548,2.354,1.293,3.457,2.046c0.521,0.356,0.89,0.942,1.447,1.565
		c-0.781,0.733-1.457,1.364-2.229,2.09c1.401,1.768,3.17,2.825,5.259,3.28c3.838,0.837,7.702,1.532,11.538,2.365
		c5.334,1.157,10.662,2.356,15.976,3.615c1.572,0.374,3.092,1.007,4.633,1.523c1.129,0.376,2.02,1.086,2.77,1.986
		c0.604,0.729,0.488,1.482-0.383,1.885c-1.74,0.807-3.504,1.56-5.271,2.302c-0.971,0.41-1.989,0.708-2.944,1.146
		c-0.489,0.227-0.892,0.648-1.286,0.943c0.288,1.553,1.254,2.31,2.512,2.676c2.297,0.672,4.619,1.25,6.932,1.875
		c1.479,0.399,2.957,0.799,4.428,1.233c1.479,0.44,2.475,1.44,3.07,2.838c0.267,0.616,0.48,1.256,0.707,1.889
		c0.734,2.098,0.1,4.077-1.779,5.205c-0.896,0.539-1.883,0.951-2.857,1.335c-3.658,1.443-7.312,2.885-10.771,4.784
		c-0.42,0.23-0.873,0.402-1.277,0.654c-1.518,0.939-1.787,2.288-0.6,3.606c1.797,1.993,3.682,3.912,5.535,5.854
		c0.529,0.554,1.211,0.996,1.627,1.622c2.473,3.717,5.955,6.512,8.883,9.814c2.354,2.655,5.34,4.666,8.459,6.407
		c1.596,0.889,3.199,1.749,4.783,2.653c0.492,0.279,0.99,0.602,1.385,1.001c1.076,1.094,0.891,2.396-0.479,3.024
		c-1.216,0.559-2.483,1.006-3.754,1.43c-2.093,0.696-4.203,1.332-6.302,2.006c-0.455,0.146-0.896,0.346-1.341,0.524
		c-0.819,0.334-1.737,0.771-1.689,1.738c0.057,1.12,0.35,2.268,1.56,2.871c3.604,1.799,7.272,3.45,11.079,4.773
		c2.759,0.95,2.802,0.947,4.822,2.93C237.043,123.005,236.35,123.877,235.021,124.425z"/>
</g>
</svg>
