<?xml version="1.0" encoding="utf-8"?>
<!-- Generator: Adobe Illustrator 16.0.0, SVG Export Plug-In . SVG Version: 6.00 Build 0)  -->
<!DOCTYPE svg PUBLIC "-//W3C//DTD SVG 1.1//EN" "http://www.w3.org/Graphics/SVG/1.1/DTD/svg11.dtd">
<svg version="1.1" id="Calque_1" xmlns="http://www.w3.org/2000/svg" xmlns:xlink="http://www.w3.org/1999/xlink" x="0px" y="0px"
	 width="283px" height="283px" viewBox="0 0 283 283" enable-background="new 0 0 283 283" xml:space="preserve">
<g>
	<path d="M174.616,114.076c-2.807-7.068-6.847-13.46-11.248-19.632c-4.327-6.068-9.942-10.627-16.536-13.926
		c-5.005-2.501-10.479-3.649-15.986-4.317c-7.896-0.958-15.823-1.64-23.742-2.399c-1.97-0.19-3.953-0.222-6.179-0.339
		c-0.137,1.998-0.264,3.696-0.355,5.399c-0.545,9.605-0.728,19.177,1.182,28.7c1.203,6.016,2.07,12.102,3.014,18.167
		c1.579,10.206,1.012,20.47,0.746,30.722c-0.151,5.852-0.529,11.699-0.545,17.551c-0.014,3.523,0.479,7.046,0.783,11.094
		c1.91,0,3.332-0.002,4.758,0.002c9.781,0.035,19.564,0.051,29.349,0.115c5.863,0.039,11.658-0.527,17.382-1.809
		c5.121-1.145,9.922-3.137,13.94-6.493c5.146-4.302,8.445-9.927,9.713-16.521c0.771-4.02,1.05-8.15,1.296-12.244
		c0.353-5.85,0.032-11.741-1.548-17.354C179.039,125.103,176.799,119.58,174.616,114.076z"/>
	<path d="M-0.465-1.097V283H283V-1.097H-0.465z M175.516,243.124c-1.455,4.27-5.01,5.548-8.723,6.575
		c-5.365,1.481-10.854,1.958-16.438,1.856c-19.061-0.334-38.121-0.511-57.18-0.809c-5.641-0.088-11.276-0.372-17.032-0.57
		c-0.905-6.123-1.758-11.892-2.646-17.882c0.746-0.101,1.469-0.271,2.188-0.28c10.921-0.097,21.842-0.146,32.762-0.254
		c13.979-0.142,27.959-0.382,41.938-0.466c7.459-0.045,14.547,1.772,21.146,5.213c1.532,0.8,2.76,2.316,3.898,3.689
		C176.075,240.97,175.909,241.976,175.516,243.124z M219.748,151.725c-0.025,5.115-1.226,10.035-2.589,14.936
		c-3.019,10.85-9.008,19.365-18.967,24.885c-8.13,4.508-16.505,8.492-25.174,11.84c-5.214,2.018-10.718,2.784-16.202,3.613
		c-7.545,1.145-15.129,0.562-22.692,0.521c-20.133-0.119-40.266-0.379-60.396-0.576c-1.13-0.014-2.26-0.004-3.609-0.004
		c-0.105-1.168-0.261-2-0.244-2.825c0.138-7.138-0.499-14.203-1.58-21.261c-0.947-6.198-0.82-12.461-0.569-18.715
		c0.31-7.781,0.627-15.564,0.739-23.35c0.134-9.185-1.764-18.157-3.13-27.185c-0.963-6.362-2.227-12.728-2.524-19.132
		c-0.541-11.537,0.381-23.069,1.453-34.56c0.812-8.708,1.756-17.408,2.651-26.112c0.107-1.036,0.293-2.067,0.497-3.466
		c3.719,0.382,7.046,0.703,10.369,1.068c9.432,1.04,18.861,2.071,28.286,3.157c12.746,1.468,25.526,2.715,38.22,4.557
		c11.059,1.606,21.281,5.538,30.682,11.895c9.185,6.215,16.09,14.374,21.979,23.518c3.688,5.725,6.314,12.012,8.746,18.387
		c2.354,6.175,5.053,12.216,7.45,18.374c2.991,7.688,5.692,15.519,6.465,23.764C220.118,140.566,219.774,146.165,219.748,151.725z"
		/>
</g>
</svg>
