<?xml version="1.0" encoding="utf-8"?>
<!-- Generator: Adobe Illustrator 16.0.0, SVG Export Plug-In . SVG Version: 6.00 Build 0)  -->
<!DOCTYPE svg PUBLIC "-//W3C//DTD SVG 1.1//EN" "http://www.w3.org/Graphics/SVG/1.1/DTD/svg11.dtd">
<svg version="1.1" id="Calque_1" xmlns="http://www.w3.org/2000/svg" xmlns:xlink="http://www.w3.org/1999/xlink" x="0px" y="0px"
	 width="283px" height="283px" viewBox="0 0 283 283" enable-background="new 0 0 283 283" xml:space="preserve">
<g>
	<path d="M187.898,121.108c-4.438-7.119-10.239-12.637-18.146-15.734c-0.888-0.349-1.738-0.802-2.572-1.267
		c-2.176-1.206-4.308-2.499-6.514-3.65c-0.916-0.478-1.96-0.789-2.979-0.98c-4.146-0.781-8.321-1.156-12.544-0.839
		c-0.383,0.027-0.768,0.013-1.146,0.014c-8.146,0.018-16.287,0.026-24.434,0.062c-0.646,0.002-1.29,0.173-1.812,0.247
		c-0.815,1.403-1.578,2.621-2.244,3.896c-0.301,0.57-0.563,1.242-0.572,1.874c-0.046,2.979,0,5.955,0.021,8.933
		c0.047,6.828,0.104,13.652,0.144,20.482c0.015,2.627-0.304,3.077-2.791,3.999c-1.077,0.397-2.181,0.739-3.288,1.035
		c-1.665,0.442-3.359,0.781-5.021,1.241c-3.151,0.873-6.176,2.066-8.965,3.818c-1.051,0.657-2.115,1.336-3.257,1.812
		c-2.168,0.896-3.026,2.475-2.94,4.756c0.113,3.062,0.07,6.131,0.242,9.188c0.113,1.996-0.133,3.82-1.334,5.468
		c-0.459,0.63-0.674,1.323-0.613,2.155c0.135,1.91,0.203,3.831,0.214,5.749c0.053,10.284,0.084,20.569,0.108,30.854
		c0.025,9.521,0.035,19.04,0.062,28.559c-0.001,0.764,0.081,1.522,0.146,2.651c1.094,0.115,1.935,0.277,2.771,0.279
		c4.792,0.004,9.585-0.004,14.377-0.058c6.704-0.071,13.41-0.351,20.109-0.238c7.719,0.126,14.74-2.212,21.449-5.637
		c4.484-2.289,8.062-5.826,11.179-9.744c4.301-5.403,7.104-11.585,8.938-18.223c1.026-3.709,1.812-7.471,2.162-11.295
		c0.303-3.34,0.469-6.701,0.493-10.051c0.025-3.935-0.143-7.869-0.272-11.801c-0.041-1.189,0.029-2.326,0.765-3.294
		c1.133-1.485,1.271-3.194,1.155-4.942c-0.157-2.39-0.405-4.771-0.608-7.156c-0.115-1.338-0.191-2.68-0.342-4.017
		c-0.082-0.739,0.129-1.346,0.662-1.812c0.495-0.434,1.041-0.821,1.604-1.165c0.813-0.496,1.743-0.831,2.493-1.41
		c2.705-2.087,5.757-3.409,9.021-4.294c2.129-0.573,4.274-1.079,6.394-1.695c4.074-1.186,4.475-1.862,3.182-5.985
		C191.891,128.768,190.201,124.796,187.898,121.108z"/>
	<path d="M-0.463-1.097V283H283V-1.097H-0.463z M60.172,42.138c0.33-1.482,0.616-2.957,0.553-4.457
		c-0.078-1.844,0.502-3.642,2.611-5.24c0.521-0.396,0.827-0.86,1.243-1.295c0.749-0.773,1.363-1.594,2.29-2.313
		c1.987-1.541,3.081-3.178,2.961-5.032c-0.083-1.299,0.063-2.601,0.064-3.9c0-0.496,0.114-0.986,0.714-1.372
		c1.119-0.718,0.868-1.524,0.943-2.275c-0.938-0.538-2.659-0.135-3.246-0.841c0.338-0.359,0.983-0.274,1.521-0.278
		c3.934-0.025,7.864-0.051,11.797-0.049c18.896,0.006,37.793,0.016,56.691,0.034c5.465,0.006,10.934-0.001,16.396,0.087
		c3.055,0.048,6.096,0.296,9.146,0.421c3.632,0.148,7.265,0.29,10.897,0.389c1.746,0.047,3.416,0.208,5.051,0.505
		c1.533,0.278,3.067,0.555,4.606,0.822c2,0.348,3.867,0.809,5.638,1.407c2.853,0.967,5.856,1.817,8.696,2.792
		c2.127,0.731,4.203,1.518,6.089,2.395c1.219,0.565,2.051,1.344,3.069,2.036c-1.578,1.178-3.345,2.065-5.938,2.505
		c-4.168,0.709-8.31,1.458-12.447,2.209c-4.85,0.883-9.831,1.593-14.469,2.755c-1.362,0.341-2.647,0.76-3.949,1.16
		c-0.648,0.201-1.211,0.487-1.893,0.652c-1.378,0.333-2.388,0.783-2.445,1.598c-0.732,0.146-1.334,0.307-1.974,0.38
		c-1.388,0.161-2.39,0.565-3.146,1.142c-0.812,0.619-1.979,1.025-3.207,1.332c-0.205,0.758-0.396,1.458-0.619,2.289
		c0.439,0.27,1.029,0.625,1.753,1.065c-0.546,0.232-1.019,0.449-1.509,0.648c-1.086,0.448-2.498,0.689-3.231,1.373
		c-0.228,0.208-0.896,0.366-1.413,0.415c-1.689,0.16-3.143,0.621-4.74,0.891c-0.801,0.136-1.573,0.266-2.405,0.333
		c-1.007,0.081-2.021,0.032-3.015,0.324c-0.662,0.195-1.681,0.132-2.533,0.113c-6.774-0.153-13.549-0.322-20.322-0.485
		c-2.577-0.062-5.165-0.065-7.729-0.206c-4.062-0.216-8.146-0.253-12.216-0.464c-3.688-0.188-7.426-0.158-11.144-0.228
		c-4.672-0.087-9.344-0.189-14.019-0.265c-3.248-0.054-6.499-0.08-9.749-0.111c-1.628-0.02-3.256,0.008-4.743-0.434
		c-0.266-0.078-0.714-0.01-1.368-0.01C59.709,43.944,59.97,43.041,60.172,42.138z M233.566,138.125
		c-1.896,0.665-3.836,1.222-5.791,1.668c-3.479,0.796-6.795,2.01-9.938,3.7c-1.767,0.946-3.336,2.207-5.17,3.069
		c-1.377,0.646-1.998,1.842-1.853,3.553c0.307,3.533,0.373,7.086,0.545,10.629c0.076,1.57-0.121,3.066-1.074,4.387
		c-0.649,0.902-0.705,1.938-0.705,3.022c-0.008,5.575,0.097,11.149-0.159,16.713c-0.179,3.913-0.556,7.836-1.172,11.726
		c-0.828,5.211-1.839,10.379-3.3,15.448c-1.922,6.659-4.392,13.094-7.93,19.078c-0.978,1.648-1.943,3.302-2.992,4.906
		c-0.781,1.197-1.679,2.32-2.533,3.474c-0.967,1.296-1.94,2.585-2.928,3.892c1.604,1.976,4.198,1.658,6.004,3.192
		c-0.707,1.245-1.804,1.858-3.08,2.327c-1.795,0.66-3.562,1.398-5.305,2.188c-1.41,0.646-2.529,1.543-3.185,3.111
		c-1.029,2.477-3.26,3.737-5.652,4.538c-2.174,0.722-4.432,1.231-6.686,1.663c-2.555,0.488-5.012,1.204-7.426,2.165
		c-1.77,0.705-3.598,1.388-5.463,1.694c-4.525,0.759-9.105,1.19-13.633,1.947c-4.955,0.823-9.934,0.529-14.898,0.549
		c-19.672,0.06-39.348,0.041-59.021,0.047c-4.605,0.002-9.214-0.013-13.818-0.03c-0.76-0.004-1.518-0.068-2.303-0.104
		c-0.669-1.724-2.154-3.098-1.41-5.232c0.639-0.809,1.716-0.979,2.682-1.356c0.623-0.247,1.271-0.446,1.863-0.759
		c1.432-0.755,1.448-2.354,0.029-3.182c-0.575-0.336-1.225-0.549-1.846-0.799c-0.621-0.252-1.268-0.449-1.876-0.728
		c-1.22-0.563-1.63-1.205-1.514-2.472c0.125-1.366,0.43-2.541,1.889-3.285c1.229-0.626,1.084-2.049-0.172-2.74
		c-0.917-0.505-1.927-0.852-2.921-1.193c-1.173-0.408-2.379-0.73-3.413-1.769c-0.043-0.854-0.129-1.808-0.132-2.758
		c-0.034-11.154-0.044-22.308-0.082-33.461c-0.029-8.938-0.075-17.879-0.133-26.818c-0.027-4.128-0.082-8.254-0.167-12.383
		c-0.019-0.906,0.172-1.736,0.649-2.469c1.221-1.861,1.445-3.904,1.363-6.074c-0.107-2.786-0.087-5.577-0.104-8.369
		c-0.005-0.671,0.025-1.346,0.082-2.014c0.06-0.707,0.353-1.338,0.998-1.655c3.176-1.572,5.855-4.054,9.305-5.122
		c2.191-0.679,4.388-1.351,6.588-2.004c1.926-0.572,3.896-1.018,5.784-1.693c2.723-0.975,2.942-1.365,2.934-4.197
		c-0.02-7.597-0.061-15.194-0.094-22.79c-0.01-2.02,0.008-4.04-0.031-6.059c-0.021-0.997,0.194-1.847,0.775-2.697
		c1.2-1.756,2.083-3.667,2.184-5.856c0.01-0.188,0.035-0.396,0.115-0.562c1.275-2.621,1.021-5.437,1.031-8.212
		c0.014-3.174-0.033-6.348-0.004-9.522c0.021-1.487-0.213-2.867-1.286-4.259c-2.327-0.542-4.84-1.115-7.347-1.722
		c-1.77-0.426-3.534-0.864-5.285-1.358c-2.166-0.607-4.023-1.764-5.62-3.354c-1.499-1.494-2.226-3.3-2.303-5.461
		c1.678-0.554,3.354-0.731,5.068-0.772c7.85-0.181,15.696-0.397,23.545-0.59c2.203-0.059,4.406-0.076,6.61-0.118
		c10.729-0.204,21.462-0.404,32.191-0.619c4.6-0.091,9.2-0.359,13.797-0.292c5.635,0.081,11.276,0.333,16.598,2.59
		c0.875,0.372,1.821,0.58,2.753,0.813c3.441,0.871,6.729,2.163,9.898,3.76c0.429,0.216,0.854,0.44,1.308,0.606
		c7.125,2.591,14.33,4.834,21.946,5.467c3.345,0.278,6.688,0.643,9.998,1.148c2.393,0.364,4.58,1.483,6.562,2.815
		c2.297,1.542,4.471,3.294,6.559,5.115c3.463,3.026,6.707,6.275,9.361,10.065c0.729,1.039,1.385,2.07,1.521,3.364
		c0.029,0.285,0.08,0.587,0.209,0.837c1.014,1.948,1.316,3.899,0.596,6.074c-0.402,1.205,0.254,2.444,0.842,3.563
		c3.451,6.556,6.199,13.374,7.942,20.597c0.653,2.702,1.315,5.395,1.634,8.157C235.799,136.81,235.416,137.475,233.566,138.125z"/>
</g>
</svg>
