<?xml version="1.0" encoding="utf-8"?>
<!-- Generator: Adobe Illustrator 16.0.0, SVG Export Plug-In . SVG Version: 6.00 Build 0)  -->
<!DOCTYPE svg PUBLIC "-//W3C//DTD SVG 1.1//EN" "http://www.w3.org/Graphics/SVG/1.1/DTD/svg11.dtd">
<svg version="1.1" id="Calque_1" xmlns="http://www.w3.org/2000/svg" xmlns:xlink="http://www.w3.org/1999/xlink" x="0px" y="0px"
	 width="283px" height="283px" viewBox="0 0 283 283" enable-background="new 0 0 283 283" xml:space="preserve">
<g>
	<path d="M-0.465-1.098V283H283V-1.098H-0.465z M232.793,75.997c-0.41,1.366-1.009,2.694-0.974,4.195
		c0.013,0.519-0.367,1.069-0.646,1.564c-1.18,2.105-2.197,4.265-2.83,6.604c-0.549,2.026-1.738,3.617-3.414,4.854
		c-1.463,1.076-2.938,2.14-4.395,3.23c-0.459,0.345-0.865,0.761-1.291,1.148c-0.939,0.856-1.258,1.89-0.896,3.127
		c0.244,0.829,0.562,1.659,0.646,2.511c0.194,2.1,1.506,3.266,3.246,4.033c1.482,0.658,3.041,1.164,4.562,1.734
		c1.347,0.504,2.709,0.963,4.026,1.524c0.505,0.216,1.062,0.583,1.324,1.038c0.694,1.202,0.655,2.578-0.646,3.261
		c-1.521,0.796-3.111,1.47-4.723,2.069c-1.521,0.564-3.133,0.897-4.656,1.464c-0.979,0.36-1.922,0.882-2.787,1.468
		c-0.957,0.646-0.92,2.047,0.051,2.671c0.638,0.407,1.369,0.677,2.084,0.939c1.979,0.732,3.974,1.415,5.951,2.146
		c0.81,0.298,1.623,0.599,2.377,1.01c2.053,1.121,2.371,3.422,0.609,4.977c-1.066,0.945-2.271,1.803-3.545,2.438
		c-2.047,1.02-2.938,2.527-2.974,4.811c-0.041,2.681-0.396,5.354-0.502,8.036c-0.069,1.748-0.382,3.43-0.853,5.102
		c-0.479,1.691-0.591,3.375-0.089,5.111c0.205,0.701,0.121,1.513,0.074,2.269c-0.298,4.794-0.521,9.597-0.974,14.376
		c-0.289,3.053-0.819,6.094-1.447,9.098c-0.922,4.412-1.864,8.832-3.1,13.16c-1.072,3.776-2.543,7.434-4.281,10.975
		c-1.301,2.646-2.481,5.349-3.646,7.871c0.414,1.447,1.551,1.68,2.521,1.972c1.738,0.522,3.529,0.879,5.299,1.317
		c0.732,0.186,1.459,0.412,2.285,0.648c-1.174,2.516-2.979,4.377-4.662,6.311c-3.618,4.142-7.848,7.64-12.355,10.705
		c-3.145,2.133-6.412,4.182-10.027,5.551c-1.965,0.746-3.807,1.808-5.745,2.621c-5.155,2.17-10.604,3.252-16.101,4.059
		c-3.496,0.514-7.022,0.84-10.55,1.085c-2.479,0.174-4.979,0.086-7.472,0.086c-23.512,0.013-47.021,0.024-70.53,0.013
		c-2.183,0-4.384,0.129-6.688-0.24c-0.099-0.683-0.235-1.229-0.242-1.776c-0.032-2.597-0.01-5.192-0.039-7.788
		c-0.062-5.087-0.118-10.177-0.231-15.264c-0.036-1.717-0.236-3.43-0.369-5.217c-1.113-0.562-2.221-0.763-3.35-0.951
		c-2.361-0.395-4.718-0.83-7.063-1.311c-0.838-0.173-1.637-0.541-2.462-0.783c-1.41-0.412-1.961-1.357-1.95-2.802
		c0.023-3.269-0.03-6.534-0.023-9.807c0.02-8.076,0.03-16.152,0.092-24.231c0.035-4.517,0.161-9.031,0.259-13.548
		c0.014-0.575,0.062-1.153,0.146-1.725c0.472-3.142,0.882-6.277,0.711-9.472c-0.054-1.028,0.149-2.131,0.486-3.111
		c0.578-1.678,0.676-3.379,0.661-5.112c-0.021-2.694,0.022-5.389-0.065-8.081c-0.047-1.406,0.453-2.383,1.606-3.136
		c1.364-0.89,2.714-1.812,4.019-2.79c1.069-0.804,1.507-1.921,1.392-3.29c-0.072-0.84-0.352-1.524-1.098-1.889
		c-1.377-0.669-2.771-1.313-4.189-1.878c-1.516-0.601-3.075-1.085-4.604-1.649c-0.628-0.231-1.259-0.485-1.835-0.822
		c-1.229-0.719-1.229-1.969,0.025-2.734c0.646-0.397,1.375-0.682,2.096-0.929c2.267-0.773,4.555-1.482,6.814-2.275
		c0.989-0.348,1.944-0.802,2.895-1.259c2.132-1.029,2.421-4.129-0.168-5.128c-1.607-0.622-3.215-1.251-4.811-1.906
		c-1.059-0.437-2.149-0.837-3.141-1.405c-1.227-0.707-1.979-1.785-1.906-3.303c0.026-0.574,0.073-1.166-0.015-1.731
		c-0.389-2.484,0.965-3.96,2.862-5.164c2.021-1.281,4.04-2.576,6.04-3.898c1.733-1.144,2.981-2.676,3.644-4.679
		c0.299-0.91,0.723-1.778,1.062-2.675c0.885-2.337,1.563-4.671,1.521-7.257c-0.056-3.066,0.404-6.136,0.488-9.207
		c0.106-3.946-0.038-3.203-2.782-5.014c-1.518-1-3.15-1.833-4.77-2.667c-2.829-1.454-5.562-3.009-7.699-5.461
		c-1.383-1.587-2.874-3.077-4.345-4.584c-0.467-0.479-1.052-0.838-1.526-1.308c-0.888-0.873-1.809-1.729-2.58-2.696
		c-1.778-2.225-1.734-4.621-0.289-6.967c0.698-1.136,1.63-2.135,2.497-3.156c1.112-1.312,2.268-2.592,3.733-4.261
		c4.233-0.028,8.644-0.079,13.052-0.083c17.081-0.021,34.162-0.021,51.243-0.033c5.949-0.004,11.9-0.028,17.854-0.016
		c4.896,0.011,9.764,0.438,14.612,1.096c4.463,0.605,8.938,1.125,13.379,1.873c7.021,1.181,13.793,3.107,20.011,6.786
		c5.047,2.986,10.549,5.033,16.02,7.113c1.074,0.405,2.176,0.75,3.252,1.157c0.623,0.24,1.269,0.48,1.818,0.849
		c2.08,1.375,4.168,2.741,6.18,4.22c3.188,2.343,6.67,4.138,10.24,5.809c2.078,0.972,4.041,2.192,6.059,3.299
		c1.26,0.689,1.945,1.759,2.316,3.139C233.299,70.689,233.603,73.307,232.793,75.997z"/>
	<path d="M178.323,119.87c1.634-0.788,3.317-1.474,5.017-2.119c1.699-0.644,3.451-1.148,5.151-1.793
		c0.703-0.268,1.394-0.666,1.981-1.135c1.306-1.032,1.188-2.975-0.215-3.915c-0.553-0.368-1.178-0.652-1.803-0.884
		c-1.353-0.493-2.724-0.918-4.082-1.382c-1.449-0.498-2.908-0.968-4.336-1.516c-1.787-0.689-3.066-1.911-3.775-3.727
		c-0.555-1.423-1.164-2.827-1.858-4.511c0.788-0.855,1.39-1.6,2.081-2.235c1.193-1.1,2.419-2.179,3.689-3.189
		c1.586-1.259,2.521-2.834,2.783-4.854c0.32-2.462,1.483-4.536,3.062-6.412c0.365-0.439,0.834-0.914,0.927-1.431
		c0.315-1.865,1.397-3.354,2.284-4.925c0.979-1.733,0.938-3.468,0.396-5.29c-0.506-1.692-1.564-3.069-2.502-4.51
		c-0.244-0.381-0.689-0.668-1.104-0.898c-2.094-1.159-4.121-2.502-6.33-3.387c-5.527-2.209-10.803-4.945-16.174-7.483
		c-3.895-1.838-7.848-3.608-12.254-3.916c-1.621-0.11-3.238-0.354-4.848-0.607c-5.506-0.867-11.067-1.278-16.612-1.392
		c-11.988-0.242-23.985-0.133-35.979-0.155c-0.447,0-0.979-0.092-1.203,0.637c0.355,0.375,0.736,0.791,1.135,1.19
		c0.804,0.812,1.643,1.588,2.423,2.421c3.422,3.655,6.914,7.178,11.62,9.258c2.002,0.885,3.812,2.206,5.711,3.325
		c1.007,0.594,1.464,1.45,1.382,2.64c-0.147,2.199-0.354,4.405-0.354,6.604c0.01,4.364-0.664,8.508-2.357,12.606
		c-1.16,2.806-2.676,5.042-5.17,6.661c-0.887,0.571-1.805,1.095-2.693,1.658c-1.053,0.667-2.117,1.319-3.128,2.048
		c-1.506,1.086-2.354,2.485-1.979,4.454c0.145,0.746,0.136,1.532,0.113,2.296c-0.037,1.305,0.592,2.228,1.646,2.839
		c0.989,0.576,2.039,1.062,3.096,1.506c1.767,0.746,3.568,1.397,5.332,2.143c2.293,0.974,1.871,3.702,0.125,4.526
		c-1.039,0.484-2.065,1.021-3.146,1.397c-1.898,0.661-3.854,1.164-5.75,1.837c-1.164,0.413-2.315,0.928-3.369,1.569
		c-0.979,0.596-0.941,2.066,0.021,2.656c0.896,0.55,1.854,1.014,2.834,1.388c1.34,0.513,2.743,0.856,4.086,1.361
		c1.252,0.473,2.51,0.972,3.67,1.626c1.537,0.865,1.91,2.484,0.881,3.914c-0.604,0.838-1.436,1.532-2.248,2.189
		c-0.668,0.538-1.446,0.938-2.191,1.369c-1.671,0.974-2.305,2.418-2.221,4.339c0.13,2.877,0.171,5.764,0.152,8.646
		c-0.007,1.039-0.148,2.121-0.474,3.104c-0.55,1.678-0.688,3.366-0.712,5.109c-0.021,1.627-0.166,3.257-0.32,4.875
		c-0.174,1.814-0.559,3.613-0.609,5.425c-0.146,5.284-0.23,10.573-0.229,15.858c0.006,7.784,0.206,15.563-0.254,23.346
		c-0.164,2.769,0.04,5.56,0.125,8.339c0.038,1.255,0.624,2.179,1.863,2.643c1.629,0.611,3.283,0.984,5.042,0.982
		c11.993-0.023,23.987-0.003,35.981-0.021c5.479-0.009,10.602-1.41,15.375-4.104c2.85-1.605,5.488-3.44,7.814-5.781
		c3.527-3.561,6.656-7.334,8.92-11.881c3.771-7.58,5.93-15.555,6.562-23.964c0.166-2.2,0.022-4.437,0.353-6.606
		c0.447-2.97,0.5-5.919,0.236-8.885c-0.146-1.65,0.039-3.258,0.385-4.857c0.119-0.564,0.289-1.121,0.345-1.691
		c0.343-3.62,1.101-7.203,1.06-10.866c-0.019-1.566,0.69-2.763,1.99-3.623c1.038-0.689,2.104-1.347,3.092-2.107
		c0.672-0.521,1.323-1.125,1.811-1.816c0.801-1.144,0.752-3.357-1.127-4.148c-1.412-0.595-2.824-1.188-4.262-1.717
		c-1.709-0.631-3.455-1.158-5.154-1.806c-0.701-0.271-1.396-0.651-1.967-1.132C177.286,121.319,177.379,120.324,178.323,119.87z"/>
</g>
</svg>
