<?xml version="1.0" encoding="utf-8"?>
<!-- Generator: Adobe Illustrator 16.0.0, SVG Export Plug-In . SVG Version: 6.00 Build 0)  -->
<!DOCTYPE svg PUBLIC "-//W3C//DTD SVG 1.1//EN" "http://www.w3.org/Graphics/SVG/1.1/DTD/svg11.dtd">
<svg version="1.1" id="Calque_1" xmlns="http://www.w3.org/2000/svg" xmlns:xlink="http://www.w3.org/1999/xlink" x="0px" y="0px"
	 width="283px" height="283px" viewBox="0 0 283 283" enable-background="new 0 0 283 283" xml:space="preserve">
<g>
	<path d="M179.43,146.141c-0.613-0.355-1.33-0.537-1.998-0.799c-1.932-0.759-3.934-1.307-5.742-2.381
		c-2.854-1.694-2.785-1.641-2.541-4.847c0.229-3.028,0.303-6.075,0.303-9.108c0-1.512-0.355-3.02-0.48-4.533
		c-0.217-2.569-0.567-5.114-2.047-7.303c-1.021-1.516-0.92-3.016-0.231-4.554c1.008-2.264,1.979-4.549,3.123-6.744
		c1.894-3.63,2.81-7.445,2.625-11.54c-0.147-3.324-1.697-5.783-4.521-7.454c-2.547-1.503-5.125-2.952-7.685-4.433
		c-0.623-0.36-1.289-0.679-1.83-1.142c-2.887-2.478-6.142-4.296-9.729-5.51c-1.655-0.561-3.366-0.967-5.03-1.506
		c-4.297-1.394-8.74-1.811-13.209-1.863c-4.872-0.062-9.748,0.082-14.623,0.121c-2.958,0.021-5.915,0.003-8.872,0.036
		c-0.771,0.009-1.618-0.219-2.349,0.613c0,1.003-0.021,2.12,0.005,3.237c0.079,3.926,0.11,7.847-0.279,11.76
		c-0.146,1.434-0.245,2.875-0.252,4.316c-0.015,4.085,0.06,8.169,0.05,12.256c-0.009,4.325-0.017,8.653-0.142,12.976
		c-0.043,1.503-0.162,3.108-0.722,4.472c-0.985,2.419-1.332,4.936-1.719,7.461c-0.279,1.816-0.51,3.645-0.647,5.478
		c-0.116,1.511-0.056,3.033-0.103,4.552c-0.035,1.147,0.344,1.983,1.444,2.512c2.162,1.036,4.296,2.121,6.614,2.788
		c1.379,0.396,2.729,0.896,4.08,1.372c0.371,0.132,0.746,0.3,1.063,0.522c0.875,0.627,0.894,1.834,0.015,2.422
		c-0.524,0.354-1.111,0.631-1.699,0.871c-1.477,0.607-2.985,1.13-4.441,1.773c-1.283,0.568-1.627,2.158-0.666,3.182
		c0.532,0.564,1.231,1.043,1.943,1.354c1.311,0.58,2.688,1.009,4.033,1.502c1.426,0.522,2.855,1.024,4.269,1.584
		c1.673,0.661,2.487,1.896,2.438,3.731c-0.047,1.685-0.021,3.363,0.019,5.046c0.011,0.452,0.179,0.899,0.291,1.44
		c1.513,0.25,2.938,0.229,4.369,0.231c6.396,0.039,12.79,0.09,19.187,0.103c3.352,0.006,6.705,0.039,10.049-0.117
		c7.479-0.352,14.148-2.928,20.08-7.508c0.945-0.729,1.523-1.574,1.766-2.692c-0.34-0.896-1.028-1.431-1.731-1.962
		c-0.635-0.483-1.287-0.951-1.877-1.487c-0.728-0.661-0.89-1.487-0.489-2.401c0.399-0.918,0.991-1.565,2.016-1.896
		c1.818-0.585,3.604-1.288,5.387-1.991c0.586-0.232,1.146-0.572,1.646-0.957c0.519-0.396,0.651-1.234,0.252-1.738
		C180.446,146.902,179.963,146.451,179.43,146.141z"/>
	<path d="M-0.465-1.098V283H283V-1.098H-0.465z M180.079,229.402c-4.39,2.181-9.038,3.525-13.834,4.492
		c-3.685,0.746-7.379,1.164-11.118,1.474c-3.354,0.271-6.686,0.043-10.021,0.117c-3.91,0.091-7.824,0.062-11.736,0.087
		c-2.146,0.012-4.303,0.033-6.453,0.027c-6.549-0.019-13.099-0.064-19.646-0.064c-6.07-0.002-12.143,0.08-18.211,0.051
		c-1.74-0.006-3.505,0.062-5.479-0.312c-0.143-3.56-0.694-6.877,0.104-10.334c0.887-0.051,1.669-0.135,2.449-0.133
		c10.236,0.004,20.475,0.025,30.713,0.035c11.755,0.008,23.511,0.031,35.268-0.01c6.161-0.021,12.312,0.229,18.454,0.614
		c3.104,0.194,6.203,0.569,9.248,1.284c0.775,0.184,1.562,0.291,2.184,1.062C181.582,228.572,180.844,229.023,180.079,229.402z
		 M214.329,149.031c-0.479,0.402-1.056,0.736-1.64,0.977c-1.327,0.545-2.688,1.01-4.036,1.502c-0.599,0.225-1.228,0.387-1.787,0.68
		c-1.573,0.828-1.812,2.561-0.526,3.796c0.342,0.323,0.756,0.596,1.174,0.812c0.918,0.485,1.861,0.916,2.793,1.38
		c0.787,0.396,1.572,0.783,2.352,1.196c1.213,0.649,1.762,1.549,1.041,2.968c-1.089,2.135-2.002,4.381-3.291,6.383
		c-2.076,3.226-4.222,6.428-6.884,9.213c-2.039,2.138-4.013,4.352-6.34,6.18c-3.455,2.719-7.03,5.256-11.039,7.122
		c-1.244,0.579-2.539,0.952-3.894,1.153c-4.033,0.601-8.093,0.9-12.164,1.164c-10.388,0.674-20.781,0.312-31.172,0.359
		c-13.117,0.064-26.235,0.01-39.354,0.002c-3.438-0.002-6.88-0.016-10.319-0.039c-0.785-0.004-1.57-0.062-2.216-0.092
		c-0.719-0.818-0.659-1.646-0.666-2.439c-0.021-2.967-0.021-5.933-0.021-8.896c0.003-6.33-0.021-12.662,0.033-18.991
		c0.019-1.931-0.748-3.239-2.51-3.942c-1.557-0.616-3.141-1.172-4.711-1.756c-1.197-0.443-2.416-0.842-3.58-1.357
		c-0.72-0.318-1.43-0.741-2.012-1.27c-0.979-0.879-0.711-2.408,0.484-2.986c0.719-0.344,1.498-0.547,2.236-0.85
		c1.182-0.482,2.359-0.979,3.521-1.514c0.353-0.162,0.676-0.436,0.938-0.723c0.508-0.559,0.502-1.463-0.08-1.947
		c-0.543-0.451-1.164-0.855-1.814-1.116c-1.11-0.444-2.252-0.851-3.414-1.116c-2.301-0.529-4.287-1.734-6.373-2.74
		c-1.104-0.529-1.456-1.385-1.424-2.523c0.104-3.676,0.073-7.35,0.727-11.006c0.379-2.131,0.836-4.215,1.373-6.309
		c0.552-2.149,0.736-4.431,0.793-6.661c0.107-4.163-0.008-8.333-0.004-12.503c0.004-4.969,0.032-9.938,0.062-14.906
		c0.005-0.639,0.082-1.275,0.135-1.916c0.105-1.354,0.312-2.704,0.312-4.059c0.005-8.736-0.04-17.47-0.056-26.204
		c0.001-0.878,0.081-1.757,0.124-2.658c0.955-0.873,1.732-1.561,2.484-2.276c2.008-1.91,4.453-3.097,6.934-4.22
		c0.416-0.188,0.924-0.223,1.393-0.234c3.674-0.115,7.35-0.26,11.021-0.293c5.996-0.052,11.992-0.029,17.986-0.029
		c4.957,0,9.916,0.021,14.873,0.019c7.834-0.011,15.67-0.011,23.506-0.066c2.422-0.019,4.76,0.4,7.09,0.958
		c1.551,0.372,3.1,0.757,4.646,1.148c5.687,1.437,11.11,3.537,16.123,6.596c2.728,1.661,5.293,3.575,7.547,5.872
		c2.114,2.154,4.448,4.113,6.005,6.767c3.479,3.738,5.729,8.251,8.041,12.726c1.073,2.081,2.354,4.023,3.982,5.681
		c2.938,2.987,3.752,6.452,3.179,10.558c-0.401,2.872-0.877,5.699-1.836,8.415c-0.985,2.799-1.668,5.665-2.308,8.552
		c-0.194,0.888-0.297,1.716-0.006,2.592c0.146,0.451,0.115,0.966,0.285,1.407c0.889,2.314,0.812,4.706,0.646,7.113
		c-0.031,0.48-0.094,0.966-0.033,1.437c0.398,3.119,0.195,6.244,0.061,9.364c-0.082,1.832-0.354,3.654-0.521,5.31
		c0.429,0.975,1.158,1.332,1.834,1.757c2.188,1.375,4.604,2.188,7.043,2.969c1.06,0.336,2.093,0.793,3.062,1.332
		C215.086,147.381,215.147,148.346,214.329,149.031z"/>
</g>
</svg>
