<?xml version="1.0" encoding="utf-8"?>
<!-- Generator: Adobe Illustrator 16.0.0, SVG Export Plug-In . SVG Version: 6.00 Build 0)  -->
<!DOCTYPE svg PUBLIC "-//W3C//DTD SVG 1.1//EN" "http://www.w3.org/Graphics/SVG/1.1/DTD/svg11.dtd">
<svg version="1.1" id="Calque_1" xmlns="http://www.w3.org/2000/svg" xmlns:xlink="http://www.w3.org/1999/xlink" x="0px" y="0px"
	 width="283px" height="283px" viewBox="0 0 283 283" enable-background="new 0 0 283 283" xml:space="preserve">
<g>
	<path d="M-0.465-1.098V283H283V-1.098H-0.465z M227.717,144.977c-0.801,0.522-1.717,0.857-2.539,1.34
		c-1.062,0.621-1.703,1.535-1.689,2.818c0.002,0.098-0.021,0.191-0.016,0.287c0.354,4.531-0.648,8.999-0.572,13.516
		c0.074,4.611,0.111,9.222,0.08,13.832c-0.014,1.717-0.256,3.434-0.436,5.144c-0.101,0.953-0.379,1.896-0.402,2.845
		c-0.062,2.051-0.879,3.697-2.342,5.076c-0.984,0.93-1.771,1.957-2.273,3.27c-0.332,0.854-1.055,1.582-1.672,2.31
		c-2.561,2.99-5.154,5.949-7.709,8.944c-0.611,0.716-1.113,1.523-1.605,2.209c0.361,1.307,0.662,2.41,1.021,3.701
		c0.939,0.434,2.004,0.855,3.008,1.396c1.678,0.9,2.049,2.277,0.99,3.835c-0.479,0.699-1.115,1.32-1.781,1.851
		c-1.887,1.498-3.932,2.731-6.135,3.724c-6.814,3.071-13.615,6.168-20.404,9.292c-4.352,1.998-8.619,4.189-13.029,6.037
		c-2.451,1.031-5.102,1.646-7.701,2.263c-4.562,1.078-9.184,1.808-13.862,2.241c-5.832,0.544-11.646,0.396-17.48,0.199
		c-7.564-0.258-15.143-0.236-22.715-0.365c-12.271-0.21-24.543-0.428-36.812-0.674c-3.835-0.078-7.673-0.252-11.507-0.396
		c-0.655-0.029-1.308-0.131-2.356-0.238c0-1.836,0.043-3.369-0.013-4.899c-0.055-1.437-0.127-2.877-0.347-4.29
		c-0.386-2.504,0.352-4.594,2.229-6.206c1.229-1.058,2.597-1.967,3.961-2.854c2.494-1.619,5.05-3.142,7.538-4.769
		c0.71-0.464,1.354-1.078,1.89-1.737c0.66-0.814,0.562-1.949-0.273-2.582c-0.744-0.562-1.625-0.994-2.509-1.317
		c-1.02-0.374-1.849-0.869-2.543-1.753c-0.821-1.045-1.84-1.938-2.907-3.033c-0.108-1.867-0.018-3.872,0.16-5.88
		c0.086-0.952,0.117-1.913,0.134-2.87c0.027-1.836-0.599-3.436-2.043-4.57c-1.339-1.051-1.604-2.384-1.829-3.996
		c-0.463-3.253-0.561-6.496-0.527-9.761c0.002-0.288-0.025-0.58-0.072-0.86c-1.021-6.223-0.497-12.451-0.102-18.682
		c0.15-2.393,0.19-4.792,0.271-7.191c0.024-0.77,0.051-1.541-0.002-2.309c-0.126-1.883,0.691-3.116,2.422-3.814
		c0.618-0.248,1.217-0.565,1.797-0.897c0.511-0.294,0.918-0.688,0.91-1.356c-0.011-0.812-0.565-1.195-1.189-1.467
		c-0.701-0.301-1.449-0.497-2.17-0.757c-0.795-0.287-1.583-0.601-2.227-0.842c-0.363-0.901-0.007-1.389,0.542-1.62
		c0.876-0.372,1.835-0.547,2.715-0.912c0.983-0.405,2.54-0.278,2.441-1.914c-0.089-1.488-1.483-1.565-2.549-1.879
		c-1.284-0.383-2.591-0.69-3.89-1.025c-0.557-0.146-1.113-0.276-1.666-0.434c-0.737-0.206-1.652-0.373-1.634-1.32
		c0.021-0.929,1.006-1.08,1.683-1.343c0.891-0.344,1.854-0.485,2.766-0.782c0.815-0.268,1.646-0.542,2.394-0.955
		c1.024-0.565,1.198-1.873,0.396-2.709c-0.462-0.48-1.017-0.879-1.568-1.259c-0.967-0.666-1.307-1.548-1.274-2.714
		c0.082-3.172,0.122-6.345,0.108-9.518c-0.012-3.263-0.112-6.528-0.146-9.793c-0.01-0.857-0.045-1.761,0.182-2.57
		c0.584-2.084,0.373-4.199,0.445-6.306c0.034-0.982-0.427-1.648-1.271-2.067c-0.77-0.386-1.571-0.707-2.325-1.124
		c-0.634-0.352-0.601-1.356,0.064-1.642c0.787-0.338,1.619-0.574,2.438-0.835c1.274-0.406,2.562-0.779,3.837-1.2
		c0.566-0.188,1.018-0.565,1.085-1.209c0.09-0.816-0.475-1.221-1.105-1.5c-0.789-0.348-1.612-0.612-2.406-0.945
		c-0.633-0.265-1.197-0.609-1.148-1.51c0.612-0.796,1.615-0.862,2.502-1.166c0.993-0.34,2.021-0.61,2.972-1.045
		c0.37-0.167,0.716-0.664,0.822-1.076c0.167-0.625-0.263-1.156-0.808-1.377c-1.15-0.466-2.337-0.855-3.525-1.211
		c-1.28-0.388-2.583-0.696-3.871-1.057c-0.367-0.105-0.797-0.179-1.056-0.418c-0.319-0.294-0.614-0.731-0.674-1.146
		c-0.036-0.249,0.33-0.685,0.621-0.829c0.681-0.341,1.419-0.563,2.141-0.817c0.812-0.29,1.632-0.558,2.447-0.84
		c0.583-0.204,0.987-0.572,1.049-1.229c0.07-0.784-0.353-1.321-0.997-1.597c-0.879-0.368-1.819-0.591-2.724-0.904
		c-0.9-0.312-1.812-0.613-2.668-1.024c-0.271-0.128-0.534-0.601-0.521-0.898c0.014-0.313,0.302-0.777,0.583-0.892
		c0.973-0.387,1.995-0.648,3-0.958c1.188-0.363,2.397-0.665,3.547-1.127c0.342-0.138,0.698-0.721,0.698-1.1
		c0-0.39-0.348-1.004-0.686-1.125c-1.526-0.542-3.099-0.974-4.667-1.39c-1.294-0.345-2.625-0.557-3.903-0.94
		c-0.375-0.112-0.883-0.618-0.875-0.938c0.006-0.34,0.481-0.81,0.862-0.977c0.962-0.42,1.984-0.693,2.979-1.044
		c0.811-0.285,1.654-0.516,2.409-0.911c1.163-0.609,1.125-2.18-0.073-2.751c-0.944-0.45-1.966-0.743-2.956-1.098
		c-0.632-0.227-1.31-0.355-1.888-0.676c-0.365-0.201-0.731-0.632-0.834-1.027c-0.17-0.659,0.344-1.048,0.903-1.277
		c0.706-0.292,1.437-0.535,2.146-0.815c0.442-0.175,0.916-0.313,1.302-0.581c1.067-0.733,1.023-2.239-0.12-2.862
		c-0.748-0.406-1.602-0.615-2.397-0.937c-0.495-0.197-1.134-0.164-1.479-0.958c2.167,0,4.249-0.013,6.33,0.005
		c9.781,0.075,19.562,0.157,29.342,0.242c15.923,0.142,31.849,0.183,47.768,0.477c6.801,0.125,13.61,0.579,20.334,1.74
		c2.353,0.406,4.649,1.114,6.972,1.714c0.354,0.093,0.666,0.346,1.194,0.63c-0.558,0.604-1.024,1.117-1.642,1.786
		c0.509,0.332,0.854,0.649,1.259,0.81c2.604,1.013,5.356,1.428,8.1,1.881c2.177,0.358,4.354,0.69,6.519,1.106
		c1.854,0.354,2.697,0.864,4.572,2.521c-0.695,0.38-1.328,0.734-1.97,1.075c-0.66,0.353-1.5,0.474-1.709,1.406
		c0.271,0.976,1.054,1.258,1.949,1.396c2.362,0.367,4.729,0.732,7.098,1.115c2.459,0.397,4.923,0.772,7.369,1.232
		c1.539,0.29,1.767,0.513,2.769,1.856c-1.597,1.621-4.193,1.217-5.801,2.726c-0.021,1.042,0.614,1.486,1.364,1.682
		c1.763,0.45,3.554,0.79,5.324,1.21c1.303,0.307,2.604,0.631,3.885,1.024c0.845,0.262,0.826,0.324,1.711,1.845
		c-1.252,1.398-3.422,1.095-4.696,2.32c-0.166,1.029,0.334,1.593,1.112,1.852c1.179,0.395,2.379,0.726,3.593,0.985
		c2.153,0.466,4.344,0.781,6.479,1.314c1.35,0.336,2.852,0.524,3.719,1.821c-0.041,0.935-0.728,1.103-1.342,1.355
		c-0.979,0.397-1.945,0.802-2.904,1.232c-0.149,0.067-0.233,0.287-0.351,0.438c-0.141,0.818,0.337,1.294,1.007,1.529
		c1.078,0.385,2.196,0.654,3.287,1.008c0.727,0.233,1.473,0.456,2.137,0.816c0.754,0.407,0.688,1.55-0.104,1.851
		c-1.16,0.441-2.354,0.817-3.554,1.14c-1.016,0.272-2.034,0.491-2.766,1.14c-0.31,0.968,0.229,1.435,0.827,1.725
		c0.941,0.461,1.941,0.812,2.938,1.167c0.972,0.352,1.638,0.972,1.935,1.973c0.271,0.919,0.533,1.842,0.828,2.752
		c0.463,1.423,0.44,2.818-0.056,4.241c-0.346,0.994-0.473,2.074-0.868,3.044c-1.431,3.489-1.127,6.912,0.062,10.401
		c0.614,1.807,0.935,3.717,1.375,5.581c0.178,0.747,0.319,1.5,0.491,2.248c0.3,1.286,1.007,2.241,2.188,2.872
		c0.668,0.354,1.345,0.765,1.871,1.295c0.799,0.798,0.584,1.903-0.438,2.368c-0.865,0.392-1.814,0.594-2.705,0.938
		c-1.223,0.469-2.633,0.55-3.642,1.66c0.16,0.981,0.675,1.6,1.591,1.846c1.389,0.374,2.78,0.706,4.172,1.061
		c1.021,0.263,2.057,0.489,3.057,0.814c0.438,0.143,0.842,0.452,1.219,0.74c0.561,0.429,0.49,1.401-0.156,1.691
		c-0.781,0.349-1.625,0.565-2.432,0.868c-0.803,0.301-1.625,0.573-2.379,0.976c-0.744,0.397-0.699,1.545,0.059,1.862
		c0.793,0.331,1.65,0.497,2.455,0.801c1.143,0.435,2.467,0.567,3.25,1.974C228.397,144.167,228.141,144.7,227.717,144.977z"/>
	<path d="M186.813,142.553c-0.983-0.371-1.989-0.678-2.979-1.033c-0.629-0.225-1.271-0.438-1.857-0.749
		c-0.612-0.324-0.588-1.404,0.041-1.658c0.883-0.356,1.812-0.6,2.709-0.927c0.715-0.265,1.438-0.524,2.104-0.894
		c0.621-0.341,0.666-1.323,0.071-1.721c-0.627-0.417-1.313-0.805-2.028-1.014c-1.469-0.433-2.976-0.732-4.467-1.089
		c-0.646-0.155-1.309-0.301-1.951-0.478c-0.812-0.225-1.875-0.312-1.938-1.375c-0.065-1.129,1.019-1.21,1.816-1.455
		c0.733-0.224,1.481-0.399,2.211-0.63c0.643-0.2,1.287-0.397,1.896-0.679c1.031-0.477,1.332-1.824,0.557-2.648
		c-0.453-0.481-1.012-0.939-1.609-1.188c-2.045-0.847-3.062-2.472-3.73-4.47c-0.854-2.554-2-4.98-3.453-7.255
		c-1.771-2.779-1.738-5.579-0.109-8.422c0.66-1.162,1.188-2.402,1.828-3.578c0.736-1.348,1.037-2.745,0.27-4.123
		c-1.096-1.965-1.623-4.393-4.025-5.368c-0.886-0.36-1.807-0.647-2.701-0.982c-0.627-0.232-1.265-0.452-1.851-0.763
		c-0.294-0.156-0.481-0.506-0.827-0.887c2.068-1.634,4.932-1.223,6.721-2.94c-0.19-1.068-0.905-1.44-1.604-1.69
		c-0.987-0.354-2.024-0.567-3.051-0.8c-1.496-0.338-3.004-0.621-4.498-0.959c-0.931-0.209-1.832-0.493-2.574-1.449
		c0.701-0.471,1.339-0.854,1.923-1.307c0.33-0.255,0.575-0.621,0.924-1.013c-1.295-0.9-2.521-1.378-3.853-1.661
		c-3.104-0.659-6.244-0.934-9.396-1.219c-6.785-0.61-13.577-0.983-20.388-1.058c-9.683-0.103-19.365-0.24-29.046-0.352
		c-0.239-0.003-0.483,0.144-1.104,0.34c0.809,0.356,1.281,0.609,1.785,0.783c1.354,0.469,2.746,0.843,4.072,1.374
		c0.729,0.294,0.732,1.531,0.037,1.917c-0.576,0.319-1.224,0.522-1.854,0.742c-0.9,0.315-1.817,0.591-2.723,0.903
		c-0.565,0.191-1.068,0.521-1.133,1.162c-0.066,0.68,0.458,1.026,0.979,1.275c0.604,0.289,1.252,0.482,1.871,0.741
		c0.439,0.185,0.887,0.376,1.293,0.622c0.582,0.348,0.632,1.409,0.035,1.712c-0.761,0.385-1.58,0.667-2.394,0.925
		c-1.46,0.46-2.954,0.818-4.396,1.335c-0.356,0.129-0.762,0.685-0.775,1.061c-0.02,0.365,0.354,0.869,0.697,1.106
		c0.545,0.373,1.229,0.535,1.814,0.854c0.576,0.314,1.107,0.71,1.596,1.028c0.299,2.561,0.062,4.945-0.418,7.305
		c-0.461,2.286-0.303,4.579-0.203,6.874c0.066,1.532,0.259,3.065,0.27,4.594c0.02,2.883,0.075,5.778-0.124,8.649
		c-0.166,2.376,0.099,4.296,2.458,5.577c1.206,0.657,0.918,2.492-0.369,3.001c-1.332,0.526-2.734,0.877-4.101,1.322
		c-0.638,0.208-1.281,0.402-1.872,0.708c-0.701,0.358-0.729,1.504-0.074,1.942c0.312,0.208,0.668,0.378,1.025,0.479
		c1.388,0.38,2.781,0.721,4.173,1.083c0.926,0.244,1.873,0.438,2.765,0.773c0.598,0.225,1.287,0.507,1.284,1.362
		c-0.004,0.824-0.569,1.168-1.239,1.384c-1.003,0.32-2.021,0.592-3.019,0.931c-0.442,0.148-0.886,0.361-1.261,0.637
		c-0.547,0.403-0.488,1.424,0.104,1.727c0.595,0.304,1.237,0.501,1.862,0.73c0.719,0.265,1.468,0.458,2.152,0.784
		c0.586,0.275,1.275,0.553,1.322,1.371c0.047,0.854-0.621,1.105-1.234,1.389c-0.176,0.08-0.348,0.164-0.521,0.25
		c-3.313,1.627-3.374,1.719-3.374,5.515c0,0.671,0.051,1.347,0.031,2.02c-0.047,1.533-0.08,3.072-0.188,4.604
		c-0.486,6.994-1.033,13.982,0.025,20.975c0.025,0.188,0.021,0.385,0.021,0.577c0.006,3.354,0.049,6.702,0.479,10.044
		c0.167,1.309,0.416,2.416,1.48,3.277c1.398,1.133,2.311,2.554,2.308,4.438c0.004,0.166,0.173,0.33,0.341,0.634
		c0.661,0.058,1.41,0.162,2.161,0.181c8.724,0.153,17.444,0.327,26.169,0.432c6.996,0.082,14.001,0.278,20.926-1.065
		c4.7-0.912,9.442-1.703,13.92-3.477c2.849-1.125,5.61-2.464,8.401-3.727c0.437-0.196,0.816-0.497,1.236-0.73
		c1.639-0.896,2.646-2.322,2.855-4.111c0.422-3.586,1.951-7.092,0.855-10.797c-0.054-0.178-0.015-0.384-0.021-0.572
		c-0.097-4.514-0.229-9.027-0.269-13.539c-0.016-1.432,0.217-2.863,0.354-4.295c0.133-1.328,0.34-2.653,0.422-3.987
		c0.062-0.955-0.002-1.923-0.076-2.88c-0.081-1.09,0.404-1.85,1.271-2.4c0.482-0.31,1.005-0.562,1.519-0.818
		c0.431-0.215,0.947-0.315,1.283-0.623c0.396-0.359,0.771-0.855,0.899-1.357C187.94,143.122,187.366,142.76,186.813,142.553z"/>
</g>
</svg>
