<?xml version="1.0" encoding="utf-8"?>
<!-- Generator: Adobe Illustrator 16.0.0, SVG Export Plug-In . SVG Version: 6.00 Build 0)  -->
<!DOCTYPE svg PUBLIC "-//W3C//DTD SVG 1.1//EN" "http://www.w3.org/Graphics/SVG/1.1/DTD/svg11.dtd">
<svg version="1.1" id="Calque_1" xmlns="http://www.w3.org/2000/svg" xmlns:xlink="http://www.w3.org/1999/xlink" x="0px" y="0px"
	 width="283px" height="283px" viewBox="0 0 283 283" enable-background="new 0 0 283 283" xml:space="preserve">
<path d="M-0.467-0.466V283H283V-0.466H-0.467z M244.891,129.317c-0.508,3.872-1.602,7.673-2.452,11.5
	c-0.986,4.429-3.729,7.453-7.622,9.591c-6.835,3.754-14.023,6.582-21.562,8.572c-6.293,1.664-12.565,3.407-18.808,5.262
	c-2.377,0.699-4.662,1.734-6.938,2.732c-2.07,0.907-3.404,2.465-3.521,4.842c-0.289,5.926-0.584,11.848-0.853,17.771
	c-0.318,7.082-0.616,14.164-0.914,21.246c-0.086,2.012-0.186,4.021-0.203,6.033c-0.026,2.338,0.908,4.243,3.234,4.889
	c4.144,1.144,8.34,2.08,12.527,3.035c1.477,0.336,2.991,0.478,4.498,1c-0.58,0.06-1.164,0.166-1.748,0.172
	c-8.73,0.065-17.469,0.203-26.199,0.154c-8.291-0.05-16.387-1.599-24.398-3.599c-0.832-0.207-1.646-0.524-2.438-0.856
	c-2.076-0.865-3.15-2.379-3.051-4.697c0.211-4.789,0.414-9.576,0.559-14.369c0.246-8.238,0.408-16.479,0.685-24.719
	c0.065-2.102,0.368-4.199,0.666-6.285c0.309-2.145,1.46-3.766,3.521-4.529c4.122-1.524,8.229-3.131,12.434-4.401
	c6.777-2.06,13.703-3.654,20.43-5.861c4.436-1.455,8.652-3.592,12.932-5.506c5.609-2.51,8.771-6.892,9.729-12.944
	c0.331-2.075,0.802-4.131,1.287-6.177c0.715-3.023,0.668-6.043,0.226-9.374c-23.121,1.864-46.107,3.718-69.229,5.583
	c-0.877,3.93-1.799,7.715-2.549,11.535c-0.89,4.519-3.272,7.892-7.23,10.208c-7.587,4.438-15.79,7.262-24.245,9.514
	c-6.565,1.745-13.055,3.76-19.566,5.688c-0.911,0.27-1.759,0.756-2.659,1.068c-3.727,1.303-4.984,4.137-5.025,7.823
	c-0.072,6.42-0.125,12.841-0.35,19.257c-0.241,6.895-0.68,13.778-1.014,20.669c-0.053,1.055-0.034,2.107-0.029,3.162
	c0.007,2.408,1.133,4.066,3.479,4.66c3.979,1.01,7.976,1.988,11.996,2.811c2.885,0.591,5.823,0.9,8.727,1.593
	c-0.532,0.024-1.065,0.082-1.602,0.082c-10.271,0.016-20.547,0.229-30.81-0.058c-4.95-0.141-9.889-1.146-14.805-1.934
	c-3.113-0.496-6.188-1.262-9.261-1.992c-1.013-0.24-1.979-0.697-2.935-1.131c-1.909-0.871-2.556-2.48-2.47-4.467
	c0.249-5.843,0.536-11.687,0.749-17.525c0.184-5.075,0.25-10.155,0.432-15.229c0.127-3.549,0.394-7.09,0.53-10.635
	c0.135-3.431,1.625-5.865,4.956-6.968c5.265-1.737,10.507-3.561,15.827-5.1c7.811-2.263,15.81-3.91,23.186-7.5
	c2.239-1.088,4.5-2.146,6.683-3.341c4.069-2.231,6.815-5.526,7.795-10.16c0.674-3.188,1.539-6.35,1.973-9.565
	c0.328-2.44,0.129-4.961,0.105-7.442c-0.005-0.444-0.15-1.004-0.441-1.312c-1.479-1.583-1.485-3.629-1.979-5.555
	c-0.492-1.921-1.296-3.772-2.08-5.604c-1.158-2.708-2.727-5.283-3.557-8.083c-0.777-2.623-0.949-5.455-1.167-8.212
	c-0.474-6.017-0.319-12.126-1.324-18.044c-1.048-6.184-2.601-12.411-6.866-17.439c-0.17-0.198-0.23-0.487-0.498-1.071
	c1.971-0.104,3.758-0.261,5.549-0.285c9.689-0.14,19.381-0.238,29.07-0.376c1.23-0.021,2.331,0.243,3.021,1.289
	c1.471,2.226,3.219,4.354,4.203,6.788c2.158,5.326,3.439,10.846,3.592,16.715c0.169,6.575,1.07,13.133,1.734,19.688
	c0.121,1.199,0.64,2.361,1.076,3.9c23.039-0.938,45.715-1.863,68.373-2.786c-0.32-4.947-0.617-9.595-0.93-14.238
	c-0.199-2.964-0.348-5.933-0.65-8.883c-0.882-8.538-3.164-16.523-9.531-23.128c0.748-0.126,1.348-0.308,1.947-0.312
	c10.745-0.151,21.491-0.241,32.234-0.455c1.791-0.035,3.021,0.503,4.274,1.764c2.705,2.714,4.418,5.917,5.822,9.448
	c2.385,5.995,2.922,12.241,3.271,18.57c0.269,4.865,0.641,9.735,1.219,14.573c0.463,3.847,1.963,7.367,4.158,10.6
	c1.467,2.16,2.104,4.661,2.504,7.218c0.174,1.13,0.363,2.123,1.182,3.119C245.709,123.65,245.244,126.64,244.891,129.317z"/>
</svg>
