<?xml version="1.0" encoding="utf-8"?>
<!-- Generator: Adobe Illustrator 16.0.0, SVG Export Plug-In . SVG Version: 6.00 Build 0)  -->
<!DOCTYPE svg PUBLIC "-//W3C//DTD SVG 1.1//EN" "http://www.w3.org/Graphics/SVG/1.1/DTD/svg11.dtd">
<svg version="1.1" id="Calque_1" xmlns="http://www.w3.org/2000/svg" xmlns:xlink="http://www.w3.org/1999/xlink" x="0px" y="0px"
	 width="283px" height="283px" viewBox="0 0 283 283" enable-background="new 0 0 283 283" xml:space="preserve">
<path d="M-0.233,0v283.465h283.465V0H-0.233z M229.109,216.596c-0.025,5.062,0.205,10.134-0.062,15.361
	c-0.904,0.083-1.646,0.202-2.381,0.21c-5.854,0.056-11.707,0.062-17.562,0.138c-3.832,0.05-7.664,0.211-11.498,0.273
	c-2.672,0.045-5.347,0.009-8.133,0.009c-0.625-1.271-0.892-2.554-0.705-3.898c0.291-2.112-0.058-4.205-0.104-6.308
	c-0.097-4.117-0.062-8.24-0.074-12.36c-0.008-2.776-0.002-5.556-0.002-8.21c1.705-1.688,1.68-1.688,1.646-3.818
	c-0.047-3.165-0.107-6.333-0.051-9.498c0.027-1.61-0.539-2.728-1.896-3.589c-2.039-1.294-4.125-2.4-6.528-2.886
	c-1.875-0.375-3.726-0.896-5.571-1.397c-0.828-0.227-1.64-0.531-2.437-0.855c-0.871-0.354-1.342-1.062-1.437-1.984
	c-0.062-0.665-0.063-1.342-0.069-2.013c-0.026-5.46-0.078-10.921-0.056-16.383c0.006-1.233,0.297-2.469,0.443-3.702
	c0.102-0.854,0.195-1.709,0.271-2.564c0.084-0.953,0.013-1.943,0.244-2.858c0.588-2.318-0.051-4.571-0.211-6.852
	c-0.061-0.837-0.664-1.366-1.315-1.792c-0.562-0.362-1.188-0.624-1.761-0.976c-0.397-0.249-0.789-0.537-1.127-0.867
	c-0.518-0.508-0.352-1.471,0.326-1.671c1.65-0.491,3.312-0.952,4.994-1.331c1.961-0.442,3.945-0.773,5.914-1.188
	c0.748-0.152,1.482-0.384,2.219-0.602c0.688-0.202,1.234-0.575,1.242-1.378c0.008-0.812-0.604-1.163-1.232-1.421
	c-0.709-0.29-1.438-0.541-2.178-0.73c-1.76-0.457-3.535-0.846-5.289-1.312c-0.645-0.173-1.272-0.438-1.854-0.762
	c-0.711-0.396-0.658-1.533,0.074-1.882c0.515-0.244,1.063-0.416,1.612-0.564c3.418-0.937,6.851-1.825,10.26-2.786
	c2.979-0.84,3.25-1.206,3-4.217c-0.088-1.037-0.438-2.055-0.685-3.076c-0.321-1.349-1.187-1.962-2.524-2.405
	c-2.42-0.804-4.854-0.979-7.358-0.983c-10.364-0.013-20.729-0.043-31.095-0.122c-11.992-0.093-23.982-0.243-35.976-0.359
	c-0.936-0.01-1.869,0.061-2.944,0.099c0.562,1.222,1.638,1.312,2.475,1.444c1.94,0.314,2.636,1.607,3.144,3.246
	c0.408,1.317,0.4,2.645,0.345,3.986c-0.04,0.889-0.521,1.422-1.312,1.691c-0.994,0.343-1.992,0.679-3.004,0.951
	c-2.867,0.776-5.746,1.515-8.613,2.282c-0.646,0.172-1.32,0.316-1.891,0.646c-0.347,0.197-0.705,0.717-0.703,1.091
	c0,0.396,0.332,1.021,0.674,1.152c1.418,0.558,2.887,0.999,4.354,1.425c1.378,0.396,2.782,0.705,4.166,1.086
	c0.456,0.124,0.93,0.286,1.309,0.557c0.272,0.193,0.598,0.627,0.549,0.896c-0.067,0.413-0.352,0.966-0.693,1.121
	c-0.775,0.352-1.639,0.532-2.479,0.716c-2.811,0.604-5.631,1.163-8.438,1.771c-0.84,0.186-1.681,0.416-2.476,0.733
	c-1.063,0.427-1.178,1.516-0.246,2.266c0.521,0.418,1.082,0.812,1.685,1.095c1.548,0.724,2.187,1.854,2.354,3.594
	c0.363,3.768-0.104,7.447-0.615,11.146c-0.172,1.229-0.407,2.469-0.417,3.702c-0.04,5.47-0.011,10.938-0.005,16.403
	c0,0.097,0,0.189,0.005,0.287c0.106,2.53,0.78,3.469,3.153,4.16c1.562,0.454,3.153,0.799,4.732,1.195
	c1.109,0.279,2.211,0.63,3.337,0.843c2.146,0.407,3.812,1.764,5.623,2.808c1.104,0.638,1.299,1.856,1.313,3.036
	c0.027,1.917-0.021,3.836-0.008,5.754c0.01,1.527,0.06,3.062,0.108,4.588c0.024,0.791,0.021,1.563-0.767,2.023
	c-0.779,0.453-0.892,1.166-0.889,1.976c0.012,3.553-0.021,7.102,0.01,10.648c0.045,5.559,0.139,11.113,0.189,16.671
	c0.01,0.948-0.062,1.896-0.093,2.71c-0.207,0.194-0.272,0.271-0.353,0.324c-0.074,0.054-0.162,0.123-0.244,0.125
	c-12.653,0.188-25.311,0.378-37.967,0.554c-0.265,0.005-0.533-0.137-0.941-0.246c-0.088-0.438-0.233-0.891-0.246-1.344
	c-0.085-2.778-0.145-5.562-0.199-8.342c-0.064-3.253-0.139-6.505-0.18-9.759c-0.049-3.646-0.062-7.291-0.092-10.938
	c-0.008-0.869-0.028-1.729,0.888-2.268c0.76-0.448,0.815-1.238,0.808-2.027c-0.046-3.354-0.152-6.713-0.115-10.067
	c0.022-1.935-0.688-3.246-2.375-4.229c-1.922-1.123-3.881-2.046-6.062-2.544c-2.332-0.531-4.654-1.119-6.949-1.792
	c-2.135-0.627-2.68-1.286-2.709-3.485c-0.077-6.042-0.065-12.086-0.084-18.128c0-0.383-0.043-0.793,0.078-1.144
	c0.858-2.491,0.664-5.119,1.045-7.67c0.29-1.938-0.045-3.828-0.174-5.737c-0.084-1.238-0.701-2.154-1.84-2.721
	c-0.688-0.34-1.373-0.696-1.997-1.136c-1.013-0.707-0.935-1.809,0.197-2.191c1.444-0.491,2.938-0.871,4.429-1.199
	c2.15-0.471,4.329-0.828,6.481-1.285c0.839-0.18,1.688-0.415,2.454-0.786c0.344-0.167,0.684-0.729,0.688-1.113
	c0.006-0.391-0.312-0.977-0.651-1.141c-0.938-0.458-1.945-0.808-2.958-1.077c-1.849-0.497-3.745-0.83-5.574-1.389
	c-0.843-0.257-2.118-0.396-2.049-1.651c0.057-1.039,1.146-1.165,1.962-1.385c2.96-0.795,5.933-1.547,8.892-2.344
	c1.469-0.396,2.991-0.66,4.352-1.588c0.973-2.606,0.219-5.046-0.849-7.438c-0.306-0.677-1.012-0.78-1.648-1.019
	c-2.332-0.863-4.64-1.794-6.949-2.719c-0.441-0.178-0.873-0.402-1.273-0.659c-1.201-0.77-1.953-1.812-1.951-3.302
	c0.001-1.149,0.014-2.305-0.021-3.451c-0.044-1.472,0.6-2.586,1.701-3.479c0.446-0.359,0.914-0.698,1.387-1.021
	c3.509-2.422,5.318-5.646,4.954-10.016c-0.183-2.188-0.129-4.395-0.183-6.59c-0.012-0.479-0.043-0.954-0.038-1.433
	c0.01-1.184-0.488-2.003-1.603-2.47c-1.769-0.739-3.521-1.507-5.273-2.278c-2.102-0.932-4.247-1.776-6.277-2.845
	c-2.819-1.479-2.802-2.205-0.225-4.189c1.711-1.316,3.667-2.039,5.726-2.556c2.511-0.633,5.045-1.182,7.324-2.483
	c0.584-0.335,1.187-0.636,1.758-0.982c3.336-2.024,4.245-5.396,2.479-8.905c-0.841-1.677-1.929-3.064-3.63-3.941
	c-0.571-0.294-1.061-0.747-1.591-1.133c0.377-0.661,0.909-0.353,1.327-0.433c0.37-0.069,0.767-0.03,1.147-0.029
	c6.239,0.021,12.476,0.045,18.716,0.066c5.184,0.019,10.365,0.127,15.543,0.002c2.053-0.05,3.664,0.572,5.314,1.682
	c1.66,1.113,2.896,2.473,3.712,4.268c1.427,3.137,0.403,6.361-2.528,8.185c-2.312,1.436-4.857,2.239-7.439,2.979
	c-1.383,0.396-2.762,0.811-4.123,1.256c-1.861,0.608-3.396,1.758-4.816,3.062c-0.928,0.854-0.896,1.604,0.186,2.348
	c1.021,0.702,2.099,1.357,3.226,1.873c2.177,0.993,4.406,1.875,6.616,2.8c0.527,0.221,1.078,0.399,1.604,0.628
	c3.112,1.339,3.228,1.521,3.239,4.897c0.009,2.396-0.028,4.8,0.067,7.193c0.093,2.305-0.426,4.351-1.91,6.158
	c-0.457,0.559-1.083,1.09-1.115,2.073c0.854,0.486,1.812,0.312,2.729,0.312c6.433,0.015,12.861,0.007,19.291,0.01
	c16.41,0.005,32.821-0.019,49.233,0.055c1.838,0.008,3.076-0.594,4.127-2.037c1.461-2.009,2.316-4.121,2.188-6.67
	c-0.144-2.774-0.11-5.562-0.058-8.347c0.031-1.549-0.598-2.566-1.971-3.182c-1.135-0.51-2.273-1.007-3.418-1.501
	c-2.549-1.104-5.118-2.157-7.639-3.323c-1.557-0.72-1.521-0.796-2.557-2.396c1.289-1.496,2.859-2.694,4.744-3.424
	c1.604-0.619,3.258-1.113,4.909-1.593c2.685-0.772,5.291-1.699,7.651-3.229c2.592-1.685,3.668-5.228,2.345-8.043
	c-0.819-1.745-1.771-3.405-3.631-4.309c-0.496-0.239-0.918-0.639-1.375-0.964c0.067-0.179,0.133-0.356,0.194-0.538
	c2,0,3.998-0.018,6,0.004c8.537,0.086,17.074,0.185,25.609,0.271c2.018,0.021,4.033,0.112,6.046,0.021
	c2.793-0.127,4.683,1.458,6.394,3.285c0.696,0.744,1.112,1.791,1.524,2.756c0.955,2.243-0.175,5.789-2.207,7.128
	c-1.771,1.165-3.653,2.101-5.694,2.702c-2.203,0.65-4.403,1.316-6.603,1.994c-1.979,0.607-3.535,1.894-5.021,3.265
	c-0.521,0.482-0.533,1.353-0.012,1.805c0.57,0.495,1.195,0.979,1.881,1.292c2.611,1.196,5.257,2.316,7.887,3.479
	c1.312,0.58,2.621,1.176,3.924,1.779c0.86,0.397,1.299,1.09,1.319,2.045c0.071,3.254,0.226,6.508,0.204,9.76
	c-0.021,3.087-1.627,5.447-3.846,7.438c-0.354,0.315-0.793,0.537-1.188,0.812c-3.16,2.195-4.188,5.354-2.982,9.052
	c0.441,1.365,1.285,2.373,2.578,2.924c2.471,1.047,4.924,2.166,7.477,2.956c1.312,0.405,1.816,1.08,2.25,2.261
	c0.686,1.883,0.559,3.753,0.425,5.592c-0.604,0.832-1.449,1.041-2.283,1.267c-3.604,0.972-7.217,1.931-10.817,2.912
	c-0.642,0.177-1.283,0.398-1.875,0.696c-0.592,0.295-0.713,1.354-0.174,1.733c0.612,0.436,1.301,0.833,2.017,1.036
	c1.841,0.524,3.724,0.899,5.567,1.405c1.006,0.276,2.006,0.632,2.944,1.081c0.789,0.376,0.741,1.53-0.063,1.84
	c-0.89,0.344-1.824,0.581-2.758,0.785c-2.808,0.607-5.627,1.162-8.435,1.775c-0.839,0.184-1.679,0.428-2.464,0.763
	c-0.963,0.41-1.092,1.712-0.238,2.366c0.523,0.399,1.131,0.727,1.738,0.989c1.596,0.688,2.285,1.888,2.359,3.603
	c0.102,2.396,0.16,4.749-0.186,7.158c-0.488,3.394-1.074,6.792-0.98,10.264c0.121,4.699,0.088,9.4,0.121,14.104
	c0.004,0.385-0.014,0.771,0.045,1.147c0.172,1.11,0.711,2.021,1.771,2.451c1.146,0.464,2.338,0.839,3.532,1.163
	c2.125,0.574,4.283,1.026,6.398,1.631c2.342,0.667,4.354,1.914,6.078,3.609c0.09,4.594,0.18,9.09,0.271,13.799
	c-0.312,0.291-0.793,0.742-1.438,1.349C228.945,206.454,229.137,211.525,229.109,216.596z"/>
</svg>
