<?xml version="1.0" encoding="utf-8"?>
<!-- Generator: Adobe Illustrator 16.0.0, SVG Export Plug-In . SVG Version: 6.00 Build 0)  -->
<!DOCTYPE svg PUBLIC "-//W3C//DTD SVG 1.1//EN" "http://www.w3.org/Graphics/SVG/1.1/DTD/svg11.dtd">
<svg version="1.1" id="Calque_1" xmlns="http://www.w3.org/2000/svg" xmlns:xlink="http://www.w3.org/1999/xlink" x="0px" y="0px"
	 width="283px" height="283px" viewBox="0 0 283 283" enable-background="new 0 0 283 283" xml:space="preserve">
<path d="M-0.466-0.466V283H283V-0.466H-0.466z M229.586,106.692c-1.03,1.498-2.047,3.016-3.188,4.433
	c-2.262,2.815-3.311,5.983-3.158,9.595c0.201,4.925-0.758,9.733-1.577,14.556c-0.127,0.74-0.414,1.5-0.81,2.141
	c-1.215,1.977-1.406,4.125-1.399,6.366c0.002,2.778-0.054,5.563-0.222,8.34c-0.062,0.977,0.062,1.889,0.142,2.832
	c0.188,2.244,1.438,3.688,3.201,4.845c0.881,0.577,1.754,1.175,2.604,1.798c0.541,0.395,1.072,0.812,1.549,1.286
	c1.183,1.183,1.006,2.47-0.49,3.257c-0.754,0.396-1.59,0.674-2.414,0.904c-2.118,0.604-4.262,1.121-6.377,1.734
	c-0.817,0.237-1.629,0.569-2.375,0.979c-0.727,0.396-0.812,1.438-0.19,1.979c0.496,0.438,1.065,0.826,1.67,1.088
	c1.938,0.834,3.912,1.57,5.851,2.404c1.227,0.531,2.465,1.08,3.592,1.787c1.381,0.864,1.371,2.439-0.057,3.258
	c-1.232,0.703-2.605,1.188-3.951,1.672c-1.439,0.515-2.947,0.844-4.375,1.388c-0.769,0.3-1.705,0.634-1.779,1.68
	c-0.068,1.013,0.713,1.521,1.43,2.004c0.555,0.375,1.176,0.644,1.744,0.996c0.564,0.351,1.162,0.687,1.646,1.138
	c1.127,1.055,1.209,2.094,0.311,3.311c-0.34,0.461-0.764,0.859-1.145,1.291c-0.691,0.785-1.025,1.734-0.506,2.65
	c0.959,1.694,0.784,3.51,0.858,5.317c0.147,3.444,0.112,6.896-0.106,10.34c-0.035,0.563-0.103,1.136-0.15,1.728
	c-0.984,0.688-2.076,0.44-3.096,0.449c-5.087,0.037-10.173,0.034-15.259,0.034c-6.524,0-13.05-0.008-19.572-0.026
	c-0.653,0-1.308-0.104-1.965-0.16c-0.709-1.463-0.565-2.875-0.406-4.311c0.138-1.23,0.189-2.472,0.216-3.707
	c0.03-1.343-0.071-2.688-0.015-4.021c0.067-1.646,0.011-3.254-0.606-4.811c-0.612-1.554-0.603-3,0.802-4.177
	c0.146-0.123,0.274-0.271,0.389-0.432c1.074-1.47,0.979-2.625-0.42-3.743c-0.74-0.6-1.599-1.059-2.396-1.581
	c-0.56-0.369-1.149-0.701-1.651-1.14c-0.765-0.661-0.656-1.654,0.286-2.106c1.117-0.537,2.302-0.938,3.472-1.364
	c1.705-0.623,3.438-1.184,5.131-1.854c0.512-0.195,1.018-0.593,1.334-1.031c0.771-1.062,0.4-2.496-0.803-3.153
	c-1.09-0.599-2.229-1.109-3.369-1.605c-1.849-0.799-3.724-1.529-5.562-2.34c-0.604-0.264-1.186-0.629-1.711-1.023
	c-0.578-0.441-0.549-1.389,0.076-1.723c0.75-0.4,1.549-0.75,2.361-0.986c2.11-0.623,4.262-1.134,6.365-1.771
	c0.997-0.305,1.989-0.721,2.889-1.252c1.055-0.623,1.27-1.803,0.473-2.717c-0.748-0.856-1.654-1.59-2.559-2.293
	c-0.98-0.764-2.058-1.408-3.062-2.146c-1.139-0.832-1.812-1.925-1.914-3.384c-0.076-1.133-0.145-2.286-0.627-3.543
	c-0.854-0.082-1.688-0.229-2.531-0.231c-4.02-0.03-8.037-0.021-12.059-0.039c-6.041-0.032-12.086-0.104-18.131-0.116
	c-12.279-0.033-24.559-0.041-36.834-0.057c-1.151-0.003-2.307,0-3.454,0.062c-0.798,0.045-1.245,0.494-1.282,1.278
	c-0.115,2.502,0.375,4.785,2.545,6.375c0.928,0.681,1.914,1.277,2.816,1.988c0.898,0.712,1.785,1.457,2.567,2.289
	c0.646,0.686,0.503,1.727-0.272,2.271c-0.616,0.432-1.319,0.797-2.038,1.019c-1.829,0.563-3.694,1.014-5.534,1.54
	c-1.288,0.373-2.592,0.729-3.825,1.232c-1.317,0.543-1.397,1.918-0.156,2.67c0.978,0.592,2.052,1.033,3.104,1.481
	c1.85,0.791,3.728,1.517,5.573,2.312c0.694,0.301,1.382,0.672,1.99,1.119c1.044,0.771,1.104,2.094,0.14,2.971
	c-0.414,0.375-0.932,0.691-1.457,0.884c-1.617,0.591-3.266,1.1-4.896,1.655c-0.993,0.345-2.016,0.643-2.951,1.107
	c-1.444,0.719-1.514,1.885-0.213,2.916c0.521,0.414,1.127,0.721,1.693,1.08c0.729,0.459,1.495,0.867,2.179,1.393
	c1.062,0.812,1.237,1.867,0.516,3.027c-0.354,0.562-0.804,1.072-1.257,1.562c-0.733,0.793-0.967,1.77-0.498,2.656
	c0.994,1.891,0.855,3.877,0.91,5.893c0.099,3.65,0.046,7.289-0.312,10.926c-0.119,1.229-0.461,1.461-1.642,1.445
	c-2.104-0.021-4.207,0.022-6.31,0.039c-3.164,0.028-6.33,0.069-9.495,0.08c-6.521,0.022-13.043,0.043-19.563,0.022
	c-0.931-0.002-1.923,0.25-3.002-0.459c-0.053-0.812-0.17-1.742-0.161-2.673c0.021-2.491,0.157-4.985,0.135-7.477
	c-0.022-2.557,0.299-5.145-0.816-7.615c-0.446-0.985-0.302-2.074,0.617-2.901c0.356-0.317,0.687-0.678,0.975-1.062
	c0.952-1.258,0.854-2.512-0.375-3.551c-0.651-0.551-1.452-0.926-2.171-1.397c-0.72-0.478-1.463-0.927-2.113-1.479
	c-0.621-0.529-0.55-1.598,0.127-1.998c0.65-0.385,1.368-0.687,2.088-0.926c1.633-0.554,3.297-1.016,4.924-1.576
	c0.81-0.277,1.625-0.617,2.337-1.082c1.657-1.078,1.627-2.938-0.096-3.896c-1.421-0.791-2.925-1.431-4.418-2.082
	c-1.404-0.61-2.857-1.116-4.254-1.743c-0.689-0.311-1.344-0.736-1.94-1.201c-0.506-0.395-0.385-1.455,0.199-1.756
	c0.675-0.352,1.396-0.639,2.124-0.846c2.026-0.576,4.084-1.053,6.102-1.663c1.093-0.329,2.175-0.767,3.165-1.319
	c1.133-0.633,1.316-1.941,0.482-2.953c-0.479-0.586-1.077-1.092-1.684-1.553c-0.989-0.757-1.997-1.5-3.058-2.156
	c-2.203-1.359-2.956-3.451-2.984-5.867c-0.024-2.107,0.078-4.223,0.149-6.332c0.062-1.721,0.197-3.438,0.226-5.163
	c0.021-1.373,0.237-2.672,0.969-3.854c0.927-1.505,1.341-3.161,1.49-4.909c0.065-0.763,0.216-1.52,0.349-2.274
	c0.56-3.22,0.957-6.448,0.776-9.73c-0.054-0.956,0.021-1.92,0.026-2.879c0.011-1.875,0.513-3.582,1.631-5.111
	c1.302-1.778,2.477-3.659,3.869-5.359c1.807-2.199,1.945-4.346,0.657-6.887c-0.837-1.646-1.845-2.793-3.581-3.451
	c-3.673-1.39-7.309-2.877-10.94-4.366c-1.415-0.58-2.815-1.22-4.161-1.945c-0.915-0.497-1.814-1.104-2.555-1.832
	c-1.038-1.023-1.387-2.383-0.677-3.699c1.406-2.609,2.548-5.36,4.389-7.74c1.032-1.334,2.211-2.373,3.72-3.078
	c1.819-0.852,3.636-1.723,5.464-2.562c2.021-0.93,3.901-2.067,5.411-3.725c0.567-0.63,1.204-0.835,2.033-0.812
	c3.062,0.086,6.128,0.127,9.191,0.171c5.174,0.075,10.349,0.146,15.521,0.205c3.936,0.044,7.87,0.065,11.805,0.106
	c0.456,0,0.911,0.062,1.729,0.128c-1.196,1.6-2.397,2.359-3.704,2.985c-1.899,0.911-3.757,1.942-5.717,2.701
	c-3.148,1.217-5.174,3.551-6.771,6.354c-0.854,1.497-1.563,3.074-2.404,4.58c-0.994,1.78-0.724,3.957,1.229,5.322
	c0.781,0.55,1.61,1.061,2.483,1.436c3.609,1.547,7.243,3.038,10.868,4.547c1.24,0.516,2.461,1.078,3.726,1.528
	c1.562,0.558,2.556,1.624,3.146,3.131c0.174,0.442,0.388,0.876,0.598,1.306c0.843,1.734,0.595,3.312-0.597,4.812
	c-1.131,1.428-2.184,2.918-3.285,4.364c-1.979,2.604-3.093,5.49-2.949,8.81c0.032,0.767-0.021,1.538,0.014,2.305
	c0.135,2.99-0.229,5.927-0.883,8.842c-0.188,0.838-0.255,1.703-0.354,2.562c-0.075,0.641-0.115,1.285-0.177,2.019
	c0.515,0.11,0.875,0.254,1.236,0.255c24.181,0.113,48.354-0.076,72.362-0.078c0.875-0.808,1.016-1.646,1.156-2.5
	c0.336-2.075,0.744-4.146,1.037-6.229c0.146-1.04,0.117-2.106,0.139-3.161c0.039-2.014,0.078-4.029,0.07-6.045
	c-0.004-1.588,0.443-3.035,1.309-4.338c1.162-1.76,2.391-3.479,3.594-5.207c0.49-0.711,0.941-1.453,1.494-2.113
	c0.984-1.178,1.008-2.436,0.439-3.767c-0.486-1.146-0.908-2.335-1.557-3.389c-0.371-0.602-1.064-1.104-1.729-1.404
	c-1.918-0.874-3.896-1.607-5.84-2.428c-3.271-1.37-6.541-2.737-9.785-4.173c-0.867-0.383-1.705-0.902-2.433-1.517
	c-1.452-1.225-1.907-2.812-1.047-4.354c1.441-2.59,2.539-5.371,4.41-7.729c0.793-0.998,1.633-1.875,2.777-2.439
	c2.229-1.102,4.469-2.188,6.693-3.311c0.938-0.475,1.949-0.888,2.748-1.548c1.201-0.996,2.508-1.227,3.994-1.199
	c11.896,0.195,23.789,0.354,35.686,0.531c0.271,0.003,0.537,0.08,0.844,0.13c-0.047,0.913-0.846,1.037-1.366,1.302
	c-2.138,1.088-4.271,2.188-6.486,3.09c-2.646,1.077-4.355,3.072-5.771,5.396c-0.995,1.636-1.916,3.315-2.811,5.011
	c-1.316,2.49-0.867,4.396,1.614,5.863c1.976,1.163,4.081,2.117,6.189,3.021c2.64,1.14,5.345,2.125,8.017,3.188
	c1.067,0.426,2.131,0.868,3.184,1.334c0.346,0.149,0.768,0.323,0.955,0.615c1.08,1.698,2.037,3.477,2.352,5.502
	C230.565,105.207,230.077,105.981,229.586,106.692z"/>
</svg>
