<?xml version="1.0" encoding="utf-8"?>
<!-- Generator: Adobe Illustrator 16.0.0, SVG Export Plug-In . SVG Version: 6.00 Build 0)  -->
<!DOCTYPE svg PUBLIC "-//W3C//DTD SVG 1.1//EN" "http://www.w3.org/Graphics/SVG/1.1/DTD/svg11.dtd">
<svg version="1.1" id="Calque_1" xmlns="http://www.w3.org/2000/svg" xmlns:xlink="http://www.w3.org/1999/xlink" x="0px" y="0px"
	 width="283px" height="283px" viewBox="0 0 283 283" enable-background="new 0 0 283 283" xml:space="preserve">
<g>
	<path d="M-0.467-1.098V283H283V-1.098H-0.467z M235.229,222.574c-3.27,0.722-6.436,0.292-9.547,0.574
		c-3.053,0.277-6.119,0.402-9.182,0.549c-3.162,0.146-6.327,0.324-9.491,0.338c-3.041,0.014-6.086,0.391-9.273,0.163
		c-0.113-0.968-0.268-1.81-0.301-2.651c-0.188-4.799-0.332-9.598-0.519-14.394c-0.371-9.603-0.743-19.206-1.146-28.806
		c-0.287-6.91-0.629-13.818-0.933-20.729c-0.08-1.822-0.103-3.649-0.169-5.474c-0.02-0.556-0.104-1.105-0.15-1.545
		c-0.347-0.181-0.504-0.323-0.674-0.34c-0.57-0.051-1.147-0.094-1.721-0.07c-21.76,0.82-43.52,1.647-65.275,2.483
		c-0.373,0.015-0.74,0.142-1.276,0.245c-0.095,0.648-0.28,1.284-0.264,1.911c0.283,8.733,0.564,17.467,0.909,26.2
		c0.246,6.238,0.625,12.469,0.871,18.708c0.287,7.295,0.508,14.595,0.732,21.892c0.053,1.71,0.008,3.422,0.008,5.273
		c-0.529,0.119-1.072,0.316-1.623,0.351c-1.818,0.115-3.643,0.185-5.464,0.246c-6.326,0.22-12.655,0.397-18.981,0.646
		c-2.684,0.104-5.359,0.355-8.041,0.498c-0.938,0.049-1.879-0.035-2.804-0.059c-0.531-1.15-0.461-2.21-0.498-3.259
		c-0.254-7.197-0.521-14.39-0.788-21.587c-0.328-8.826-0.659-17.646-0.996-26.475c-0.077-2.021-0.204-4.031-0.291-6.052
		c-0.188-4.415-0.366-8.831-0.546-13.249c-0.266-6.527-0.539-13.05-0.787-19.579c-0.103-2.689-0.132-5.376-0.227-8.066
		c-0.024-0.757-0.158-1.508-0.245-2.28c-2.694-1.211-5.505-1.179-8.235-1.536c-4.468-0.586-8.936-1.153-13.402-1.729
		c-0.751-0.096-1.469-0.247-2.013-0.944c0.984-1.408,3.348-0.857,3.747-2.846c-0.094-0.166-0.147-0.407-0.29-0.48
		c-1.073-0.563-1.312-1.417-1.282-2.609c0.072-2.786-0.042-5.576-0.089-8.366c-0.005-0.283-0.058-0.564-0.097-0.926
		c-0.599-0.554-1.271-1.093-1.82-1.734c-0.151-0.18-0.059-0.791,0.139-0.99c0.315-0.322,0.789-0.567,1.234-0.672
		c1.587-0.371,3.176-0.754,4.786-0.98c3.517-0.487,7.046-0.855,10.562-1.328c1.324-0.18,2.645-0.467,3.934-0.822
		c0.365-0.103,0.821-0.601,0.859-0.958c0.039-0.349-0.318-0.963-0.646-1.094c-1.684-0.676-3.375-1.424-5.138-1.787
		c-2.623-0.538-5.312-0.757-7.97-1.149c-3.032-0.446-6.062-0.935-9.09-1.417c-0.176-0.025-0.331-0.18-0.652-0.363
		c-0.18-1.978-0.364-4.057-0.544-6.052c-0.782-0.722-1.667-0.709-2.516-0.836c-2.465-0.364-4.927-0.743-7.391-1.123
		c-0.473-0.071-0.951-0.142-1.41-0.272c-1.615-0.454-2.021-1.011-1.955-2.68c0.022-0.574,0.075-1.149,0.162-1.72
		c0.043-0.276,0.197-0.535,0.358-0.952c1.638-0.5,3.361-1.023,5.198-1.584c0.093-0.878,0.177-1.703,0.259-2.494
		c0.858-0.694,1.849-0.6,2.787-0.721c1.521-0.196,3.059-0.34,4.545-0.689c1.271-0.299,2.584-0.689,3.408-2.118
		c-0.658-0.724-1.285-1.412-2.038-2.233c0.321-1.626,0.129-3.278-0.991-4.761c-0.236-0.316-0.198-0.931-0.118-1.376
		c0.215-1.204-0.312-2.022-1.184-2.747c-0.955-0.799-1.862-1.657-2.812-2.467c-2.044-1.743-3.927-3.647-5.638-5.716
		c-0.281-0.343-0.443-0.787-0.688-1.232c2.372-0.362,33.236-0.375,37.392-0.033c0.573,0.603,1.308,1.238,1.876,1.996
		c1.569,2.085,3.526,3.757,5.493,5.428c0.657,0.561,1.314,1.122,1.935,1.727c0.912,0.892,1.765,1.804,1.058,3.266
		c-0.136,0.281-0.076,0.833,0.122,1.07c1.195,1.44,1.314,3.141,1.229,4.789c0.792,0.837,1.498,1.577,2.319,2.444
		c-0.526,0.425-0.844,0.772-1.234,0.98c-1.808,0.956-3.748,1.411-5.78,1.576c-1.229,0.101-2.512-0.051-3.79,0.682
		c-0.12,0.749-0.252,1.575-0.386,2.402c-0.138,0.126-0.253,0.313-0.414,0.37c-0.812,0.275-1.641,0.515-2.458,0.772
		c-0.809,0.256-1.61,0.521-2.242,0.724c-0.19,0.406-0.322,0.571-0.343,0.752c-0.453,3.737-0.654,4.274,3.491,4.907
		c2.463,0.375,4.93,0.731,7.39,1.122c0.646,0.103,1.28,0.308,1.945,0.473c0.688,2.12-0.025,4.291,0.611,6.416
		c1.752,0.786,3.69,0.825,5.558,1.118c4.166,0.649,8.349,1.2,12.527,1.75c1.752,0.229,3.312,0.95,4.831,1.763
		c0.366,0.195,0.577,0.687,0.825,0.999c-0.384,0.998-1.125,1.159-1.887,1.271c-3.699,0.536-7.401,1.057-11.102,1.606
		c-2.18,0.32-4.354,0.672-6.526,1.039c-0.562,0.096-1.122,0.254-1.649,0.47c-1.068,0.437-1.183,1.255-0.288,1.944
		c0.451,0.349,0.942,0.646,1.396,0.948c0.099,0.707,0.187,1.349,0.301,2.174c1.494,0.018,2.918,0.059,4.341,0.044
		c12.566-0.119,25.135-0.243,37.702-0.38c8.345-0.091,16.688-0.205,25.033-0.31c0.479-0.008,0.979,0.036,1.426-0.093
		c0.326-0.095,0.731-0.392,0.819-0.685c0.08-0.265-0.146-0.726-0.381-0.956c-0.336-0.327-0.819-0.493-1.2-0.782
		c-0.767-0.579-0.656-1.385,0.276-1.754c2.246-0.889,4.625-1.193,7.002-1.483c3.521-0.434,7.043-0.839,10.562-1.298
		c0.85-0.112,1.689-0.349,2.514-0.602c0.57-0.176,1.105-0.58,0.992-1.229c-0.068-0.397-0.438-0.859-0.799-1.065
		c-2.383-1.342-4.992-1.988-7.691-2.156c-4.604-0.286-9.119-1.223-13.664-1.92c-0.453-0.068-0.879-0.311-1.387-0.496
		c-0.119-2.063-0.236-4.063-0.355-6.179c-0.682-0.237-1.276-0.549-1.907-0.648c-2.744-0.436-5.505-0.768-8.242-1.215
		c-3.313-0.54-3.658-1.074-3.069-4.423c0.049-0.28,0.149-0.555,0.254-0.919c1.557-1.106,3.682-0.781,5.432-1.953
		c0.117-0.719,0.256-1.545,0.396-2.406c1.012-0.769,2.2-0.618,3.325-0.701c2.218-0.164,4.371-0.556,6.358-1.604
		c0.966-0.507,1.113-1.266,0.361-2.083c-0.385-0.42-0.875-0.744-1.438-1.209c0-0.563,0.037-1.223-0.01-1.879
		c-0.062-0.86-0.168-1.696-0.723-2.446c-0.322-0.437-0.688-1.088-0.591-1.547c0.396-1.844-0.687-2.878-1.856-3.91
		c-1.588-1.395-3.226-2.732-4.744-4.19c-1.16-1.111-2.178-2.377-3.404-3.738c1.08-0.687,2.055-0.473,2.941-0.476
		c6.908-0.021,13.817,0.005,20.729,0.018c3.838,0.007,7.678,0.021,11.516,0.03c0.666,0.001,1.332,0,2.017,0
		c2.748,3.198,5.719,6.035,8.907,8.646c1.076,0.882,1.938,1.87,1.402,3.463c-0.104,0.306,0.066,0.753,0.213,1.089
		c1.191,2.692,1.199,2.688,1.199,4.951c0.529,0.453,1.129,0.928,1.68,1.452c0.435,0.41,0.388,1.267-0.125,1.499
		c-1.119,0.516-2.256,1.074-3.44,1.356c-1.394,0.332-2.845,0.403-4.271,0.559c-0.854,0.092-1.744,0.026-2.513,0.836
		c-0.06,0.635-0.127,1.381-0.194,2.128c-0.279,0.188-0.492,0.41-0.75,0.486c-1.545,0.475-3.103,0.914-4.537,1.331
		c-0.127,0.237-0.191,0.317-0.213,0.407c-0.75,3.626-0.683,4.806,3.586,5.428c2.272,0.331,4.551,0.659,6.824,0.992
		c0.747,0.108,1.491,0.233,2.344,0.37c0.666,2.19,0.229,4.455,0.86,6.762c1.646,0.311,3.312,0.689,4.996,0.932
		c4.27,0.616,8.537,1.221,12.816,1.723c1.873,0.221,3.459,1.082,5.111,1.827c0.516,0.23,0.672,0.729,0.52,1.201
		c-0.104,0.312-0.442,0.72-0.729,0.772c-2.736,0.483-5.479,0.932-8.229,1.325c-3.035,0.437-6.084,0.776-9.117,1.219
		c-0.941,0.139-1.871,0.419-2.779,0.712c-0.57,0.188-1.055,0.654-0.984,1.268c0.043,0.392,0.438,0.789,0.771,1.081
		c0.416,0.373,0.927,0.642,1.308,0.897c0,2.543-0.006,4.924,0.006,7.306c0.004,0.862,0.062,1.727,0.07,2.591
		c0.006,0.812,0.235,1.377,0.983,1.902c0.864,0.61,0.614,1.543-0.401,1.989c-0.699,0.306-1.461,0.478-2.156,0.792
		c-0.295,0.131-0.492,0.479-0.799,0.798c1.606,1.185,3.383,1.232,5.054,1.443c5.039,0.646,10.101,1.139,15.146,1.736
		c1.135,0.135,2.247,0.454,3.438,0.703c0.687,1.461,0.539,3.027,0.601,4.522c0.349,8.741,0.599,17.481,0.925,26.22
		c0.282,7.586,0.635,15.172,0.938,22.758c0.299,7.489,0.562,14.979,0.863,22.465c0.211,5.186,0.479,10.367,0.697,15.554
		C235.302,220.354,235.243,221.4,235.229,222.574z"/>
</g>
</svg>
