<?xml version="1.0" encoding="utf-8"?>
<!-- Generator: Adobe Illustrator 16.0.0, SVG Export Plug-In . SVG Version: 6.00 Build 0)  -->
<!DOCTYPE svg PUBLIC "-//W3C//DTD SVG 1.1//EN" "http://www.w3.org/Graphics/SVG/1.1/DTD/svg11.dtd">
<svg version="1.1" id="Calque_1" xmlns="http://www.w3.org/2000/svg" xmlns:xlink="http://www.w3.org/1999/xlink" x="0px" y="0px"
	 width="283px" height="283px" viewBox="0 0 283 283" enable-background="new 0 0 283 283" xml:space="preserve">
<g>
	<polygon points="83.721,100.222 83.922,100.131 83.723,100.047 	"/>
	<path d="M-0.466-1.098V283H283V-1.098H-0.466z M242.238,165.666c-0.291,1.507-0.764,2.979-1.029,4.488
		c-0.229,1.285-0.822,2.348-1.608,3.326c-1.71,2.125-3.712,3.854-6.259,4.949c-1.399,0.605-2.721,1.416-4.043,2.192
		c-2.065,1.214-4.061,2.565-6.168,3.694c-2.469,1.32-4.744,2.906-6.916,4.646c-2.864,2.292-6.021,4.095-9.328,5.646
		c-1.646,0.771-3.327,1.479-4.979,2.25c-3.923,1.83-7.623,4.037-11.08,6.654c-0.765,0.576-1.535,1.172-2.381,1.603
		c-2.074,1.055-3.117,2.759-3.414,5c-0.22,1.67-0.793,3.216-2.029,4.358c-1.398,1.295-2.894,2.518-4.465,3.592
		c-0.554,0.384-1.463,0.357-2.201,0.326c-4.209-0.188-8.408-0.467-12.619-0.647c-6.416-0.28-12.84-0.506-19.26-0.767
		c-0.359-0.015-0.724-0.088-1.041-0.129c-0.262-0.722,0.26-0.969,0.584-1.262c1.619-1.453,2.768-3.145,3.031-5.379
		c0.09-0.75,0.405-1.475,0.627-2.208c0.266-0.862,0.819-1.481,1.562-1.985c5.951-4.051,11.871-8.137,18.63-10.793
		c3.229-1.269,6.358-2.901,8.983-5.096c4.537-3.788,9.84-6.291,14.715-9.499c1.276-0.84,2.694-1.463,4.022-2.233
		c1.073-0.621,2.144-1.269,3.157-1.98c2.886-2.029,4.765-4.684,5.097-8.311c0.078-0.854,0.377-1.688,0.612-2.52
		c0.559-1.967,0.686-3.952,0.464-5.988c-0.261-2.384-0.421-4.777-0.642-7.162c-0.149-1.641-0.531-3.207-1.271-4.703
		c-0.634-1.285-1.271-2.604-1.619-3.98c-0.666-2.654-2.045-4.963-3.316-7.31c-0.977-1.797-2.57-3.092-4.432-3.979
		c-2.422-1.154-4.885-2.221-7.289-3.407c-1.715-0.849-3.404-1.764-5.021-2.788c-1.265-0.801-2.517-1.249-4.039-1.193
		c-6.612,0.232-13.229,0.415-19.845,0.564c-5.469,0.125-10.938,0.162-16.402,0.274c-5.179,0.105-10.354,0.271-15.533,0.392
		c-2.879,0.066-5.756,0.103-8.636,0.14c-1.147,0.018-2.294,0.003-3.364,0.003c-0.31,0.835,0.141,1.06,0.562,1.277
		c0.937,0.482,1.864,0.98,2.817,1.426c2.432,1.138,4.896,2.196,7.297,3.393c2.101,1.045,3.691,2.595,4.865,4.719
		c1.5,2.721,2.271,5.696,3.438,8.524c0.146,0.354,0.147,0.783,0.354,1.088c1.483,2.16,1.636,4.664,1.896,7.146
		c0.168,1.625,0.24,3.268,0.521,4.869c0.395,2.233,0.184,4.399-0.352,6.565c-0.369,1.487-0.793,2.974-1.053,4.481
		c-0.201,1.178-0.627,2.244-1.326,3.151c-1.529,1.991-3.258,3.843-5.582,4.88c-2.469,1.106-4.716,2.561-7.02,3.945
		c-2.135,1.283-4.308,2.507-6.442,3.785c-0.903,0.541-1.826,1.086-2.623,1.768c-4.058,3.448-8.574,6.119-13.476,8.164
		c-4.894,2.041-9.455,4.657-13.688,7.854c-0.609,0.459-1.258,0.895-1.941,1.223c-2.441,1.186-3.84,3.104-4.227,5.783
		c-0.041,0.283-0.076,0.572-0.137,0.854c-0.206,0.958-0.604,1.816-1.319,2.479c-2.339,0.291-33.416-1.018-36.354-1.551
		c0.128-0.983,0.205-2,0.397-2.994c0.348-1.788,1.256-3.143,2.938-4.03c1.353-0.712,2.597-1.638,3.84-2.529
		c3.913-2.819,8.113-5.126,12.55-6.993c4.444-1.871,8.646-4.146,12.367-7.238c2.382-1.979,5.083-3.438,7.747-4.955
		c3.332-1.897,6.482-4.104,9.97-5.748c2.021-0.955,3.616-2.561,4.96-4.321c0.673-0.885,1.104-2.019,1.414-3.104
		c0.605-2.118,1.191-4.264,1.521-6.438c0.237-1.597,0.144-3.26,0.026-4.884c-0.149-2.106-0.528-4.196-0.698-6.298
		c-0.147-1.857-0.683-3.594-1.453-5.244c-0.692-1.483-1.256-2.997-1.681-4.579c-0.702-2.624-1.979-4.996-3.454-7.246
		c-0.904-1.378-2.152-2.437-3.671-3.136c-2.524-1.163-5.036-2.359-7.584-3.473c-2.838-1.236-5.293-3.087-7.862-4.758
		c-1.442-0.94-2.139-2.338-2.733-3.92c-1.416-3.758-2.979-7.462-4.558-11.158c-0.246-0.579-0.837-1.03-1.316-1.489
		c-1.456-1.393-2.972-2.726-4.396-4.151c-1.159-1.162-2.042-2.495-2.489-4.143c-0.415-1.531-0.449-2.963-0.105-4.53
		c0.48-2.192,1.43-4.186,2.371-6.162c1.687-3.547,3.211-7.189,5.562-10.39c1.308-1.779,1.729-3.786,1.281-6.013
		c-0.49-2.443-0.82-4.913-1.199-7.375c-0.057-0.361-0.008-0.746-0.008-1.231c0.502-0.084,0.961-0.232,1.42-0.23
		c11.885,0.058,23.771,0.102,35.79,0.622c0.283,0.865,0.656,1.65,0.787,2.472c0.404,2.56,0.768,5.125,1.049,7.703
		c0.153,1.402-0.604,2.583-1.285,3.742c-1.166,1.983-2.479,3.893-3.461,5.958c-1.603,3.372-3.013,6.838-4.459,10.283
		c-0.873,2.082-0.455,4.156,0.209,6.202c0.297,0.92,0.916,1.425,1.91,1.447c3.355,0.081,6.713,0.214,10.071,0.256
		c7.964,0.099,15.929,0.133,23.894,0.237c8.441,0.114,16.884,0.284,25.326,0.426c2.59,0.046,5.181,0.079,7.771,0.104
		c0.465,0.003,0.931-0.092,1.463-0.149c-0.073-0.39-0.062-0.689-0.188-0.916c-1.685-3.008-1.617-6.132-0.293-9.166
		c2.108-4.83,4.101-9.739,7.095-14.127c1.245-1.83,1.805-3.738,1.385-5.984c-0.422-2.253-0.609-4.542-0.902-6.851
		c0.338-0.129,0.596-0.316,0.848-0.311c12.166,0.4,24.348,0.334,36.422,1.049c0.793,0.965,0.877,2.02,1.01,3.06
		c0.134,1.047,0.207,2.109,0.433,3.138c0.392,1.796,0.086,3.456-0.901,4.956c-2.761,4.187-4.853,8.709-6.771,13.319
		c-0.518,1.238-0.98,2.5-1.393,3.779c-1.066,3.356-0.104,6.254,2.196,8.736c1.435,1.547,3.054,2.919,4.554,4.405
		c0.532,0.529,1.106,1.101,1.405,1.766c0.865,1.919,1.527,3.935,2.404,5.847c0.918,2.004,1.881,3.988,2.519,6.104
		c0.266,0.879,0.79,1.549,1.522,2.029c2.481,1.63,4.916,3.362,7.508,4.797c2.338,1.298,4.812,2.389,7.313,3.343
		c3.979,1.524,6.34,4.501,7.908,8.271c0.439,1.063,0.721,2.193,1.109,3.277c0.451,1.259,0.854,2.547,1.438,3.738
		c0.899,1.835,1.516,3.693,1.604,5.771c0.125,2.869,0.563,5.728,0.666,8.593C242.867,162.833,242.51,164.264,242.238,165.666z"/>
</g>
</svg>
