<?xml version="1.0" encoding="utf-8"?>
<!-- Generator: Adobe Illustrator 16.0.0, SVG Export Plug-In . SVG Version: 6.00 Build 0)  -->
<!DOCTYPE svg PUBLIC "-//W3C//DTD SVG 1.1//EN" "http://www.w3.org/Graphics/SVG/1.1/DTD/svg11.dtd">
<svg version="1.1" id="Calque_1" xmlns="http://www.w3.org/2000/svg" xmlns:xlink="http://www.w3.org/1999/xlink" x="0px" y="0px"
	 width="283px" height="283px" viewBox="0 0 283 283" enable-background="new 0 0 283 283" xml:space="preserve">
<path d="M-0.467-1.098V283H283V-1.098H-0.467z M232.709,57.973c0.012,2.33-0.328,4.611-0.807,6.855
	c-0.525,2.472-0.576,4.938-0.57,7.438c0.025,9.61-0.027,19.221,0.029,28.83c0.012,1.733-0.662,2.778-2.229,3.234
	c-2.021,0.585-4.062,1.106-6.109,1.571c-2.707,0.614-5.467,1.026-8.145,1.752c-2.396,0.649-4.732,1.535-7.047,2.449
	c-1.855,0.733-2.853,2.145-2.806,4.252c0.099,4.322,0.162,8.651,0.183,12.977c0.018,3.448-0.062,6.903-0.089,10.353
	c-0.01,1.347-0.012,2.691,0.021,4.034c0.12,4.896,0.342,9.793,0.368,14.693c0.06,10.382,0.019,20.769,0.019,31.151
	c-0.002,7.209,0.062,14.425-0.056,21.636c-0.026,1.733,0.603,2.758,2.06,3.373c1.32,0.56,2.683,1.032,4.043,1.483
	c2.271,0.76,4.56,1.478,6.841,2.195c2.396,0.758,4.61,1.879,6.741,3.2c1.771,1.103,2.738,2.588,2.729,4.739
	c-0.023,3.845,0.166,7.692-0.281,11.524c-0.078,0.664-0.168,1.347-0.389,1.974c-0.881,2.496-1.019,5.063-0.945,7.678
	c0.086,3.271,0.072,6.54,0.092,9.808c0.002,0.48-0.066,0.962-0.09,1.44c-0.045,0.976-0.592,1.607-1.416,2.012
	c-0.514,0.252-1.062,0.445-1.615,0.594c-3.061,0.786-6.119,1.387-9.318,1.521c-9.864,0.41-19.735,0.312-29.604,0.535
	c-1.63,0.037-3.261,0.006-4.891-0.023c-0.243-0.006-0.48-0.177-0.887-0.329c0.291-0.271,0.442-0.521,0.651-0.581
	c1.288-0.371,2.575-0.762,3.89-1.023c2.362-0.479,3.159-2.108,3.082-4.131c-0.158-4.03-0.104-8.072-0.093-12.11
	c0.002-1.056-0.041-2.171,0.278-3.147c1.002-3.076,1.037-6.242,1.097-9.416c0.037-2.112-0.054-4.23,0.021-6.344
	c0.076-2.148-0.849-3.611-2.604-4.783c-2.502-1.677-5.215-2.838-8.051-3.754c-2.461-0.798-4.938-1.55-7.404-2.328
	c-1.377-0.436-2.732-0.906-3.957-2.125c-0.318-2.108-0.104-4.42-0.127-6.709c-0.066-7.011-0.049-14.021-0.059-21.031
	c-0.002-3.067,0.002-6.137,0.01-9.209c0.004-1.143,0.178-2.314-0.59-3.326c-1.115-0.458-2.279-0.29-3.418-0.29
	c-11.996-0.015-23.992-0.021-35.988-0.015c-10.365,0.006-20.729,0.023-31.094,0.049c-0.861,0-1.729,0.017-2.585,0.113
	c-0.624,0.069-1.024,0.5-1.101,1.148c-0.055,0.477-0.079,0.961-0.078,1.439c0.01,11.924,0.021,23.848,0.033,35.769
	c0,0.287,0.004,0.577-0.01,0.862c-0.045,0.853,0.312,1.541,1.019,1.938c0.995,0.563,2.021,1.116,3.099,1.482
	c2.535,0.866,5.118,1.594,7.665,2.43c2.733,0.897,5.407,1.935,7.853,3.513c1.961,1.267,2.886,2.941,2.772,5.303
	c-0.103,2.108,0.021,4.229,0.009,6.347c-0.021,2.879-0.062,5.747-1.08,8.521c-0.533,1.444-0.521,2.985-0.455,4.549
	c0.127,2.957,0.032,5.925,0.016,8.889c-0.008,1.24-0.049,2.482-0.088,3.727c-0.034,1.106-0.668,1.795-1.664,2.102
	c-1.559,0.476-3.141,0.861-4.706,1.306c-0.544,0.152-1.071,0.362-1.626,0.554c-0.188,0.691-0.357,1.325-0.57,2.112
	c-3.251,0.119-6.49,0.244-9.73,0.36c-3.353,0.113-6.703,0.24-10.058,0.324c-3.261,0.08-6.524,0.17-9.784,0.146
	c-3.24-0.02-6.491,0.293-9.917-0.066c-0.07-0.97-0.131-1.783-0.195-2.672c0.688-0.238,1.208-0.445,1.743-0.602
	c1.478-0.411,2.967-0.773,4.438-1.202c1.247-0.362,1.934-1.252,1.963-2.542c0.044-2.009-0.038-4.021,0.02-6.029
	c0.127-4.488-0.53-9.046,1.07-13.426c0.194-0.529,0.266-1.131,0.277-1.701c0.087-3.652,0.133-7.303,0.209-10.957
	c0.05-2.342-0.999-3.986-2.972-5.213c-3.046-1.902-6.377-3.072-9.762-4.15c-2.19-0.693-4.378-1.4-6.561-2.125
	c-1.199-0.397-2.339-0.898-3.084-2.28c0-6.731,0.005-13.651-0.003-20.57c-0.011-9.712-0.026-19.427-0.039-29.14
	c-0.012-6.152,0.019-12.301-0.39-18.447c-0.166-2.485,0.02-4.991,0.001-7.485c-0.041-6.043-0.107-12.089-0.157-18.134
	c-0.008-0.863,0.054-1.729,0.041-2.596c-0.025-1.832,0.784-3.051,2.449-3.85c3.139-1.505,6.445-2.434,9.828-3.138
	c2.814-0.584,5.642-1.11,8.438-1.768c1.391-0.325,2.757-0.813,4.077-1.357c1.062-0.438,1.54-1.341,1.54-2.537
	c-0.01-8.17,0.012-16.344,0.018-24.516c0.002-2.788-0.018-5.574-0.005-8.362c0.002-0.575,0.017-1.172,0.166-1.719
	c1.326-4.87,1.619-9.843,1.568-14.86c-0.021-2.019,0.039-4.038,0.093-6.057c0.052-1.929-0.185-3.813-0.506-5.721
	c-0.287-1.704-1.113-2.722-2.505-3.584c-1.588-0.983-3.307-1.467-5.091-1.871c-4.108-0.932-8.219-1.872-12.305-2.902
	c-1.479-0.372-2.911-0.955-4.327-1.536c-2.367-0.974-3.604-2.732-3.553-5.362c0.042-2.106,0.01-4.21,0.01-6.279
	c2.697-0.48,34.93-0.645,39.745-0.217c0.11,0.573,0.311,1.197,0.333,1.83c0.05,1.344-0.005,2.692,0.004,4.036
	c0.021,3.132,1.438,5.378,4.402,6.41c2.707,0.94,5.468,1.741,8.243,2.457c2.873,0.739,5.799,1.285,8.691,1.942
	c0.838,0.188,1.702,0.371,2.467,0.739c1.023,0.492,1.963,1.162,3.072,1.836c-0.133,0.5-0.251,0.937-0.361,1.374
	c-0.178,0.696-0.127,1.425,0.435,1.866c1.24,0.98,1.211,2.322,1.22,3.669c0.014,3.077,0.006,6.157,0.004,9.233
	c0,0.675-0.06,1.352-0.01,2.021c0.264,3.593-0.542,7.054-1.214,10.539c-0.216,1.119-0.375,2.272-0.38,3.407
	c-0.042,10.383-0.087,20.769-0.02,31.154c0.012,1.74-0.562,2.751-2.156,3.235c-1.098,0.337-2.19,0.692-3.312,0.94
	c-3.649,0.799-7.321,1.503-10.962,2.339c-2.521,0.58-5.004,1.343-7.288,2.609c-2.161,1.197-2.491,1.971-2.092,4.83
	c0.422,0.087,0.876,0.242,1.336,0.268c6.005,0.321,69.831,0.072,72.396-0.292c0.147-0.456,0.438-0.976,0.469-1.508
	c0.086-1.533,0.926-2.513,2.209-3.123c1.207-0.575,2.461-1.064,3.723-1.511c3.896-1.387,7.99-1.974,12.009-2.861
	c1.591-0.354,3.188-0.68,4.757-1.118c0.816-0.229,1.602-0.628,2.354-1.035c0.725-0.395,1.068-1.065,1.068-1.909
	c-0.002-1.347,0.014-2.695,0.014-4.038c0.008-9.23,0-18.462,0.037-27.692c0.006-1.24,0.072-2.526,0.396-3.711
	c1.194-4.411,1.312-8.916,1.315-13.434c0.004-2.113-0.104-4.237,0.019-6.343c0.153-2.613-0.25-5.157-0.627-7.716
	c-0.106-0.731-0.446-1.291-1.039-1.644c-1.396-0.827-2.759-1.696-4.397-2.056c-3.933-0.854-7.851-1.771-11.754-2.731
	c-1.763-0.437-3.494-0.999-5.215-1.578c-0.812-0.272-1.584-0.684-2.334-1.101c-1.438-0.802-2.211-2.021-2.399-3.696
	c-0.231-2.063-0.212-5.295,0.25-7.588c2.965-0.435,24.407-0.589,36.711-0.28c0.748,0.021,1.491,0.113,2.26,0.176
	c0.481,1.125,0.433,2.184,0.457,3.229c0.024,1.058,0.024,2.113,0.062,3.171c0.104,2.934,1.631,4.886,4.299,5.895
	c1.967,0.743,3.98,1.399,6.021,1.905c3.529,0.879,7.104,1.582,10.644,2.427c1.283,0.306,2.615,0.484,3.717,1.417
	c0.98,0.833,1.855,1.62,1.967,3.027c0.041,0.54,0.285,1.155,0.637,1.564c0.902,1.046,0.979,2.299,0.975,3.528
	C232.834,49.134,232.692,53.553,232.709,57.973z"/>
</svg>
