<?xml version="1.0" encoding="utf-8"?>
<!-- Generator: Adobe Illustrator 16.0.0, SVG Export Plug-In . SVG Version: 6.00 Build 0)  -->
<!DOCTYPE svg PUBLIC "-//W3C//DTD SVG 1.1//EN" "http://www.w3.org/Graphics/SVG/1.1/DTD/svg11.dtd">
<svg version="1.1" id="Calque_1" xmlns="http://www.w3.org/2000/svg" xmlns:xlink="http://www.w3.org/1999/xlink" x="0px" y="0px"
	 width="283px" height="283px" viewBox="0 0 283 283" enable-background="new 0 0 283 283" xml:space="preserve">
<path d="M-0.466-1.098V283H283V-1.098H-0.466z M229.735,156.336c-1.161,0.446-2.347,0.84-3.543,1.172
	c-1.661,0.461-3.353,0.818-5.019,1.27c-0.83,0.226-1.653,0.496-2.438,0.85c-0.78,0.352-0.813,1.45-0.022,1.854
	c1.104,0.564,2.27,1.02,3.428,1.474c1.246,0.491,2.551,0.854,3.762,1.425c1.419,0.661,1.48,2.102,0.177,2.902
	c-0.729,0.453-1.528,0.795-2.286,1.208c-0.923,0.499-1.312,1.218-1.322,2.336c-0.049,5.569-0.192,11.138-0.299,16.707
	c-0.022,1.246-0.002,2.466,0.334,3.709c0.405,1.497,0.265,3.056-0.263,4.543c-0.979,2.769-1.034,5.64-1,8.524
	c0.073,5.844,0.17,11.679-0.084,17.525c-0.229,5.371-0.077,10.762-0.093,16.146c-0.008,3.26-0.004,6.521-0.006,9.781
	c-13.438,0-26.881,0-40.319,0c0.021-8.935,0.058-17.865,0.063-26.8c0.004-6.153-0.01-12.299-0.055-18.444
	c-0.019-2.131,0.057-4.246,0.793-6.256c0.654-1.781,0.666-3.565,0.379-5.395c-0.104-0.663-0.271-1.329-0.266-1.992
	c0.032-2.875,0.135-5.745,0.182-8.623c0.016-0.945,0.18-1.934-0.508-2.789c-0.974-0.535-2.045-0.306-3.08-0.312
	c-9.195-0.073-18.396-0.12-27.594-0.198c-6.521-0.06-13.037-0.173-19.56-0.21c-7.194-0.041-14.392-0.029-21.583-0.021
	c-0.637,0.002-1.271,0.16-2.014,0.264c-0.058,0.707-0.131,1.27-0.144,1.83c-0.036,2.207-0.049,4.416-0.079,6.623
	c-0.031,2.396-0.109,4.781,0.29,7.173c0.164,0.989-0.098,2.108-0.389,3.106c-0.708,2.426-0.983,4.863-0.927,7.391
	c0.103,4.419,0.055,8.841,0.05,13.263c-0.013,9.321-0.044,18.644-0.05,27.961c0,1.147,0.115,2.288,0.177,3.437
	c-13.438-0.004-26.88-0.004-40.318-0.004c-0.315-9.211-0.38-18.427-0.149-27.647c0.146-5.858-0.005-11.724-0.096-17.588
	c-0.032-2.04,0.312-4.007,0.861-5.935c0.593-2.07,0.941-4.104,0.292-6.229c-0.164-0.536-0.14-1.144-0.133-1.716
	c0.054-5.381,0.12-10.764,0.188-16.146c0.006-0.479,0.101-0.961,0.08-1.437c-0.056-1.459,0.672-2.327,1.978-2.836
	c0.622-0.241,1.253-0.506,1.81-0.867c1.096-0.711,1.104-2.199-0.021-2.85c-0.903-0.521-1.908-0.867-2.882-1.261
	c-1.418-0.573-2.859-1.09-4.264-1.696c-0.394-0.17-0.686-0.572-1.085-0.922c0.72-1.144,1.789-1.34,2.765-1.611
	c1.659-0.465,3.354-0.807,5.017-1.258c1.292-0.352,2.559-0.804,3.838-1.19c1.591-0.487,2.354-1.507,2.283-3.214
	c-0.069-1.731-0.014-3.463-0.014-5.196c0.012-11.543,0.026-23.085,0.026-34.63c0.001-1.336-0.075-2.673-0.12-4.169
	c-0.88-0.3-1.652-0.667-2.472-0.826c-6.108-1.192-12.227-2.34-18.338-3.52c-1.034-0.199-2.072-0.417-3.075-0.73
	c-1.436-0.45-1.886-1.024-1.87-2.511c0.019-2.111,0.164-4.226,0.228-6.334c0.045-1.53,0.065-3.06,0.051-4.589
	c-0.013-1.052-0.177-2.105-0.153-3.156c0.098-4.795,0.244-9.592,0.354-14.389c0.037-1.632,0.11-3.277-0.018-4.898
	c-0.158-1.986,0.464-3.833,0.963-5.657c1.046-3.811,1.517-7.697,2.095-11.584c0.483-3.26,0.599-6.505,0.454-9.771
	c-0.075-1.725-0.317-3.44-0.459-5.158c-0.047-0.553-0.008-1.111-0.008-1.806c0.619-0.104,1.073-0.241,1.526-0.242
	c12.754-0.061,25.507-0.066,38.43-0.005c0.201,0.886,0.454,1.597,0.511,2.323c0.15,2.01,0.157,4.033,0.342,6.04
	c0.219,2.399,0.115,4.744-0.329,7.119c-0.476,2.532-0.699,5.115-1.091,7.664c-0.231,1.516-0.365,3.094-0.914,4.498
	c-1.326,3.407-1.398,6.917-1.383,10.485c0.035,8.173,0.006,16.349-0.039,24.52c-0.008,1.441-0.276,2.872-0.32,4.313
	c-0.066,2.208,0.423,2.971,2.601,3.479c2.983,0.693,6.017,1.181,9.021,1.774c3.948,0.781,7.896,1.566,11.833,2.391
	c0.726,0.149,1.406,0.505,2.228,0.811c0.271,11.505-0.006,22.928,0.149,34.139c0.705,0.956,1.521,0.783,2.269,0.785
	c6.525,0.027,13.054,0.053,19.579,0.051c15.74-0.005,31.479-0.02,47.225-0.048c1.695-0.005,3.422,0.187,5.037-0.188
	c0.523-3.039,0.674-29.728,0.229-34.801c-0.696-0.694-1.646-0.84-2.584-1.024c-5.926-1.15-11.851-2.301-17.771-3.47
	c-1.222-0.241-2.444-0.493-3.631-0.865c-1.173-0.37-1.479-0.884-1.464-2.166c0.021-2.111,0.127-4.228,0.145-6.338
	c0.049-8.462,0.148-16.928,0.064-25.388c-0.025-2.749,0.357-5.389,1.271-7.914c0.961-2.665,1.057-5.457,1.582-8.18
	c0.385-1.972,0.403-4.013,0.748-5.992c0.362-2.11,0.329-4.209,0.166-6.322c-0.187-2.391-0.412-4.779-0.611-7.092
	c0.684-0.782,1.502-0.53,2.227-0.533c7.004-0.021,14.014-0.001,21.021,0.001c4.604,0.002,9.213-0.004,13.817-0.008
	c0.949,0,1.898,0,2.688,0c0.269,0.354,0.463,0.49,0.479,0.65c0.467,4.299,0.934,8.603,0.623,12.935
	c-0.145,2.004-0.369,4.021-0.773,5.989c-0.692,3.381-1.043,6.83-2.063,10.148c-0.942,3.073-0.95,6.244-0.703,9.424
	c0.074,0.956,0.121,1.928,0.033,2.88c-0.371,4.034-0.382,8.06-0.05,12.097c0.074,0.941-0.196,1.906-0.217,2.865
	c-0.07,3.654-0.129,7.307-0.135,10.962c0,1.333,0.424,1.893,1.779,2.242c2.041,0.522,4.109,0.936,6.184,1.346
	c4.979,0.98,9.963,1.928,14.939,2.913c0.827,0.165,1.631,0.457,2.58,0.73c0.062,0.85,0.156,1.599,0.161,2.348
	c0.026,9.598,0.036,19.196,0.062,28.794c0.012,3.834,0.041,7.673,0.062,11.512c0.002,0.388-0.012,0.772,0.021,1.151
	C231.922,154.818,231.123,155.801,229.735,156.336z"/>
</svg>
