<?xml version="1.0" encoding="utf-8"?>
<!-- Generator: Adobe Illustrator 16.0.0, SVG Export Plug-In . SVG Version: 6.00 Build 0)  -->
<!DOCTYPE svg PUBLIC "-//W3C//DTD SVG 1.1//EN" "http://www.w3.org/Graphics/SVG/1.1/DTD/svg11.dtd">
<svg version="1.1" id="Calque_1" xmlns="http://www.w3.org/2000/svg" xmlns:xlink="http://www.w3.org/1999/xlink" x="0px" y="0px"
	 width="283px" height="283px" viewBox="0 0 283 283" enable-background="new 0 0 283 283" xml:space="preserve">
<path d="M-0.466-1.098V283H283V-1.098H-0.466z M228.902,100.437c-0.838,0.924-1.787,1.747-2.621,2.676
	c-1.414,1.565-2.76,3.194-4.168,4.768c-1.6,1.781-3.236,3.528-4.861,5.293c-0.451,0.491-0.908,0.983-1.379,1.467
	c-1.996,2.055-2.738,4.562-2.668,7.37c0.104,3.843,0.271,7.687,0.271,11.529c0.002,2.299,0.856,4.084,2.555,5.543
	c2.179,1.88,4.328,3.78,6.754,5.368c2.306,1.516,2.353,4.262,0.207,6.036c-0.657,0.548-1.424,0.978-2.164,1.409
	c-1.077,0.629-2.2,1.179-3.271,1.824c-2.395,1.446-4.489,3.19-6.059,5.596c-1.313,2.023-1.875,4.171-1.857,6.533
	c0.017,3.461,0.021,6.92,0.037,10.383c0.007,1.459-0.248,2.822-0.887,4.181c-0.479,1.021-0.801,2.197-0.846,3.319
	c-0.137,3.367-0.623,6.688-1.029,10.022c-0.057,0.478-0.041,0.964,0.008,1.441c0.515,5.181,0.229,10.376,0.261,15.563
	c0.047,8.075-0.017,16.147-0.021,24.228c0,0.573,0.098,1.151,0.062,1.729c-0.091,1.588,0.54,2.793,1.831,3.684
	c0.232,0.162,0.496,0.324,0.66,0.55c1.892,2.599,4.601,3.978,7.465,5.157c0.794,0.324,1.554,0.763,2.269,1.238
	c1.556,1.031,2.293,2.438,2.173,4.396c-0.087,1.322-0.605,2.232-1.705,2.764c-1.289,0.623-2.636,1.145-3.986,1.604
	c-1.906,0.647-3.853,1.178-5.758,1.813c-0.722,0.235-1.414,0.586-2.076,0.965c-1.078,0.621-1.584,1.519-1.521,2.854
	c0.096,2.016-0.012,4.036-0.029,6.055c-0.016,0.859-0.01,1.729-0.733,2.814c-3.318,0.395-6.646,0.146-9.955,0.169
	c-3.242,0.021-6.483,0.001-9.729,0.019c-3.332,0.021-6.66-0.072-9.998,0.045c-3.229,0.113-6.469-0.031-9.885-0.064
	c-0.082-1.102-0.193-2.029-0.209-2.965c-0.029-2.021,0.047-4.038-0.02-6.055c-0.045-1.32,0.496-2.229,1.611-2.795
	c0.77-0.391,1.573-0.711,2.389-0.981c2.271-0.757,4.555-1.472,6.832-2.197c0.363-0.114,0.758-0.17,1.104-0.319
	c1.549-0.679,2.854-1.547,3.027-3.476c0.189-2.114-0.479-3.821-2.275-4.942c-1.217-0.757-2.516-1.422-3.85-1.938
	c-1.926-0.744-3.604-1.751-4.867-3.426c-0.396-0.525-0.943-0.959-1.479-1.354c-1.269-0.937-1.771-2.237-1.828-3.737
	c-0.062-1.632-0.041-3.27-0.037-4.904c0.014-10.963,0.189-21.926-0.021-32.883c-0.102-5.129,0.613-10.151,0.994-15.22
	c0.092-1.222,0.469-2.45,0.906-3.606c0.596-1.558,0.867-3.121,0.854-4.78c-0.024-3.458,0.068-6.916,0.021-10.375
	c-0.045-3.336,1.51-5.873,3.803-8.067c1.021-0.979,2.137-1.855,3.16-2.734c-0.273-0.783-0.805-0.701-1.256-0.696
	c-5.85,0.069-11.691,0.171-17.541,0.233c-6.896,0.072-13.793,0.127-20.689,0.174c-8.344,0.058-16.688,0.088-25.032,0.152
	c-2.871,0.021-5.741,0.096-8.609,0.197c-0.653,0.023-1.43,0.105-1.925,0.469c-1.532,1.119-3.098,2.196-4.227,3.827
	c-1.711,2.472-2.438,5.116-2.304,8.117c0.138,2.978,0.099,5.962,0.007,8.942c-0.041,1.324-0.146,2.756-0.672,3.938
	c-0.764,1.725-1.02,3.497-1.222,5.305c-0.339,3.053-0.739,6.106-0.881,9.172c-0.136,2.873,0.06,5.767,0.063,8.65
	c0.019,10.672,0.019,21.346,0.021,32.02c0.001,0.675-0.028,1.351,0.013,2.021c0.096,1.497,0.559,2.818,1.854,3.726
	c0.312,0.221,0.675,0.437,0.875,0.74c1.684,2.543,4.258,3.74,6.938,4.883c1.301,0.553,2.467,1.459,3.604,2.317
	c0.69,0.522,1.076,1.315,1.113,2.25c0.109,2.876,0.188,3.271-2.498,4.499c-1.474,0.674-3.05,1.123-4.593,1.63
	c-1.455,0.478-2.938,0.88-4.396,1.353c-0.543,0.178-1.08,0.412-1.569,0.707c-1.228,0.73-1.992,1.732-1.944,3.277
	c0.055,1.922,0.006,3.846,0.002,5.77c-0.002,0.855,0,1.718,0,2.715c-0.66,0.115-1.19,0.281-1.728,0.291
	c-1.912,0.033-3.824,0.009-5.733,0.013c-1.623,0.005-3.246,0.035-4.869,0.026c-3.256-0.021-6.51-0.096-9.763-0.077
	c-2.774,0.015-5.548,0.166-8.32,0.174c-2.959,0.009-5.919-0.073-8.877-0.138c-0.268-0.006-0.526-0.184-0.981-0.348
	c-0.07-2.641-0.164-5.312-0.208-7.985c-0.032-1.972,0.932-3.263,2.803-3.886c1.637-0.545,3.26-1.123,4.896-1.664
	c1.547-0.512,3.148-0.879,4.646-1.508c3.144-1.315,3.82-5.096,1.376-7.516c-0.601-0.596-1.356-1.066-2.113-1.457
	c-1.363-0.695-2.769-1.322-4.185-1.913c-1.091-0.454-1.95-1.165-2.731-2.03c-0.703-0.778-1.436-1.549-2.25-2.203
	c-1.068-0.854-1.521-1.916-1.522-3.252c-0.003-2.02-0.08-4.034-0.075-6.056c0.03-10.769,0.077-21.538,0.117-32.308
	c0.001-0.191,0.024-0.395-0.013-0.575c-0.696-3.368,0.014-6.664,0.488-9.974c0.095-0.665,0.126-1.346,0.115-2.016
	c-0.033-2.244,0.351-4.377,1.291-6.443c0.383-0.836,0.497-1.854,0.513-2.787c0.049-3.46,0.062-6.924-0.021-10.383
	c-0.104-4.361,1.605-7.826,4.985-10.478c1.201-0.94,2.522-1.733,3.82-2.545c1.385-0.86,2.863-1.579,4.2-2.506
	c2.59-1.795,2.248-5.34-0.054-6.791c-2.26-1.427-4.258-3.266-6.366-4.922c-1.766-1.391-2.71-3.124-2.689-5.456
	c0.037-4.134-0.024-8.271-0.144-12.403c-0.075-2.681,0.829-4.96,2.727-6.733c3.591-3.357,6.42-7.383,9.825-10.896
	c1.203-1.242,2.406-2.485,3.555-3.779c2.138-2.403,2.779-5.157,1.959-8.302c-0.51-1.946-0.9-3.93-1.215-5.917
	c-0.297-1.874-0.959-3.382-2.531-4.623c-3.404-2.685-6.221-5.98-9.029-9.276c-1.893-2.22-2.496-4.71-1.938-7.498
	c0.489-2.447,0.983-4.904,1.674-7.296c0.697-2.428,1.127-4.859,1.06-7.384c-0.022-0.862,0.006-1.732,0.094-2.59
	c0.331-3.236,2.069-5.723,4.313-7.911c0.893-0.869,1.906-1.613,2.801-2.485c0.889-0.867,1.688-1.824,2.533-2.735
	c2.115-2.285,2.441-5.091,2.389-8.037c-0.02-1.091-0.453-1.835-1.365-2.345c-1.09-0.608-2.216-1.155-3.271-1.815
	c-2.438-1.525-4.905-3.015-7.236-4.693c-1.546-1.11-2.973-2.448-3.54-4.416c0.25-0.612,0.795-0.403,1.226-0.406
	c7.195-0.052,14.394-0.088,21.591-0.116c4.895-0.021,9.785-0.026,14.681-0.024c0.757,0,1.513,0.071,1.997,0.097
	c1.488,1.721,2.637,3.424,4.146,4.695c1.895,1.596,4.06,2.881,6.16,4.217c1.289,0.821,2.647,1.556,4.03,2.217
	c1.744,0.833,2.163,2.14,2.038,3.999c-0.25,3.699-2.025,6.521-4.633,8.943c-1.057,0.979-2.176,1.889-3.236,2.861
	c-1.285,1.176-2.314,2.539-3.104,4.113c-0.702,1.399-1.161,2.823-1.153,4.406c0.021,3.779-0.619,7.449-1.711,11.067
	c-0.58,1.924-0.997,3.911-1.295,5.902c-0.366,2.443,0.021,4.781,1.639,6.786c2.896,3.598,5.911,7.084,9.578,9.92
	c1.393,1.077,2.104,2.358,2.266,4.124c0.174,1.902,0.641,3.781,0.951,5.676c0.174,1.04,0.367,2.085,0.42,3.136
	c0.074,1.571-0.262,3.069-1.266,4.337c-1.016,1.275-1.973,2.614-3.118,3.765c-1.969,1.974-3.79,4.055-5.534,6.231
	c-1.613,2.014-3.537,3.773-5.229,5.728c-0.934,1.076-1.727,2.289-2.479,3.503c-0.516,0.828-0.742,1.773-0.252,2.72
	c0.102,0.066,0.176,0.13,0.258,0.175c0.082,0.043,0.177,0.102,0.263,0.1c24.262-0.223,48.53,0.04,72.794-0.604
	c0.179-0.005,0.354-0.133,0.704-0.272c0.716-3.731,3.793-5.921,6.175-8.626c0.886-1.006,1.912-1.917,2.646-3.025
	c1.23-1.866,2.812-3.386,4.357-4.957c1.145-1.162,2.281-2.336,3.361-3.557c1.988-2.243,2.615-4.821,1.897-7.77
	c-0.592-2.425-1.077-4.876-1.521-7.334c-0.215-1.199-0.694-2.162-1.62-2.946c-1.246-1.059-2.447-2.161-3.666-3.245
	c-2.603-2.312-4.671-5.085-6.834-7.776c-0.75-0.935-0.979-2.049-1.111-3.216c-0.308-2.737,0.336-5.35,0.998-7.958
	c0.354-1.395,0.824-2.758,1.144-4.156c0.469-2.066,0.846-4.152,0.75-6.285c-0.188-4.249,1.457-7.605,4.69-10.332
	c2.271-1.912,4.431-3.94,6.022-6.537c1.293-2.11,1.341-4.349,1.293-6.656c-0.018-0.854-0.553-1.429-1.229-1.831
	c-1.157-0.683-2.354-1.301-3.516-1.969c-2.994-1.719-5.979-3.446-8.484-5.882c-1.188-1.159-2.063-2.47-2.7-4.224
	c3.438-0.51,6.756-0.358,10.062-0.436c3.252-0.071,6.51-0.089,9.766-0.104c3.359-0.021,6.72-0.008,10.074-0.009
	c3.258-0.001,6.517,0,9.599,0c0.317,0.262,0.526,0.353,0.602,0.506c1.619,3.43,4.238,5.891,7.455,7.781
	c1.736,1.02,3.475,2.04,5.209,3.068c1.063,0.632,2.127,1.274,3.162,1.898c0.963,4.441-0.396,8.059-3.39,11.131
	c-1.34,1.372-2.817,2.605-4.221,3.916c-2.717,2.551-4.233,5.64-4.156,9.432c0.063,3.203-0.541,6.3-1.397,9.369
	c-0.521,1.846-1.062,3.696-1.4,5.578c-0.557,3.069,0.027,5.854,2.111,8.348c2.902,3.475,5.979,6.76,9.508,9.598
	c0.883,0.709,1.379,1.504,1.498,2.649c0.271,2.578,0.664,5.13,1.396,7.641C232.107,95.171,231.112,98,228.902,100.437z"/>
</svg>
