<?xml version="1.0" encoding="utf-8"?>
<!-- Generator: Adobe Illustrator 16.0.0, SVG Export Plug-In . SVG Version: 6.00 Build 0)  -->
<!DOCTYPE svg PUBLIC "-//W3C//DTD SVG 1.1//EN" "http://www.w3.org/Graphics/SVG/1.1/DTD/svg11.dtd">
<svg version="1.1" id="Calque_1" xmlns="http://www.w3.org/2000/svg" xmlns:xlink="http://www.w3.org/1999/xlink" x="0px" y="0px"
	 width="283px" height="283px" viewBox="0 0 283 283" enable-background="new 0 0 283 283" xml:space="preserve">
<g>
	<path d="M-0.466-1.098V283H283V-1.098H-0.466z M254.861,219.631c-1.799,0.987-3.723,1.502-5.756,1.67
		c-1.525,0.127-3.064,0.209-4.57,0.477c-2.346,0.414-2.557,0.729-2.494,3.002c0.062,2.496,0.168,4.99,0.225,7.484
		c0.021,1.039-0.046,2.078-0.072,3.237c-0.93,0.127-1.668,0.294-2.409,0.318c-8.343,0.276-16.685,0.52-25.021,0.803
		c-2.014,0.067-4.018,0.3-6.025,0.388c-1.229,0.051-2.479,0.286-3.778-0.211c-0.125-0.758-0.321-1.502-0.354-2.251
		c-0.146-3.457-0.271-6.913-0.354-10.375c-0.034-1.499,0.244-1.854,1.729-2.147c1.312-0.258,2.652-0.416,3.983-0.516
		c2.72-0.205,5.283-0.861,7.677-2.203c1.163-0.649,2.018-1.396,1.926-2.906c-0.033-0.618,0.285-1.264,0.426-1.814
		c-0.662-0.861-1.514-1.016-2.342-1.259c-3.121-0.916-6.236-1.858-9.346-2.826c-0.726-0.226-1.47-0.499-2.095-0.912
		c-4-2.646-8.498-3.946-13.116-4.879c-6.854-1.387-13.722-2.712-20.591-4.028c-8.276-1.586-16.554-3.166-24.731-5.209
		c-2.043-0.513-4.062-1.139-6.066-1.779c-3-0.967-6.847-3.174-8.859-5.074c0.066-1.648,0.016-3.48,0.238-5.277
		c0.576-4.664,1.266-9.314,1.934-13.97c0.148-1.034,0.363-2.062,0.605-3.078c0.951-4.021,1.342-8.114,1.887-12.366
		c-0.754-0.199-1.357-0.474-1.975-0.513c-4.312-0.274-8.562-0.969-12.821-1.612c-2.555-0.389-5.146-0.555-7.716-0.824
		c-2.479-0.264-4.951-0.537-7.43-0.801c-2.854-0.31-5.712-0.606-8.564-0.916c-1.903-0.205-3.806-0.418-5.707-0.639
		c-5.713-0.664-11.421-1.35-17.134-1.992c-2.278-0.259-4.565-0.435-7.024-0.658c-0.241,0.734-0.588,1.422-0.681,2.144
		c-0.471,3.614-0.854,7.245-1.31,10.86c-0.18,1.428-0.278,2.899-0.721,4.246c-1.177,3.588-1.521,7.319-2.098,11.01
		c-0.562,3.602-0.959,7.229-1.43,10.843c-0.049,0.381-0.107,0.761-0.143,1.144c-0.178,2.014,0.6,3.272,2.431,4.396
		c4.672,2.864,9.847,4.237,15.044,5.479c6.43,1.53,12.928,2.774,19.414,4.045c7.432,1.459,14.893,2.758,22.314,4.246
		c2.811,0.562,5.571,1.405,8.319,2.244c1.358,0.414,2.717,0.975,3.938,1.7c3.756,2.235,7.877,3.437,12.042,4.567
		c1.36,0.369,2.827,0.525,4.105,1.568c-0.105,0.803-0.239,1.619-0.319,2.443c-0.077,0.847-0.551,1.371-1.229,1.826
		c-2.532,1.716-5.354,2.484-8.375,2.711c-1.432,0.107-2.854,0.318-4.274,0.54c-0.449,0.067-0.875,0.317-1.394,0.517
		c-0.434,2.262-0.047,4.447,0.031,6.633c0.125,3.45,0.246,6.901,0.377,10.536c-6.348,0.847-12.558,0.659-18.735,1.017
		c-6.118,0.354-12.237,0.401-18.302,0.723c-0.726-0.984-0.719-1.959-0.755-2.9c-0.133-3.459-0.232-6.918-0.356-10.378
		c-0.039-1.057-0.104-2.108-0.176-3.157c-0.168-2.512-0.127-2.61,2.264-3.029c1.226-0.215,2.471-0.333,3.711-0.428
		c2.832-0.213,5.437-1.111,7.858-2.557c0.485-0.288,0.894-0.704,1.271-1.01c0.188-1.133,0.354-2.15,0.555-3.348
		c-0.479-0.771-1.413-0.974-2.332-1.246c-2.938-0.881-5.891-1.729-8.791-2.729c-1.436-0.491-2.762-1.306-4.146-1.942
		c-1.562-0.729-3.096-1.541-4.714-2.108c-4.907-1.705-10.021-2.577-15.105-3.556c-11.2-2.148-22.406-4.274-33.574-6.58
		c-3.839-0.795-7.636-1.924-11.329-3.242c-2.315-0.827-4.404-2.294-6.597-3.475c-0.655-0.355-0.865-0.939-0.974-1.651
		c-0.31-2.038,0.146-4.026,0.376-6.015c0.438-3.814,1.025-7.609,1.604-11.408c0.243-1.607,0.628-3.195,0.924-4.797
		c0.473-2.549,1.098-5.084,1.344-7.653c0.457-4.78,1.177-9.513,1.912-14.245c0.932-5.981,1.553-11.984,1.747-18.036
		c0.068-2.109,0.31-4.208,0.47-6.313c0.319-4.204,0.655-8.411,0.96-12.615c0.22-3.062,0.396-6.122,0.597-9.184
		c0.287-4.403,0.355-8.831,1.163-13.176c0.789-4.235,1.491-8.499,3.104-12.543c0.497-1.241,0.841-2.555,1.138-3.863
		c1.074-4.722,3.06-9.079,5.312-13.315c1.846-3.467,3.586-6.999,5.971-10.156c1.037-1.375,2.035-2.781,3.113-4.258
		c2.972,0.054,5.884,0.551,8.812,0.895c2.854,0.333,5.721,0.563,8.582,0.856c2.953,0.305,5.907,0.604,8.854,0.961
		c2.814,0.34,5.669,0.411,8.669,0.963c-1.406,2.451-2.679,4.589-3.879,6.766c-1.388,2.516-2.808,5.022-4.036,7.618
		c-0.979,2.07-1.802,4.237-2.508,6.417c-1.24,3.821-2.393,7.677-3.477,11.548c-1.22,4.341-2.047,8.761-2.331,13.277
		c-0.351,5.548-0.757,11.092-1.15,16.639c-0.129,1.816-0.305,3.623-0.434,5.439c-0.032,0.458,0.042,0.924,0.071,1.525
		c1.241,0.136,2.364,0.262,3.486,0.379c1.049,0.11,2.1,0.25,3.149,0.314c7.271,0.438,14.542,0.849,21.812,1.291
		c5.738,0.351,11.478,0.709,17.211,1.111c5.547,0.39,11.101,0.732,16.627,1.315c2.099,0.22,4.166,0.462,6.351,0.396
		c0.155-0.375,0.399-0.709,0.428-1.059c0.43-5.746,0.816-11.497,1.249-17.242c0.366-4.882,0.588-9.787,1.235-14.633
		c0.547-4.08,1.465-8.125,2.817-12.047c0.599-1.72,1.104-3.472,1.58-5.229c1.154-4.279,2.7-8.39,4.906-12.242
		c0.949-1.656,1.816-3.362,2.74-5.074c1.265,0,2.416-0.089,3.554,0.016c10.757,0.981,21.511,1.993,32.497,3.022
		c-0.418,0.972-0.691,1.777-1.094,2.516c-1.924,3.546-3.312,7.305-4.494,11.15c-0.787,2.568-1.609,5.126-2.34,7.71
		c-1.492,5.275-2.578,10.624-2.918,16.116c-0.354,5.754-0.811,11.504-1.223,17.256c-0.273,3.825-0.568,7.652-0.832,11.479
		c-0.123,1.82-0.18,3.647-0.271,5.47c-0.229,4.508-0.312,9.03-0.729,13.521c-0.379,4.102-1.135,8.169-1.687,12.255
		c-0.385,2.851-0.683,5.715-1.062,8.566c-0.213,1.612-0.338,3.269-0.799,4.813c-1.188,3.987-1.406,8.131-2.102,12.194
		c-0.369,2.176-0.631,4.371-0.877,6.564c-0.148,1.333-0.162,2.682-0.271,4.021c-0.099,1.195,0.418,2.069,1.406,2.635
		c2.409,1.369,4.732,2.912,7.413,3.759c5.026,1.581,10.117,2.897,15.3,3.897c9.778,1.884,19.512,4.009,29.297,5.855
		c4.901,0.924,9.807,1.768,14.493,3.521c0.716,0.267,1.479,0.478,2.111,0.881c4.028,2.568,8.521,3.882,13.082,5.07
		c1.271,0.33,2.655,0.504,3.771,1.619c-0.104,0.403-0.373,0.867-0.312,1.286C257.639,217.904,256.35,218.812,254.861,219.631z"/>
</g>
</svg>
