<?xml version="1.0" encoding="utf-8"?>
<!-- Generator: Adobe Illustrator 16.0.0, SVG Export Plug-In . SVG Version: 6.00 Build 0)  -->
<!DOCTYPE svg PUBLIC "-//W3C//DTD SVG 1.1//EN" "http://www.w3.org/Graphics/SVG/1.1/DTD/svg11.dtd">
<svg version="1.1" id="Calque_1" xmlns="http://www.w3.org/2000/svg" xmlns:xlink="http://www.w3.org/1999/xlink" x="0px" y="0px"
	 width="283px" height="283px" viewBox="0 0 283 283" enable-background="new 0 0 283 283" xml:space="preserve">
<path d="M-0.466-1.098V283H283V-1.098H-0.466z M233.508,73.102c-1.061,0.641-2.174,1.248-3.342,1.632
	c-2.637,0.868-5.344,1.524-7.979,2.389c-2.908,0.958-5.795,1.989-8.643,3.121c-1.938,0.773-3.396,2.149-4.172,4.366
	c0.104,0.294,0.326,0.72,0.418,1.173c0.27,1.379,0.914,2.486,2.074,3.31c0.844,0.594,1.228,1.502,1.256,2.494
	c0.054,1.906,0.018,3.818,0.018,5.641c-1.209,0.897-2.313,1.636-3.316,2.496c-1.372,1.181-2.045,2.711-2.163,4.551
	c-0.117,1.816-0.398,3.624-0.65,5.433c-0.223,1.59,0.216,2.876,1.664,3.65c1.091,0.581,2.213,1.129,3.375,1.538
	c2.894,1.015,5.837,1.886,8.718,2.931c1.062,0.384,2.024,1.054,2.989,1.663c0.513,0.322,0.771,0.895,0.613,1.509
	c-1.203,4.727-0.695,9.557-0.858,14.344c-0.097,2.779,0.045,5.571,0.045,8.359c0,0.669-0.045,1.356-0.213,2.001
	c-0.938,3.58-0.9,7.242-0.802,10.885c0.049,1.816-0.349,3.322-1.396,4.835c-1.319,1.919-1.84,4.203-1.985,6.526
	c-0.084,1.339,0.004,2.691-0.033,4.029c-0.056,1.92-0.099,3.838-0.241,5.748c-0.144,1.888,0.075,3.612,1.348,5.14
	c0.731,0.879,1.315,1.858,1.303,3.114c-0.02,1.264-0.396,2.191-1.526,2.871c-1.767,1.057-3.726,1.502-5.679,1.961
	c-2.607,0.61-5.242,1.119-7.854,1.729c-0.83,0.195-1.658,0.505-2.404,0.908c-0.361,0.194-0.678,0.698-0.773,1.116
	c-0.154,0.646,0.352,1.066,0.875,1.337c0.508,0.258,1.055,0.458,1.604,0.614c1.938,0.562,2.729,2.006,2.914,3.861
	c0.104,1.051,0.133,2.113,0.098,3.172c-0.115,3.49,0.479,6.864,1.254,10.26c0.785,3.468,0.955,6.988-0.494,10.445
	c-0.824,1.963-0.846,4.004-0.334,6.193c0.561,2.398,0.594,4.943,0.66,7.427c0.121,4.521,0.107,9.041,0.135,13.562
	c0.016,2.781,0.012,5.572-0.016,8.356c-0.014,0.752-0.137,1.5-0.23,2.543c-13.359,0-26.396,0-39.445,0
	c-0.797-1.19-0.616-2.465-0.629-3.688c-0.026-4.229,0.029-8.457-0.045-12.682c-0.078-4.517-0.264-9.031-0.414-13.545
	c-0.016-0.478-0.022-0.98-0.178-1.421c-0.928-2.687-0.643-5.287,0.416-7.862c0.107-0.266,0.256-0.545,0.258-0.818
	c0.049-3.149,0.773-6.301-0.25-9.439c-0.627-1.917-0.891-3.914-0.918-5.955c-0.024-2.111-0.246-4.22-0.379-6.33
	c-0.133-2.129-1.072-3.645-3.188-4.312c-0.543-0.173-1.082-0.396-1.568-0.685c-0.689-0.418-0.684-1.571,0.033-1.934
	c0.766-0.384,1.576-0.719,2.402-0.917c2.608-0.614,5.233-1.172,7.856-1.726c1.886-0.396,3.744-0.867,5.443-1.795
	c2.043-1.11,2.504-2.316,1.704-4.53c-0.258-0.71-0.614-1.438-1.112-1.987c-1.229-1.343-1.521-2.962-1.188-4.581
	c0.627-3.054,0.375-6.124,0.535-9.188c0.082-1.61,0.256-3.221,0.394-4.844c-0.871-0.631-1.854-0.408-2.787-0.414
	c-9.31-0.031-18.615-0.031-27.927-0.082c-3.646-0.021-7.284-0.18-10.928-0.192c-5.352-0.024-10.701,0.034-16.051,0.026
	c-4.875-0.004-9.751-0.028-14.625-0.08c-0.99-0.01-1.7,0.306-1.966,1.293c-0.247,0.916-0.562,1.847-0.61,2.779
	c-0.104,2.014-0.013,4.036-0.084,6.057c-0.054,1.527-0.163,3.064-0.381,4.58c-0.231,1.606-0.007,3.056,0.969,4.367
	c0.401,0.539,0.821,1.078,1.13,1.672c0.898,1.729,0.945,3.771-1.271,4.873c-1.736,0.863-3.544,1.434-5.429,1.828
	c-2.72,0.567-5.439,1.135-8.143,1.774c-0.823,0.196-1.629,0.571-2.372,0.987c-0.871,0.492-0.875,1.619-0.038,2.121
	c0.571,0.343,1.191,0.617,1.818,0.842c1.831,0.648,2.799,1.925,2.927,3.857c0.106,1.631,0.335,3.26,0.303,4.889
	c-0.049,2.627,0.381,5.168,1.036,7.681c1.021,3.907,0.9,7.75-0.462,11.556c-0.663,1.855-0.65,3.75-0.28,5.674
	c0.196,1.021,0.302,2.063,0.397,3.105c0.055,0.571-0.037,1.158,0.025,1.73c0.104,0.951,0.396,1.895,0.4,2.844
	c0.044,7.875,0.041,15.758,0.044,23.639c0,0.174-0.116,0.348-0.251,0.719c-0.539,0.074-1.174,0.236-1.811,0.242
	c-10.84,0.053-21.681,0.086-32.521,0.133c-1.434,0.004-2.864,0.071-4.299,0.059c-0.447-0.006-0.894-0.186-1.471-0.312
	c-0.044-2.59-0.114-5.08-0.124-7.572c-0.021-5.191,0.021-10.379-0.023-15.57c-0.012-1.434-0.249-2.859-0.356-4.293
	c-0.035-0.471,0.04-0.945,0.01-1.417c-0.069-1.043,0.048-2.169-0.309-3.111c-0.847-2.248-0.441-4.397,0.369-6.45
	c0.587-1.48,0.811-2.942,0.83-4.49c0.036-2.692-0.002-5.344-0.884-7.969c-0.797-2.377-0.774-4.926-0.823-7.428
	c-0.021-1.058-0.002-2.117-0.064-3.173c-0.136-2.202-1.073-3.847-3.271-4.589c-0.54-0.184-1.086-0.379-1.587-0.646
	c-0.738-0.397-0.79-1.481-0.047-1.9c0.742-0.416,1.548-0.786,2.371-0.979c2.61-0.612,5.239-1.147,7.864-1.692
	c1.883-0.396,3.728-0.887,5.43-1.818c1.947-1.064,2.57-2.752,1.736-4.826c-0.178-0.439-0.4-0.9-0.727-1.236
	c-1.48-1.535-1.559-3.403-1.462-5.379c0.147-2.97,0.067-5.951,0.335-8.908c0.266-2.943,0.484-5.965,2.604-8.36
	c0.688-0.781,0.652-1.774,0.681-2.738c0.063-2.399,0.11-4.8,0.195-7.198c0.023-0.766,0.023-1.566,0.253-2.279
	c0.685-2.15,0.677-4.359,0.687-6.569c0.021-3.75-0.014-7.502,0.043-11.252c0.052-3.361,0.17-6.72,1.002-10.054
	c-0.881-1.686-2.51-2.32-4.141-2.83c-3.476-1.084-6.981-2.064-10.48-3.066c-1.586-0.452-3.064-1.067-4.323-2.186
	c-0.719-0.635-0.982-1.356-0.854-2.298c0.297-2.188,0.57-4.381,0.812-6.576c0.101-0.914,0.444-1.661,1.144-2.243
	c1.251-1.044,2.412-2.233,4.024-2.727c1.688-0.522,2.125-1.796,2.084-3.364c-0.038-1.44-0.117-2.881-0.164-4.321
	c-0.028-0.845-0.515-1.392-1.072-1.956c-0.661-0.667-1.614-1.397-1.708-2.187c-0.106-0.903-0.953-1.607-0.481-2.72
	c0.626-1.472,1.328-2.848,2.743-3.57c2.63-1.344,5.043-3.093,8.013-3.817c1.83-0.445,3.568-1.388,5.254-2.285
	c1.998-1.069,2.336-2.08,1.688-4.284c-0.865-2.945-1.794-5.876-2.659-8.828c-0.944-3.225-1.896-6.451-2.754-9.698
	c-0.458-1.737-0.729-3.528-1.112-5.442c3.907-1.595,7.143-4.28,11.22-5.278c1.203-0.294,2.447-0.747,2.586-2.555
	c-0.176-0.23-0.419-0.634-0.747-0.95c-0.338-0.327-0.757-0.571-1.267-0.941c0.785-1.371,1.734-2.297,3.309-2.868
	c3.709-1.353,7.537-2.128,11.376-2.938c1.357-0.286,2.095,0.115,2.841,1.244c1.265,1.913,2.891,3.565,3.962,5.643
	c0.416,0.806,1.28,1.399,2,2.023c1.809,1.565,3.755,2.946,5.301,4.835c1.14,1.39,1.89,2.892,2.225,4.595
	c0.743,3.772,1.733,7.472,2.888,11.134c1.009,3.204,1.977,6.419,2.936,9.637c0.723,2.425,0.288,3.629-2.02,4.638
	c-2.451,1.073-4.98,1.987-7.531,2.793c-2.499,0.79-4.64,2.269-6.979,3.353c-0.509,0.236-0.927,0.683-1.362,1.06
	c-0.985,0.856-1.782,2.11-1.601,3.225c0.215,1.298,0.291,2.937,1.646,3.803c1.482,0.942,1.899,2.28,1.814,3.946
	c-0.08,1.532-0.018,3.071-0.018,4.719c-0.56,0.371-1.093,0.751-1.647,1.092c-0.732,0.448-1.506,0.834-2.227,1.305
	c-1.977,1.291-3.082,3.013-3.067,5.501c0.01,1.713-0.325,3.436-0.592,5.14c-0.204,1.33,0.305,2.169,1.409,2.864
	c1.316,0.832,2.714,1.392,4.199,1.816c3.13,0.897,6.244,1.851,9.358,2.808c0.728,0.225,1.476,0.47,2.123,0.857
	c1.979,1.187,2.247,1.43,1.714,3.655c-0.331,1.38-0.258,2.862-0.312,4.299c-0.032,0.85,0.037,1.702,0.064,2.682
	c0.566,0.097,1.016,0.229,1.464,0.235c8.825,0.133,17.651,0.286,26.478,0.361c14.775,0.125,29.557,0.201,44.332,0.283
	c0.557,0.004,1.109-0.157,1.762-0.26c0.604-1.619,0.42-3.268,0.479-4.866c0.046-1.255-0.008-2.487,0.527-3.673
	c0.368-0.813,0.104-1.547-0.652-1.985c-1.068-0.621-2.146-1.299-3.303-1.7c-2.982-1.034-6.007-1.975-9.037-2.867
	c-1.588-0.472-3.06-1.109-4.367-2.126c-0.734-0.57-1.133-1.284-1.012-2.24c0.244-1.901,0.575-3.797,0.707-5.705
	c0.188-2.805,1.842-4.527,4.041-5.899c0.643-0.397,1.321-0.731,2.104-1.163c0-2.235,0.045-4.436-0.031-6.628
	c-0.021-0.521-0.312-1.207-0.713-1.504c-1.616-1.204-2.4-2.867-2.947-4.837c0.826-2.085,2.344-3.55,4.479-4.467
	c2.99-1.286,5.979-2.554,9.146-3.391c2.213-0.585,4.364-1.413,6.532-2.169c0.63-0.221,1.257-0.499,1.812-0.858
	c1.16-0.75,1.66-1.831,1.347-3.221c-0.086-0.373-0.207-0.739-0.318-1.107c-1.741-5.783-3.493-11.569-5.229-17.356
	c-0.271-0.917-0.502-1.855-0.691-2.791c-0.413-2.051-1.424-3.782-2.934-5.173c-1.336-1.232-2.762-2.373-4.227-3.446
	c-1.787-1.313-3.591-2.573-4.793-4.506c-0.302-0.482-0.748-0.872-1.107-1.321c-1.375-1.721-2.807-3.401-4.09-5.188
	c-1.129-1.572-2.271-3.069-3.92-4.157c-1.199-0.789-2.271-1.769-2.709-3.213c0.235-0.762,0.922-0.646,1.428-0.725
	c0.852-0.125,1.723-0.095,2.582-0.151c8.229-0.548,16.455-1.114,24.684-1.644c3.152-0.204,6.312-0.321,9.703-0.489
	c0.422,0.577,0.961,1.232,1.408,1.943c1.242,1.961,2.594,3.781,4.623,5.047c0.781,0.484,1.484,1.243,1.973,2.032
	c2.188,3.548,5.154,6.452,7.867,9.549c1.049,1.197,2.578,1.968,3.891,2.937c1.229,0.914,2.481,1.799,3.684,2.751
	c2.345,1.861,3.64,4.27,4.357,7.224c1.135,4.662,2.67,9.226,4.037,13.83c0.604,2.025,1.188,4.051,1.836,6.057
	C234.725,71.705,234.402,72.559,233.508,73.102z"/>
</svg>
