<?xml version="1.0" encoding="utf-8"?>
<!-- Generator: Adobe Illustrator 16.0.0, SVG Export Plug-In . SVG Version: 6.00 Build 0)  -->
<!DOCTYPE svg PUBLIC "-//W3C//DTD SVG 1.1//EN" "http://www.w3.org/Graphics/SVG/1.1/DTD/svg11.dtd">
<svg version="1.1" id="Calque_1" xmlns="http://www.w3.org/2000/svg" xmlns:xlink="http://www.w3.org/1999/xlink" x="0px" y="0px"
	 width="283px" height="283px" viewBox="0 0 283 283" enable-background="new 0 0 283 283" xml:space="preserve">
<g>
	<path d="M-0.466-1.098V283H283V-1.098H-0.466z M231.271,217.029c-12.769,0.662-25.188,1.309-37.946,1.968
		c0.062-1.354,0.166-2.47,0.152-3.582c-0.055-4.123,0.068-8.263-0.272-12.363c-0.582-6.899-4.396-11.866-9.998-15.647
		c-3.813-2.575-7.504-5.316-10.634-8.756c-4.713-5.18-7.459-11.006-6.938-18.229c0.281-3.904,0.049-7.843,0.049-11.98
		c-23.129,0-46.053,0-69.257,0c-0.092,1.496-0.24,2.787-0.238,4.078c0.008,3.92,0.061,7.832,0.116,11.756
		c0.084,5.767,3.161,10.133,6.729,14.236c2.725,3.135,5.965,5.659,9.388,7.994c1.975,1.346,3.795,2.934,5.599,4.512
		c3.94,3.443,5.39,8.036,5.679,13.072c0.208,3.631,0.409,7.275,0.317,10.911c-0.047,1.877-0.685,3.75-1.158,5.601
		c-0.384,1.504-1.437,2.025-3.007,2.06c-5.94,0.146-11.878,0.427-17.816,0.653c-5.175,0.199-10.347,0.407-15.521,0.604
		c-0.853,0.028-1.703,0.005-2.765,0.005c0.74-2.208,1.729-4.118,1.991-6.125c0.933-7.184,0.862-14.363-1.608-21.283
		c-1.096-3.062-3.403-5.307-5.931-7.281c-3.477-2.717-7.187-5.176-10.396-8.172c-4.295-4.013-8.103-8.527-8.976-14.681
		c-0.308-2.171-0.275-4.399-0.281-6.601c-0.014-4.229,0.125-8.452,0.078-12.678c-0.064-5.855,2.265-10.636,6.408-14.583
		c2.915-2.778,5.998-5.377,8.915-8.153c1.658-1.581,3.222-3.285,4.677-5.061c3.453-4.208,3.369-9.165,2.898-14.229
		c-0.466-5.024-3.276-8.729-6.52-12.187c-3.41-3.636-7.148-6.978-10.394-10.753c-5.609-6.527-9.42-14.187-12.952-21.978
		c-0.269-0.587-0.334-1.264-0.562-2.173c12.566,0,24.947,0,37.307,0c1.618,3.301,3.146,6.369,4.637,9.458
		c4.17,8.659,9.711,16.254,16.938,22.629c3.305,2.915,6.616,6.034,8.118,10.295c1.941,5.515,2.746,11.171-0.245,16.697
		c-0.214,0.396-0.324,0.846-0.555,1.46c1.544,0,2.854,0.062,4.157-0.014c8.895-0.506,17.79-1.019,26.683-1.571
		c10.998-0.689,21.993-1.418,32.989-2.117c1.716-0.11,3.438-0.137,5.153-0.226c2.408-0.125,2.72-0.469,2.906-2.931
		c0.633-8.119-2.076-14.792-8.197-20.232c-4.362-3.881-8.637-7.912-11.959-12.798c-4.209-6.195-7.896-12.673-10.805-19.973
		c12.695,0,25.104,0,37.555,0c1.334,2.672,2.664,5.197,3.871,7.778c4.545,9.718,10.94,17.992,19.06,24.989
		c1.654,1.427,3.027,3.205,4.43,4.903c0.787,0.956,1.521,2.018,2.018,3.145c2.83,6.456,3.316,15.641-2.618,21.448
		c-3.226,3.15-6.746,5.993-9.94,9.164c-2.304,2.278-4.353,4.825-6.401,7.348c-1.629,2.004-2.293,4.468-2.354,6.989
		c-0.166,6.702-0.209,13.411-0.263,20.117c-0.033,4.913,2.453,8.791,5.362,12.423c2.836,3.535,6.204,6.499,10.021,8.978
		c1.844,1.193,3.525,2.65,5.254,4.02c3.186,2.527,5.275,5.706,6.207,9.744C231.711,205.284,231.478,210.898,231.271,217.029z"/>
</g>
</svg>
