<?xml version="1.0" encoding="utf-8"?>
<!-- Generator: Adobe Illustrator 16.0.0, SVG Export Plug-In . SVG Version: 6.00 Build 0)  -->
<!DOCTYPE svg PUBLIC "-//W3C//DTD SVG 1.1//EN" "http://www.w3.org/Graphics/SVG/1.1/DTD/svg11.dtd">
<svg version="1.1" id="Calque_1" xmlns="http://www.w3.org/2000/svg" xmlns:xlink="http://www.w3.org/1999/xlink" x="0px" y="0px"
	 width="283px" height="283px" viewBox="0 0 283 283" enable-background="new 0 0 283 283" xml:space="preserve">
<g>
	<path d="M189.104,109.542c-2.198-1.866-4.585-3.437-7.433-4.209c-6.133-1.663-12.407-2.513-18.716-2.824
		c-7.561-0.373-15.129-0.714-22.708-0.545c-3.065,0.067-6.135,0.02-9.202,0.02c-5.082,0-10.164-0.017-15.245,0.007
		c-0.806,0.005-1.688-0.131-2.635,0.609c0.52,0.263,0.812,0.449,1.13,0.565c2.066,0.758,4.148,1.476,6.204,2.264
		c0.797,0.308,1.573,0.707,2.292,1.17c1.285,0.829,2.525,1.731,3.773,2.619c0.546,0.389,1.108,0.771,1.586,1.235
		c1.549,1.51,1.59,2.426,0.193,4.607c-2.398,0-4.887,0-7.376-0.001c-2.494,0-4.987-0.001-7.481-0.001s-4.99-0.059-7.481,0.016
		c-2.456,0.075-4.946-0.344-7.47,0.307c-0.256,2.982,0.261,5.815,0.592,8.645c0.074,0.64,0.761,1.311,1.327,1.762
		c0.662,0.527,1.494,0.85,2.267,1.229c1.374,0.677,2.807,1.252,4.126,2.021c0.89,0.519,1.874,1.151,2.37,1.994
		c0.672,1.139,1.531,1.289,2.631,1.266c3.445-0.075,6.893-0.152,10.339-0.192c7.765-0.089,15.528-0.222,23.293-0.198
		c2.981,0.008,5.931-0.174,8.872-0.562c1.615-0.212,3.21-0.571,4.533-1.631c1.039-0.835,1.133-1.715,0.256-2.693
		c-0.574-0.64-1.21-1.227-1.801-1.854c-0.504-0.534-0.635-1.172-0.391-1.866c0.189-0.542,0.342-1.111,0.624-1.605
		c0.871-1.518,1.381-3.138,1.617-4.864c0.063-0.462,0.3-0.898,0.543-1.593c0.97,0,1.733,0.002,2.495,0
		c7.385-0.004,14.77-0.064,22.154,0.022c1.894,0.022,3.346-0.688,4.673-1.827C190.536,112.168,190.589,110.802,189.104,109.542z"/>
	<path d="M0,0v283h283V0H0z M224.067,113.484c-0.42,0.521-0.909,0.986-1.474,1.593c-9.445,0-18.935,0-28.491,0
		c-0.231,0.664-0.453,1.178-0.593,1.713c-0.482,1.848-0.949,3.702-1.401,5.559c-0.504,2.071-0.286,2.666,1.442,3.897
		c0.859,0.611,1.775,1.146,2.612,1.787c0.603,0.462,1.144,1.014,1.663,1.572c0.526,0.567,0.488,1.234,0.095,1.857
		c-0.306,0.483-0.686,0.92-1.026,1.382c-0.567,0.764-1.234,1.478-1.673,2.311c-0.779,1.485-1.853,2.686-3.236,3.565
		c-2.02,1.284-4.114,2.45-6.163,3.692c-0.568,0.345-1.098,0.758-1.616,1.178c-0.121,0.097-0.123,0.342-0.202,0.588
		c1.348,1.301,3.712,0.877,4.821,2.611c-0.181,1.153-0.603,2.092-1.361,2.871c-1.135,1.167-1.098,2.357-0.1,3.593
		c0.239,0.295,0.448,0.632,0.596,0.982c0.518,1.23,0.703,2.409-0.608,3.325c-0.224,0.156-0.364,0.431-0.632,0.76
		c0.219,0.57,0.445,1.185,0.688,1.793c1.023,2.579,2.291,5.092,3.03,7.751c1.405,5.06,1.341,6.055,1.056,12.147
		c-1.02,1.184-2.127,2.264-2.987,3.515c-1.652,2.4-1.317,5.159,1.029,6.838c3.657,2.615,6.82,5.91,10.868,7.979
		c3.33,1.703,5.727,4.455,8.153,7.166c1.003,1.122,1.858,2.375,2.754,3.532c-0.095,0.173-0.122,0.281-0.189,0.327
		c-0.073,0.048-0.186,0.051-0.279,0.049c-2.11-0.01-4.222,0.003-6.331-0.042c-9.104-0.192-18.209-0.4-27.424-0.605
		c-0.611-0.837-1.321-1.634-1.832-2.542c-1.931-3.433-4.705-6-7.957-8.143c-2.636-1.736-5.193-3.594-7.809-5.363
		c-1.27-0.859-2.604-1.619-3.887-2.457c-2.943-1.925-3.403-5.264-1.086-7.859c0.315-0.353,0.679-0.688,1.08-0.934
		c1.315-0.808,1.694-1.935,1.454-3.433c-0.241-1.508-0.158-3.078-0.498-4.558c-0.771-3.354-2.665-6.083-5.075-8.505
		c-2.765-2.777-6.313-3.973-9.958-4.788c-3.639-0.814-7.349-1.254-11.124-1.158c-4.98,0.127-9.967-0.006-14.951,0.03
		c-5.268,0.039-10.536,0.14-15.804,0.231c-0.361,0.006-0.721,0.159-1.164,0.264c-0.329,1.167-0.343,2.305-0.371,3.446
		c-0.126,4.985,0.015,9.979-0.593,14.949c-0.16,1.306-0.465,2.358-1.493,3.261c-0.854,0.747-1.528,1.712-2.232,2.619
		c-0.606,0.781-0.853,1.695-0.832,2.696c0.036,1.796,0.501,3.239,2.081,4.443c3.654,2.787,7.16,5.771,10.686,8.723
		c2.328,1.95,3.498,4.327,3.97,7.857c-0.524,0.078-1.054,0.231-1.581,0.225c-6.331-0.087-12.662-0.196-18.993-0.301
		c-3.55-0.059-7.101-0.121-10.651-0.175c-0.953-0.014-1.906-0.002-2.949-0.002c-0.307-0.725-0.6-1.309-0.802-1.922
		c-0.832-2.511-2.065-4.736-4.27-6.321c-0.856-0.616-1.689-1.267-2.504-1.938c-1.554-1.276-3.081-2.585-4.63-3.867
		c-1.035-0.856-2.091-1.684-3.133-2.532c-2.204-1.793-2.647-4.483-1.043-6.883c1.018-1.52,2.258-2.859,4.031-3.861
		c0.354-3.58,0.204-7.213,0.252-10.835c0.047-3.539,0.011-7.078,0.011-10.581c0.356-0.294,0.554-0.517,0.8-0.651
		c2.037-1.104,3.391-2.773,4.157-4.946c0.509-1.442,1.606-2.324,2.874-3.087c1.228-0.739,2.396-1.576,3.572-2.399
		c0.934-0.655,1.352-1.6,1.34-2.728c-0.023-2.206-0.053-4.415-0.104-6.622c-0.008-0.376-0.045-0.794-0.212-1.119
		c-0.763-1.489-1.029-3.062-1.031-4.72c-0.001-1.14-0.624-2.015-1.574-2.598c-1.062-0.648-2.151-1.255-3.258-1.823
		c-1.278-0.656-2.597-1.235-3.882-1.877c-1.207-0.603-1.933-1.6-2.021-2.942c-0.162-2.467-0.246-4.939-0.372-7.599
		c0.852-0.077,1.585-0.2,2.318-0.203c8.255-0.019,16.508-0.019,24.763-0.024c0.577-0.001,1.153,0.022,1.729-0.006
		c1.305-0.064,2.002-0.663,1.979-1.922c-0.013-0.73-0.274-1.484-0.563-2.168c-0.176-0.415-0.568-0.79-0.952-1.056
		c-2.901-2.015-5.61-4.282-9.041-5.508c-4.883-1.746-9.88-3.062-14.863-4.442c-1.383-0.385-2.775-0.776-4.098-1.326
		c-1.473-0.612-1.811-1.553-1.069-3.002c0.407-0.798,0.71-1.56,0.682-2.445c-0.037-1.151,0.646-1.74,1.621-2.098
		c2.158-0.793,4.325-1.562,6.478-2.371c1.074-0.403,2.139-0.836,3.179-1.317c0.951-0.44,1.438-1.233,1.45-2.297
		c0.004-0.288,0.014-0.575,0.016-0.863c0.03-2.403-0.184-2.757-2.419-3.637c-1.157-0.456-2.353-0.815-3.519-1.249
		c-0.444-0.165-0.894-0.367-1.277-0.639c-0.679-0.481-0.607-1.781,0.089-2.243c0.16-0.106,0.321-0.235,0.5-0.281
		c4.252-1.089,8.351-2.804,12.865-2.766c16.601,0.146,33.204,0.18,49.805,0.355c10.24,0.107,20.478,0.397,30.944,0.61
		c-0.722,0.427-1.26,0.744-1.757,1.038c-0.133,0.71,0.346,0.892,0.768,1.093c0.346,0.164,0.699,0.337,1.07,0.418
		c5.791,1.267,11.503,2.914,17.418,3.587c1.521,0.174,3.037,0.444,4.537,0.755c1.99,0.414,3.857,1.108,5.38,2.557
		c0.817,0.779,1.729,1.461,2.739,2.302c-0.447,0.539-0.717,1.072-1.15,1.337c-0.644,0.393-1.387,0.653-2.116,0.871
		c-3.026,0.904-6.067,1.763-9.095,2.661c-0.613,0.182-1.194,0.467-1.916,0.753c0.416,1.504,2.339,2.701,0.391,4.148
		c1.798,1.965,3.919,2.6,6.066,2.998c4.708,0.875,9.449,1.563,14.168,2.388c5.854,1.022,11.692,2.126,17.258,4.32
		c2.378,0.938,4.189,2.657,5.987,4.357C225.126,111.119,225.024,112.303,224.067,113.484z"/>
</g>
</svg>
