<?xml version="1.0" encoding="utf-8"?>
<!-- Generator: Adobe Illustrator 16.0.0, SVG Export Plug-In . SVG Version: 6.00 Build 0)  -->
<!DOCTYPE svg PUBLIC "-//W3C//DTD SVG 1.1//EN" "http://www.w3.org/Graphics/SVG/1.1/DTD/svg11.dtd">
<svg version="1.1" id="Calque_1" xmlns="http://www.w3.org/2000/svg" xmlns:xlink="http://www.w3.org/1999/xlink" x="0px" y="0px"
	 width="283px" height="283px" viewBox="0 0 283 283" enable-background="new 0 0 283 283" xml:space="preserve">
<g>
	<path d="M0,0v283h283V0H0z M230.332,194.682c-6.907-0.126-13.813-0.276-20.721-0.415c-3.837-0.077-7.673-0.142-11.66-0.214
		c-1.5-1.907-2.736-4.044-3.812-6.249c-0.658-1.35-1.553-2.392-2.731-3.246c-0.312-0.225-0.628-0.443-0.959-0.636
		c-5.036-2.921-9.173-6.897-13.109-11.118c-1.238-1.327-2.438-2.732-3.863-3.829c-1.426-1.096-3.033-2.05-4.699-2.717
		c-5.548-2.22-11.29-2.622-17.218-1.817c-4.935,0.67-9.923,0.95-14.89,1.393c-3.057,0.271-6.115,0.522-9.172,0.787
		c-1.717,0.15-3.436,0.295-5.15,0.473c-0.949,0.097-1.892,0.254-2.98,0.404c-0.036,0.634-0.187,1.202-0.076,1.713
		c0.509,2.342,1.088,4.664,2.508,6.674c0.385,0.544,0.725,1.143,0.965,1.763c0.865,2.228,2.447,3.868,4.248,5.343
		c0.223,0.182,0.448,0.363,0.684,0.525c3.029,2.102,3.625,5.22,3.591,8.596c-0.001,0.176-0.129,0.35-0.258,0.678
		c-0.466,0.072-1.015,0.236-1.563,0.234c-9.886-0.042-19.771-0.1-29.655-0.166c-0.857-0.005-1.716-0.091-2.745-0.148
		c-0.269-1.389-0.56-2.764-0.799-4.148c-0.271-1.567-0.904-2.918-2.152-3.95c-0.369-0.305-0.661-0.716-1.056-0.974
		c-3.64-2.367-5.42-6.147-7.311-9.79c-1.477-2.849-1.755-6.054-2.046-9.207c-0.406-4.394-0.775-8.788-1.126-13.187
		c-0.115-1.433-0.161-2.874-0.17-4.312c-0.01-1.343-0.663-2.176-1.888-2.566c-1.369-0.437-2.759-0.805-4.139-1.208
		c-1.562-0.456-3.131-0.896-4.683-1.39c-0.541-0.171-1.137-0.379-1.528-0.756c-0.372-0.359-0.642-0.942-0.722-1.464
		c-0.103-0.685,0.532-1.033,1.064-1.178c1.849-0.499,3.733-0.863,5.58-1.367c1.751-0.476,3.479-1.043,5.203-1.61
		c0.771-0.253,1.419-0.752,1.393-1.636c-0.027-0.915-0.492-1.671-1.399-1.997c-1.261-0.453-2.548-0.836-3.819-1.258
		c-1.726-0.571-3.451-1.146-5.171-1.732c-2.234-0.761-3.396-2.387-3.731-4.668c-0.182-1.234-0.393-2.466-0.537-3.704
		c-0.392-3.394-1.757-6.199-4.525-8.349c-2.271-1.763-4.378-3.734-6.549-5.625c-1.957-1.704-3.444-3.807-5.425-6.213
		c3.871-0.434,7.201-0.82,10.534-1.178c5.911-0.635,11.834-1.163,17.73-1.902c3.895-0.487,7.749-1.281,11.626-1.911
		c2.271-0.369,4.556-0.639,6.819-1.04c3.396-0.6,6.778-1.284,10.17-1.918c6.879-1.287,13.777-2.415,20.741-3.188
		c5.727-0.637,11.443-1.217,17.207-0.899c4.404,0.243,8.792,0.677,13.124,1.562c2.933,0.599,5.717,1.601,8.33,3.039
		c2.095,1.154,4.11,2.451,6.189,3.639c2.247,1.281,4.575,2.429,6.774,3.786c2.113,1.303,4.213,2.671,6.129,4.241
		c2.887,2.363,6.122,4.298,8.689,7.051c0.521,0.559,1.023,1.138,1.564,1.68c1.443,1.441,2.08,3.218,2.014,5.205
		c-0.058,1.721-0.225,3.444-0.475,5.146c-0.575,3.942,0.25,4.85,3.686,6.427c1.042,0.479,2.167,0.771,3.224,1.22
		c0.678,0.29,1.301,0.712,2.014,1.109c-0.378,1.812-1.295,2.915-2.888,3.414c-1.826,0.573-3.667,1.101-5.507,1.628
		c-1.014,0.291-2.045,0.515-3.055,0.815c-0.954,0.286-1.62,0.884-2.137,1.781c-0.575,1.001-0.81,1.913-0.219,2.965
		c0.276,0.495,0.457,1.041,0.638,1.459c-0.331,1.224-1.315,1.492-2.139,1.951c-0.837,0.467-1.663,0.948-2.038,2.06
		c0.645,0.233,1.247,0.542,1.884,0.664c4.913,0.944,8.773,3.683,12.222,7.118c3.035,3.023,5.167,6.682,6.796,10.571
		c1.789,4.276,4.155,8.167,6.803,11.933c0.956,1.359,2.199,2.397,3.43,3.459c0.87,0.75,1.802,1.429,2.712,2.132
		c1.148,0.887,2.013,1.985,2.79,3.224c1.412,2.249,3.002,4.388,4.561,6.634C231.317,194.849,230.753,194.688,230.332,194.682z"/>
	<path d="M170.999,130.733c-1.139-0.488-2.272-0.997-3.379-1.557c-1.62-0.82-2.309-2.159-2.259-3.992
		c0.054-1.914,0.032-3.842-0.12-5.751c-0.209-2.63-1.443-4.761-3.668-6.206c-2.983-1.939-6.143-3.503-9.595-4.485
		c-6.661-1.895-13.46-1.948-20.269-1.517c-6.793,0.432-13.568,1.129-20.353,1.701c-2.197,0.185-4.396,0.335-6.594,0.516
		c-2.294,0.188-4.587,0.383-6.879,0.595c-0.35,0.032-0.689,0.169-1.155,0.29c0.29,1.292,1.296,1.799,2.066,2.416
		c2.215,1.775,3.434,4.065,3.867,6.828c0.297,1.891,0.629,3.775,0.92,5.665c0.222,1.44,0.993,2.517,2.253,3.155
		c1.362,0.691,2.771,1.314,4.21,1.82c1.441,0.509,2.961,0.797,4.421,1.257c0.813,0.257,1.643,0.568,2.35,1.031
		c1.102,0.72,0.985,2.193-0.17,2.808c-0.502,0.266-1.053,0.468-1.604,0.613c-2.221,0.584-4.454,1.121-6.675,1.707
		c-1.108,0.292-2.225,0.586-3.292,0.996c-0.952,0.365-1.185,1.652-0.489,2.386c0.259,0.272,0.577,0.537,0.921,0.673
		c3.307,1.311,6.641,2.421,10.296,2.257c8.05-0.36,16.103-0.626,24.154-0.943c4.121-0.163,8.242-0.319,12.357-0.55
		c2.924-0.161,5.665-0.833,7.895-2.971c0.586-0.561,1.477-0.862,2.277-1.125c1.91-0.625,3.854-1.149,5.78-1.729
		c2.276-0.686,4.039-2.027,5.332-4.061C172.984,131.426,171.955,131.142,170.999,130.733z"/>
</g>
</svg>
