<?xml version="1.0" encoding="utf-8"?>
<!-- Generator: Adobe Illustrator 16.0.0, SVG Export Plug-In . SVG Version: 6.00 Build 0)  -->
<!DOCTYPE svg PUBLIC "-//W3C//DTD SVG 1.1//EN" "http://www.w3.org/Graphics/SVG/1.1/DTD/svg11.dtd">
<svg version="1.1" id="Calque_1" xmlns="http://www.w3.org/2000/svg" xmlns:xlink="http://www.w3.org/1999/xlink" x="0px" y="0px"
	 width="283px" height="283px" viewBox="0 0 283 283" enable-background="new 0 0 283 283" xml:space="preserve">
<g>
	<path d="M158.385,97.318c1.986-0.305,3.964-0.755,5.762-1.713c0.663-0.354,1.317-0.79,1.84-1.323
		c0.743-0.758,0.909-1.752,0.276-2.635c-0.773-1.079-1.542-2.274-2.597-3.013c-1.634-1.143-3.467-2.024-5.287-2.865
		c-3.738-1.725-7.763-1.988-11.8-2.052c-6.036-0.094-12.074-0.147-18.109-0.199c-5.565-0.047-11.13-0.083-16.694-0.084
		c-1.027,0-2.12-0.211-3.253,0.588c-0.45,4.592-0.15,9.181,1.878,13.807c1.306,0.043,2.354,0.105,3.402,0.108
		c11.515,0.031,23.029,0.053,34.545,0.079C151.711,98.025,155.063,97.827,158.385,97.318z"/>
	<path d="M0,0v283h283V0H0z M219.482,229.28c-4.12,0.067-8.243,0.153-12.364,0.152c-4.979-0.003-9.958-0.095-14.936-0.123
		c-1.053-0.006-2.104,0.151-3.156,0.14c-0.69-0.009-1.302-0.272-1.529-1.058c-0.533-1.839-1.185-3.649-1.608-5.511
		c-0.51-2.24-0.824-4.523-1.246-6.783c-0.123-0.655-0.35-1.289-0.481-1.941c-0.167-0.826-0.667-1.336-1.387-1.719
		c-1.271-0.672-2.525-1.373-3.775-2.081c-2.608-1.477-5.438-2.354-8.314-3.123c-2.774-0.741-5.532-1.544-8.294-2.333
		c-0.459-0.131-0.895-0.341-1.352-0.482c-2.337-0.729-3.598-2.29-4.013-4.721c-0.469-2.731-0.984-5.477-1.769-8.131
		c-1.06-3.587-2.589-6.957-5.07-9.882c-1.739-2.049-3.818-3.44-6.258-4.401c-4.509-1.775-9.185-2.57-14.033-2.533
		c-8.823,0.069-17.647,0.059-26.472,0.08c-1.919,0.005-3.837-0.005-5.754,0.021c-0.556,0.007-1.108,0.114-1.812,0.194
		c-0.073,0.935-0.195,1.775-0.196,2.615c-0.012,6.138,0.004,12.275,0.004,18.413c0,1.437-0.01,2.874-0.04,4.311
		c-0.033,1.616,0.748,2.795,2.107,3.497c1.354,0.698,2.779,1.299,4.232,1.757c2.648,0.834,5.322,1.602,8.018,2.27
		c3.617,0.896,6.605,3.011,9.758,4.818c0.642,0.367,0.909,0.984,1.045,1.645c0.117,0.56,0.156,1.142,0.159,1.714
		c0.026,4.122,0.04,8.246,0.04,12.37c0,0.268-0.143,0.534-0.27,0.975c-3.687,0.385-7.408,0.15-11.116,0.226
		c-3.837,0.076-7.676,0.044-11.513,0.046c-3.727,0.001-7.457,0.095-11.072-0.076c-0.835-1.198-0.584-2.372-0.602-3.506
		c-0.058-3.542-0.157-7.086-0.146-10.629c0.007-1.645-0.739-2.594-2.098-3.443c-3.69-2.308-7.573-4.077-11.824-5.077
		c-2.325-0.547-4.604-1.31-6.884-2.032c-0.815-0.258-1.599-0.642-2.359-1.041c-1.562-0.819-2.364-2.024-2.333-3.911
		c0.082-4.985,0.013-9.973,0.01-14.959c-0.005-4.024-0.003-8.048-0.003-12.182c0.736-0.365,1.377-0.804,2.085-1.016
		c3.964-1.188,7.724-2.847,11.419-4.691c3.086-1.542,6.182-3.081,9.355-4.423c2.204-0.93,2.971-2.512,2.961-4.725
		c-0.018-4.029-0.011-8.058-0.011-12.086c0.003-8.248,0.027-16.497,0.001-24.745c-0.01-3.393-0.055-3.397-2.757-5.448
		c-1.299-0.984-2.61-1.952-3.926-2.913c-1.388-1.01-2.189-2.311-2.438-4.055c-0.607-4.263-1.336-8.514-2.564-12.649
		c-0.907-3.056-1.456-6.136-1.378-9.337c0.133-5.462,0.209-10.926,0.293-16.389C73.89,65.764,73.934,61.16,74,56.555
		c0.013-0.946,0.071-1.893,0.113-2.965c0.641-0.124,1.177-0.323,1.713-0.318c3.92,0.04,7.838,0.141,11.76,0.183
		c7.482,0.079,14.965,0.11,22.447,0.199c5.945,0.07,11.891,0.221,17.837,0.293c8.821,0.105,17.646,0.193,26.468,0.25
		c3.931,0.025,7.858,0.035,11.761,0.56c1.14,0.154,2.276,0.344,3.394,0.601c5.827,1.339,11.424,3.304,16.475,6.553
		c3.973,2.555,7.443,5.682,9.975,9.741c0.664,2.354,2.541,4.029,3.465,6.253c0.917,2.208,2.165,4.285,2.979,6.526
		c0.945,2.602,1.584,5.314,2.342,7.982c0.521,1.833,0.375,3.711-0.453,5.34c-1.649,3.245-0.858,6.342,0.128,9.486
		c0.883,2.814,2.816,4.709,5.319,6.128c2.495,1.415,4.963,2.877,7.376,4.278c0.938,3.685,1.437,7.324,1.139,10.932
		c-0.353,4.265-0.653,8.564-1.877,12.73c-0.952,3.235-2.236,6.312-3.718,9.326c-1.026,2.089-2.491,3.86-3.998,5.601
		c-0.626,0.722-1.338,1.369-2.011,2.048c-1.441,1.45-3.087,2.543-5.089,3.089c-3.976,1.081-7.946,2.171-12.039,2.742
		c-0.934,0.129-1.84,0.436-3.057,0.733c0.789,0.626,1.355,1.076,1.932,1.531c0.168,1.743-0.614,2.994-1.931,3.947
		c-0.617,0.446-1.344,0.74-1.986,1.158c-0.46,0.299-0.862,0.688-1.333,1.07c0.172,0.457,0.248,0.841,0.443,1.148
		c2.535,4.006,4.199,8.332,5.207,12.975c0.997,4.597,1.596,9.232,1.943,13.907c0.085,1.158,0.438,2.067,1.387,2.675
		c0.961,0.613,1.933,1.281,2.994,1.656c2.073,0.732,4.186,1.389,6.327,1.878c4.999,1.14,9.645,3.083,14.056,5.678
		c1.281,0.753,1.969,1.741,2.222,3.138c0.152,0.848,0.353,1.687,0.502,2.534c0.588,3.336,1.856,6.43,3.349,9.446
		c0.202,0.406,0.378,0.826,0.672,1.473C221.143,229.151,220.314,229.266,219.482,229.28z"/>
	<path d="M183.25,127.738c-0.34-2.745-0.971-5.456-2.493-7.89c-0.912-1.455-2.009-2.444-3.685-2.972
		c-4.656-1.468-9.336-2.829-14.135-3.743c-3.579-0.682-7.188-1.145-10.84-1.127c-6.132,0.028-12.262,0.071-18.392,0.102
		c-5.658,0.029-11.314,0.041-16.972,0.086c-0.613,0.005-1.348-0.229-1.883,0.611c1.892,1.878,4.3,3.12,6.266,5.062
		c0.04,2.919,0.11,5.888,0.113,8.856c0.007,8.245-0.043,16.49-0.015,24.734c0.011,3.362,0.08,3.388,3.373,3.389
		c10.737,0.003,21.477-0.044,32.215-0.003c2.977,0.012,5.931-0.12,8.888-0.45c2.896-0.323,5.696-1.043,8.189-2.501
		c3.448-2.013,6.25-4.688,7.686-8.595C183.425,138.238,183.904,133.03,183.25,127.738z"/>
</g>
</svg>
