<?xml version="1.0" encoding="utf-8"?>
<!-- Generator: Adobe Illustrator 16.0.0, SVG Export Plug-In . SVG Version: 6.00 Build 0)  -->
<!DOCTYPE svg PUBLIC "-//W3C//DTD SVG 1.1//EN" "http://www.w3.org/Graphics/SVG/1.1/DTD/svg11.dtd">
<svg version="1.1" id="Calque_1" xmlns="http://www.w3.org/2000/svg" xmlns:xlink="http://www.w3.org/1999/xlink" x="0px" y="0px"
	 width="283px" height="283px" viewBox="0 0 283 283" enable-background="new 0 0 283 283" xml:space="preserve">
<g>
	<path d="M175.27,94.002c-1.042-1.706-2.399-2.573-4.309-2.93c-5.86-1.095-11.767-1.691-17.725-1.676
		c-11.132,0.028-22.264,0.112-33.396,0.188c-1.409,0.01-2.831,0.023-4.19,0.422c0.204,1.366,0.495,2.565,0.539,3.773
		c0.082,2.204,0.069,4.415-0.002,6.62c-0.04,1.234-0.181,2.483-0.443,3.689c-0.919,4.23-1.339,8.482-0.997,12.815
		c0.182,2.292,0.212,4.599,0.254,6.899c0.026,1.455-0.101,2.945-1.108,4.078c-1.312,1.476-1.324,3.09-0.815,5.199
		c1.117,0.048,2.058,0.126,2.999,0.124c11.896-0.026,23.79-0.04,35.686-0.112c2.974-0.02,5.924-0.385,8.825-1.109
		c3.404-0.851,6.371-2.664,9.303-4.438c1.933-1.171,3.598-2.806,4.744-4.914c1.415-2.604,1.94-5.408,2.153-8.271
		c0.272-3.631,0.212-7.286,1.17-10.848c0.167-0.619,0.084-1.34-0.017-1.994C177.53,98.848,176.7,96.348,175.27,94.002z"/>
	<path d="M183.933,178.74c0.101,0.116,0.224,0.213,0.341,0.315c0.052-0.063,0.105-0.126,0.158-0.188
		c-0.121-0.109-0.24-0.219-0.361-0.327C184.022,178.609,183.919,178.725,183.933,178.74z"/>
	<path d="M166.555,137.937c-3.701-1.131-7.521-1.564-11.344-1.774c-4.211-0.231-8.44-0.135-12.661-0.195
		c-7.288-0.104-14.576-0.223-21.865-0.327c-1.43-0.02-2.859-0.002-4.289-0.002c-0.049,0.212-0.1,0.425-0.149,0.638
		c0.389,0.188,0.762,0.432,1.169,0.558c4.854,1.484,9.701,2.982,14.574,4.397c1.09,0.316,2.269,0.433,3.408,0.449
		c2.106,0.03,4.213-0.123,6.32-0.123c3.44,0.001,6.884,0.1,10.325,0.092c5.554-0.015,11.108-0.092,16.663-0.115
		c1.242-0.006,2.484,0.157,3.726,0.135c1.007-0.018,1.525-0.631,1.583-1.759c-1.049-0.534-2.131-0.812-3.258-1.019
		C169.345,138.633,167.926,138.355,166.555,137.937z"/>
	<path d="M0,0v283h283V0H0z M223.598,224.053c-11.206,0.297-22.409,0.812-33.507,0.679c-1.469-2.18-2.782-4.286-4.266-6.264
		c-0.731-0.974-1.711-1.805-2.699-2.534c-3.491-2.58-7.365-4.476-11.375-6.091c-2.143-0.861-4.168-1.91-6.107-3.165
		c-2.253-1.458-4.591-2.784-6.865-4.211c-2.191-1.374-4.309-2.868-6.53-4.19c-2.789-1.66-5.653-3.195-8.479-4.793
		c-0.242-0.137-0.45-0.336-0.67-0.505c-0.038-0.711,0.524-0.768,0.939-0.825c3.133-0.425,6.268-0.835,9.406-1.204
		c5.334-0.627,10.674-1.181,16-1.852c1.704-0.216,3.326-0.755,4.861-1.648c1.647-0.956,3.447-1.648,5.182-2.456
		c0.26-0.12,0.525-0.231,0.785-0.356c2.384-1.145,2.746-1.707,1.331-4.507c-0.253-0.498-0.691-0.916-1.092-1.324
		c-2.16-2.192-4.483-4.169-7.173-5.715c-1.649-0.947-3.173-2.11-4.795-3.111c-0.725-0.448-1.521-0.849-2.339-1.067
		c-3.61-0.965-7.235-1.774-11.005-1.998c-9.304-0.555-18.608-0.178-27.913-0.311c-3.358-0.049-6.717-0.018-10.075-0.003
		c-0.561,0.003-1.121,0.111-1.646,0.168c-0.401,1.348,0.487,2.293,0.722,3.389c0.354,1.657,1.232,2.903,2.41,4.128
		c1.314,1.366,2.306,3.053,3.375,4.641c0.74,1.096,0.679,2.367,0.548,3.618c-0.079,0.745-0.584,1.229-1.198,1.519
		c-2.019,0.949-3.707,2.334-5.406,3.754c-0.762,0.637-1.875,0.956-2.883,1.178c-2.152,0.471-4.341,0.766-6.508,1.174
		c-1.012,0.19-2.003,0.48-2.984,0.901c3.164,0.777,6.451,0.08,10.076,1.246c-1.732,0.117-2.961,0.185-4.188,0.287
		c-1.242,0.103-2.479,0.28-3.724,0.351c-1.341,0.074-2.686,0.057-4.03,0.089c-1.248,0.029-2.497,0.032-3.74,0.117
		c-1.329,0.089-2.652,0.258-4.143,0.409c-0.028,0.78-0.21,1.462-0.046,2.046c0.713,2.53,1.84,4.853,3.94,6.548
		c3.804,3.07,7.567,6.184,12.095,8.22c2.967,1.335,5.772,2.96,8.414,4.927c1.974,1.47,3.192,3.333,3.915,5.518
		c0.615,1.859,1.206,3.828,0.52,6.021c-10.822,0.25-21.547,0.5-32.271,0.735c-0.652,0.014-1.309-0.091-2.122-0.151
		c-0.07-0.959-0.194-1.795-0.181-2.63c0.03-1.972-0.586-3.788-1.353-5.543c-0.735-1.688-1.957-2.994-3.438-4.142
		c-2.834-2.194-5.99-3.785-9.208-5.277c-4.496-2.088-8.265-5.209-11.932-8.447c-1.847-1.63-2.701-3.924-3.297-6.271
		c-0.24-0.949,0.016-1.51,0.872-1.889c1.045-0.463,2.123-0.932,3.234-1.156c4.13-0.837,8.28-1.572,12.422-2.35
		c1.036-0.194,2.081-0.358,3.104-0.61c1.219-0.302,2.329-0.804,3.264-1.715c1.166-1.138,2.43-2.159,3.968-2.807
		c2.152-0.904,2.408-2.638,1.806-4.823c-0.174-0.632-0.485-1.293-0.916-1.775c-1.404-1.569-2.236-3.598-3.987-4.886
		c-0.295-0.217-0.568-0.564-0.683-0.909c-0.664-1.993-1.305-3.995-1.9-6.01c-0.63-2.135-0.072-3.94,1.541-5.49
		c1.184-1.135,2.418-2.162,3.854-2.979c3.501-1.988,6.964-4.042,10.435-6.082c0.661-0.388,1.303-0.813,1.929-1.258
		c2.33-1.65,2.858-3.976,2.343-6.617c-0.1-0.515-0.469-1.089-0.887-1.402c-0.679-0.507-1.464-0.934-2.27-1.194
		c-3.642-1.184-7.305-2.297-10.963-3.435c-1.555-0.483-3.139-0.885-4.658-1.461c-2.994-1.133-3.214-1.527-3.2-4.632
		c0.007-1.45,0.069-2.81,1.119-4.036c0.912-1.062,0.825-2.519,0.812-3.868c-0.032-3.452-0.039-6.907-0.139-10.358
		c-0.093-3.188,0.29-6.307,1.006-9.406c0.235-1.019,0.31-2.089,0.339-3.138c0.054-1.918-0.039-3.84,0.037-5.757
		c0.081-2.057-0.157-3.987-1.272-5.795c-0.435-0.706-0.694-1.614-0.742-2.447c-0.187-3.256-0.325-6.518-0.354-9.779
		c-0.041-4.735,1.004-9.314,2.182-13.87c0.478-1.849,0.794-3.737,1.173-5.61c0.11-0.548,0.184-1.104,0.326-1.979
		c3.159-0.056,6.031-0.144,8.904-0.149c12.757-0.023,25.514-0.03,38.271-0.03c6.808,0,13.614,0.035,20.421,0.039
		c6.327,0.002,12.656-0.104,18.982,0.014c2.859,0.053,5.714,0.508,8.566,0.822c1.141,0.127,2.269,0.361,3.4,0.557
		c4.078,0.705,7.563,2.756,10.831,5.104c2.123,1.526,3.442,3.793,4.062,6.409c0.309,1.302,0.69,2.594,1.155,3.848
		c0.404,1.09,0.883,2.11,0.406,3.316c-0.283,0.714,0.172,1.291,0.605,1.817c1.342,1.625,2.695,3.24,4.03,4.869
		c0.483,0.591,1.027,1.161,1.377,1.828c1.102,2.111,2.807,3.603,4.699,4.961c1.315,0.945,2.534,2.025,3.825,3.068
		c0.325,2.613,0.747,5.164,0.934,7.731c0.175,2.405-0.239,4.799-1.062,7.062c-0.437,1.197-0.607,2.392-0.77,3.631
		c-0.411,3.133-0.73,6.3-1.467,9.363c-0.527,2.2-1.258,4.436-2.712,6.294c-0.354,0.452-0.638,1.017-1.093,1.321
		c-2.068,1.383-3.098,3.63-4.631,5.451c-0.793,0.941-0.625,1.729,0.469,2.34c0.746,0.417,1.556,0.756,2.376,0.998
		c3.214,0.949,6.457,1.809,9.664,2.779c2.29,0.692,4.547,1.492,6.807,2.279c0.935,0.325,1.725,0.853,1.918,1.993
		c-0.3,1.037-1.156,1.699-1.901,2.425c-1.164,1.133-2.377,2.216-3.574,3.312c-0.213,0.193-0.441,0.376-0.685,0.525
		c-7.893,4.812-16.085,8.916-25.253,10.734c-0.639,0.126-1.247,0.412-2.108,0.705c0.944,0.826,1.903,0.803,2.766,1.05
		c2.389,0.687,4.77,1.396,7.146,2.122c3.645,1.115,6.266,3.648,8.637,6.445c1.184,1.397,2.443,2.684,3.755,3.952
		c1.577,1.524,3.065,3.175,4.359,4.94c0.63,0.86,0.73,2.107,0.996,2.947c-0.518,1.273-1.363,1.691-2.262,2.078
		c-1.855,0.798-3.605,1.768-5.109,3.148c-0.887,0.813-2.051,1.049-3.172,1.248c-2.547,0.451-5.117,0.766-7.666,1.201
		c-3.306,0.563-6.613,1.131-9.891,1.827c-1.166,0.247-2.475,0.442-3.295,1.638c0.108,1.1,0.742,1.939,1.345,2.797
		c1.955,2.785,4.458,5,7.235,6.924c2.049,1.418,4.047,2.92,6.176,4.206c1.877,1.135,3.851,2.151,5.876,2.992
		c3.735,1.55,7.294,3.435,10.617,5.7c1.717,1.172,3.138,2.791,4.634,4.269c0.998,0.988,1.891,2.083,2.833,3.132
		C223.873,223.853,223.737,224.05,223.598,224.053z"/>
</g>
</svg>
