<?xml version="1.0" encoding="utf-8"?>
<!-- Generator: Adobe Illustrator 16.0.0, SVG Export Plug-In . SVG Version: 6.00 Build 0)  -->
<!DOCTYPE svg PUBLIC "-//W3C//DTD SVG 1.1//EN" "http://www.w3.org/Graphics/SVG/1.1/DTD/svg11.dtd">
<svg version="1.1" id="Calque_1" xmlns="http://www.w3.org/2000/svg" xmlns:xlink="http://www.w3.org/1999/xlink" x="0px" y="0px"
	 width="283px" height="283px" viewBox="0 0 283 283" enable-background="new 0 0 283 283" xml:space="preserve">
<g>
	<path d="M165.046,135.582c-1.542-2.067-3.058-4.155-4.505-6.287c-0.557-0.821-1.164-1.467-2.076-1.894
		c-2.551-1.191-5.207-1.936-8.021-2.009c-3.162-0.082-6.326-0.136-9.49-0.131c-10.553,0.015-21.104,0.058-31.657,0.104
		c-0.936,0.004-1.917-0.216-2.804,0.359c-0.573,0.862-0.387,1.848-0.476,2.785c-0.192,2.001-0.146,4.064-0.654,5.981
		c-0.722,2.729-1.177,5.419-0.798,8.227c0.05,0.378,0.008,0.768,0.008,1.151c0.007,3.638-0.005,7.274,0.033,10.912
		c0.009,0.935-0.221,1.931,0.552,2.941c0.719,0.034,1.568,0.109,2.418,0.109c10.837,0.003,21.675-0.023,32.512,0.005
		c2.973,0.008,5.93,0.074,8.875-0.49c2.737-0.525,5.442-1.191,7.941-2.408c1.529-0.745,3.079-1.671,4.259-2.869
		c3.854-3.909,5.344-8.732,4.921-14.179C166.012,136.982,165.575,136.291,165.046,135.582z"/>
	<path d="M180.394,75.174c-1.095-0.346-2.188-0.711-3.306-0.961c-2.055-0.462-4.132-0.823-6.189-1.275
		c-0.646-0.142-0.904-0.625-0.638-1.438c0.948-0.204,1.968-0.439,2.994-0.639c1.222-0.238,2.46-0.407,3.671-0.689
		c0.308-0.071,0.777-0.479,0.759-0.697c-0.035-0.412-0.273-1.012-0.598-1.159c-0.949-0.433-1.962-0.819-2.988-0.975
		c-3.221-0.485-6.45-0.931-9.689-1.252c-3.182-0.313-6.287-0.886-9.635-1.959c3.87-1.015,7.614-0.47,11.743-1.89
		c-1.082-0.317-1.512-0.524-1.953-0.558c-1.529-0.117-3.063-0.24-4.597-0.241c-10.459-0.011-20.919,0.005-31.378,0.022
		c-2.866,0.005-5.766-0.267-8.504,0.935c-0.257,0.113-0.561,0.126-0.846,0.163c-1.711,0.228-3.429,0.409-5.13,0.687
		c-1.226,0.199-2.443,0.48-3.637,0.822c-0.278,0.079-0.603,0.545-0.62,0.848c-0.016,0.303,0.255,0.738,0.527,0.912
		c0.386,0.245,0.884,0.336,1.346,0.436c1.779,0.381,3.57,0.711,5.344,1.118c0.74,0.171,1.464,0.456,2.161,0.767
		c0.22,0.098,0.494,0.481,0.453,0.672c-0.07,0.324-0.315,0.672-0.589,0.874c-0.293,0.216-0.694,0.318-1.062,0.389
		c-1.225,0.232-2.461,0.399-3.682,0.643c-1.031,0.205-2.058,0.448-3.064,0.747c-0.205,0.062-0.465,0.456-0.439,0.666
		c0.04,0.33,0.227,0.803,0.482,0.916c0.691,0.308,1.449,0.477,2.189,0.665c1.577,0.4,3.169,0.757,4.741,1.174
		c1.206,0.32,1.774,0.818,1.593,1.312c-0.282,0.771-0.991,0.809-1.652,0.906c-2.465,0.364-4.933,0.707-7.394,1.092
		c-1.038,0.162-2.077,0.358-3.089,0.637c-0.304,0.084-0.67,0.461-0.738,0.764c-0.115,0.521,0.281,0.883,0.767,1.044
		c0.728,0.241,1.467,0.444,2.205,0.654c1.106,0.313,2.218,0.606,3.319,0.934c0.555,0.164,1.258,0.414,1.062,1.084
		c-0.128,0.435-0.748,0.776-1.214,1.043c-0.313,0.18-0.742,0.157-1.121,0.222c-1.889,0.32-3.782,0.613-5.666,0.968
		c-0.897,0.169-2.335-0.017-2.373,1.118c-0.042,1.301,1.433,1.252,2.419,1.439c2.26,0.43,4.533,0.788,6.79,1.223
		c0.834,0.161,1.759,0.308,2.041,1.321c0.157,0.567-0.562,1.04-1.945,1.325c-0.281,0.058-0.57,0.076-0.855,0.119
		c-2.369,0.359-4.736,0.72-7.105,1.075c-0.767,0.114-1.516,0.257-2.114,1.131c0.341,0.351,0.642,0.907,1.085,1.066
		c1.076,0.386,2.217,0.586,3.334,0.858c0.838,0.204,1.684,0.384,2.514,0.614c0.557,0.155,1.17,0.375,1.209,1.049
		c0.043,0.721-0.564,0.924-1.146,1.034c-1.13,0.213-2.262,0.41-3.396,0.598c-1.985,0.325-3.975,0.618-5.954,0.973
		c-0.637,0.113-1.457,0.215-1.431,1.107c0.023,0.817,0.808,1.006,1.429,1.223c0.903,0.315,1.831,0.562,2.75,0.831
		c1.013,0.296,2.061,0.499,3.031,0.895c1.364,0.557,2.746,0.739,4.211,0.739c11.898,0.004,23.796,0.075,35.696,0.053
		c2.097-0.004,4.195-0.32,6.288-0.535c0.996-0.103,1.803-0.526,2.286-1.505c0.885-1.79,2.493-2.554,4.363-2.887
		c0.473-0.083,0.951-0.13,1.423-0.214c1.98-0.356,3.967-0.685,5.935-1.101c0.735-0.155,1.455-0.466,2.128-0.812
		c0.687-0.353,0.604-1.26-0.152-1.565c-1.241-0.503-2.537-0.872-3.763-1.405c-0.326-0.142-0.482-0.675-0.789-1.14
		c0.715-0.316,1.211-0.651,1.75-0.751c1.506-0.279,3.033-0.439,4.548-0.688c1.699-0.277,3.397-0.57,5.083-0.917
		c0.586-0.121,1.036-0.537,1.117-1.181c0.093-0.733-0.479-0.988-1.015-1.195c-0.444-0.17-0.918-0.27-1.387-0.359
		c-2.067-0.395-4.142-0.761-6.205-1.174c-0.553-0.111-1.089-0.334-1.611-0.554c-0.137-0.058-0.302-0.312-0.276-0.44
		c0.049-0.251,0.166-0.59,0.358-0.689c0.413-0.213,0.884-0.343,1.345-0.424c2.265-0.394,4.539-0.739,6.801-1.154
		c0.549-0.101,1.087-0.354,1.581-0.625c0.499-0.272,0.525-1.233,0.029-1.471c-0.769-0.366-1.576-0.671-2.394-0.909
		c-1.471-0.429-2.976-0.744-4.432-1.214c-0.32-0.104-0.498-0.654-0.865-1.174c0.677-0.221,1.102-0.42,1.547-0.492
		c2.172-0.35,4.352-0.647,6.524-0.999c1.229-0.198,2.454-0.421,3.659-0.727c0.294-0.075,0.627-0.482,0.71-0.798
		C181.244,75.727,180.896,75.333,180.394,75.174z"/>
	<path d="M0,0v283h283V0H0z M210.139,50.621c0.929,0.478,1.936,0.806,2.904,1.211c0.881,0.368,1.78,0.704,2.615,1.16
		c0.355,0.195,0.568,0.657,0.964,1.143c-1.218,0.671-2.316,0.855-3.437,1.042c-2.173,0.363-4.336,0.783-6.495,1.22
		c-0.226,0.046-0.558,0.351-0.562,0.541c-0.007,0.339,0.099,0.839,0.337,0.991c0.551,0.354,1.188,0.629,1.828,0.776
		c1.212,0.28,2.456,0.419,3.676,0.673c1.5,0.313,2.945,0.766,3.962,1.866c-0.049,0.856-0.619,0.847-1.044,0.92
		c-2.169,0.378-4.349,0.702-6.519,1.075c-1.227,0.211-2.453,0.438-3.653,0.756c-0.26,0.068-0.503,0.534-0.577,0.857
		c-0.045,0.2,0.185,0.607,0.389,0.693c0.695,0.297,1.418,0.567,2.156,0.714c2.161,0.428,4.338,0.771,6.499,1.193
		c1.018,0.198,2.063,0.417,2.777,1.608c-0.471,0.326-0.872,0.782-1.355,0.904c-1.299,0.326-2.636,0.495-3.952,0.756
		c-0.938,0.188-1.882,0.372-2.789,0.663c-0.297,0.095-0.657,0.509-0.681,0.802c-0.021,0.281,0.288,0.747,0.565,0.864
		c0.7,0.293,1.46,0.451,2.203,0.636c1.673,0.414,3.36,0.781,5.022,1.232c0.71,0.193,1.376,0.55,2.013,0.813
		c-0.036,0.849-0.457,1.167-1.085,1.261c-2.749,0.408-5.503,0.783-8.246,1.219c-1.131,0.181-2.25,0.456-3.355,0.758
		c-0.192,0.053-0.387,0.453-0.4,0.701c-0.012,0.248,0.137,0.652,0.328,0.738c0.693,0.312,1.432,0.535,2.161,0.767
		c1.275,0.405,2.57,0.759,3.833,1.204c0.401,0.143,0.723,0.506,1.069,0.76c-0.44,1.092-1.286,1.249-2.148,1.393
		c-2.176,0.359-4.35,0.721-6.521,1.096c-0.47,0.08-0.987,0.125-1.377,0.359c-0.353,0.212-0.562,0.66-0.819,0.985
		c0.687,0.896,1.546,1.007,2.389,1.164c2.071,0.384,4.148,0.756,6.214,1.169c0.733,0.148,1.554,0.257,1.773,1.189
		c0.157,0.671-0.472,1.228-1.805,1.446c-2.742,0.449-5.499,0.812-8.238,1.271c-0.637,0.105-1.255,0.408-1.839,0.705
		c-0.387,0.198-0.358,1.054,0.043,1.24c0.86,0.398,1.749,0.733,2.639,1.062c0.804,0.298,1.643,0.509,2.432,0.839
		c0.57,0.239,0.571,1.166-0.02,1.369c-1.164,0.403-2.358,0.762-3.568,0.994c-1.598,0.307-3.232,0.429-4.834,0.722
		c-1.028,0.188-2.057,0.464-3.027,0.846c-0.812,0.32-0.841,1.396-0.087,1.856c0.567,0.346,1.2,0.586,1.805,0.867
		c0.606,0.281,1.226,0.54,1.818,0.845c0.151,0.077,0.232,0.291,0.401,0.514c-0.146,1.037-0.724,1.876-1.518,2.607
		c-2.454,2.257-4.586,4.869-7.515,6.605c-0.89,0.528-1.632,1.323-2.382,2.057c-0.384,0.375-0.314,1.292,0.124,1.573
		c2.252,1.448,3.885,3.681,6.407,4.826c1.363,0.619,2.548,1.682,3.714,2.664c1.198,1.009,1.916,2.349,2.245,3.909
		c0.513,2.426,1.099,4.806,2.212,7.083c0.591,1.208,0.653,2.829,0.507,4.215c-0.57,5.421-2.458,10.388-5.447,14.966
		c-2.399,3.669-5.369,6.693-9.031,9.125c-2.32,1.54-4.57,3.154-7.18,4.19c-0.486,0.193-0.868,0.647-1.557,1.181
		c0.893,0.359,1.461,0.657,2.066,0.824c4.838,1.333,8.432,4.427,11.539,8.178c3.627,4.376,5.701,9.482,6.871,14.992
		c1.076,5.066,1.646,10.184,1.929,15.366c0.188,3.437,0.133,6.884,0.468,10.31c0.549,5.608,0.892,11.25,2.371,16.725
		c0.299,1.106,0.747,2.17,1.11,3.259c0.206,0.618,0.379,1.247,0.587,1.94c-2.054,1.609-4.935,1.005-6.805,2.637
		c0.357,1.216,1.148,1.515,2.039,1.632c1.616,0.214,3.234,0.4,4.854,0.589c0.541,0.063,1.086,0.099,1.605,0.523
		c-1.426,0.02-2.852,0.044-4.279,0.057c-7.002,0.062-14.004,0.148-21.007,0.161c-1.815,0.003-3.636-0.182-5.446-0.364
		c-3.24-0.328-6.475-0.723-9.711-1.087c-0.773-0.087-1.507-0.249-1.987-0.944c-0.111-0.604,0.253-0.913,0.728-1.055
		c1.009-0.301,2.052-0.496,3.053-0.822c0.978-0.319,2.104-0.389,2.888-1.576c-0.338-1.709-0.761-3.565-1.062-5.44
		c-0.396-2.451-0.781-4.91-1.017-7.38c-0.635-6.661-1.067-13.344-1.817-19.99c-0.494-4.376-1.371-8.703-3.156-12.798
		c-1.51-3.466-3.4-6.571-6.523-8.886c-2.225-1.648-4.728-2.604-7.312-3.221c-3.627-0.867-7.337-1.311-11.105-1.283
		c-9.789,0.068-19.576,0.033-29.365,0.047c-1.145,0.002-2.288,0.05-3.279,0.072c-1.036,0.855-0.831,1.888-0.848,2.803
		c-0.071,4.122-0.095,8.246-0.106,12.368c-0.026,8.729-0.04,17.458-0.044,26.186c-0.003,4.989,0.021,9.978,0.038,14.968
		c0.011,2.974-0.089,3.117-2.976,3.979c-0.918,0.273-1.854,0.494-2.752,0.821c-0.422,0.153-0.771,0.499-1.087,0.712
		c0.007,1.037,0.717,1.275,1.337,1.414c1.4,0.312,2.823,0.553,4.248,0.728c2.277,0.277,4.563,0.479,6.86,0.929
		c-0.546,0.053-1.093,0.146-1.641,0.152c-7.964,0.104-15.929,0.203-23.893,0.286c-0.957,0.01-1.921-0.032-2.873-0.131
		c-4.481-0.464-8.97-0.892-13.437-1.474c-1.669-0.217-3.473-0.141-4.902-1.238c-0.18-0.815,0.336-1.107,0.892-1.287
		c1.276-0.412,2.567-0.777,3.856-1.15c1.28-0.37,1.851-1.17,1.836-2.538c-0.046-4.316-0.021-8.632-0.017-12.947
		c0.008-10.266,0.013-20.531,0.029-30.797c0.017-10.742,0.044-21.486,0.072-32.229c0.017-6.333,0.04-12.666,0.063-18.999
		c0-0.479,0.057-0.962,0.019-1.438c-0.259-3.275-0.006-6.451,0.896-9.667c0.635-2.266,0.549-4.751,0.648-7.144
		c0.111-2.693,0.299-5.359,1.049-7.966c0.209-0.73,0.307-1.509,0.347-2.271c0.169-3.162,0.336-6.323,0.422-9.489
		c0.058-2.081-0.228-2.403-2.269-3.05c-1.187-0.375-2.398-0.674-3.592-1.031c-0.642-0.192-1.298-0.376-1.886-0.684
		c-0.27-0.141-0.48-0.552-0.542-0.873c-0.03-0.167,0.29-0.529,0.512-0.593c0.918-0.26,1.854-0.491,2.796-0.638
		c1.705-0.266,3.427-0.428,5.128-0.705c0.941-0.152,1.877-0.399,2.775-0.718c0.277-0.097,0.575-0.562,0.587-0.869
		c0.012-0.309-0.252-0.807-0.52-0.912c-0.973-0.384-1.989-0.67-3.005-0.938c-1.11-0.29-2.252-0.477-3.354-0.795
		c-0.406-0.119-0.742-0.485-1.729-1.166c1.394-0.42,2.092-0.713,2.819-0.834c2.458-0.41,4.931-0.73,7.387-1.146
		c0.642-0.109,1.274-0.38,1.856-0.685c0.52-0.271,0.569-1.176,0.082-1.485c-0.551-0.35-1.16-0.693-1.789-0.823
		c-2.157-0.448-4.338-0.78-6.501-1.198c-0.83-0.159-1.639-0.428-2.336-0.612c-0.322-0.994,0.212-1.298,0.777-1.411
		c1.408-0.285,2.836-0.477,4.254-0.714c1.134-0.189,2.272-0.363,3.397-0.598c0.458-0.096,0.908-0.294,1.322-0.518
		c0.656-0.354,0.688-1.33,0.032-1.647c-0.686-0.332-1.417-0.582-2.148-0.799c-1.378-0.411-2.772-0.76-4.153-1.161
		c-0.496-0.144-0.832-0.453-0.656-1.265c1.055-0.625,2.375-0.735,3.676-0.92c2.465-0.35,4.937-0.677,7.393-1.091
		c1.232-0.206,1.733-0.676,1.64-1.262c-0.131-0.812-0.809-1.031-1.448-1.193c-1.857-0.468-3.745-0.821-5.584-1.35
		c-0.739-0.212-2.005-0.089-1.951-1.253c0.045-0.942,1.177-0.848,1.869-1.001c1.682-0.372,3.393-0.618,5.092-0.913
		c0.779-0.133,1.519-0.337,1.776-1.213c0.187-0.634-0.419-1.313-1.692-1.62c-2.141-0.517-4.309-0.924-6.471-1.353
		c-0.673-0.134-1.331-0.25-1.615-0.98c-0.189-0.491,0.398-0.967,1.655-1.186c2.36-0.407,4.734-0.729,7.096-1.132
		c0.938-0.16,1.878-0.374,2.778-0.681c0.845-0.288,0.941-1.331,0.143-1.794c-0.815-0.474-1.715-0.818-2.608-1.13
		c-0.902-0.315-1.876-0.441-2.747-0.815c-0.319-0.138-0.562-0.739-0.593-1.147c-0.017-0.222,0.457-0.632,0.767-0.697
		c2.061-0.44,4.138-0.807,6.206-1.209c0.751-0.148,1.498-0.315,2.238-0.508c0.572-0.148,1.111-0.403,1.213-1.07
		c0.121-0.785-0.381-1.25-0.979-1.606c-0.494-0.294-1.021-0.53-1.53-0.799c-0.529-0.279-1.018-0.624-0.857-1.316
		c0.149-0.658,0.742-0.851,1.308-0.948c1.512-0.261,3.034-0.459,4.547-0.709c1.512-0.248,3.029-0.487,4.523-0.818
		c0.553-0.123,1.042-0.518,1.106-1.186c0.067-0.711-0.119-1.351-0.727-1.767c-0.308-0.211-0.69-0.321-1.051-0.448
		c-0.814-0.285-1.662-0.494-2.441-0.853c-0.387-0.179-0.831-0.575-0.929-0.955c-0.171-0.665,0.429-1.023,0.954-1.253
		c0.789-0.347,1.629-0.574,2.424-0.913c1.093-0.465,1.469-1.077,1.375-2.245c-0.065-0.831-0.215-1.654-0.349-2.627
		c0.954-0.07,1.706-0.18,2.456-0.173c10.557,0.11,21.11,0.243,31.666,0.358c10.365,0.114,20.729,0.182,31.092,0.336
		c8.441,0.124,16.884,0.287,25.322,0.548c4.326,0.135,8.593,0.792,12.661,2.384c0.509,0.199,0.979,0.5,1.665,0.856
		c-0.699,0.633-1.226,1.108-1.711,1.548c0.332,1.01,1.107,1.258,1.832,1.418c1.961,0.437,3.933,0.838,5.918,1.136
		c2.084,0.313,4.188,0.469,6.279,0.732c1.594,0.202,2.852,0.937,3.764,2.578c-3.369,1.312-6.931,1.009-10.089,2.121
		C209.196,49.899,209.648,50.369,210.139,50.621z"/>
</g>
</svg>
