<?xml version="1.0" encoding="utf-8"?>
<!-- Generator: Adobe Illustrator 16.0.0, SVG Export Plug-In . SVG Version: 6.00 Build 0)  -->
<!DOCTYPE svg PUBLIC "-//W3C//DTD SVG 1.1//EN" "http://www.w3.org/Graphics/SVG/1.1/DTD/svg11.dtd">
<svg version="1.1" id="Calque_1" xmlns="http://www.w3.org/2000/svg" xmlns:xlink="http://www.w3.org/1999/xlink" x="0px" y="0px"
	 width="283px" height="283px" viewBox="0 0 283 283" enable-background="new 0 0 283 283" xml:space="preserve">
<g>
	<path d="M164.048,145.825c-2.228-1.916-7.9-4.292-10.928-4.674c-3.804-0.481-7.616-0.634-11.449-0.561
		c-3.351,0.064-6.703,0.006-10.056,0.018c-5.938,0.02-11.875,0.05-17.812,0.078c-0.755,0.003-1.55-0.139-2.22,0.633
		c-0.352,1.402-0.132,2.936-0.171,4.454c-0.031,1.267-0.235,2.452-1.125,3.457c-1.383,1.564-1.651,3.372-1.028,5.476
		c0.64,0.085,1.286,0.236,1.936,0.244c3.35,0.043,6.701,0.105,10.05,0.058c9.182-0.13,18.369,0.406,27.547-0.334
		c3.388-0.273,6.587-0.965,9.565-2.682c1.649-0.949,3.414-1.712,5.168-2.458C166.096,148.44,166.223,147.695,164.048,145.825z"/>
	<path d="M162.062,107.909c-10.062,0.032-20.125,0.211-30.188,0.214c-4.794,0.003-9.58-0.083-14.314,0.829
		c-1.782,0.342-3.56,0.716-5.335,1.1c-0.896,0.193-1.262,0.86-1.219,1.703c0.066,1.328,0.038,2.688,0.794,3.998
		c0.52,0.081,1.075,0.237,1.632,0.244c1.916,0.025,3.833,0.007,5.749-0.011c8.813-0.081,17.627-0.146,26.439-0.263
		c3.157-0.041,6.325-0.07,9.467-0.353c3.652-0.327,7.14-1.283,10.197-3.497c1.152-0.834,2.488-1.413,3.729-2.125
		c0.466-0.268,0.903-0.586,1.623-1.058c-0.7-0.171-1.054-0.312-1.416-0.337C166.836,108.184,164.447,107.901,162.062,107.909z"/>
	<path d="M0,0v283h283V0H0z M222.336,84.276c-3.697,1.588-7.423,3.11-11.134,4.664c-0.794,0.333-1.628,0.611-2.351,1.062
		c-1.177,0.733-1.098,2.387,0.102,3.067c0.411,0.234,0.869,0.391,1.318,0.552c0.631,0.228,1.293,0.377,1.902,0.649
		c0.764,0.343,1.715,0.525,1.914,1.547c0.156,0.796-0.587,1.649-1.978,2.155c-1.167,0.424-2.383,0.715-3.578,1.06
		c-0.827,0.237-1.672,0.422-2.479,0.718c-0.433,0.158-0.844,0.454-1.186,0.772c-0.618,0.574-0.52,1.573,0.219,1.952
		c0.674,0.345,1.398,0.629,2.132,0.807c1.861,0.455,3.743,0.82,5.609,1.254c0.835,0.193,1.651,0.462,2.698,0.758
		c-0.25,0.514-0.368,0.957-0.638,1.27c-0.848,0.986-2.011,1.453-3.24,1.732c-1.868,0.422-3.742,0.822-5.623,1.174
		c-2.024,0.379-3.382,1.407-4.349,3.318c-2.256,4.453-5.569,7.985-9.961,10.458c-0.749,0.421-1.419,0.979-2.153,1.428
		c-1.221,0.74-2.469,1.433-3.694,2.162c-0.542,0.323-1.061,0.686-1.854,1.202c0.57,0.328,0.85,0.535,1.161,0.66
		c1.246,0.494,2.547,0.87,3.745,1.455c6.826,3.33,11.077,8.928,13.782,15.85c0.139,0.354,0.197,0.741,0.272,1.117
		c0.144,0.721-0.015,1.345-0.673,1.747c-3.276,1.999-4.267,5.503-5.727,8.694c-0.198,0.433-0.266,0.922-0.409,1.379
		c-0.634,2.004-1.813,3.511-3.719,4.526c-2.713,1.445-5.467,2.757-8.435,3.59c-0.825,0.232-1.629,0.533-2.583,0.85
		c0.358,1.795,0.358,1.795-0.293,3.573c0.431,1.229,1.647,1.588,2.665,1.928c2.566,0.855,4.432,2.589,6.276,4.421
		c1.325,1.316,2.203,2.893,2.851,4.608c0.372,0.982,0.627,2.009,0.948,3.012c0.718,2.243,0.208,3.728-1.555,5.358
		c-2.547,2.356-5.473,4.188-8.255,6.22c-0.619,0.451-1.224,0.92-1.773,1.334c-0.083,0.276-0.166,0.456-0.189,0.644
		c-0.496,3.979,1.622,6.613,4.735,8.471c2.12,1.265,4.471,2.215,6.817,3.011c2.197,0.744,3.74,2.319,5.339,3.766
		c0.835,0.756,1.368,2.155,1.5,3.324c0.598,5.312,2.087,10.311,4.698,14.976c0.085,0.152,0.076,0.357,0.12,0.591
		c-0.893,0.708-2.011,0.511-2.997,0.522c-9.961,0.119-19.925,0.166-29.886,0.225c-0.375,0.003-0.751-0.08-1.208-0.133
		c-1.123-1.722-1.533-3.694-2.035-5.619c-0.92-3.519-1.477-7.105-1.793-10.725c-0.088-1-0.402-1.847-0.959-2.656
		c-0.857-1.246-3.762-3.644-5.058-4.042c-5.126-1.575-10.237-3.199-15.549-4.089c-3.793-0.635-7.601-1.053-11.446-0.98
		c-6.232,0.121-12.465,0.316-18.696,0.456c-5.18,0.116-10.362,0.171-15.542,0.305c-2.289,0.06-4.577,0.246-7.143,0.392
		c0.281,0.605,0.354,1.151,0.65,1.334c1.3,0.8,2.592,1.731,4.022,2.167c2.153,0.656,3.491,2.303,5.018,3.68
		c0.694,0.626,1.125,1.862,1.165,2.842c0.222,5.552,0.289,11.109,0.398,16.665c0.004,0.176-0.115,0.354-0.238,0.707
		c-0.446,0.092-0.985,0.292-1.526,0.301c-9.974,0.172-19.949,0.324-29.923,0.466c-0.849,0.012-1.697-0.073-2.696-0.12
		c-0.117-0.863-0.288-1.6-0.305-2.339c-0.106-4.696-0.142-9.396-0.288-14.093c-0.035-1.126-0.379-2.248-0.635-3.358
		c-0.084-0.36-0.258-0.797-0.536-0.997c-1.756-1.271-3.04-3.152-5.282-3.813c-1.269-0.374-2.484-1.023-3.633-1.703
		c-1.937-1.149-2.246-2.257-1.473-4.351c0.409-1.11,1.021-2.059,1.963-2.781c1.596-1.226,3.187-2.461,4.8-3.663
		c1.077-0.804,2.242-1.495,3.274-2.349c2.814-2.325,4.785-5.107,5.285-8.898c0.667-5.054,0.852-10.123,0.907-15.205
		c0.064-5.948,0.095-11.896,0.073-17.846c-0.006-1.605,0.258-3.02,1.44-4.199c0.778-0.777,1.06-1.771,1.071-2.887
		c0.099-9.108,0.227-18.217,0.332-27.326c0.019-1.627,0.008-3.234-0.393-4.856c-0.266-1.075-0.051-2.269-0.051-3.521
		c2.078-1.118,4.408-1.144,6.633-1.561c1.693-0.318,3.408-0.529,5.107-0.818c0.564-0.096,1.125-0.253,1.666-0.441
		c0.743-0.258,1.419-0.618,1.528-1.525c0.078-0.656-0.381-1.173-1.524-1.398c-2.255-0.448-4.531-0.788-6.794-1.197
		c-1.979-0.358-3.956-0.734-5.926-1.144c-0.455-0.095-0.93-0.286-1.292-0.565c-0.259-0.202-0.49-0.637-0.47-0.948
		c0.022-0.311,0.319-0.784,0.592-0.866c1.741-0.52,3.51-0.948,5.268-1.411c0.832-0.219,1.669-0.424,2.488-0.685
		c0.357-0.112,0.702-0.312,1.007-0.535c0.985-0.721,0.929-2.037-0.167-2.573c-0.853-0.417-1.781-0.69-2.694-0.973
		c-1.005-0.311-2.057-0.491-3.041-0.854c-0.858-0.315-1.907-0.515-1.881-1.83c0.025-1.136,0.902-1.383,1.68-1.704
		c1.15-0.475,2.356-0.82,3.497-1.317c3.335-1.458,6.653-2.952,9.968-4.46c0.771-0.351,1.61-0.663,2.022-1.647
		c-2.114-1.597-4.279-3.157-6.357-4.824c-1.868-1.498-3.691-3.061-5.442-4.693c-1.98-1.846-2.028-4.225-1.533-6.674
		c0.182-0.899,0.777-1.533,1.57-1.961c0.842-0.455,1.706-0.87,2.562-1.299c1.2-0.603,2.39-1.226,3.604-1.795
		c2.598-1.222,4.028-3.426,5.176-5.924c0.783-1.705,0.414-3.176-0.681-4.546c-0.521-0.651-1.135-1.229-1.795-1.934
		c0.915-0.549,1.79-0.339,2.611-0.343c7.774-0.024,15.548-0.016,23.32-0.035c19.866-0.045,39.731-0.155,59.595-0.124
		c8.249,0.015,16.479,0.527,24.678,1.551c3.435,0.428,6.824,1.004,10.147,1.925c1.556,0.432,3.081,1.071,4.519,1.815
		c1.276,0.661,2.314,1.579,2.455,3.272c0.146,1.768-0.446,3.013-1.985,3.773c-1.372,0.678-2.79,1.267-4.204,1.854
		c-1.769,0.736-3.583,1.365-5.32,2.166c-1.403,0.645-1.603,1.496-0.832,2.772c0.545,0.902,1.061,1.836,1.717,2.655
		c0.648,0.812,1.355,1.657,2.215,2.21c2.896,1.866,5.871,3.605,8.814,5.395c2.351,1.43,4.604,2.99,6.743,4.899
		C224.638,83.359,223.457,83.794,222.336,84.276z"/>
	<path d="M174.013,74.913c-6.022-1.314-12.136-1.813-18.29-1.743c-11.224,0.128-22.448,0.304-33.671,0.47
		c-0.936,0.014-1.869,0.111-2.803,0.17c-0.077,0.203-0.153,0.405-0.23,0.607c2.891,3.048,6.526,5.204,9.895,7.884
		c-1.187,1.17-2.59,1.786-3.981,2.379c-3.435,1.468-6.897,2.871-10.349,4.301c-0.619,0.256-1.232,0.524-1.854,0.774
		c-0.696,0.28-1.076,0.754-1.04,1.538c0.034,0.738,0.317,1.33,1.02,1.59c1.164,0.434,2.351,0.807,3.532,1.192
		c1,0.325,2.017,0.602,3.004,0.962c0.602,0.219,0.824,0.747,0.832,1.378c0.006,0.666-0.333,1.142-0.918,1.314
		c-1.65,0.49-3.322,0.908-4.986,1.351c-1.018,0.271-2.05,0.494-3.049,0.816c-0.568,0.185-0.978,0.609-0.959,1.286
		c0.019,0.663,0.428,1.099,0.991,1.275c1.091,0.344,2.203,0.649,3.328,0.854c3.581,0.646,7.172,1.244,10.762,1.851
		c1.124,0.189,2.252,0.476,3.383,0.494c10.55,0.171,21.098,0.293,31.649,0.432c3.545,0.047,7.09,0.218,10.619-0.364
		c1.124-0.187,2.205-0.315,3.254-1.2c-0.389-0.382-0.601-0.71-0.902-0.862c-0.682-0.344-1.396-0.635-2.119-0.885
		c-1.124-0.39-1.293-1.739-0.144-2.454c0.715-0.444,1.571-0.673,2.383-0.947c1.36-0.458,2.751-0.832,4.099-1.321
		c1.232-0.449,2.018-1.348,2.349-2.581c-0.685-0.922-1.607-1.212-2.503-1.548c-0.807-0.304-1.616-0.597-2.418-0.913
		c-0.794-0.312-1.189-0.875-1.196-1.765c-0.007-0.852,0.548-1.18,1.177-1.441c0.796-0.329,1.633-0.561,2.425-0.898
		c3.964-1.69,7.933-3.373,11.867-5.131c0.728-0.324,1.663-0.572,1.908-1.71c-0.943-0.582-1.908-1.186-2.88-1.776
		C183.801,77.619,179,76.002,174.013,74.913z"/>
</g>
</svg>
