<?xml version="1.0" encoding="utf-8"?>
<!-- Generator: Adobe Illustrator 16.0.0, SVG Export Plug-In . SVG Version: 6.00 Build 0)  -->
<!DOCTYPE svg PUBLIC "-//W3C//DTD SVG 1.1//EN" "http://www.w3.org/Graphics/SVG/1.1/DTD/svg11.dtd">
<svg version="1.1" id="Calque_1" xmlns="http://www.w3.org/2000/svg" xmlns:xlink="http://www.w3.org/1999/xlink" x="0px" y="0px"
	 width="283px" height="283px" viewBox="0 0 283 283" enable-background="new 0 0 283 283" xml:space="preserve">
<g>
	<path d="M182.312,94.528c-0.338-0.178-0.688-0.337-1.045-0.472c-1.522-0.577-3.059-1.117-4.573-1.717
		c-2.046-0.812-4.083-1.646-6.107-2.507c-1.495-0.637-2.526-1.635-2.735-3.385c-0.329-2.753-2.198-4.122-4.666-4.856
		c-0.826-0.244-1.662-0.517-2.513-0.609c-3.619-0.399-7.241-1.006-10.868-1.046c-13.625-0.152-27.249-0.116-40.874-0.134
		c-0.546,0-1.092,0.176-1.584,0.26c-0.183,1.852-0.368,3.553-0.514,5.258c-0.056,0.666-0.023,1.342-0.037,2.013
		c-0.019,0.952,0.412,1.697,1.193,2.161c0.985,0.586,2.004,1.141,3.065,1.568c2.311,0.93,4.663,1.755,6.986,2.655
		c1.158,0.447,2.349,0.864,3.421,1.477c1.473,0.84,1.838,2.563,0.878,3.981c-0.416,0.614-1.003,1.217-1.652,1.547
		c-1.529,0.778-3.089,1.599-4.733,2.03c-4.812,1.259-9.674,2.343-14.52,3.477c-0.746,0.175-1.518,0.245-1.986,0.933
		c-0.052,0.211-0.136,0.395-0.136,0.578c-0.006,2.264,0.265,2.719,2.262,3.412c1.174,0.408,2.382,0.729,3.591,1.024
		c4.652,1.14,9.319,2.216,13.963,3.392c1.688,0.428,3.369,0.649,5.11,0.651c12.183,0.012,24.367,0.075,36.551,0.067
		c1.519-0.002,3.044-0.295,4.556-0.521c0.415-0.062,0.794-0.376,1.412-0.688c-0.513-0.595-0.783-1.151-1.226-1.375
		c-1.36-0.695-2.789-1.259-4.187-1.88c-1.033-0.458-2.218-0.659-3.12-1.945c0.211-0.413,0.455-0.726,0.536-1.076
		c0.385-1.664,1.541-2.247,3.108-2.486c1.7-0.261,3.391-0.637,5.056-1.072c3.889-1.019,7.788-2.01,11.623-3.208
		c1.521-0.476,3.014-1.293,4.284-2.265C184.995,98.118,184.688,95.781,182.312,94.528z"/>
	<path d="M0,0v283h283V0H0z M196.162,111.713c3.029,0.909,6.076,1.757,9.084,2.729c2.095,0.676,4.142,1.495,6.191,2.299
		c0.506,0.199,0.938,0.588,1.543,0.979c-1.421,2.232-3.035,4.114-5.354,5.142c-2.534,1.121-5.18,1.995-7.782,2.961
		c-0.627,0.232-1.282,0.394-1.923,0.593c-2.843,0.883-5.6,1.908-8.091,3.631c-1.401,0.969-3.061,1.563-4.579,2.373
		c-0.565,0.301-1.062,0.734-1.831,1.279c0.954,0.399,1.615,0.732,2.31,0.96c5.342,1.742,9.245,5.252,12.251,9.886
		c0.417,0.645,0.859,1.272,1.31,1.894c1.209,1.669,2.033,3.451,1.912,5.588c-0.112,1.979,0.891,3.195,2.688,3.965
		c2.288,0.979,4.54,2.052,6.762,3.176c1.019,0.514,1.987,1.17,2.872,1.893c1.738,1.422,1.864,2.449,0.44,4.113
		c-0.861,1.008-1.829,1.989-2.924,2.723c-2.067,1.386-4.239,2.616-6.405,3.848c-1.917,1.09-3.891,2.078-5.822,3.142
		c-0.498,0.275-0.958,0.638-1.387,1.017c-0.488,0.432-0.62,1.045-0.22,1.547c0.59,0.736,1.235,1.465,1.981,2.03
		c0.989,0.75,2.067,1.401,3.164,1.987c2.824,1.51,5.138,3.671,7.508,5.763c0.355,0.315,0.729,0.661,0.951,1.069
		c0.945,1.732,2.424,2.938,3.926,4.131c0.375,0.298,0.713,0.642,1.077,0.953c1.374,1.176,1.952,2.508,1.159,4.319
		c-0.457,1.042-0.551,2.178-0.434,3.375c0.372,3.818-1.842,6.259-4.754,8.191c-0.583,0.388-1.438,0.485-2.176,0.507
		c-3.069,0.094-6.14,0.086-9.21,0.154c-7.764,0.169-15.527,0.357-23.29,0.534c-0.275,0.006-0.551-0.034-0.827-0.052
		c-0.157-0.7,0.455-0.773,0.788-1.051c1.324-1.101,2.632-2.222,3.988-3.279c1.486-1.156,2.121-2.785,2.189-4.518
		c0.06-1.573,0.382-3.03,0.932-4.461c0.551-1.434,0.256-2.623-0.896-3.594c-0.657-0.555-1.383-1.029-2.046-1.575
		c-0.964-0.79-2.011-1.515-2.824-2.44c-2.946-3.36-6.378-6.039-10.43-7.945c-1.821-0.855-3.579-1.843-5.342-2.814
		c-0.489-0.27-0.968-0.639-1.307-1.074c-0.172-0.222-0.172-0.866,0.007-1.023c0.642-0.555,1.345-1.08,2.108-1.439
		c2.342-1.1,4.752-2.054,7.076-3.186c2.239-1.09,4.408-2.322,6.6-3.51c1.472-0.8,2.553-2.009,3.427-3.412
		c1.092-1.755,0.972-2.574-0.713-3.926c-0.817-0.656-1.706-1.263-2.646-1.715c-1.984-0.953-4.021-1.799-6.046-2.666
		c-0.882-0.377-1.797-0.672-2.682-1.041c-1.571-0.656-2.797-1.715-3.364-3.347c-1.105-3.18-3.592-4.547-6.638-5.249
		c-3.949-0.91-7.965-1.199-11.999-1.211c-11.133-0.032-22.266-0.023-33.4-0.018c-0.847,0-1.693,0.096-2.626,0.15
		c-0.623,2.356-1.253,4.56-1.781,6.789c-0.305,1.286,0.275,2.2,1.465,2.793c1.631,0.812,3.276,1.61,4.833,2.552
		c1.471,0.89,2.905,1.869,4.224,2.967c1.221,1.019,1.238,1.969,0.331,3.27c-1.051,1.507-2.268,2.843-3.873,3.801
		c-3.048,1.818-6.089,3.649-9.101,5.524c-0.804,0.501-1.545,1.133-2.22,1.802c-0.515,0.513-0.586,1.237-0.152,1.855
		c0.435,0.622,0.914,1.242,1.485,1.735c1.086,0.941,2.211,1.85,3.39,2.67c3.11,2.163,5.671,4.834,7.786,7.971
		c0.581,0.862,1.404,1.565,2.126,2.33c0.527,0.558,1.128,1.053,1.599,1.652c0.705,0.899,0.799,1.884,0.299,2.966
		c-0.642,1.385-1.228,2.8-1.76,4.229c-0.789,2.128-1.958,3.958-3.905,5.191c-3.158,1.999-6.349,3.949-9.499,5.957
		c-0.702,0.448-1.445,0.482-2.203,0.502c-4.499,0.116-9.002,0.151-13.497,0.328c-5.845,0.229-11.686,0.578-17.531,0.851
		c-0.913,0.042-1.86,0.229-2.779-0.114c0.103-0.321,0.103-0.57,0.218-0.643c1.856-1.188,3.737-2.334,5.59-3.527
		c1.85-1.191,3.675-2.421,5.508-3.639c1.676-1.114,2.588-2.8,3.345-4.578c0.56-1.317,1.008-2.683,1.567-4
		c0.855-2.005,0.801-2.917-0.797-4.37c-1.646-1.497-2.985-3.211-4.312-4.982c-1.727-2.308-3.785-4.325-6.171-5.993
		c-1.256-0.878-2.468-1.826-3.653-2.799c-0.586-0.482-1.11-1.059-1.578-1.659c-0.464-0.595-0.442-1.314,0.119-1.834
		c0.768-0.709,1.597-1.379,2.486-1.928c2.531-1.559,5.096-3.064,7.665-4.559c2.02-1.174,3.783-2.622,5.121-4.548
		c0.322-0.463,0.532-1.002,0.747-1.414c-0.322-1.678-1.369-2.662-2.617-3.425c-2.126-1.301-4.295-2.528-6.455-3.773
		c-0.329-0.19-0.717-0.278-1.051-0.464c-1.447-0.799-1.734-1.42-1.406-3.051c0.133-0.657,0.297-1.311,0.475-1.958
		c1.676-6.075,2.198-12.248,1.629-18.522c-0.204-2.266,0.106-2.906,2.205-3.79c2.382-1.003,4.843-1.816,7.262-2.732
		c1.073-0.408,2.18-0.771,3.182-1.318c1.881-1.028,2.824-4.179,1.796-6.064c-0.286-0.525-0.946-0.978-1.534-1.181
		c-2.171-0.753-4.357-1.48-6.583-2.048c-4.642-1.183-9.313-2.255-13.969-3.38c-0.557-0.135-1.114-0.283-1.646-0.488
		c-2.239-0.863-2.325-1.016-2.25-3.801c0.521-0.224,1.092-0.573,1.711-0.719c4.289-1.006,8.593-1.942,12.879-2.965
		c1.395-0.332,2.788-0.747,4.102-1.311c1.221-0.524,2.419-1.186,3.478-1.983c2.06-1.555,1.836-4.213-0.46-5.396
		c-1.44-0.741-3.009-1.233-4.519-1.841c-2.577-1.033-5.156-2.062-7.731-3.104c-1.661-0.671-2.399-1.939-2.027-3.669
		c0.514-2.376,0.437-4.761,0.399-7.157c-0.008-0.571,0.091-1.148,0.192-1.715c0.461-2.541,0.938-5.079,1.43-7.721
		c0.801-0.771,1.913-0.47,2.929-0.475c6.335-0.026,12.67-0.013,19.006-0.01c8.637,0.002,17.274-0.022,25.91,0.019
		c9.879,0.048,19.755,0.152,29.634,0.236c4.413,0.038,8.829-0.001,13.24,0.149c6.726,0.229,13.388,1.064,19.877,2.892
		c5.09,1.434,9.938,3.495,14.429,6.325c0.891,0.561,1.748,1.181,2.573,1.834c1.364,1.079,2.06,2.493,1.94,4.263
		c-0.019,0.287-0.057,0.574-0.069,0.861c-0.091,2.118,0.618,3.706,2.739,4.541c2.761,1.087,5.473,2.292,8.215,3.427
		c1.412,0.586,2.895,1.039,3.926,2.362c0.394,2.079-0.649,3.473-2.359,4.411c-1.253,0.689-2.589,1.25-3.934,1.734
		c-4.433,1.594-9.055,2.469-13.638,3.484c-0.937,0.207-1.868,0.443-2.813,0.589c-1.578,0.244-2.344,1.164-2.438,2.717
		c-0.022,0.372-0.059,0.746-0.088,1.127C193.952,111.078,195.066,111.384,196.162,111.713z"/>
</g>
</svg>
