<?xml version="1.0" encoding="utf-8"?>
<!-- Generator: Adobe Illustrator 16.0.0, SVG Export Plug-In . SVG Version: 6.00 Build 0)  -->
<!DOCTYPE svg PUBLIC "-//W3C//DTD SVG 1.1//EN" "http://www.w3.org/Graphics/SVG/1.1/DTD/svg11.dtd">
<svg version="1.1" id="Calque_1" xmlns="http://www.w3.org/2000/svg" xmlns:xlink="http://www.w3.org/1999/xlink" x="0px" y="0px"
	 width="283px" height="283px" viewBox="0 0 283 283" enable-background="new 0 0 283 283" xml:space="preserve">
<g>
	<path d="M165.762,121.394c-0.805-0.293-1.651-0.511-2.498-0.644c-4.171-0.65-8.361-1.11-12.59-1.117
		c-14.297-0.022-28.593-0.041-42.889-0.055c-0.756-0.001-1.512,0.068-2.582,0.12c0,1.22,0.042,2.171-0.009,3.118
		c-0.108,2.009-0.307,4.012-0.389,6.02c-0.069,1.725-0.024,3.454-0.038,5.18c-0.019,2.623-1.076,4.657-3.482,5.821
		c-2.073,1.003-2.864,2.703-2.867,4.876c-0.004,3.165,0.049,6.33,0.024,9.496c-0.009,1,0.225,1.91,0.734,2.734
		c1.235,1.998,2.843,3.102,5.405,3.08c12.664-0.101,25.331-0.004,37.995-0.069c4.407-0.022,8.816-0.264,13.219-0.504
		c1.42-0.078,2.85-0.378,4.229-0.751c1.157-0.312,1.473-1.097,1.126-2.231c-0.223-0.731-0.689-1.443-0.703-2.171
		c-0.049-2.634-0.743-5.115-1.577-7.567c-0.49-1.435-0.25-2.632,0.86-3.658c0.981-0.909,1.954-1.829,2.948-2.726
		c0.638-0.577,0.856-1.224,0.548-2.059c-0.26-0.701-0.457-1.428-0.665-2.094c0.286-0.444,0.472-0.779,0.7-1.082
		c2.517-3.335,3.133-7.344,3.955-11.266C167.488,122.554,166.988,121.842,165.762,121.394z"/>
	<path d="M177.07,88.997c-4.727-2.405-9.856-3.031-15.021-3.198c-5.643-0.18-11.295,0-16.945,0.002
		c-5.75,0.001-11.498-0.041-17.247-0.023c-1.125,0.003-2.25,0.19-3.338,0.29c-0.822,2.382,0.047,4.798-1.059,7.119
		c-0.94,0.394-2.004,0.808-3.04,1.28c-0.984,0.448-2.184,0.494-3.181,1.518c1.268,0.477,2.318,0.331,3.34,0.331
		c11.123,0.01,22.25,0.015,33.374-0.005c5.559-0.008,11.127,0.028,16.644-0.77c3.026-0.438,6.028-1.047,9.029-1.637
		c0.616-0.122,1.182-0.509,1.903-0.831c-0.324-0.571-0.493-1.023-0.792-1.362C179.713,90.549,178.453,89.701,177.07,88.997z"/>
	<path d="M0,0v283h283V0H0z M213.687,180.254c-1.812,0.594-3.664,1.096-5.527,1.503c-1.683,0.368-3.408,0.543-5.107,0.842
		c-0.658,0.114-1.349,0.239-1.929,0.541c-0.459,0.239-1.031,0.728-1.078,1.159c-0.052,0.45,0.363,1.083,0.757,1.418
		c0.493,0.418,1.147,0.714,1.779,0.887c1.565,0.431,3.161,0.752,4.741,1.134c1.768,0.428,3.54,0.834,5.283,1.344
		c0.372,0.108,0.801,0.573,0.897,0.952c0.136,0.53-0.366,0.824-0.858,0.944c-0.839,0.201-1.676,0.445-2.527,0.547
		c-3.714,0.439-7.435,0.821-11.149,1.252c-1.236,0.143-2.479,0.306-3.691,0.576c-0.634,0.142-1.245,0.484-1.808,0.831
		c-0.591,0.364-0.585,1.388,0.038,1.707c0.754,0.386,1.569,0.721,2.396,0.878c1.694,0.322,3.414,0.515,5.124,0.753
		c1.52,0.209,3.047,0.377,4.559,0.63c0.553,0.093,1.126,0.296,1.598,0.593c0.994,0.629,0.949,2.311-0.062,2.906
		c-0.984,0.578-2.009,1.087-2.918,1.573c-0.427,2.149-0.427,2.149,0.814,5.051c-11.531,0-22.834,0-34.216,0
		c-0.261-0.708-0.58-1.306-0.698-1.939c-0.377-2.038-0.007-2.736,1.832-3.697c0.594-0.312,1.227-0.555,1.8-0.899
		c1.218-0.729,1.208-2.65-0.048-3.311c-0.577-0.302-1.264-0.44-1.918-0.54c-2.652-0.4-5.32-0.717-7.966-1.151
		c-1.025-0.169-2.045-0.491-3.007-0.889c-0.807-0.333-0.799-1.459-0.018-1.818c0.598-0.275,1.246-0.51,1.895-0.595
		c3.04-0.398,6.092-0.715,9.133-1.104c2.564-0.331,5.125-0.689,7.676-1.113c0.498-0.082,0.936-0.523,1.345-0.765
		c-0.144-1.048-0.682-1.553-1.491-1.746c-1.674-0.4-3.357-0.759-5.037-1.137c-1.681-0.378-3.368-0.734-5.039-1.15
		c-0.546-0.136-1.124-0.338-1.56-0.674c-0.416-0.322-0.895-0.837-0.941-1.307c-0.077-0.797,0.697-1.105,1.345-1.24
		c2.157-0.447,4.33-0.817,6.495-1.226c1.13-0.213,2.266-0.405,3.382-0.674c0.649-0.156,1.287-0.397,1.89-0.686
		c0.513-0.245,1.028-0.572,1.021-1.262c-0.008-0.76-0.433-1.281-1.098-1.537c-0.712-0.272-1.456-0.494-2.204-0.629
		c-2.265-0.406-4.535-0.762-6.805-1.133c-0.378-0.063-0.762-0.096-1.139-0.166c-3.948-0.729-4.078-0.67-5.758-4.255
		c-1.51-3.223-4.085-4.963-7.262-6.052c-3.304-1.133-6.764-1.427-10.211-1.48c-8.061-0.127-16.126-0.102-24.189-0.121
		c-4.319-0.012-8.64,0.001-12.96,0.019c-0.845,0.004-1.688,0.081-2.727,0.135c0,0.592-0.01,1.046,0.001,1.498
		c0.053,2.396,0.145,4.792,0.158,7.188c0.015,2.175,0.062,2.339,2.29,2.898c1.67,0.42,3.371,0.714,5.061,1.057
		c1.033,0.209,2.074,0.385,3.102,0.612c0.463,0.104,0.915,0.274,1.358,0.45c0.621,0.246,0.888,0.805,0.778,1.385
		c-0.078,0.401-0.413,0.9-0.768,1.07c-0.857,0.409-1.773,0.748-2.703,0.938c-2.158,0.44-4.342,0.765-6.508,1.165
		c-1.035,0.191-2.067,0.417-3.084,0.692c-0.549,0.15-1.105,0.422-1.143,1.114c-0.036,0.694,0.075,1.411,0.766,1.737
		c0.949,0.447,1.927,0.881,2.937,1.132c1.952,0.485,3.94,0.819,5.904,1.256c0.839,0.188,1.681,0.42,2.468,0.753
		c0.279,0.117,0.553,0.592,0.558,0.907c0.004,0.3-0.283,0.775-0.553,0.874c-0.807,0.294-1.655,0.524-2.505,0.629
		c-3.711,0.455-7.431,0.845-11.143,1.281c-1.238,0.144-2.471,0.33-3.697,0.544c-0.465,0.082-0.918,0.266-1.355,0.453
		c-0.549,0.235-0.999,0.602-1,1.267c-0.002,0.669,0.44,1.114,1.011,1.24c2.056,0.45,4.125,0.837,6.197,1.212
		c1.507,0.273,3.032,0.458,4.535,0.753c0.552,0.108,1.096,0.387,1.23,1.054c0.146,0.711-0.007,1.357-0.565,1.828
		c-0.36,0.305-0.788,0.544-1.214,0.755c-0.516,0.254-1.057,0.452-1.59,0.668c-1.649,0.664-2.646,1.817-2.866,3.633
		c-0.079,0.641-0.346,1.26-0.571,2.04c-10.824,0.102-21.558,0.104-32.291,0.051c-0.458-0.003-0.915-0.167-1.341-0.249
		c-0.393-3.097,0.185-4.241,2.666-5.404c0.779-0.366,1.623-0.632,2.325-1.108c0.427-0.289,0.772-0.854,0.919-1.362
		c0.276-0.958-0.197-1.798-1.127-2.018c-1.305-0.309-2.634-0.519-3.959-0.722c-1.61-0.249-3.235-0.408-4.84-0.688
		c-0.746-0.13-1.487-0.395-2.174-0.718c-0.285-0.134-0.607-0.601-0.578-0.883c0.043-0.417,0.286-0.943,0.619-1.17
		c0.45-0.306,1.053-0.452,1.607-0.524c2.946-0.39,5.902-0.707,8.846-1.101c2.658-0.356,5.311-0.75,7.952-1.212
		c0.345-0.061,0.806-0.601,0.845-0.961c0.041-0.376-0.271-0.904-0.589-1.178c-0.343-0.292-0.86-0.415-1.323-0.521
		c-1.4-0.321-2.816-0.577-4.215-0.901c-1.493-0.346-2.991-0.686-4.455-1.133c-0.615-0.188-1.217-0.569-1.702-1.001
		c-0.703-0.628-0.446-1.854,0.471-2.075c2.139-0.515,4.31-0.902,6.467-1.338c1.502-0.304,3.009-0.58,4.505-0.916
		c0.555-0.124,1.098-0.344,1.617-0.584c0.543-0.251,0.944-0.65,0.946-1.317c0.004-0.767-0.38-1.281-1.072-1.536
		c-0.535-0.199-1.091-0.359-1.648-0.473c-1.878-0.385-3.762-0.743-5.643-1.107c-0.376-0.072-0.76-0.112-1.134-0.194
		c-3.139-0.684-3.244-0.843-3.258-3.965c-0.007-1.916-0.021-3.839-0.168-5.748c-0.172-2.206-1.036-4.033-3.057-5.25
		c-1.057-0.636-1.965-1.532-2.889-2.368c-1.335-1.208-2.105-2.661-2.075-4.549c0.048-3.069-0.062-6.143-0.03-9.211
		c0.008-0.847,0.188-1.719,0.448-2.528c0.264-0.82,0.724-1.57,1.628-1.903c0.265-0.097,0.498-0.285,0.751-0.422
		c2.226-1.204,3.345-3.091,3.428-5.598c0.063-1.916,0.075-3.836,0.139-5.753c0.061-1.819,0.24-3.64,0.226-5.458
		c-0.035-4.6,1.251-9.108,0.898-13.729c-0.05-0.645,0.15-1.31,0.256-2.124c0.79-0.131,1.52-0.356,2.248-0.358
		c3.736-0.011,7.471,0.046,11.205,0.061c11.323,0.046,22.646,0.076,33.969,0.127c11.317,0.051,22.633,0.076,33.951,0.195
		c5.556,0.058,11.094,0.526,16.547,1.619c2.905,0.582,5.712,1.506,8.361,2.957c5.136,2.816,10.514,5.041,16.284,6.299
		c2.034,0.443,3.968,1.381,5.92,2.162c0.794,0.318,1.557,0.771,1.979,1.81c-0.134,0.503-0.266,1.152-0.479,1.774
		c-1.085,3.168-1.431,6.549-2.839,9.625c-0.756,1.649-1.46,3.319-1.253,5.239c0.052,0.478-0.353,1.05-0.646,1.515
		c-1.09,1.717-1.854,3.45-1.742,5.609c0.186,3.619,0.108,7.252,0.368,10.876c0.035,0.491-0.251,1.197-0.63,1.483
		c-0.665,0.502-1.484,0.928-2.296,1.078c-2.541,0.47-5.106,0.808-7.665,1.172c-1.693,0.242-3.393,0.444-5.089,0.866
		c1.346,0.362,2.711,0.31,4.053,0.464c2.47,0.282,4.937,0.621,7.394,1.013c4.941,0.785,7.377,4.034,8.375,8.655
		c0.06,0.279,0.119,0.568,0.115,0.852c-0.039,2.144,1.204,3.05,3.141,3.391c2.83,0.497,5.652,1.033,8.468,1.604
		c0.834,0.168,1.676,0.422,2.439,0.792C214.604,178.537,214.548,179.973,213.687,180.254z M218.441,93.633
		c-2.641,0.854-5.309,1.634-7.995,2.325c-6.976,1.796-14.075,2.837-21.235,3.615c-7.916,0.859-15.837,1.653-23.785,2.002
		c-6.132,0.269-12.279,0.181-18.421,0.211c-14.009,0.071-28.019,0.111-42.028,0.177c-9.493,0.045-18.986,0.113-28.481,0.163
		c-1.045,0.006-2.09-0.041-3.007-0.062c-0.527-0.665-0.202-1.055,0.089-1.419c1.561-1.948,3.762-2.947,5.971-3.869
		c1.854-0.773,3.796-1.333,5.699-1.987c4.501-1.551,4.16-1.995,4.146-5.687c-0.021-4.602-0.005-9.205-0.005-14.004
		c1.268-0.524,2.334-0.376,3.365-0.378c9.884-0.02,19.77-0.02,29.655-0.02c18.331-0.001,36.665-0.012,54.995,0.011
		c4.606,0.006,9.216,0.021,13.817,0.2c6.138,0.239,12.214,1.047,18.262,2.156c3.407,0.626,5.719,2.238,7.078,5.518
		c1.172,2.83,2.421,5.609,3.054,8.623C219.943,92.764,219.848,93.178,218.441,93.633z"/>
</g>
</svg>
