<?xml version="1.0" encoding="utf-8"?>
<!-- Generator: Adobe Illustrator 16.0.0, SVG Export Plug-In . SVG Version: 6.00 Build 0)  -->
<!DOCTYPE svg PUBLIC "-//W3C//DTD SVG 1.1//EN" "http://www.w3.org/Graphics/SVG/1.1/DTD/svg11.dtd">
<svg version="1.1" id="Calque_1" xmlns="http://www.w3.org/2000/svg" xmlns:xlink="http://www.w3.org/1999/xlink" x="0px" y="0px"
	 width="283px" height="283px" viewBox="0 0 283 283" enable-background="new 0 0 283 283" xml:space="preserve">
<g>
	<path d="M176.724,84.618c-0.241-0.15-0.466-0.34-0.725-0.444c-3.998-1.609-7.937-3.397-12.016-4.765
		c-7.153-2.398-14.623-3.154-22.108-3.278c-11.611-0.193-23.227-0.084-34.841-0.103c-2.208-0.004-4.416-0.014-6.623-0.005
		c-0.459,0.002-0.979-0.052-1.251,0.712c0.228,0.28,0.445,0.732,0.806,0.959c0.973,0.605,1.974,1.188,3.021,1.65
		c3.33,1.469,6.701,2.852,10.025,4.334c0.728,0.325,1.677,0.373,2.291,1.48c-1.992,0.006-3.773,0.013-5.557,0.017
		c-1.824,0.002-3.647-0.021-5.471,0.009c-1.795,0.031-3.605-0.142-5.514,0.187c-0.077,0.817-0.192,1.466-0.191,2.116
		c0.003,3.935-0.003,7.868,0.066,11.801c0.054,3.182,0.295,3.396,3.516,3.4c9.501,0.015,19.004,0.038,28.506-0.002
		c6.328-0.026,12.669,0.275,18.974-0.572c2.851-0.385,5.708-0.742,8.372-1.92c2.428-1.071,3.568-2.848,2.096-5.824
		c-0.127-0.257-0.247-0.522-0.408-0.76c-1.89-2.786-3.896-5.463-6.891-7.197c-0.352-0.203-0.919-0.338-0.691-1.061
		c2.676,0,5.362-0.001,8.048,0c2.784,0,5.567,0.035,8.351-0.006c2.658-0.039,5.328,0.183,7.977-0.139
		C176.564,85.011,176.645,84.814,176.724,84.618z"/>
	<path d="M167.014,86.671c-0.024,0.023,0.033,0.134,0.054,0.204c0.078-0.022,0.155-0.046,0.232-0.069
		c-0.02-0.07-0.04-0.141-0.061-0.211C167.161,86.618,167.065,86.623,167.014,86.671z"/>
	<path d="M0,0v283h283V0H0z M218.626,155.457c-0.299,1.592-0.948,2.896-1.965,4.068c-0.688,0.795-1.427,1.553-2.186,2.283
		c-1.864,1.795-3.766,3.555-5.633,5.35c-1.8,1.73-3.691,3.303-5.829,4.646c-2.182,1.369-4.224,3.015-6.138,4.746
		c-2.171,1.959-3.469,4.562-4.458,7.286c-0.211,0.581-0.157,1.315-0.051,1.95c0.845,5.014,1.134,10.079,1.522,15.139
		c0.094,1.234,0.305,2.462,0.471,3.692c0.063,0.472,0.191,0.939,0.227,1.414c0.118,1.614,0.083,3.25,0.335,4.841
		c0.657,4.15,0.896,8.357,1.948,12.459c0.594,2.322,1.366,4.361,3.641,5.395c-0.164,0.725-0.646,0.513-0.963,0.513
		c-10.175,0.006-20.35-0.016-30.525-0.006c-1.183,0.001-2.251-0.141-3.211-0.938c-0.928-0.769-1.601-1.649-1.798-2.847
		c-0.435-2.642-0.945-5.274-1.267-7.932c-0.481-3.985-0.669-8.012-1.267-11.978c-0.785-5.196-1.835-10.354-2.804-15.522
		c-0.156-0.844-0.348-1.727-0.747-2.471c-1.319-2.455-1.151-5.086-0.646-7.596c0.317-1.58,0.962-3.311,2.368-4.416
		c1.73-1.362,3.478-2.723,5.333-3.906c2.989-1.906,5.978-3.765,8.605-6.205c1.525-1.417,3.469-2.385,5.215-3.566
		c0.792-0.535,1.559-1.109,2.35-1.646c2.471-1.671,3.612-4.081,4.098-6.957c0.705-4.19,1.041-8.364,0.217-12.578
		c-0.163-0.839-0.087-1.723-0.17-2.58c-0.221-2.288-0.447-4.575-0.71-6.856c-0.253-2.186-1.564-3.871-2.842-5.522
		c-0.438-0.564-1.233-0.88-1.905-1.229c-2.465-1.277-4.989-2.446-7.415-3.793c-4.999-2.775-10.358-4.466-15.944-5.516
		c-6.621-1.245-13.318-1.6-20.038-1.634c-8.733-0.044-17.469-0.06-26.203-0.086c-1.722-0.005-3.441,0-5.162,0
		c-0.073,0.196-0.147,0.393-0.223,0.589c0.397,0.357,0.753,0.781,1.198,1.059c1.383,0.863,2.833,1.617,4.192,2.514
		c1.277,0.842,2.529,1.742,3.687,2.74c1.902,1.637,3.891,3.117,6.191,4.146c1.082,0.483,1.707,1.232,2.269,2.367
		c0.716,1.445,0.978,2.807,1.007,4.374c0.087,4.592,0.105,9.196,0.968,13.735c-0.345,4.004,0.46,8.039-0.354,12.031
		c-0.331,1.626-0.981,3.123-1.94,4.444c-2.029,2.794-4.1,5.57-6.656,7.916c-1.055,0.967-2.211,1.829-3.365,2.681
		c-2.236,1.65-4.538,3.219-6.753,4.899c-2.078,1.577-3.691,3.628-5.329,5.632c-0.936,1.146-1.31,2.571-1.299,4.038
		c0.043,6.04-0.249,12.076,0.112,18.124c0.347,5.835,0.335,11.691,0.445,17.539c0.042,2.198-0.197,4.41,0.645,6.445
		c-0.182,0.164-0.241,0.234-0.316,0.282c-0.079,0.05-0.171,0.111-0.257,0.111c-10.941,0.002-21.883,0.001-32.825-0.011
		c-0.276,0-0.556-0.119-0.832-0.183c-1.153-1.248-1.182-2.823-1.223-4.337c-0.079-2.873,0.027-5.751-0.052-8.624
		c-0.115-4.31,0.072-8.629-0.564-12.921c-0.182-1.224-0.093-2.49-0.09-3.737c0.008-3.933-0.002-7.868,0.067-11.801
		c0.04-2.248,0.636-4.261,2.222-6.045c1.537-1.728,3.035-3.442,4.938-4.778c2.432-1.709,4.868-3.415,7.24-5.206
		c1.216-0.917,2.408-1.917,3.416-3.053c1.781-2.005,3.376-4.175,5.121-6.216c1.973-2.31,2.734-5.054,2.803-7.973
		c0.089-3.828,0.105-7.651-0.323-11.486c-0.437-3.899-0.574-7.846-0.585-11.773c-0.006-1.93-0.789-3.498-1.499-5.134
		c-0.201-0.464-0.773-0.858-1.266-1.089c-2.809-1.314-5.158-3.274-7.593-5.143c-1.97-1.51-4.155-2.736-6.24-4.098
		c-0.881-0.576-1.793-1.118-2.608-1.776c-1.298-1.047-2.151-2.372-2.604-4.031c-0.654-2.397-1.53-4.732-2.25-7.113
		c-0.331-1.091-0.703-2.225-0.728-3.345c-0.091-4.223-0.047-8.445-0.041-12.669c0-0.274,0.106-0.548,0.202-1.008
		c0.613-0.071,1.248-0.205,1.884-0.209c4.031-0.022,8.063-0.017,12.096-0.02c0.757,0,1.517,0,2.243,0
		c0.195-0.972-0.439-1.106-0.942-1.324c-3.604-1.562-7.218-3.104-10.82-4.671c-0.877-0.383-1.737-0.812-2.588-1.254
		c-1.397-0.727-2.132-1.834-2.074-3.473c0.062-1.725,0.021-3.455,0.023-5.182c0.004-4.509,0.007-9.018,0.021-13.527
		c0.003-0.471,0.073-0.942,0.099-1.277c0.734-0.93,1.651-0.792,2.491-0.799c3.549-0.032,7.099-0.026,10.647-0.031
		c7.866-0.014,15.731-0.033,23.6-0.037c16.695-0.008,33.394-0.117,50.088,0.039c7.142,0.066,14.016,1.732,20.53,4.805
		c4.558,2.147,8.725,4.801,12.158,8.521c1.23,1.332,2.471,2.665,3.596,4.083c1.572,1.981,3.415,3.598,5.592,4.895
		c2.736,1.631,5.723,2.682,8.625,3.922c3.171,1.355,6.368,2.646,9.551,3.976c0.423,0.176,0.823,0.411,1.196,0.6
		c-0.045,0.239-0.038,0.353-0.09,0.422c-0.045,0.06-0.156,0.097-0.239,0.098c-5.756,0.049-11.513,0.094-17.269,0.146
		c-0.084,0.001-0.169,0.085-0.455,0.24c0.031,0.429-0.023,0.979,0.121,1.472c0.646,2.214,1.156,4.449,1.314,6.755
		c0.046,0.668,0.098,1.343,0.049,2.008c-0.12,1.611-0.783,2.909-2.166,3.863c-2.869,1.975-5.937,3.528-9.271,4.513
		c-2.297,0.679-4.627,1.243-6.942,1.859c-0.825,0.221-1.647,0.444-2.522,0.68c0.122,0.853,0.776,0.864,1.24,0.929
		c3.849,0.531,7.355,1.995,10.852,3.629c3.553,1.66,7.232,3.06,10.897,4.471c3.863,1.486,7.56,3.206,10.928,5.688
		c1.988,1.463,4.308,2.488,6.509,3.648c0.624,0.33,0.957,0.796,1.377,1.333c1.847,2.362,2.017,5.169,2.08,7.909
		c0.082,3.557,0.344,7.086,0.712,10.617C219.499,148.438,219.284,151.943,218.626,155.457z"/>
</g>
</svg>
