<?xml version="1.0" encoding="utf-8"?>
<!-- Generator: Adobe Illustrator 16.0.0, SVG Export Plug-In . SVG Version: 6.00 Build 0)  -->
<!DOCTYPE svg PUBLIC "-//W3C//DTD SVG 1.1//EN" "http://www.w3.org/Graphics/SVG/1.1/DTD/svg11.dtd">
<svg version="1.1" id="Calque_1" xmlns="http://www.w3.org/2000/svg" xmlns:xlink="http://www.w3.org/1999/xlink" x="0px" y="0px"
	 width="283px" height="283px" viewBox="0 0 283 283" enable-background="new 0 0 283 283" xml:space="preserve">
<g>
	<path d="M166.926,88.128c-2.001-1.48-4.033-2.957-5.833-4.663c-3.37-3.192-7.304-5.166-11.782-6.232
		c-3.562-0.85-7.186-1.242-10.816-1.351c-5.365-0.161-10.739-0.109-16.108-0.08c-7.287,0.039-14.573,0.126-21.86,0.232
		c-1.125,0.018-2.29-0.094-3.522,0.354c0,0.478-0.054,0.688,0.007,0.855c1.188,3.266,2.672,6.331,5.325,8.722
		c3.201,2.884,6.429,5.738,9.181,9.093c1.078,1.311,1.971,2.668,2.078,4.319c0.214,3.24,0.514,6.526-1.289,9.521
		c-0.323,0.537-0.801,1.127-0.243,1.941c0.588,0.034,1.249,0.106,1.91,0.107c10.837,0.009,21.675,0.008,32.514,0.012
		c2.869,0,5.726,0.016,8.595-0.384c6.337-0.883,11.602-3.759,16.031-8.247c0.851-0.863,1.507-2.002,1.989-3.127
		c0.485-1.134,0.678-2.404-0.002-3.607C171.487,92.736,169.614,90.114,166.926,88.128z"/>
	<path d="M159.513,66.037c0.865,0,1.734,0.047,2.588-0.05c0.651-0.075,1.437-0.163,1.889-0.558c1.224-1.062,2.374-2.233,2.897-3.855
		c0.191-0.602,0.129-1.137-0.256-1.619c-1.068-1.345-2.081-2.741-3.246-3.995c-0.877-0.942-1.552-1.931-1.694-3.132
		c-2.625-1.344-5.332-1.744-8.098-1.794c-4.217-0.075-8.433-0.102-12.647-0.134c-7.19-0.053-14.381-0.102-21.571-0.13
		c-1.031-0.003-2.062,0.122-3.251,0.198c-0.117,5.325-1.577,9.99-2.801,14.938c1.15,0.043,2.086,0.105,3.021,0.107
		C130.735,66.026,145.125,66.032,159.513,66.037z"/>
	<path d="M187.936,178.783c-0.122,0.084-0.147,0.301-0.216,0.463c0.147,0.049,0.361,0.182,0.429,0.129
		c0.122-0.098,0.16-0.305,0.232-0.467C188.229,178.859,188.016,178.727,187.936,178.783z"/>
	<path d="M0,0v283h283V0H0z M222.874,247.76c-0.073,0.053-0.183,0.07-0.274,0.07c-5.086,0.006-10.174,0.072-15.258-0.002
		c-6.119-0.09-12.234-0.301-18.403-0.459c-0.318-0.688-0.656-1.268-0.862-1.893c-0.839-2.537-2.508-4.408-4.425-6.225
		c-1.761-1.668-3.729-2.982-5.67-4.371c-0.548-0.393-1.087-0.795-1.649-1.16c-2.975-1.922-5.309-4.375-6.477-7.791
		c-0.476-1.391-1.413-2.461-2.266-3.623c-2.379-3.236-4.657-6.549-6.882-9.895c-0.735-1.107-1.216-2.389-1.77-3.611
		c-0.802-1.766-1.137-3.615-1.207-5.57c-0.119-3.342-0.363-6.686-0.705-10.014c-0.229-2.252,0.442-3.82,2.435-5.033
		c4.552-2.771,8.32-6.463,11.651-10.588c2.056-2.545,3.384-5.543,4.959-8.385c0.186-0.334,0.274-0.725,0.485-1.037
		c1.167-1.74,1.479-3.645,1.446-5.723c-0.021-1.414,0.323-2.861,0.691-4.244c0.389-1.457,0.325-2.832-0.15-4.23
		c-2.021-5.93-5.747-10.033-12.056-11.497c-4.428-1.028-8.918-1.298-13.43-1.319c-9.594-0.046-19.188-0.028-28.781-0.017
		c-1.517,0.001-3.031,0.108-4.61,0.171c0.998,2.173,0.975,2.173,0.954,4.73c-0.023,2.494,0.023,4.988,0.009,7.48
		c-0.017,2.701-0.288,5.365-1.237,7.92c-0.068,0.18-0.189,0.352-0.209,0.535c-0.3,2.988-1.887,5.381-3.553,7.744
		c-1.217,1.725-2.278,3.57-3.614,5.193c-1.823,2.215-3.7,4.428-5.814,6.357c-2.687,2.453-5.553,4.729-8.491,6.875
		c-1.95,1.426-3.052,3.047-2.965,5.518c0.098,2.781,0.035,5.566,0.027,8.35c-0.004,3.232,0.659,6.303,2.349,9.08
		c1.694,2.783,3.464,5.521,5.222,8.264c0.828,1.289,1.726,2.537,2.566,3.818c0.68,1.039,1.327,2.076,1.646,3.326
		c0.607,2.395,1.938,4.359,3.891,5.893c1.887,1.477,3.78,2.947,5.651,4.443c2.029,1.625,3.844,3.455,5.116,5.746
		c0.782,1.406,0.757,1.641,0.251,3.863c-0.244,0.07-0.514,0.221-0.783,0.217c-10.552-0.119-21.104-0.25-31.654-0.395
		c-0.469-0.008-0.936-0.158-1.371-0.236c-0.656-1.457-0.659-3.031-1.592-4.354c-1.39-1.973-3.021-3.68-4.889-5.168
		c-1.871-1.494-3.84-2.869-5.691-4.387c-1.666-1.365-2.831-3.129-3.471-5.197c-0.516-1.668-1.378-3.111-2.381-4.543
		c-2.255-3.217-4.374-6.529-6.495-9.836c-2.011-3.137-3.021-6.615-3.143-10.32c-0.094-2.875-0.017-5.754-0.038-8.631
		c-0.021-2.412,1.001-4.111,3.035-5.49c4.294-2.916,8.283-6.25,11.762-10.113c1.785-1.986,3.25-4.262,4.855-6.41
		c0.172-0.23,0.279-0.51,0.465-0.727c2.728-3.223,4.062-7.109,5.245-11.059c0.271-0.91,0.478-1.879,0.48-2.82
		c0.012-4.508-0.054-9.018-0.099-13.527c-0.002-0.188-0.063-0.377-0.129-0.759c-0.607-0.522-1.279-1.21-2.056-1.753
		c-3.693-2.586-7.42-5.123-11.118-7.698c-1.024-0.712-2.061-1.423-2.979-2.257c-1.755-1.594-2.14-4.594-0.817-6.574
		c0.902-1.353,1.978-2.592,2.98-3.876c0.828-1.057,1.746-2.053,2.466-3.178c0.558-0.872,1.073-1.868,1.237-2.87
		c0.27-1.653,0.813-3.174,1.719-4.531c2.294-3.455,2.062-7.288,1.711-11.112c-0.129-1.423-0.949-2.606-1.896-3.775
		c-2.859-3.528-6.427-6.309-9.586-9.508c-3.926-3.976-6.099-8.813-5.568-14.548c0.159-1.715,0.988-3.279,1.795-4.978
		c4.793,0,9.581,0,14.264,0c1.435-1.312,1.746-2.97,2.121-4.513c0.567-2.323,0.919-4.702,1.282-7.069
		c0.129-0.841,0.183-1.752,0.007-2.573c-0.564-2.623-1.298-5.209-2.528-7.612c-0.996-1.946-2.555-3.341-4.523-4.267
		c-2.081-0.98-4.179-1.925-6.263-2.898c-0.303-0.141-0.567-0.358-1.338-0.86c1.504-0.046,2.428-0.093,3.354-0.099
		c9.79-0.062,19.58-0.072,29.369-0.184c14.3-0.163,28.597-0.393,42.895-0.608c2.014-0.03,4.026-0.225,6.04-0.218
		c5.752,0.017,11.496,0.219,17.222,0.844c4.386,0.479,8.796,0.742,13.165,1.314c6.464,0.847,12.893,1.928,19.165,3.779
		c4.929,1.456,8.583,4.377,11.135,8.915c1.076,1.915,1.386,3.673,1.055,5.729c-0.228,1.415-0.313,2.855-0.427,4.287
		c-0.149,1.889-0.729,3.612-2.048,5.797c-8.079,0.145-16.275-0.018-24.944,0.1c0.602,0.824,0.844,1.204,1.132,1.544
		c4.028,4.746,8.064,9.487,12.101,14.23c1.523,2.983,4.247,4.903,6.544,7.165c2.093,2.059,3.642,4.42,5.093,6.898
		c0.807,1.377,0.494,2.877,0.042,4.194c-1.321,3.853-3.293,7.336-6.436,10.061c-1.078,0.937-2.058,1.988-3.068,3.002
		c-2.374,2.385-4.957,4.513-7.776,6.349c-0.561,0.365-1.165,0.678-1.671,1.108c-1.533,1.302-3.087,2.589-4.521,3.996
		c-1.86,1.825-3.804,3.504-6.188,4.617c-0.722,0.336-1.333,0.788-1.137,1.745c3.343,0.842,6.675,1.695,10.013,2.521
		c4.479,1.107,8.752,2.809,13.008,4.541c2.841,1.154,5.604,2.491,8.409,3.727c1.563,0.687,2.571,1.787,3.281,3.387
		c1.535,3.469,2.183,7.127,2.7,10.828c0.139,0.994-1.634,9.807-2.146,10.643c-2.309,3.754-4.58,7.537-7.031,11.199
		c-0.891,1.33-2.194,2.408-3.395,3.506c-2.55,2.33-5.083,4.699-8.058,6.492c-2.083,1.258-3.136,3-3.075,5.441
		c0.09,3.547,0.008,7.104,0.249,10.641c0.283,4.113,1.788,7.801,4.537,10.951c0.689,0.787,1.222,1.715,1.831,2.574
		c1.549,2.189,3.114,4.365,4.643,6.568c0.598,0.859,1.301,1.711,1.629,2.676c1.018,2.992,3.236,4.947,5.606,6.754
		c1.825,1.393,3.876,2.49,5.695,3.889c3.63,2.795,7.177,5.703,8.58,10.316C222.97,247.607,222.941,247.713,222.874,247.76z"/>
</g>
</svg>
