<?xml version="1.0" encoding="utf-8"?>
<!-- Generator: Adobe Illustrator 16.0.0, SVG Export Plug-In . SVG Version: 6.00 Build 0)  -->
<!DOCTYPE svg PUBLIC "-//W3C//DTD SVG 1.1//EN" "http://www.w3.org/Graphics/SVG/1.1/DTD/svg11.dtd">
<svg version="1.1" id="Calque_1" xmlns="http://www.w3.org/2000/svg" xmlns:xlink="http://www.w3.org/1999/xlink" x="0px" y="0px"
	 width="283px" height="283px" viewBox="0 0 283 283" enable-background="new 0 0 283 283" xml:space="preserve">
<g>
	<path d="M0,0v283h283V0H0z M221.38,109.516c-3.166-0.041-6.333-0.083-9.499-0.173c-6.136-0.174-12.274-0.371-18.412-0.577
		c-1.146-0.04-2.29-0.192-3.437-0.251c-0.79-0.04-1.455-0.271-2.111-0.745c-5.243-3.8-11.231-5.688-17.52-6.844
		c-6.514-1.198-13.069-1.98-19.671-2.503c-7.28-0.577-14.564-0.652-21.853-0.39c-1.519,0.056-3.033,0.369-4.535,0.646
		c-0.693,0.128-0.678,0.217-1.605,1.555c0.551,1.163,1.676,1.729,2.7,2.422c5.426,3.679,11.364,6.34,17.395,8.82
		c0.354,0.146,0.687,0.344,1.017,0.536c0.05,0.029,0.035,0.166,0.07,0.347c-3.159,0-6.304-0.03-9.447,0.01
		c-3.139,0.038-6.286-0.067-9.469,0.101c0.228,0.937,0.938,0.879,1.418,1.008c3.511,0.942,7.026,1.868,10.563,2.701
		c6.522,1.535,13.061,2.997,19.59,4.502c2.238,0.516,4.468,1.073,6.703,1.6c4.1,0.966,8.189,1.973,12.303,2.868
		c3.564,0.776,7.045,1.807,10.39,3.256c1.224,0.53,2.436,1.174,3.494,1.977c2.963,2.247,6.385,3.894,8.853,6.801
		c1.308,1.54,2.501,3.15,3.403,4.952c0.79,1.576,0.584,2.34-0.79,3.494c-0.658,0.555-1.356,1.062-2.034,1.596
		c-0.961,0.757-1.519,1.715-1.47,2.972c0.01,0.192-0.012,0.385-0.002,0.575c0.082,1.658-0.472,3-1.901,3.935
		c-0.313,0.205-0.571,0.495-0.958,0.837c0.077,0.618,0.105,1.277,0.248,1.91c0.698,3.085,1.324,6.172,1.538,9.347
		c0.213,3.193-0.239,6.3-0.778,9.415c-0.155,0.896-0.609,1.595-1.359,2.117c-0.394,0.273-0.75,0.599-1.13,0.892
		c-2.471,1.905-4.055,4.304-4.202,7.79c1.982,2.077,2.486,5.072,3.534,7.829c0.502,1.323,0.49,2.651-0.271,3.874
		c-0.605,0.973-1.17,2.037-2,2.788c-2.058,1.862-4.169,3.687-6.777,4.798c-0.879,0.375-1.744,0.815-2.553,1.324
		c-1.641,1.032-3.429,1.665-5.29,2.158c-4.927,1.308-9.954,1.887-15.021,2.348c-10.1,0.918-20.114,0.105-30.133-1.053
		c-4.955-0.573-9.882-1.284-14.724-2.459c-4.654-1.129-9.223-2.567-13.568-4.633c-3.806-1.81-7.621-3.602-11.444-5.373
		c-0.78-0.361-1.61-0.611-2.426-0.893c-4.345-1.496-8.709-2.937-13.031-4.503c-1.882-0.683-3.685-1.593-5.503-2.442
		c-2.17-1.016-4.306-2.109-6.48-3.11c-1.885-0.866-2.627-2.401-2.791-4.348c-0.102-1.208,0.176-2.294,1.031-3.172
		c1.527-1.571,2.277-3.357,2.198-5.628c-0.085-2.376,0.194-4.766,0.328-7.148c0.025-0.46,0.117-0.917,0.194-1.488
		c0.546-0.086,1.003-0.223,1.463-0.221c10.441,0.015,20.88,0.047,31.465,0.074c0.213,0.742,0.487,1.348,0.543,1.973
		c0.108,1.24,0.068,2.491,0.137,3.736c0.101,1.904,0.238,3.806,0.367,5.824c-0.447,1.18-1.038,2.484-1.415,3.848
		c-0.162,0.584-0.063,1.393,0.234,1.921c0.946,1.682,2.074,3.267,4.026,3.924c1.721,0.579,3.438,1.22,5.205,1.596
		c4.686,0.999,9.366,2.097,14.105,2.736c7.523,1.017,15.105,1.372,22.647,0.121c2.156-0.357,4.266-1.087,6.345-1.794
		c1.371-0.467,2.479-1.356,3.309-2.634c1.892-2.906,4.058-5.657,6.976-7.537c2.536-1.633,2.779-3.915,2.686-6.457
		c-0.169-4.498-2.503-7.651-6.124-10.132c-3.025-2.076-6.188-3.803-9.649-5.023c-1.805-0.635-3.558-1.42-5.332-2.143
		c-0.263-0.108-0.553-0.201-0.767-0.379c-2.789-2.354-6.288-3.158-9.588-4.385c-1.791-0.667-3.646-1.165-5.456-1.786
		c-1.515-0.52-2.665-1.431-3.229-3.023c-0.284-0.8-0.781-1.523-1.198-2.313c-4.212-1.348-8.128-3.365-12.129-5.192
		c-2.267-1.035-4.497-2.121-6.6-3.465c-0.727-0.465-1.458-0.954-2.253-1.266c-1.91-0.753-3.534-1.937-5.062-3.248
		c-2.737-2.35-5.814-4.012-9.276-5.024c-1.743-0.51-3.419-1.243-5.158-1.764c-2.22-0.661-3.914-1.963-5.208-3.848
		c-1.514-2.211-2.677-4.593-3.717-7.288c1.823-0.246,3.431-0.13,5.027-0.152c1.727-0.024,3.454-0.004,5.182-0.004
		c1.634,0,3.265,0.001,4.896,0.002c1.631,0.002,3.262,0.006,4.894,0.008c1.728,0.003,3.457,0.047,5.182-0.008
		c1.615-0.052,3.251,0.189,4.983-0.246c0.407-1.519-0.125-2.526-0.87-3.432c-0.422-0.513-0.914-1.017-1.474-1.36
		c-3.746-2.296-7.13-5.183-11.355-6.696c-1.885-0.675-3.652-1.682-5.469-2.551c-0.518-0.248-1.021-0.528-1.521-0.812
		c-1.84-1.043-2.196-1.799-0.511-3.473c1.214-1.205,2.257-2.593,3.285-3.965c0.559-0.744,1.299-1.15,2.094-1.451
		c1.882-0.71,3.762-1.456,5.702-1.966c4.249-1.118,8.011-3.058,11.36-5.921c1.284-1.098,2.388-2.163,2.479-3.922
		c2.435-1.394,4.966-2.264,7.601-2.753c6.973-1.294,13.976-2.36,21.054-3.001c6.035-0.547,12.053-0.69,18.091-0.362
		c1.61,0.088,3.206,0.39,4.882,0.602c0.15,0.474,0.345,0.812,0.35,1.153c0.021,1.298,0.834,1.811,1.924,2.168
		c5.307,1.735,10.8,2.559,16.289,3.408c1.514,0.234,3.03,0.478,4.528,0.795c3.419,0.725,5.95,2.891,8.346,5.005
		c0.03,1.146-0.553,1.623-1.256,1.991c-1.188,0.62-2.4,1.197-3.586,1.828c-0.835,0.444-1.639,0.945-2.566,1.486
		c0.626,1.482,1.441,2.742,1.739,4.267c0.238,1.222,1.41,2.052,2.622,2.486c1.348,0.483,2.735,0.88,4.13,1.202
		c5.881,1.355,11.764,2.693,17.655,3.988c4.94,1.086,9.41,3.211,13.601,5.98c0.793,0.523,1.629,1.017,1.828,2.053
		C222.355,109.671,221.816,109.522,221.38,109.516z"/>
</g>
</svg>
