<?xml version="1.0" encoding="utf-8"?>
<!-- Generator: Adobe Illustrator 16.0.0, SVG Export Plug-In . SVG Version: 6.00 Build 0)  -->
<!DOCTYPE svg PUBLIC "-//W3C//DTD SVG 1.1//EN" "http://www.w3.org/Graphics/SVG/1.1/DTD/svg11.dtd">
<svg version="1.1" id="Calque_1" xmlns="http://www.w3.org/2000/svg" xmlns:xlink="http://www.w3.org/1999/xlink" x="0px" y="0px"
	 width="283px" height="283px" viewBox="0 0 283 283" enable-background="new 0 0 283 283" xml:space="preserve">
<g>
	<path d="M160.849,174.238c0.078,0.028,0.155,0.057,0.232,0.085c-0.049-0.092-0.099-0.181-0.147-0.272
		C160.905,174.114,160.877,174.177,160.849,174.238z"/>
	<path d="M0,0v283h283V0H0z M224.205,219.296c-2.149,2.172-4.406,4.149-7.438,5.174c-3.896,1.313-7.709,2.893-11.513,4.465
		c-2.33,0.965-4.756,1.477-7.212,1.862c-10.842,1.699-21.757,2.022-32.703,1.604c-2.971-0.114-5.952-0.185-8.906-0.485
		c-4.767-0.485-9.576-0.853-14.252-1.82c-4.099-0.85-8.139-2.122-12.035-3.788c-2.988-1.279-6.105-2.259-9.165-3.368
		c-1.351-0.491-2.698-0.972-3.88-1.844c-0.443-0.325-1.026-0.487-1.568-0.65c-2.582-0.781-4.978-1.935-7.281-3.352
		c-1.543-0.948-3.264-1.601-4.885-2.425c-2.134-1.085-4.284-2.145-6.352-3.346c-0.89-0.517-1.735-1.251-2.342-2.077
		c-1.238-1.693-2.333-3.496-3.431-5.288c-2.118-3.458-2.723-7.308-2.808-11.277c-0.005-0.162,0.171-0.328,0.262-0.492
		c2.264-0.484,30.181-2.851,32.742-2.754c0.134,0.479,0.324,0.998,0.42,1.535c0.549,3.109,1.12,6.22,2.771,8.978
		c0.879,1.471,1.835,2.906,2.876,4.267c3.173,4.15,7.139,7.039,12.331,8.363c10.396,2.651,20.928,3.812,31.626,3.393
		c2.857-0.112,5.721-0.558,8.538-1.087c1.371-0.258,2.765-0.874,3.927-1.657c2.508-1.688,3.66-4.007,2.947-7.168
		c-0.283-1.253-0.099-2.653,0.076-3.96c0.393-2.942,0.948-5.86,0.66-8.859c-0.176-1.834-0.671-3.556-1.374-5.25
		c-1.192-2.878-3.319-4.92-5.891-6.473c-5.214-3.148-10.782-5.311-16.907-6.015c-4.38-0.503-8.756-0.94-13.16-1.168
		c-4.498-0.23-8.989-0.628-13.485-0.938c-3.157-0.215-6.316-0.4-9.476-0.606c-3.731-0.244-7.471-0.417-11.193-0.771
		c-2.86-0.271-5.708-0.715-8.539-1.205c-0.891-0.154-1.874-0.41-2.591-1.434c0.493-0.209,0.891-0.47,1.32-0.541
		c2.553-0.422,5.114-0.79,7.669-1.194c3.597-0.569,7.193-1.138,10.781-1.759c0.504-0.088,0.959-0.474,1.765-0.893
		c-0.904-0.434-1.453-0.816-2.059-0.965c-3.159-0.773-6.315-1.586-9.508-2.2c-4.795-0.923-9.626-1.671-14.433-2.537
		c-4.892-0.881-8.893-3.451-12.434-6.797c-2.014-1.903-3.89-3.954-5.888-5.876c-0.963-0.926-2.024-1.762-3.113-2.54
		c-2.649-1.896-5.341-3.734-8.016-5.594c-1.984-1.379-3.634-3.088-5.043-5.047c-0.671-0.933-1.462-1.779-2.149-2.702
		c-1.57-2.114-2.625-4.42-2.828-7.105c-0.139-1.822-0.688-3.543-1.62-5.17c-0.556-0.972-0.841-2.125-1.097-3.232
		c-0.346-1.49-0.572-3.012-0.799-4.527c-0.246-1.645-0.045-3.179,0.752-4.725c1.858-3.608,4.219-6.848,6.809-9.942
		c0.551-0.657,1.139-1.312,1.543-2.058c1.738-3.211,4.54-5.383,7.271-7.637c0.878-0.724,1.634-1.593,2.489-2.346
		c1.506-1.327,2.993-2.686,4.588-3.902c1.37-1.043,2.872-1.911,4.323-2.849c1.378-0.892,1.379-0.886,1.072-2.491
		c-0.071-0.374-0.137-0.751-0.177-1.131c-0.129-1.249,0.239-2.257,1.38-2.923c0.743-0.434,1.409-1.027,2.191-1.359
		c2.723-1.157,5.225-2.821,8.138-3.541c0.259-0.063,0.497-0.214,0.743-0.323c0-0.15-0.001-0.301-0.002-0.45
		c-1.293-0.06-2.587-0.12-4.177-0.192c2.156-1.41,4.209-2.392,6.324-3.198c1.633-0.623,3.235-1.327,4.522-2.449
		c3.96-3.447,8.86-4.835,13.641-6.509c0.355-0.124,0.752-0.196,1.127-0.186c2.428,0.064,4.763-0.509,7.115-0.967
		c0.47-0.093,0.947-0.187,1.424-0.198c7.096-0.183,14.162-1.144,21.276-0.823c1.055,0.049,2.11,0.075,3.164,0.14
		c1.585,0.098,2.99,0.509,3.944,1.967c0.35,0.533,0.984,0.89,1.514,1.292c0.457,0.349,0.976,0.618,1.421,0.979
		c1.221,0.99,1.212,2.148-0.019,3.087c-0.532,0.407-1.118,0.744-1.655,1.146c-0.375,0.277-0.709,0.607-1.149,0.992
		c0.598,0.856,1.113,1.654,1.688,2.406c0.514,0.67,1.095,1.291,1.687,1.981c-0.657,0.662-1.355,0.37-1.968,0.412
		c-0.764,0.053-1.535-0.001-2.304,0.023c-0.656,0.021-1.312,0.086-1.95,0.13c-0.12,0.738,0.353,0.929,0.778,1.106
		c1.877,0.788,3.533,1.922,5.062,3.241c1.609,1.391,1.716,2.082,0.693,3.993c-0.27,0.505-0.613,0.97-0.922,1.455
		c-0.854,1.345-0.821,1.604,0.136,2.755c0.915,1.102,1.794,2.234,2.671,3.367c0.234,0.301,0.491,0.628,0.588,0.983
		c0.72,2.653,2.522,4.689,3.917,6.955c0.822,1.336,1.239,2.737,1.388,4.313c0.141,1.504,0.489,3.034,1.035,4.441
		c1.205,3.111,2.59,6.153,3.976,9.397c-0.614,0.289-1.09,0.517-1.569,0.74c-2.162,1.012-4.316,2.038-6.487,3.03
		c-4.615,2.108-9.252,4.154-14.19,5.428c-1.381,0.355-2.73,0.832-4.033,1.233c-1.246-0.74-2.084-1.642-2.787-2.68
		c-1.086-1.604-2.427-2.953-3.979-4.112c-2.608-1.949-5.168-3.966-7.794-5.894c-4.403-3.229-9.36-4.702-14.812-4.517
		c-2.97,0.104-5.863,0.57-8.754,1.32c-1.745,0.452-3.539,0.762-5.277,1.295c-3.039,0.93-5.812,2.443-8.637,3.848
		c-2.365,1.177-3.518,3.163-3.83,5.703c-0.296,2.415-0.236,4.703,1.2,6.903c0.923,1.409,1.407,3.135,1.928,4.77
		c1.099,3.442,3.493,5.65,6.613,7.185c1.898,0.932,3.921,1.487,5.995,1.95c4.686,1.046,9.42,1.737,14.192,2.153
		c6.399,0.557,12.806,1.04,19.211,1.521c4.01,0.301,8.027,0.524,12.04,0.808c9.678,0.681,19.255,1.995,28.512,5.02
		c5.312,1.737,10.277,4.216,14.627,7.798c0.44,0.364,0.869,0.749,1.265,1.163c1.454,1.524,2.938,3.025,4.325,4.608
		c1.51,1.723,3.392,2.793,5.545,3.423c2.482,0.727,4.979,1.396,7.468,2.102c0.828,0.234,1.676,0.44,2.462,0.78
		c0.508,0.218,0.977,0.601,1.36,1.006c0.628,0.658,0.472,1.544-0.334,1.906c-0.784,0.352-1.597,0.674-2.429,0.873
		c-2.424,0.577-4.861,1.085-7.293,1.622c-1.123,0.248-2.256,0.459-3.361,0.77c-0.423,0.12-0.781,0.474-1.113,0.686
		c0.022,1.277,0.791,1.872,1.675,2.279c0.952,0.439,1.948,0.811,2.96,1.082c2.405,0.645,4.862,1.107,7.24,1.835
		c4.068,1.245,3.638,1.104,4.322,4.741c0.943,5.018,1.328,10.064,1.04,15.161c-0.103,1.805-0.225,3.608-0.331,5.413
		c-0.138,2.332,0.162,4.578,1.246,6.688c0.26,0.505,0.548,1.066,0.566,1.611c0.075,2.011,1.125,3.627,1.994,5.321
		c0.087,0.169,0.233,0.307,0.331,0.472C225.938,216.202,225.872,217.613,224.205,219.296z"/>
</g>
</svg>
