<?xml version="1.0" encoding="utf-8"?>
<!-- Generator: Adobe Illustrator 16.0.0, SVG Export Plug-In . SVG Version: 6.00 Build 0)  -->
<!DOCTYPE svg PUBLIC "-//W3C//DTD SVG 1.1//EN" "http://www.w3.org/Graphics/SVG/1.1/DTD/svg11.dtd">
<svg version="1.1" id="Calque_1" xmlns="http://www.w3.org/2000/svg" xmlns:xlink="http://www.w3.org/1999/xlink" x="0px" y="0px"
	 width="283px" height="283px" viewBox="0 0 283 283" enable-background="new 0 0 283 283" xml:space="preserve">
<g>
	<path d="M148.521,101.3c0.56-0.001,1.12-0.17,1.678-0.276c3.862-0.741,7.549-2.104,11.278-3.3c1.354-0.435,2.637-1.135,3.879-1.84
		c0.645-0.365,1.196-0.954,1.676-1.536c1.202-1.459,1.222-2.554,0.151-4.165c-1.232-1.852-2.689-3.491-4.593-4.681
		c-2.608-1.63-5.278-3.136-8.33-3.787c-2.243-0.48-4.479-1.021-6.745-1.365c-3.979-0.606-7.976-0.917-11.995-0.218
		c-2.93,0.51-5.817,1.12-8.565,2.309c-2.686,1.161-5.058,2.821-6.884,5.04c-2.268,2.751-1.978,5.011,0.66,6.874
		c2.059,1.453,4.276,2.543,6.651,3.324c3.358,1.104,6.742,2.135,10.101,3.237c1.135,0.371,2.508,0.163,3.316,1.431
		c0.177,0.279,0.889,0.309,1.348,0.293c0.544-0.02,1.08-0.212,1.771-0.362c0.121,0.539,0.217,0.967,0.313,1.395
		c0.901-0.508,1.932-0.874,2.621-1.574C147.381,101.563,147.801,101.303,148.521,101.3z"/>
	<polygon points="101.93,204.575 102.11,204.505 101.933,204.429 	"/>
	<path d="M144.232,103.673c-0.011,0.005-0.021,0.01-0.031,0.016c0.012,0,0.022,0,0.034-0.001
		C144.234,103.683,144.233,103.678,144.232,103.673z"/>
	<path d="M0,0v283h283V0H0z M217.757,128.339c-3.405,0.356-30.427,0.377-32.908,0.035c-0.738-0.573-0.748-1.451-0.91-2.292
		c-0.396-2.066-0.757-4.144-1.301-6.173c-0.627-2.346-2.128-3.834-4.418-4.918c-5.99-2.836-12.37-4.659-18.41-7.344
		c-3.706-0.855-7.272-2.279-11.084-2.713c-0.357-0.041-0.771-0.162-1.031-0.39c-1.037-0.904-2.259-0.914-3.497-0.854
		c0.001,0,0.003-0.001,0.004-0.002c-0.638,0.024-1.278,0.019-1.908,0.09c-0.464,0.053-1.025,0.08-1.353,0.349
		c-1.751,1.425-3.973,1.71-5.951,2.578c-1.397,0.612-2.856,1.107-4.202,1.818c-0.727,0.386-1.317,1.073-1.892,1.697
		c-0.558,0.606-0.682,1.372-0.353,2.147c0.374,0.881,0.724,1.781,1.206,2.601c0.527,0.897,0.664,1.787,0.312,2.745
		c-0.961,2.605-0.829,5.279-0.404,7.937c0.613,3.837,2.728,6.672,6.14,8.497c3.986,2.135,8.19,3.682,12.577,4.827
		c5.097,1.331,10.101,3.018,15.193,4.364c6.109,1.613,12.275,3.006,18.402,4.547c1.664,0.418,3.291,0.996,4.917,1.553
		c2.987,1.022,6,1.987,8.933,3.154c3.933,1.567,7.582,3.675,10.872,6.367c0.923,0.756,0.964,1.49,0.11,2.444
		c-0.767,0.856-1.517,1.747-2.389,2.486c-2.773,2.348-5.352,4.962-8.702,6.549c-0.33,0.157-0.6,0.445-0.989,0.742
		c0.514,1.867,1.025,3.691,1.517,5.521c0.874,3.257,1.129,6.591,1.247,9.943c0.141,4.039-0.154,8.037-1.021,11.99
		c-0.101,0.463-0.086,0.952-0.108,1.43c-0.062,1.365,0.439,2.445,1.672,3.099c0.842,0.449,1.7,0.876,2.582,1.239
		c1.86,0.766,3.726,1.52,5.613,2.215c2.092,0.769,3.485,2.323,4.736,4.05c0.636,0.878,0.574,1.448-0.264,2.256
		c-4.444,4.274-9.179,8.141-14.953,10.529c-2.473,1.021-4.891,2.204-7.42,3.058c-7.016,2.365-14.223,3.81-21.625,4.362
		c-4.411,0.328-8.822,0.456-13.222,0.274c-5.158-0.212-10.329-0.455-15.401-1.672c-4.284-1.029-8.651-1.805-12.735-3.475
		c-6.301-2.576-12.495-5.391-17.632-10.052c-1.133-1.027-2.341-2-3.627-2.826c-1.277-0.82-2.65-1.534-4.062-2.097
		c-2.489-0.994-5.035-1.84-7.561-2.741c-3.802-1.354-7.766-2.08-11.68-2.997c-2.983-0.7-5.945-1.479-8.91-2.248
		c-0.645-0.168-1.269-0.435-1.887-0.692c-1.791-0.743-3.07-1.938-3.39-3.95c-0.436-2.739-0.853-5.48-1.321-8.214
		c-0.406-2.37-0.484-4.739-0.258-7.289c0.566-0.132,1.094-0.361,1.621-0.361c9.689-0.015,19.379-0.008,29.068,0.015
		c0.84,0.002,1.68,0.152,2.547,0.235c0.31,2.264,0.591,4.338,0.88,6.411c0.527,3.781,1.942,7.172,4.31,10.193
		c0.93,1.188,2.016,2.047,3.442,2.451c2.209,0.628,4.401,1.393,6.655,1.775c6.52,1.107,13.064,2.087,19.675,2.498
		c5.55,0.346,11.1,0.797,16.655,0.887c3.04,0.049,6.105-0.457,9.133-0.901c1.854-0.272,2.287-0.878,2.169-2.708
		c-0.053-0.835,0.186-1.496,0.462-2.195c0.492-1.249,1.12-2.455,1.499-3.736c1.615-5.473,0.828-12.055-4.422-16.531
		c-2.932-2.5-6.279-4.379-9.963-5.604c-0.451-0.15-0.926-0.258-1.347-0.471c-4.337-2.18-9.072-3.032-13.744-4.055
		c-4.219-0.923-8.404-1.918-12.473-3.382c-1.376-0.494-2.665-1.06-3.562-2.297c-0.275-0.38-0.639-0.739-1.04-0.979
		c-1.295-0.777-2.258-1.676-2.28-3.375c-0.012-0.89-0.853-1.416-1.537-1.976c-2.222-1.819-4.483-3.604-6.562-5.577
		c-3.673-3.487-6.241-7.745-7.997-12.473c-1.683-4.525-2.5-9.218-2.46-14.062c0.022-2.779-0.108-5.559,0.493-8.307
		c0.309-1.404-0.014-2.572-1.263-3.532c-1.211-0.93-2.233-2.102-3.338-3.168c-1.134-1.099-1.441-2.363-1.01-3.919
		c1.05-3.794,0.152-7.164-2.418-10.117c-0.692-0.797-1.372-1.604-2.053-2.41c-2.186-2.592-2.432-5.512-1.494-8.65
		c1.166-3.896,2.932-7.519,5.312-10.781c1.855-2.542,3.428-5.311,5.695-7.537c1.092-1.071,2.277-2.045,3.361-3.122
		c2.908-2.89,6.617-4.563,10.106-6.524c2.229-1.252,4.784-1.925,7.198-2.845c0.354-0.135,0.75-0.164,1.104-0.304
		c5.781-2.283,11.86-3.012,17.995-3.42c2.099-0.139,4.206-0.299,6.306-0.268c6.323,0.094,12.631,0.51,18.833,1.799
		c4.97,1.033,9.862,2.434,14.583,4.303c5.574,2.208,10.521,5.496,14.979,9.498c2.442,2.191,4.272,4.911,6.155,7.559
		c2.449,3.444,4.624,7.061,6.026,11.084c0.536,1.533,1.025,3.085,1.588,4.609c0.725,1.965,0.755,3.929,0.157,5.921
		c-0.303,1.009-0.562,2.032-0.889,3.034c-0.525,1.611-0.453,3.159,0.117,4.771c1.2,3.392,3.105,6.084,6.438,7.735
		c2.054,1.018,3.93,2.388,5.911,3.556c0.707,0.417,1.214,0.943,1.373,1.741c0.636,3.198,1.076,6.422,1.104,9.688
		C218.116,127.511,217.872,127.953,217.757,128.339z"/>
</g>
</svg>
