<?xml version="1.0" encoding="utf-8"?>
<!-- Generator: Adobe Illustrator 16.0.0, SVG Export Plug-In . SVG Version: 6.00 Build 0)  -->
<!DOCTYPE svg PUBLIC "-//W3C//DTD SVG 1.1//EN" "http://www.w3.org/Graphics/SVG/1.1/DTD/svg11.dtd">
<svg version="1.1" id="Calque_1" xmlns="http://www.w3.org/2000/svg" xmlns:xlink="http://www.w3.org/1999/xlink" x="0px" y="0px"
	 width="283px" height="283px" viewBox="0 0 283 283" enable-background="new 0 0 283 283" xml:space="preserve">
<g>
	<path d="M0,0v283h283V0H0z M220.516,187.997c-1.763,0.827-3.256,1.994-4.674,3.303c-0.939,0.864-2.122,1.286-3.369,1.514
		c-3.111,0.562-6.232,1.071-9.33,1.699c-2.345,0.474-4.665,1.073-6.984,1.662c-0.641,0.164-1.273,0.436-1.852,0.762
		c-0.714,0.405-1.1,1.052-0.995,1.919c0.343,2.878,0.954,5.655,2.679,8.086c0.884,1.245,1.634,2.583,2.501,3.839
		c0.706,1.027,1.535,1.908,2.617,2.621c1.429,0.939,2.696,2.125,4.066,3.231c0,0.659,0.028,1.23-0.006,1.798
		c-0.08,1.369-0.729,2.402-2.02,2.893c-1.787,0.682-3.569,1.443-5.423,1.872c-6.447,1.491-12.94,2.712-19.575,3.094
		c-3.057,0.176-6.098,0.64-9.142,1.015c-6.021,0.738-12.072,0.5-18.113,0.605c-5.684,0.098-11.285-0.696-16.899-1.386
		c-3.615-0.445-7.253-0.778-10.829-1.441c-6.117-1.134-12.157-2.571-18.072-4.603c-7.426-2.551-14.988-4.69-22.482-7.039
		c-5.887-1.844-11.381-4.537-16.626-7.767c-2.112-1.299-3.649-3.075-4.689-5.295c-0.239-0.511-0.426-1.066-0.516-1.622
		c-0.159-0.981,0.075-1.467,0.968-1.842c0.966-0.408,1.962-0.802,2.983-1.008c4.224-0.855,8.461-1.639,12.694-2.451
		c0.939-0.181,1.883-0.356,2.814-0.577c1.229-0.29,2.308-0.811,3.244-1.734c1.084-1.071,2.275-2.041,3.769-2.578
		c0.89-0.318,1.978-0.653,2.185-1.685c0.258-1.297,0.388-2.682-0.333-3.924c-0.385-0.661-0.864-1.266-1.289-1.903
		c-0.312-0.466-0.606-0.942-0.87-1.356c0.27-0.734,0.816-0.584,1.25-0.579c7.284,0.089,14.568,0.189,21.853,0.3
		c3.35,0.049,6.701,0.119,10.012,0.181c2.169,2.044,3.852,4.165,3.488,7.294c-0.365,0.881-1.228,1.169-2.004,1.495
		c-1.525,0.64-2.894,1.517-4.095,2.63c-1.176,1.09-2.547,1.601-4.108,1.867c-4.062,0.689-8.117,1.43-12.154,2.25
		c-1.776,0.361-3.53,0.898-5.248,1.486c-1.289,0.44-1.54,1.261-0.922,2.496c1.051,2.1,2.493,3.889,4.546,5.069
		c1.322,0.762,2.717,1.421,4.132,2.002c5.967,2.454,12.196,4.003,18.536,5.081c4.153,0.705,8.337,1.346,12.532,1.654
		c5.543,0.408,11.112,0.647,16.633-0.454c2.079-0.415,4.06-1.06,6.001-1.917c2.462-1.086,3.784-2.759,3.533-6.514
		c-0.087-1.326-0.487-2.632-0.733-3.949c-0.156-0.832-0.291-1.666-0.422-2.433c1.076-1.23,2.436-1.515,3.705-1.791
		c3.929-0.857,7.885-1.591,11.832-2.362c1.221-0.239,2.486-0.333,3.663-0.708c0.978-0.31,1.974-0.794,2.749-1.45
		c1.396-1.184,2.803-2.29,4.455-3.117c1.658-0.83,1.802-1.523,1.007-3.266c-0.4-0.879-0.938-1.619-1.677-2.289
		c-5.794-5.246-12.415-8.914-20.039-10.721c-3.169-0.75-6.312-1.634-9.511-2.22c-3.862-0.708-7.771-1.167-11.659-1.734
		c-5.307-0.773-10.625-1.495-15.92-2.344c-3.24-0.518-6.2-1.94-9.186-3.229c-1.187-0.514-1.332-1.188-1.269-2.533
		c0.072-1.508,0.775-2.499,1.983-3.279c1.12-0.725,2.196-1.521,3.121-2.166c0.14-0.422,0.251-0.602,0.248-0.78
		c-0.014-2.585-0.017-2.585-2.039-4.277c-0.294-0.246-0.633-0.45-0.884-0.733c-2.119-2.402-4.949-3.544-7.896-4.479
		c-2.83-0.898-5.623-1.955-8.505-2.645c-4.264-1.017-7.226-3.801-10.032-6.853c-0.71-0.771-1.219-1.721-0.943-2.883
		c0.284-1.198-0.17-2.215-0.711-3.276c-1.258-2.469-2.682-4.85-3.562-7.52c-0.663-2.013-1.107-4.052-1.431-6.131
		c-0.311-2.009-0.087-3.996,0.288-5.988c0.318-1.689,0.469-3.412,0.682-5.121c0.189-1.519,0.398-3.035,0.532-4.559
		c0.159-1.81,0.469-3.645,0.314-5.436c-0.229-2.641,0.661-4.894,1.887-7.066c0.939-1.666,2.08-3.218,3.089-4.847
		c0.549-0.886,1.009-1.823,1.51-2.739c0.183-0.336,0.312-0.718,0.557-1.001c2.68-3.127,5.164-6.427,8.326-9.127
		c1.542-1.317,3.172-2.466,4.942-3.442c1.593-0.879,3.179-1.779,4.717-2.747c1.308-0.823,2.657-1.507,4.135-1.974
		c2.281-0.725,4.563-1.46,6.8-2.311c3.8-1.441,7.777-2.072,11.768-2.553c3.889-0.469,7.791-0.891,11.727-0.879
		c4.799,0.017,9.556,0.479,14.312,1.02c3.82,0.436,7.599,1.088,11.264,2.255c2.829,0.899,5.769,1.61,8.407,2.913
		c5.285,2.604,10.085,5.831,12.865,11.416c1.525,3.07,3.522,5.909,5.351,8.824c1.735,2.764,3.482,5.506,4.427,8.677
		c0.502,1.686,1.613,3.047,2.762,4.334c0.66,0.74,1.163,1.497,1.334,2.481c0.491,2.832,1.119,5.646,1.141,8.534
		c0.008,1.132,0.107,2.327-0.966,3.354c-10.429,0.396-20.972,0.209-31.509,0.296c-0.46,0.004-0.919-0.129-1.439-0.209
		c-0.055-0.586-0.142-1.055-0.136-1.521c0.059-4.085-1.477-7.671-3.521-11.074c-0.37-0.616-1.078-1.075-1.709-1.485
		c-2.404-1.568-4.866-3.038-7.249-4.65c-3.626-2.456-7.776-3.7-12.137-3.993c-3.149-0.214-6.322-0.258-9.474-0.129
		c-2.38,0.096-4.765,0.48-7.114,0.926c-2.576,0.489-4.854,1.802-6.996,3.243c-0.995,0.671-1.683,1.798-2.5,2.729
		c-2.018,2.294-3.247,4.966-3.633,7.989c-0.167,1.317-0.16,2.658-0.175,3.989c-0.008,0.855,0.176,1.721,0.123,2.571
		c-0.188,3.087,1.263,5.311,3.646,7.031c0.771,0.558,1.624,1.029,2.493,1.423c3.579,1.622,7.177,3.213,11.049,4.015
		c4.883,1.01,9.634,2.506,14.42,3.869c6.348,1.812,12.611,3.924,19.072,5.332c1.695,0.371,3.275,0.989,4.724,1.983
		c2.219,1.521,4.691,2.573,7.123,3.693c2.956,1.359,5.885,2.729,8.556,4.655c1.365,0.986,3.09,1.49,4.684,2.137
		c2.487,1.008,4.984,1.997,7.508,2.909c3.449,1.247,6.563,3.099,9.666,5.016c1.76,1.087,2.758,2.309,2.038,4.5
		c-0.141,0.164-0.286,0.447-0.518,0.588c-2.632,1.592-4.261,4.058-5.868,6.567c-0.803,1.254-1.072,2.665-1.363,4.06
		c-0.237,1.132,0.557,1.989,1.172,2.836c1.238,1.704,2.522,3.377,3.774,5.071c0.341,0.462,0.715,0.926,0.935,1.446
		c0.614,1.46,1.745,2.468,2.789,3.598c1.423,1.54,2.67,3.258,3.86,4.99C222.623,184.575,222.496,187.069,220.516,187.997z"/>
</g>
</svg>
