<?xml version="1.0" encoding="utf-8"?>
<!-- Generator: Adobe Illustrator 16.0.0, SVG Export Plug-In . SVG Version: 6.00 Build 0)  -->
<!DOCTYPE svg PUBLIC "-//W3C//DTD SVG 1.1//EN" "http://www.w3.org/Graphics/SVG/1.1/DTD/svg11.dtd">
<svg version="1.1" id="Calque_1" xmlns="http://www.w3.org/2000/svg" xmlns:xlink="http://www.w3.org/1999/xlink" x="0px" y="0px"
	 width="283px" height="283px" viewBox="0 0 283 283" enable-background="new 0 0 283 283" xml:space="preserve">
<g>
	<path d="M0,0v283h283V0H0z M211.814,76.62c-2.652,0.407-5.309,0.775-7.961,1.191c-1.037,0.163-2.076,0.367-3.084,0.655
		c-0.283,0.079-0.631,0.522-0.637,0.806c-0.01,0.303,0.281,0.752,0.564,0.894c0.734,0.37,1.537,0.606,2.877,1.108
		c-2.307,0.38-4.012,0.236-5.697,0.238c-7.387,0.003-14.773-0.073-22.16-0.041c-2.904,0.012-5.732-0.315-8.496-1.201
		c-0.641-0.205-1.319-0.406-1.167-1.462c1.053-0.526,2.253-0.699,3.481-0.854c2.471-0.312,4.938-0.669,7.395-1.079
		c1.271-0.213,1.752-0.646,1.658-1.202c-0.141-0.832-0.869-1.021-1.477-1.173c-1.949-0.487-3.926-0.866-5.891-1.298
		c-0.934-0.205-1.887-0.37-2.785-0.686c-0.359-0.126-0.594-0.607-0.966-1.018c2.626-1.468,5.685-0.77,8.173-2.535
		c-0.42-0.5-0.682-1.089-1.121-1.285c-0.863-0.387-1.811-0.647-2.748-0.799c-2.742-0.442-5.502-0.786-8.247-1.209
		c-1.479-0.228-3.004-0.406-4.27-1.786c3.581-1.358,7.36-0.821,10.847-2.256c-0.752-1.045-1.775-1.373-2.763-1.566
		c-2.438-0.479-4.892-1.018-7.362-1.177c-5.071-0.328-10.156-0.456-15.237-0.596c-1.431-0.038-2.87,0.16-4.305,0.264
		c-1.654,0.12-3.113,0.573-4.452,1.716c-1.562,1.334-3.612,1.664-5.62,1.961c-2.463,0.364-4.917,0.793-7.381,1.173
		c-1.278,0.197-2.242,0.893-3.221,1.736c0.467,0.914,1.279,0.969,1.955,1.213c1.076,0.39,2.188,0.688,3.248,1.115
		c0.705,0.283,0.756,1.23,0.104,1.607c-0.488,0.281-1.035,0.516-1.584,0.623c-1.316,0.262-2.654,0.409-3.973,0.654
		c-0.939,0.176-1.88,0.387-2.789,0.675c-0.574,0.182-0.975,0.607-0.769,1.521c0.583,0.23,1.259,0.568,1.974,0.769
		c1.477,0.415,2.975,0.746,4.457,1.136c0.46,0.119,0.951,0.24,1.328,0.502c0.256,0.179,0.438,0.597,0.462,0.922
		c0.015,0.189-0.315,0.542-0.54,0.592c-1.309,0.291-2.625,0.555-3.949,0.752c-1.896,0.281-3.807,0.471-5.703,0.755
		c-0.656,0.099-1.308,0.315-1.925,0.565c-0.203,0.082-0.393,0.438-0.403,0.679c-0.012,0.246,0.139,0.642,0.329,0.73
		c0.688,0.317,1.409,0.589,2.143,0.778c1.671,0.429,3.368,0.757,5.032,1.211c0.593,0.163,1.119,0.574,1.59,0.826
		c-0.029,0.971-0.61,1.168-1.156,1.271c-1.506,0.284-3.023,0.505-4.538,0.738c-1.222,0.188-2.448,0.354-3.544,0.82
		c-0.182,1.024,0.475,1.354,1.118,1.493c1.311,0.281,2.642,0.488,3.976,0.627c4.291,0.444,8.59,0.825,12.88,1.276
		c0.947,0.1,1.887,0.345,2.811,0.599c0.91,0.252,1.795,0.603,2.768,0.937c-1.314,1.015-1.319,0.978-2.445,1.108
		c-2.856,0.334-5.706,0.708-8.558,1.079c-0.369,0.048-0.729,0.176-1.378,0.339c0.485,0.434,0.747,0.843,1.108,0.963
		c2.666,0.887,5.464,0.967,8.227,1.184c6.118,0.482,12.247,0.826,18.364,1.328c1.603,0.131,3.179,0.615,4.758,0.975
		c0.331,0.075,0.624,0.315,1.254,0.648c-3.352,1.338-6.713,0.734-9.924,1.914c0.278,0.349,0.448,0.786,0.698,0.839
		c2.15,0.452,4.297,0.984,6.476,1.21c6.391,0.661,12.797,1.163,19.189,1.791c2.684,0.265,5.314,0.79,7.529,2.525
		c0.289,0.229,0.695,0.309,1.037,0.476c3.998,1.963,7.426,4.705,10.564,7.825c0.811,0.807,0.77,0.848,0.629,2.604
		c-0.881,0.669-1.785,1.371-2.707,2.051c-2.189,1.617-4.646,2.67-7.275,3.318c-4,0.987-8.012,1.926-12.01,2.91
		c-2.324,0.572-4.653,1.135-6.943,1.822c-0.787,0.236-1.535,0.756-2.179,1.293c-1.567,1.308-3.222,2.359-5.274,2.771
		c-1.117,0.225-2.208,0.656-3.26,1.108c-2.322,0.996-4.774,1.38-7.248,1.653c-5.525,0.609-11.06,1.132-16.579,1.785
		c-1.992,0.235-3.954,0.734-5.924,1.139c-0.368,0.075-0.731,0.233-1.062,0.416c-0.94,0.52-1.217,1.636-0.521,2.436
		c0.424,0.487,1,0.886,1.578,1.188c3.158,1.648,6.531,2.727,9.958,3.65c3.699,0.996,7.4,1.994,11.104,2.973
		c7.869,2.077,15.741,4.141,23.612,6.213c5.902,1.554,11.197,4.366,16.256,7.716c2.654,1.757,5.139,3.682,7.289,6.024
		c3.979,4.33,7.609,8.91,9.332,14.646c1.352,4.509,2.141,9.113,1.975,13.879c-0.111,3.255-0.072,6.498-0.666,9.726
		c-1.025,5.594-2.646,10.962-5.66,15.832c-2.631,4.252-5.723,8.065-9.582,11.341c-3.926,3.33-8.109,6.071-12.932,7.852
		c-1.973,0.729-3.951,1.454-5.9,2.248c-1.213,0.496-2.551,0.849-2.914,2.476c-0.075,0.334-0.928,0.651-1.449,0.704
		c-2.573,0.263-5.157,0.6-7.737,0.607c-9.117,0.025-18.235-0.018-27.353-0.146c-5.082-0.07-10.163-0.299-15.237-0.563
		c-4.98-0.261-9.951-0.666-14.927-0.989c-1.449-0.094-2.807-0.322-3.785-1.722c2.083-1.311,4.611-0.707,6.75-2.122
		c-0.342-0.294-0.557-0.586-0.844-0.713c-4.863-2.135-9.217-4.98-13.254-8.478c-7.011-6.072-11.897-13.46-14.672-22.238
		c-1.772-5.606-2.59-11.39-2.32-17.292c0.012-0.281,0.105-0.56,0.191-0.999c0.607-0.1,1.247-0.294,1.887-0.294
		c5.752,0.009,11.505,0.059,17.258,0.077c3.545,0.014,7.091-0.015,10.637-0.006c1.044,0.003,2.088,0.069,2.952,0.1
		c0.867,0.721,0.706,1.521,0.773,2.271c0.258,2.949,0.53,5.905,1.652,8.685c2.053,5.092,5.175,9.235,9.834,12.379
		c5.447,3.676,11.468,5.114,17.819,5.82c1.903,0.212,3.788,0.487,5.717,0.452c5.301-0.098,10.51-0.847,15.572-2.371
		c3.524-1.062,6.553-3.107,9.336-5.512c3.322-2.87,4.777-6.574,5.076-10.868c0.221-3.149-0.332-6.103-1.855-8.868
		c-0.937-1.699-2.142-3.195-3.719-4.317c-3.049-2.172-6.312-3.933-9.79-5.39c-5.868-2.459-12.026-3.827-18.149-5.368
		c-5.016-1.261-10.097-2.325-15.015-3.897c-5.374-1.719-10.912-2.961-16.098-5.26c-3.061-1.357-6.125-2.67-8.946-4.543
		c-3.038-2.019-6.056-4.011-8.647-6.613c-4.698-4.718-8.157-10.135-9.779-16.645c-0.094-0.371-0.197-0.739-0.286-1.11
		c-0.469-1.961-0.002-3.602,1.656-4.836c0.308-0.229,0.582-0.508,0.908-0.705c2.029-1.225,3.105-3.146,3.579-5.344
		c0.438-2.039,1.565-3.514,3.243-4.513c2.054-1.223,4.212-2.277,6.373-3.302c1.999-0.947,7.301-3.957,8.821-5.199
		c-0.82-1.601-2.123-2.447-3.405-3.236c-3.211-1.982-5.749-4.729-8.361-7.359c-1.151-1.16-2.335-1.943-3.868-2.265
		c-2.064-0.433-4.142-0.812-6.21-1.229c-1.034-0.209-2.077-0.401-3.084-0.705c-0.399-0.121-0.714-0.522-1.258-0.945
		c1.148-0.837,2.255-0.941,3.367-1.088c2.279-0.303,4.553-0.646,6.823-1.006c0.643-0.102,1.391-0.131,1.625-0.945
		c0.156-0.544-0.433-1.195-1.522-1.435c-2.338-0.515-4.693-0.949-7.052-1.376c-0.856-0.154-1.688-0.309-2.318-0.946
		c-0.125-0.804,0.399-1.029,0.994-1.118c2.748-0.415,5.499-0.816,8.253-1.197c0.872-0.121,1.687-0.318,2.285-0.963
		c0.12-0.851-0.263-1.381-0.987-1.576c-1.475-0.396-2.961-0.769-4.462-1.052c-1.599-0.303-3.227-0.449-4.827-0.743
		c-0.737-0.136-1.44-0.463-2.075-0.675c-0.279-0.76,0.147-1.07,0.603-1.163c1.5-0.307,3.019-0.533,4.531-0.788
		c1.229-0.208,2.467-0.374,3.686-0.631c0.758-0.158,1.484-0.454,1.659-1.607c-0.489-0.269-1.015-0.668-1.605-0.859
		c-1.821-0.588-3.669-1.096-5.507-1.636c-0.519-0.152-0.781-0.479-0.741-1.2c0.879-0.532,1.91-0.709,2.923-0.856
		c1.896-0.277,3.81-0.441,5.707-0.714c1.137-0.163,2.271-0.387,3.377-0.692c0.394-0.109,0.698-0.543,0.971-0.768
		c-0.099-1.037-0.806-1.256-1.414-1.434c-1.652-0.483-3.335-0.865-5-1.307c-0.552-0.146-1.16-0.246-1.606-0.56
		c-0.281-0.198-0.312-0.755-0.539-1.382c2.47-0.464,4.725-0.857,6.963-1.326c0.633-0.133,1.271-0.409,1.815-0.76
		c0.641-0.412,0.555-1.369-0.151-1.625c-1.254-0.46-2.542-0.837-3.833-1.184c-1.109-0.298-2.25-0.479-3.361-0.772
		c-0.232-0.062-0.58-0.409-0.557-0.581c0.045-0.325,0.248-0.746,0.514-0.898c0.484-0.275,1.051-0.453,1.605-0.547
		c2.361-0.403,4.735-0.731,7.096-1.145c1.032-0.181,2.066-0.426,3.053-0.773c0.797-0.281,0.909-1.364,0.217-1.883
		c-0.526-0.393-1.146-0.664-1.742-0.953c-0.514-0.251-1.053-0.444-1.575-0.678c-0.079-0.034-0.123-0.143-0.192-0.229
		c-0.178-0.982,0.504-1.412,1.242-1.627c1.102-0.318,2.248-0.479,3.374-0.71c1.782-0.364,3.577-0.672,5.339-1.119
		c1.267-0.321,1.246-0.404,2.211-2.11c-0.434-0.556-0.895-1.148-1.41-1.811c0.234-0.32,0.391-0.771,0.682-0.889
		c0.963-0.387,1.956-0.781,2.975-0.939c2.934-0.454,5.886-0.815,8.836-1.17c1.583-0.189,3.013-0.633,3.964-2.011
		c1.888-2.735,4.799-3.644,7.799-4.369c1.303-0.314,2.648-0.453,3.952-0.769c3.625-0.879,7.254-1.758,10.855-2.73
		c4.576-1.235,9.249-1.638,13.955-1.683c4.894-0.048,9.792-0.086,14.68,0.104c5.953,0.23,11.834,1.087,17.562,2.815
		c0.93,0.28,1.74,0.629,2.41,1.427c0.949,1.132,2.318,1.698,3.738,2.01c1.777,0.389,3.57,0.731,5.373,0.984
		c2.275,0.318,4.564,0.547,6.854,0.775c1.459,0.146,2.834,0.552,4.062,1.329c0.418,0.265,0.654,0.818,1.107,1.419
		c-1.576,0.596-2.951,0.864-4.357,1.09c-1.365,0.22-2.834,0.233-3.971,1.26c0.479,1.114,1.375,1.421,2.295,1.714
		c1.369,0.436,2.742,0.859,4.094,1.345c0.701,0.251,0.725,0.358,1.395,1.771c-2.875,1.333-6.223,0.89-8.994,2.236
		c-0.268,1.146,0.395,1.621,1.133,1.84c1.283,0.381,2.619,0.57,3.914,0.9c1.203,0.306,2.395,0.659,3.568,1.056
		c0.566,0.189,0.99,0.586,0.84,1.367c-0.943,0.639-2.07,0.744-3.203,0.892c-2.09,0.273-4.182,0.565-6.252,0.943
		c-0.803,0.146-1.822,0.088-2.186,1.104c-0.215,0.6,0.668,1.236,2.141,1.52c2.162,0.415,4.34,0.769,6.504,1.19
		c0.748,0.146,1.5,0.351,2.195,0.652c0.391,0.168,0.67,0.589,0.975,0.873c-0.314,0.9-0.977,1.038-1.619,1.164
		c-1.785,0.352-3.584,0.633-5.359,1.029c-1.303,0.291-1.713,0.691-1.602,1.258c0.174,0.875,0.969,0.869,1.568,1.023
		c2.041,0.523,4.1,0.975,6.154,1.438c0.752,0.17,1.494,0.335,1.969,1.02C212.904,76.234,212.428,76.524,211.814,76.62z"/>
</g>
</svg>
