<?xml version="1.0" encoding="utf-8"?>
<!-- Generator: Adobe Illustrator 16.0.0, SVG Export Plug-In . SVG Version: 6.00 Build 0)  -->
<!DOCTYPE svg PUBLIC "-//W3C//DTD SVG 1.1//EN" "http://www.w3.org/Graphics/SVG/1.1/DTD/svg11.dtd">
<svg version="1.1" id="Calque_1" xmlns="http://www.w3.org/2000/svg" xmlns:xlink="http://www.w3.org/1999/xlink" x="0px" y="0px"
	 width="283px" height="283px" viewBox="0 0 283 283" enable-background="new 0 0 283 283" xml:space="preserve">
<g>
	<path d="M0,0v283h283V0H0z M218.103,85.182c-6.23-0.192-12.464-0.296-18.696-0.421c-2.973-0.06-5.947-0.086-8.92-0.137
		c-0.565-0.011-1.129-0.064-1.741-0.1c0.038-0.475,0.068-0.846,0.109-1.348c-4.602-2.981-9.375-5.791-14.356-8.228
		c-3.354-1.641-6.845-2.983-10.026-4.992c-1.699-1.073-3.686-1.571-5.652-2.048c-1.854-0.447-3.682-1.006-5.517-1.538
		c-0.152-0.045-0.257-0.252-0.437-0.438c4.353-0.969,8.734-1.789,12.67-4.09c-0.309-1.028-0.984-1.308-1.76-1.453
		c-4.645-0.866-9.314-1.046-13.994-0.358c-1.8,0.265-3.572,0.705-5.357,1.064c-1.252,0.25-2.347,0.8-3.304,1.649
		c-1.344,1.192-1.33,1.7,0.121,2.886c0.144,0.117,0.277,0.246,0.577,0.516c-0.408,0.196-0.692,0.412-1.008,0.473
		c-3.01,0.589-5.968,1.369-8.846,2.424c-1.927,0.705-3.539,1.9-4.916,3.405c-1.149,1.259-1.424,2.737-0.56,4.224
		c0.565,0.973,1.344,1.88,2.201,2.611c1.604,1.363,3.278,2.661,5.283,3.436c0.35,0.134,0.646,0.403,0.957,0.604
		c0.129,0.785-0.533,1.007-0.976,1.258c-2.995,1.703-6.021,3.352-9.034,5.023c-0.893,0.496-2.04,0.621-2.543,1.656
		c0.203,0.941,0.948,1.279,1.659,1.495c1.464,0.44,2.954,0.837,4.46,1.095c1.698,0.291,3.424,0.457,5.143,0.6
		c5.352,0.444,10.71,0.826,16.062,1.281c4.111,0.35,8.155,1.064,12.263,2.573c-0.296,0.271-0.492,0.589-0.755,0.661
		c-0.917,0.249-1.852,0.461-2.792,0.6c-2.846,0.418-5.696,0.793-8.544,1.193c-0.489,0.068-0.945,0.209-0.961,0.965
		c1.896,0.847,3.991,1.107,6.045,1.399c4.556,0.648,9.137,1.03,13.731,1.333c6.505,0.428,12.995,1.096,19.481,1.755
		c2.084,0.212,4.115,0.798,6.313,1.863c-0.636,0.299-1.005,0.591-1.405,0.642c-3.42,0.436-6.846,0.833-10.271,1.232
		c-1.996,0.233-3.999,0.423-5.991,0.695c-0.426,0.057-0.814,0.382-1.489,0.716c0.752,0.413,1.207,0.797,1.724,0.927
		c3.926,0.995,7.548,2.788,11.217,4.401c1.885,0.829,3.468,2.355,5.153,3.61c0.61,0.454,1.092,1.077,1.688,1.552
		c1.804,1.434,3.38,2.959,4.447,5.126c0.914,1.853,2.413,3.444,3.778,5.043c2.479,2.898,4.033,6.264,5.177,9.844
		c0.438,1.365,0.763,2.772,1.049,4.179c0.36,1.763,0.282,3.412-1.292,4.701c-1.145,0.938-1.758,2.218-2.049,3.689
		c-0.405,2.063-0.956,4.099-1.372,6.16c-0.356,1.768-1.183,3.211-2.562,4.371c-1.469,1.234-2.847,2.549-4.033,4.083
		c-0.759,0.983-0.836,1.896-0.285,2.917c0.818,1.517,1.605,3.054,2.522,4.509c2.124,3.365,3.615,6.942,4.199,10.907
		c0.176,1.188,0.126,2.309-0.253,3.389c-0.825,2.354-1.784,4.617-3.838,6.271c-1.562,1.259-2.905,2.785-4.436,4.086
		c-2.067,1.756-3.689,3.887-5.325,6.012c-0.407,0.527-0.725,1.127-1.055,1.708c-0.578,1.018-0.574,1.961,0.235,2.913
		c0.48,0.567,0.763,1.298,1.161,1.938c0.978,1.573,0.483,2.962-0.628,4.167c-3.394,3.688-7.165,6.912-11.676,9.186
		c-0.258,0.13-0.54,0.228-0.766,0.397c-3.127,2.347-6.875,3.283-10.427,4.698c-6.694,2.667-13.753,3.266-20.796,4.066
		c-5.542,0.63-11.099,0.643-16.646,0.318c-6.699-0.393-13.377-1.184-19.836-3.059c-3.756-1.091-7.523-2.386-10.997-4.153
		c-5.462-2.779-10.671-6.019-14.94-10.582c-2.026-2.164-4.448-3.817-7.197-5.14c-2.557-1.229-5.141-1.956-7.881-2.437
		c-1.88-0.33-3.718-0.901-5.572-1.374c-0.372-0.094-0.741-0.209-1.096-0.352c-2.832-1.145-3.226-2.131-2.049-5.107
		c0.072-0.054,0.142-0.115,0.221-0.157c0.084-0.044,0.177-0.095,0.27-0.101c2.871-0.191,5.739-0.422,8.613-0.553
		c8.048-0.368,16.099-0.695,24.147-1.029c0.178-0.007,0.358,0.105,0.711,0.216c0,0.759-0.026,1.578,0.006,2.396
		c0.062,1.469,0.662,2.586,2.146,3.07c1.089,0.355,2.162,0.775,3.273,1.038c4.118,0.973,8.332,1.339,12.532,1.644
		c7.464,0.541,14.944,0.785,22.433,0.623c5.566-0.122,11.111-0.495,16.567-1.681c2.873-0.626,5.464-1.814,7.37-4.155
		c0.537-0.661,1.006-1.402,1.389-2.166c0.848-1.697,0.668-1.964-0.574-3.532c-1.66-2.095-3.169-4.312-4.713-6.497
		c-0.271-0.382-0.539-0.862-0.558-1.309c-0.082-1.918-1.482-2.83-2.835-3.685c-1.125-0.71-2.382-1.253-3.64-1.707
		c-3.504-1.269-7.038-2.448-10.559-3.669c-5.333-1.85-10.712-3.579-15.978-5.604c-3.108-1.195-6.39-1.959-9.312-3.651
		c-1.436-0.832-2.617-1.849-3.508-3.437c0.546-0.403,0.95-0.794,1.429-1.039c2.672-1.362,5.553-2.139,8.473-2.673
		c4.991-0.914,10.021-1.618,15.017-2.505c2.545-0.451,5.077-1.024,7.57-1.708c1.078-0.295,2.042-1.008,3.055-1.536
		c2.625-1.366,5.238-2.756,7.883-4.088c0.677-0.34,1.448-0.496,2.177-0.733c2.64-0.857,5.266-1.688,7.722-3.067
		c1.561-0.877,3.396-1.26,5.104-1.879c0.988-0.357,1.988-0.692,2.937-1.141c0.38-0.179,0.632-0.633,0.908-0.927
		c-0.482-1.315-1.526-1.897-2.479-2.499c-3.734-2.365-7.687-4.327-11.96-5.478c-6.377-1.718-12.797-3.281-19.202-4.891
		c-2.225-0.559-4.416-1.183-6.596-1.922c-2.982-1.011-6.099-1.63-9.159-2.414c-0.832-0.213-1.693-0.346-2.495-0.641
		c-3.056-1.123-6.113-2.25-9.128-3.479c-1.052-0.429-2.148-0.992-2.932-1.783c-1.252-1.266-2.747-2.067-4.272-2.857
		c-2.679-1.385-4.721-3.58-7.017-5.45c-0.964-0.784-1.876-1.631-2.828-2.432c-1.169-0.982-2.361-1.939-2.974-3.738
		c2.38-0.951,4.706-0.997,6.968-1.354c2.745-0.434,5.507-0.757,8.253-1.188c0.632-0.098,1.226-0.434,1.81-0.65
		c-0.02-1.184-0.676-1.721-1.551-1.923c-1.769-0.409-3.55-0.782-5.344-1.054c-4.072-0.613-8.157-1.141-12.232-1.736
		c-1.144-0.166-2.258-0.467-2.906-1.87c0.492-0.287,0.914-0.674,1.4-0.789c1.863-0.445,3.747-0.805,5.624-1.191
		c1.219-0.251,2.448-0.475,3.374-1.501c0.011-1.227-0.598-2.014-1.706-2.354c-1.188-0.362-2.414-0.599-3.622-0.897
		c-1.485-0.368-2.974-0.728-4.452-1.12c-1.023-0.272-1.62-0.941-1.733-2.037c0.505-0.967,1.522-1.065,2.38-1.445
		c4.206-1.858,8.407-3.728,12.598-5.621c0.674-0.305,1.47-0.532,1.67-1.358c-2.023-1.64-4.086-3.182-5.989-4.9
		c-1.125-1.017-2.049-2.274-2.973-3.492c-1.274-1.675-1.469-3.491-0.451-5.389c0.454-0.845,0.894-1.698,1.325-2.555
		c0.761-1.514,1.904-2.644,3.434-3.357c3.497-1.631,6.62-3.839,9.723-6.106c3.888-2.841,8.067-5.244,12.684-6.648
		c5.134-1.561,10.356-2.825,15.704-3.487c5.618-0.696,11.249-1.288,16.909-1.207c6.032,0.087,12.065,0.291,18.077,0.899
		c2.86,0.289,5.732,0.461,8.598,0.697c8.604,0.71,17.168,1.703,25.622,3.496c2.44,0.518,4.861,1.15,7.1,2.276
		c1.015,0.511,1.964,1.177,2.876,1.86c1.063,0.8,1.401,2.027,1.642,3.266c0.159,0.817-0.095,1.555-0.728,2.072
		c-0.664,0.543-1.374,1.048-2.125,1.459c-1.682,0.922-3.414,1.748-5.098,2.664c-1.513,0.824-1.751,1.466-1.213,3.028
		c0.25,0.724,0.57,1.424,0.827,2.146c0.499,1.398,1.369,2.447,2.573,3.353c4.294,3.227,8.639,6.372,13.188,9.227
		c0.24,0.151,0.469,0.319,0.808,0.551C221.431,84.614,219.958,85.239,218.103,85.182z"/>
	<path d="M92.911,210.684c0.023-0.052,0.047-0.102,0.07-0.152c-0.063-0.023-0.126-0.047-0.188-0.07
		C92.832,210.535,92.872,210.608,92.911,210.684z"/>
</g>
</svg>
