<?xml version="1.0" encoding="utf-8"?>
<!-- Generator: Adobe Illustrator 16.0.0, SVG Export Plug-In . SVG Version: 6.00 Build 0)  -->
<!DOCTYPE svg PUBLIC "-//W3C//DTD SVG 1.1//EN" "http://www.w3.org/Graphics/SVG/1.1/DTD/svg11.dtd">
<svg version="1.1" id="Calque_1" xmlns="http://www.w3.org/2000/svg" xmlns:xlink="http://www.w3.org/1999/xlink" x="0px" y="0px"
	 width="283px" height="283px" viewBox="0 0 283 283" enable-background="new 0 0 283 283" xml:space="preserve">
<path d="M0,0v283h283V0H0z M214.838,167.049c-1.313,1.247-2.754,2.38-4.236,3.422c-2.742,1.928-5.578,3.722-8.327,5.639
	c-0.77,0.537-1.453,1.248-2.029,1.992c-0.639,0.825-0.582,1.576,0.064,2.366c0.483,0.59,1.036,1.138,1.629,1.615
	c1.197,0.96,2.489,1.805,3.656,2.797c1.604,1.362,3.234,2.72,4.657,4.261c1.474,1.596,1.938,3.714,2.238,5.812
	c0.162,1.131-0.349,2.101-1.292,2.716c-1.763,1.147-3.551,2.261-5.375,3.307c-5.648,3.241-11.949,4.606-18.167,6.169
	c-5.946,1.494-11.978,2.62-18.042,3.479c-5.786,0.817-11.623,1.272-17.431,1.935c-7.173,0.82-14.368,0.618-21.561,0.552
	c-4.718-0.045-9.327-0.623-13.865-2.097c-2.57-0.833-4.976-1.851-7.331-3.148c-2.428-1.34-5.038-2.341-7.505-3.614
	c-1.61-0.832-3.117-1.868-4.644-2.854c-0.473-0.306-0.965-0.683-1.261-1.146c-1.144-1.794-2.886-2.774-4.734-3.603
	c-1.575-0.705-3.192-1.313-4.786-1.972c-2.219-0.919-4.188-2.112-6.008-3.792c-2.589-2.389-5.17-4.85-8.242-6.688
	c-1.226-0.733-2.312-1.707-3.434-2.605c-0.751-0.603-1.426-1.286-1.67-2.451c0.416-1.026,1.358-1.674,2.373-2.21
	c1.523-0.805,3.092-1.525,4.622-2.32c2.208-1.147,4.416-2.303,6.593-3.507c1.471-0.812,2.484-2.085,3.219-3.579
	c0.694-1.416,0.524-2.604-0.719-3.58c-1.352-1.061-2.776-2.046-4.258-2.912c-1.902-1.111-3.897-2.062-5.844-3.098
	c-0.838-0.445-1.4-1.036-0.754-2.276c10.816,0.124,21.734,0.01,32.492,0.275c1.262,1.777,1.272,1.759,2.874,2.582
	c2.723,1.4,5.455,2.785,8.133,4.266c0.995,0.551,1.888,1.312,2.763,2.055c0.846,0.719,1.131,1.666,1.135,2.814
	c0.006,1.511-0.572,2.507-1.832,3.312c-1.959,1.251-4.076,2.119-6.229,2.941c-2.595,0.991-5.199,1.966-7.763,3.032
	c-0.778,0.323-1.498,0.856-2.143,1.411c-0.661,0.572-0.668,1.354-0.123,2.061c1.189,1.539,2.748,2.658,4.34,3.74
	c1.185,0.807,2.332,1.668,3.517,2.474c2.689,1.833,5.343,3.728,8.113,5.43c1.199,0.735,2.622,1.165,3.996,1.548
	c5.93,1.648,12.015,2.356,18.121,2.996c7.372,0.771,14.754,0.831,22.135,0.474c3.529-0.171,7.043-0.768,10.549-1.274
	c1.517-0.221,2.964-0.789,4.274-1.632c1.362-0.874,1.753-1.994,0.951-3.431c-0.55-0.984-1.282-1.931-2.122-2.68
	c-1.354-1.207-2.869-2.232-4.308-3.344c-1.366-1.055-2.769-2.07-4.073-3.197c-1.608-1.39-1.726-2.582-0.15-3.815
	c3.157-2.473,5.859-5.522,9.588-7.293c1.617-0.768,3.053-1.986,4.438-3.158c1.531-1.295,1.483-2.51-0.047-3.853
	c-0.713-0.625-1.532-1.183-2.394-1.57c-2.618-1.184-5.253-2.335-7.934-3.365c-1.378-0.529-2.555-1.229-3.58-2.293
	c-2.868-2.978-6.386-4.817-10.373-5.861c-2.497-0.654-4.932-1.55-7.424-2.22c-3.147-0.847-6.326-1.571-9.491-2.354
	c-3.343-0.825-6.7-1.596-10.024-2.498c-4.062-1.102-8.104-2.286-12.138-3.488c-4.967-1.48-9.749-3.459-14.471-5.58
	c-1.115-0.5-2.243-1.051-3.236-2.162c0.438-0.412,0.764-0.908,1.221-1.115c1.479-0.672,3.007-1.232,4.515-1.845
	c1.852-0.75,3.812-1.286,5.534-2.741c-0.246-0.412-0.453-0.803-0.704-1.163c-0.163-0.233-0.392-0.421-0.588-0.631
	c-2.677-2.836-5.628-5.073-9.677-5.737c-5.006-0.821-9.956-1.986-14.931-2.998c-3.099-0.63-6.201-1.243-9.298-1.884
	c-0.562-0.115-1.108-0.309-1.652-0.495c-2.064-0.707-2.426-1.104-3.3-3.545c0.506-0.682,1.279-0.724,2.027-0.893
	c4.205-0.945,8.414-1.876,12.596-2.919c1.474-0.368,2.878-1.026,4.303-1.581c0.353-0.137,0.67-0.371,0.988-0.587
	c2.68-1.82,2.523-4.887-0.439-6.338c-1.707-0.835-3.588-1.313-5.381-1.98c-2.422-0.899-4.841-1.81-7.249-2.75
	c-0.62-0.243-1.225-0.563-1.775-0.938c-0.873-0.596-1.239-1.49-1.017-2.514c0.759-3.483,2.121-6.443,5.684-8.102
	c3.316-1.542,6.716-2.814,10.151-4.01c5.256-1.83,10.614-3.354,16.089-4.324c6.318-1.121,12.661-2.109,19.074-2.635
	c5.366-0.44,10.719-0.597,16.087-0.309c2.009,0.108,4.013,0.311,6.017,0.5c6.963,0.654,13.902,1.503,20.781,2.791
	c7.779,1.457,15.186,3.995,22.174,7.712c1.346,0.716,2.616,1.597,3.854,2.494c1.315,0.952,1.918,2.267,1.986,3.944
	c0.168,4.121,0.173,3.679,3.554,5.843c-0.041,0.593-0.514,0.42-0.829,0.421c-9.596,0.017-19.192,0.016-28.789,0.031
	c-2.263,0.005-4.358-0.57-6.315-1.683c-0.86-0.489-1.54-1.115-1.729-2.165c-0.101-0.562-0.351-1.095-0.482-1.651
	c-0.463-1.938-1.709-3.146-3.5-3.892c-2.684-1.119-5.528-1.567-8.371-1.974c-3.996-0.572-8.025-0.69-12.057-0.76
	c-1.435-0.023-2.869-0.266-4.301-0.234c-5.271,0.12-10.549,0.237-15.769,1.053c-1.788,0.28-3.556,0.79-5.283,1.344
	c-1.591,0.51-2.841,1.521-3.703,3.021c-0.668,1.158-0.762,2.374-0.544,3.605c0.09,0.499,0.495,1.08,0.926,1.354
	c0.965,0.609,1.995,1.178,3.073,1.533c4.007,1.321,8.104,2.301,12.263,3.025c7.586,1.32,14.857,3.684,21.928,6.691
	c0.948,0.403,1.98,0.757,2.49,2.167c-2.43,1.447-4.968,1.941-7.482,2.505c-2.401,0.537-4.847,0.904-7.109,1.65
	c-0.07,1.001,0.431,1.271,0.991,1.399c3.45,0.794,6.884,1.695,10.367,2.314c7.552,1.341,15.176,2.174,22.798,3.018
	c5.714,0.633,11.412,1.427,17.1,2.268c3.125,0.46,6.228,1.098,9.313,1.775c3.352,0.735,7.066,3.267,8.997,6.021
	c-0.502,0.386-0.959,0.894-1.53,1.145c-1.489,0.653-3.028,1.193-4.546,1.779c-1.43,0.554-2.878,1.063-4.279,1.679
	c-0.579,0.255-1.06,0.735-1.763,1.242c0.456,0.546,0.763,0.995,1.146,1.364c2.707,2.6,5.045,5.494,7.143,8.605
	c2.61,3.874,3.903,8.068,3.46,12.752c-0.019,0.188,0.027,0.384,0.005,0.572c-0.181,1.54,0.475,2.495,1.892,3.156
	c2.079,0.971,4.104,2.068,6.107,3.191c0.914,0.511,1.774,1.152,2.57,1.84C216.175,164.64,216.246,165.714,214.838,167.049z"/>
</svg>
