<?xml version="1.0" encoding="utf-8"?>
<!-- Generator: Adobe Illustrator 16.0.0, SVG Export Plug-In . SVG Version: 6.00 Build 0)  -->
<!DOCTYPE svg PUBLIC "-//W3C//DTD SVG 1.1//EN" "http://www.w3.org/Graphics/SVG/1.1/DTD/svg11.dtd">
<svg version="1.1" id="Calque_1" xmlns="http://www.w3.org/2000/svg" xmlns:xlink="http://www.w3.org/1999/xlink" x="0px" y="0px"
	 width="283px" height="283px" viewBox="0 0 283 283" enable-background="new 0 0 283 283" xml:space="preserve">
<g>
	<path d="M130.957,96.396c9.394,0.221,18.786,0.328,28.172-0.438c5.27-0.431,10.462-1.221,15.583-2.496
		c0.822-0.203,1.613-0.581,2.371-0.97c0.477-0.244,0.561-0.757,0.371-1.254c-0.102-0.261-0.283-0.492-0.445-0.727
		c-2.518-3.607-6.123-5.827-10.127-7.207c-4.905-1.69-10.081-2.21-15.265-2.412c-3.183-0.124-6.283,0.507-9.377,1.135
		c-5.497,1.113-9.923,3.879-13.077,8.575c-0.708,1.055-1.648,1.848-2.743,2.489c-0.724,0.425-1.393,0.938-2.542,1.723
		c0.966,0.504,1.432,0.905,1.947,0.984C127.527,96.068,129.241,96.356,130.957,96.396z"/>
	<path d="M146.021,190.763c-8.912,0.39-17.823,0.807-26.731,1.25c-1.2,0.059-2.429,0.173-3.612,0.836
		c0.413,1.151,1.382,1.14,2.15,1.324c3.752,0.898,7.602,0.94,11.422,1.125c2.188,0.105,4.396-0.22,6.596-0.312
		c5.217-0.218,10.114-1.87,15.176-3.708c-0.325-0.131-0.645-0.355-0.977-0.377C148.706,190.817,147.358,190.704,146.021,190.763z"/>
	<path d="M0,0v283h283V0H0z M213.464,179.809c-0.727,0.236-1.473,0.431-2.225,0.567c-2.168,0.394-4.346,0.733-6.514,1.125
		c-1.035,0.188-2.061,0.436-3.082,0.684c-0.275,0.066-0.537,0.209-0.785,0.348c-1.088,0.604-1.207,2.242-0.115,2.821
		c1.09,0.577,2.281,0.984,3.457,1.369c1,0.325,2.061,0.459,3.059,0.78c0.607,0.194,1.152,0.581,1.74,0.889
		c-0.258,1.092-0.85,1.624-1.783,1.776c-2.363,0.384-4.723,0.787-7.094,1.122c-2.941,0.418-5.9,0.696-8.83,1.182
		c-1.889,0.312-2.016,0.562-2.764,2.541c1.449,1.676,3.973,1.052,5.637,2.423c-0.93,1.69-2.414,2.513-4.105,2.991
		c-2.211,0.623-4.453,1.139-6.666,1.76c-1.471,0.415-2.988,0.78-4.354,1.441c-4.383,2.126-9.105,2.928-13.824,3.771
		c-6.238,1.113-12.536,1.812-18.853,2.125c-5.842,0.289-11.704,0.223-17.557,0.192c-7.886-0.042-15.675-1.174-23.439-2.404
		c-2.443-0.39-4.842-1.158-7.209-1.915c-1.91-0.611-3.587-1.711-5.174-2.97c0.29-0.797,0.508-1.401,0.712-1.959
		c-1.761-2.32-4.106-3.183-6.789-3.408c-4.585-0.387-9.172-0.782-13.752-1.228c-1.235-0.122-2.466-0.375-3.671-0.678
		c-0.727-0.181-1.482-0.479-1.621-1.399c0.135-0.682,0.656-0.938,1.224-1.045c1.225-0.232,2.454-0.462,3.693-0.591
		c4.292-0.438,8.59-0.811,12.879-1.264c1.226-0.129,2.433-0.438,3.596-0.653c0.397-1.242-0.265-1.814-1.106-2.072
		c-1.275-0.389-2.598-0.64-3.913-0.879c-3.204-0.588-6.423-1.095-9.617-1.728c-0.914-0.18-1.812-0.595-2.625-1.062
		c-0.326-0.185-0.601-0.829-0.543-1.209c0.054-0.35,0.544-0.82,0.915-0.9c2.152-0.471,4.335-0.792,6.486-1.263
		c1.771-0.39,3.543-0.828,5.259-1.406c1.134-0.383,1.195-1.896,0.124-2.489c-0.74-0.41-1.584-0.694-2.419-0.862
		c-2.253-0.455-4.537-0.765-6.787-1.233c-1.383-0.288-2.868-0.33-4.118-1.317c-0.223-1.301-0.221-2.604,0.047-3.911
		c0.373-0.122,0.64-0.288,0.904-0.288c10.364-0.01,20.729-0.005,31.093,0.009c0.364,0,0.728,0.12,1.003,0.169
		c0.655,0.862,0.521,1.746,0.525,2.6c0.007,1.232,0.613,2.018,1.796,2.259c2.251,0.46,4.518,0.844,6.774,1.272
		c1.977,0.375,3.946,0.776,5.923,1.145c1.151,0.215,1.855,0.848,2.084,2.088c-1.732,1.144-3.725,1.448-5.688,1.823
		c-1.785,0.345-3.576,0.659-5.362,1.003c-0.373,0.07-0.743,0.192-1.095,0.338c-0.41,0.169-0.531,0.857-0.286,1.242
		c0.557,0.874,1.431,1.314,2.364,1.514c2.15,0.46,4.311,0.938,6.493,1.168c7.723,0.811,15.454,1.53,23.185,2.264
		c5.055,0.479,10.11,1.102,15.198,0.556c2.377-0.256,4.748-0.596,7.104-0.987c0.714-0.119,1.374-0.546,2.14-0.864
		c-0.095-0.638-0.199-1.09-0.222-1.547c-0.077-1.517,0.754-2.737,2.315-3.197c1.188-0.349,2.427-0.544,3.651-0.767
		c2.166-0.391,4.346-0.729,6.508-1.137c0.844-0.159,1.682-0.396,2.49-0.687c1.125-0.405,1.188-0.534,1.82-2.309
		c-0.342-0.78-1.082-1.043-1.818-1.202c-1.967-0.427-3.947-0.775-5.92-1.167c-1.221-0.241-2.455-0.455-3.656-0.776
		c-0.84-0.225-1.652-0.646-2.014-1.502c-2.096-4.945-6.499-6.822-11.142-8.29c-1.998-0.63-4.097-1.003-6.177-1.303
		c-2.654-0.382-5.332-0.609-8.007-0.832c-4.11-0.338-8.222-0.633-12.336-0.909c-1.723-0.115-3.451-0.129-5.176-0.209
		c-7.474-0.347-14.945-0.691-22.417-1.053c-4.885-0.236-9.779-0.377-14.651-0.792c-4.771-0.405-9.523-1.05-14.27-1.701
		c-1.405-0.194-2.788-0.689-4.124-1.2c-1.462-0.558-2.325-1.678-2.309-3.312c0.021-2.009,0.087-4.015,0.134-6.023
		c0.033-1.437,0.058-2.876,0.099-4.315c0.061-2.071,0.499-2.699,2.394-3.402c0.988-0.368,1.997-0.683,2.98-1.062
		c0.804-0.307,1.624-0.606,2.368-1.033c2.172-1.24,2.798-2.116,1.532-4.641c-1.567-3.127-2.117-6.549-2.756-9.939
		c-0.266-1.418,0.243-2.516,1.43-3.169c1.08-0.593,2.264-1.064,3.456-1.369c3.249-0.825,6.522-1.554,9.795-2.282
		c3.978-0.887,7.647-2.527,11.064-4.684c2.303-1.453,4.746-2.5,7.324-3.27c5.225-1.556,10.409-3.262,15.798-4.195
		c0.771-0.133,1.213-0.539,0.896-1.572c-1.312-0.248-2.693-0.586-4.097-0.757c-3.899-0.474-7.812-0.851-11.714-1.317
		c-5.803-0.691-11.626-1.229-17.374-2.315c-1.481-0.281-2.995-0.53-4.435-1.667c0.424-0.436,0.668-0.853,1.029-1.031
		c1.374-0.67,2.784-1.272,4.187-1.884c1.482-0.647,2.405-1.58,2.825-3.308c0.77-3.154,2.08-6.136,3.547-9.065
		c1.274-2.548,3.15-4.055,5.878-4.54c3.771-0.67,7.541-1.392,11.339-1.87c10.495-1.319,21.054-1.341,31.608-1.317
		c8.255,0.02,16.512-0.014,24.761,0.207c7.09,0.191,14.18,0.581,21.25,1.141c3.711,0.293,7.383,1.128,11.064,1.756
		c0.75,0.127,1.479,0.408,2.205,0.649c1.422,0.476,2.486,1.376,3.25,2.684c1.949,3.33,3.375,6.874,4.348,10.601
		c0.375,1.441,0.066,2.046-1.506,2.58c-2.355,0.797-4.74,1.535-7.146,2.166c-7.254,1.896-14.658,2.885-22.109,3.576
		c-5.059,0.469-10.109,1.02-15.17,1.505c-2.767,0.265-5.544,0.434-8.311,0.71c-4.57,0.457-9.136,0.961-13.702,1.458
		c-0.367,0.04-0.736,0.162-1.078,0.312c-0.138,0.059-0.27,0.289-0.278,0.448c-0.011,0.157,0.103,0.434,0.22,0.471
		c0.999,0.308,1.995,0.663,3.02,0.832c5.967,0.971,11.701,2.859,17.512,4.439c1.277,0.349,2.489,0.993,3.683,1.601
		c3.668,1.865,7.201,4.031,11.199,5.161c2.762,0.78,5.551,1.467,8.344,2.128c2.062,0.49,4.062,1.127,5.941,2.111
		c0.508,0.266,1.053,0.514,1.457,0.9c0.311,0.3,0.602,0.809,0.588,1.212c-0.021,0.544-0.592,0.661-1.09,0.665
		c-2.209,0.015-4.416,0.033-6.623,0.031c-7.391-0.005-14.783-0.012-22.172-0.031c-0.767-0.002-1.532-0.082-2.297-0.136
		c-0.783-0.054-1.435-0.265-1.99-0.944c-0.394-0.479-1.073-0.815-1.688-1.003c-1.188-0.358-2.409-0.64-3.637-0.82
		c-2.369-0.352-4.743-0.713-7.129-0.891c-7.083-0.525-14.18-0.706-21.282-0.598c-5.375,0.082-10.732,0.389-16.054,1.155
		c-1.041,0.15-2.089,0.361-3.079,0.701c-0.472,0.161-1.094,0.663-1.143,1.068c-0.049,0.422,0.426,1.021,0.826,1.354
		c0.582,0.483,1.289,0.82,1.967,1.175c6.558,3.44,13.428,6.077,20.598,7.938c3.706,0.961,7.406,1.941,11.104,2.935
		c0.621,0.167,1.213,0.443,2.342,0.865c-2.621,1.106-4.722,1.415-6.786,1.643c-4.858,0.537-9.738,0.896-14.614,1.275
		c-5.736,0.447-11.481,0.799-17.214,1.291c-1.214,0.105-2.427,0.551-3.574,1.006c-1.177,0.466-1.765,1.383-1.519,2.742
		c0.117,0.653,0.225,1.38,0.059,1.999c-0.678,2.503-0.147,4.934,0.243,7.393c0.242,1.516,1.16,2.404,2.512,2.852
		c0.995,0.328,2.047,0.532,3.089,0.664c1.902,0.238,3.812,0.449,5.728,0.551c5.266,0.273,10.535,0.522,15.806,0.712
		c6.997,0.253,13.998,0.44,20.995,0.656c5.657,0.174,11.32,0.218,16.967,0.558c7.174,0.43,14.375,0.572,21.514,1.555
		c2.75,0.377,5.516,0.677,8.24,1.188c4.109,0.767,5.76,2.67,6.422,7.327c0.229,1.605,0.209,3.246,0.305,4.88
		c1.057,1.258,2.568,1.291,3.934,1.607c1.865,0.432,3.754,0.769,5.631,1.146c0.189,0.037,0.385,0.044,0.568,0.094
		c0.836,0.218,1.762,0.36,1.869,1.467C215.417,178.821,214.876,179.349,213.464,179.809z M189.409,146.665
		c0.264,2.18,0.289,4.391,0.389,6.589c0.012,0.26-0.15,0.527-0.287,0.968c-3.598,0.256-7.221,0.115-10.84,0.136
		c-3.74,0.021-7.482,0.005-11.223-0.035c-3.624-0.037-7.257,0.221-11.126-0.141c-0.31-1.847-0.547-3.356-0.819-4.858
		c-0.119-0.656-0.207-1.346-0.482-1.936c-0.633-1.362-0.755-2.747-0.496-4.195c2.726-2.859,1.72-2.529,5.623-2.539
		c8.826-0.019,17.654,0.01,26.48,0.02c1.143,0,2.289,0,3.381,0c0.092,0.384,0.227,0.616,0.158,0.722
		C189.116,143.044,189.183,144.805,189.409,146.665z"/>
</g>
</svg>
