<?xml version="1.0" encoding="utf-8"?>
<!-- Generator: Adobe Illustrator 16.0.0, SVG Export Plug-In . SVG Version: 6.00 Build 0)  -->
<!DOCTYPE svg PUBLIC "-//W3C//DTD SVG 1.1//EN" "http://www.w3.org/Graphics/SVG/1.1/DTD/svg11.dtd">
<svg version="1.1" id="Calque_1" xmlns="http://www.w3.org/2000/svg" xmlns:xlink="http://www.w3.org/1999/xlink" x="0px" y="0px"
	 width="283px" height="283px" viewBox="0 0 283 283" enable-background="new 0 0 283 283" xml:space="preserve">
<g>
	<path d="M0,0v283h283V0H0z M218.01,162.747c-1.936,1.995-3.93,3.931-5.875,5.917c-1.684,1.717-3.521,3.187-5.548,4.516
		c-4.118,2.698-7.679,6.047-10.257,10.312c-0.857,1.416-1.207,2.992-1.268,4.656c-0.077,2.009-0.244,4.013-0.403,6.017
		c-0.352,4.439-1.676,8.682-3.206,12.789c-1.193,3.199-2.873,6.319-4.875,9.085c-2.397,3.312-5.302,6.277-8.693,8.671
		c-0.312,0.221-0.613,0.456-0.926,0.677c-5.053,3.581-3.231,2.856-9.309,4.078c-3.748,0.752-7.573,1.155-11.382,1.545
		c-8.789,0.899-17.611,1.246-26.44,1.055c-6.422-0.139-12.844-0.476-19.254-0.903c-4.491-0.299-8.97-0.85-13.441-1.385
		c-2.185-0.262-4.359-0.669-6.504-1.158c-1.102-0.251-2.201-0.704-3.183-1.272c-5.625-3.254-10.23-7.646-14.367-12.644
		c-2.785-3.366-4.676-7.231-6.863-10.93c-1.617-2.733-2.535-5.79-2.901-8.972c-0.251-2.185-0.511-4.373-0.658-6.565
		c-0.11-1.644,0.002-3.286,1.49-4.722c0.333-0.05,0.886-0.209,1.439-0.208c10.174,0.005,20.346,0.028,30.521,0.055
		c0.278,0,0.558,0.082,0.918,0.139c-0.185,1.122-0.48,2.205-0.511,3.296c-0.032,1.14,0.12,2.299,0.323,3.424
		c0.202,1.123,0.443,2.271,0.889,3.312c0.713,1.66,1.408,3.393,2.473,4.827c2.123,2.864,4.83,5.057,7.987,6.869
		c6.15,3.53,12.865,4.907,19.726,5.693c4.969,0.569,9.951,0.003,14.832-1.169c2.044-0.49,4.104-0.979,6.075-1.697
		c4.05-1.48,7.39-3.98,10.031-7.42c1.139-1.484,1.879-3.142,2.18-4.948c0.459-2.764,0.355-5.502-0.343-8.268
		c-0.907-3.585-2.719-6.712-4.528-10.063c0.047-0.312,0.15-0.775,0.186-1.243c0.117-1.613,1.045-2.616,2.426-3.298
		c5.061-2.5,10.102-5.037,15.188-7.486c1.634-0.787,3.387-1.323,5.069-2.014c1.594-0.654,3.186-1.319,4.741-2.055
		c2.136-1.006,3.167-2.79,3.066-5.098c-0.078-1.805-0.19-3.666-0.699-5.381c-1.169-3.955-1.359-7.906-0.576-11.925
		c0.424-2.179,0.619-4.368,0.502-6.585c-0.157-2.94-1.719-4.973-4.195-6.367c-2.337-1.315-4.751-2.503-7.058-3.871
		c-2.768-1.643-5.771-2.615-8.876-3.233c-4.603-0.918-9.236-1.692-13.87-2.452c-3.025-0.494-6.07-0.877-9.11-1.27
		c-2.663-0.345-5.33-0.683-8.001-0.936c-7.064-0.672-14.069-1.753-21.065-2.918c-9.84-1.639-19.605-3.64-29.32-5.889
		c-3.542-0.819-7.027-1.899-10.496-2.998c-1.443-0.458-2.816-1.198-4.146-1.946c-1.758-0.989-2.64-2.662-2.351-4.591
		c0.449-3.008,0.762-6.073,2.016-9.105c4.762-0.345,9.534,0.027,14.254-0.196c0.157-0.769-0.271-1.005-0.712-1.192
		c-1.144-0.489-2.318-0.914-3.448-1.434c-2.697-1.24-5.414-2.443-8.048-3.805c-2.019-1.043-1.985-1.933-0.085-3.325
		c0.31-0.228,0.661-0.403,0.947-0.655c0.998-0.882,2.029-1.736,2.955-2.692c2.665-2.755,5.276-5.561,7.922-8.331
		c0.395-0.412,0.84-0.796,1.312-1.112c5.513-3.676,11.117-7.187,17.524-9.141c4.406-1.342,8.876-2.38,13.472-2.832
		c3.137-0.31,6.261-0.855,9.398-0.941c2.757-0.076,5.562-0.445,8.3,0.339c0.181,0.053,0.38,0.045,0.571,0.046
		c6.577,0.042,12.915,1.655,19.262,3.075c2.496,0.558,4.902,1.642,7.251,2.704c2.616,1.184,5.131,2.589,7.662,3.944
		c4.821,2.58,8.768,6.245,12.002,10.555c2.593,3.454,5.965,5.651,9.743,7.351c3.755,1.688,7.612,3.146,11.421,4.717
		c1.573,0.65,3.134,1.333,4.652,1.979c-0.124,0.787-0.591,0.62-0.919,0.621c-4.703,0.014-9.407,0.002-14.109,0.019
		c-1.04,0.005-2.109-0.163-3.258,0.353c0.539,3.421,1.61,6.755,1.988,10.186c-2.893,0.453-29.846,0.54-33.324,0.131
		c-1.783-3.722-4.038-7.019-6.893-10.311c1.547-0.281,2.761-0.155,3.961-0.18c1.15-0.025,2.304-0.016,3.455-0.018
		c1.246-0.003,2.496-0.003,3.742-0.003c1.25,0,2.496,0.004,3.743,0.004c1.153,0.001,2.304,0.006,3.457,0
		c1.229-0.006,2.456-0.021,3.626-0.033c0.234-0.819-0.174-1.072-0.628-1.254c-4.09-1.641-8.119-3.465-12.291-4.858
		c-5.735-1.916-11.66-3.105-17.684-3.751c-6.504-0.697-13.026-0.679-19.552-0.608c-3.946,0.042-7.849,0.474-11.723,1.176
		c-1.311,0.237-2.593,0.665-3.863,1.086c-0.407,0.136-0.733,0.526-1.104,0.805c0.436,1.27,1.483,1.644,2.404,2.059
		c2.881,1.299,5.801,2.506,8.7,3.762c0.68,0.293,1.336,0.631,1.976,0.934c-0.161,0.755-0.642,0.502-0.951,0.504
		c-3.072,0.019-6.146,0.054-9.216-0.016c-1.272-0.029-2.208,0.41-2.983,1.369c-1.214,1.496-2.332,3.04-3.028,4.863
		c-1.209,3.169-0.387,4.874,2.941,5.812c1.195,0.337,2.424,0.623,3.656,0.747c4.674,0.474,9.354,0.907,14.037,1.285
		c4.49,0.361,8.988,0.643,13.485,0.949c3.254,0.22,6.507,0.437,9.76,0.631c4.308,0.258,8.627,0.404,12.926,0.759
		c8.121,0.668,16.207,1.569,24.077,3.884c3.284,0.967,6.19,2.592,8.89,4.584c3.195,2.357,6.708,4.118,10.299,5.697
		c3.27,1.438,6.323,3.145,9.192,5.278c2.217,1.65,4.647,3.012,7.216,4.651c0.07,0.24,0.097,0.889,0.418,1.309
		c1.336,1.755,1.226,3.708,1.057,5.733c-0.253,3.059-0.562,6.125-0.541,9.187c0.016,2.376,0.504,4.748,0.769,7.123
		c0.243,2.188,0.501,4.374,0.693,6.566C220.553,159.139,219.613,161.096,218.01,162.747z M89.926,144.836
		c-0.683-4.154-1.259-8.326-1.908-12.484c-0.117-0.755-0.321-1.509-0.593-2.223c-0.795-2.086-1.805-3.912-4.115-4.832
		c-2.323-0.926-4.222-2.593-6.028-4.307c0.243-0.708,0.806-0.475,1.219-0.474c9.593,0.011,19.186,0.066,28.778,0.042
		c1.61-0.005,3.017,0.242,4.219,1.376c1.836,1.73,4.06,2.877,6.291,3.979c0.994,0.491,1.639,1.18,2.229,2.113
		c0.938,1.474,1.582,3.042,2.188,4.66c0.869,2.328,1.922,4.593,2.751,6.934c0.668,1.89,1.184,3.84,1.65,5.791
		c0.347,1.461-0.202,2.851-0.729,4.191c-0.944,2.404-1.947,4.786-2.92,7.182c-0.837,2.061-2.088,3.857-3.546,5.634
		c-10.711,0.14-21.443,0.281-32.178,0.41c-0.263,0.003-0.527-0.146-0.998-0.284c0.27-0.656,0.419-1.31,0.769-1.827
		c1.158-1.716,1.563-3.687,1.976-5.644c0.356-1.685,0.565-3.398,0.842-5.101C90.097,148.267,90.212,146.573,89.926,144.836z"/>
</g>
</svg>
