<?xml version="1.0" encoding="utf-8"?>
<!-- Generator: Adobe Illustrator 16.0.0, SVG Export Plug-In . SVG Version: 6.00 Build 0)  -->
<!DOCTYPE svg PUBLIC "-//W3C//DTD SVG 1.1//EN" "http://www.w3.org/Graphics/SVG/1.1/DTD/svg11.dtd">
<svg version="1.1" id="Calque_1" xmlns="http://www.w3.org/2000/svg" xmlns:xlink="http://www.w3.org/1999/xlink" x="0px" y="0px"
	 width="283px" height="283px" viewBox="0 0 283 283" enable-background="new 0 0 283 283" xml:space="preserve">
<g>
	<path d="M159.624,65.743c2.31-0.001,2.719,0.453,3.882-2.811c0.129-0.36,0.253-0.723,0.361-1.091
		c0.267-0.913,0.044-1.658-0.655-2.337c-0.751-0.727-1.569-1.457-2.075-2.348c-0.72-1.268-1.797-2.595-0.511-4.178
		c0.417-0.514,0.226-1.109-0.143-1.587c-0.288-0.375-0.607-0.82-1.016-0.994c-2.081-0.888-3.854-2.468-6.218-2.735
		c-1.894-0.214-3.809-0.378-5.658-0.807c-3.452-0.801-6.838-0.404-10.209,0.326c-1.939,0.421-3.834,0.904-5.155,2.723
		c-0.736,1.013-1.195,1.902-0.949,3.125c0.091,0.459,0.129,0.929,0.194,1.408c-1.121,1.375-2.044,2.881-3.314,3.985
		c-2.151,1.871-2.737,4.247-2.992,7.224c0.946,0.039,1.607,0.092,2.269,0.094C138.164,65.745,148.893,65.749,159.624,65.743z"/>
	<path d="M0,0v283h283V0H0z M218.368,159.519c-0.18,0.935-0.697,1.819-0.787,2.752c-0.25,2.623-1.671,4.686-3.107,6.709
		c-1.662,2.342-3.408,4.64-5.293,6.804c-1.504,1.728-3.173,3.344-4.942,4.8c-3.322,2.734-6.542,5.622-10.413,7.626
		c-1.233,0.638-1.977,1.767-2.407,3.11c-0.791,2.458-1.604,4.91-2.461,7.345c-1.286,3.648-1.022,7.138,0.862,10.527
		c1.162,2.092,2.357,4.175,3.341,6.352c0.861,1.907,1.646,3.866,1.829,6.018c0.088,1.026,0.507,2.022,0.819,3.2
		c-0.393,1.09-0.907,2.321-1.276,3.594c-0.445,1.539-0.471,3.04,0.877,4.252c0.276,0.246,0.492,0.602,0.635,0.947
		c0.601,1.454,1.559,2.627,2.73,3.53c0.108,1.041,0.213,1.974,0.301,2.909c0.136,1.438-0.286,2.543-1.537,3.458
		c-2.122,1.553-4.506,2.595-6.905,3.489c-3.757,1.4-7.47,3.008-11.44,3.764c-3.004,0.572-6.021,1.098-9.051,1.525
		c-7.83,1.105-15.703,0.743-23.558,0.434c-3.236-0.128-6.461-0.781-9.669-1.325c-6.751-1.146-13.118-3.527-19.296-6.394
		c-2.598-1.205-4.995-2.834-7.5-4.239c-2.253-1.263-4.526-2.493-6.8-3.721c-1.265-0.682-2.51-1.415-3.829-1.972
		c-2.926-1.233-5.524-3.061-8.349-4.464c-2.45-1.218-4.292-3.2-6.39-4.86c-1.803-1.426-3.554-2.92-5.311-4.404
		c-3.084-2.606-5.97-5.445-8.398-8.648c-1.854-2.445-3.041-5.284-3.225-8.48c-0.147-2.599-0.958-5.064-2.004-7.451
		c-0.613-1.403-1.128-2.848-1.714-4.263c-0.659-1.591-0.041-2.801,1.126-3.834c0.428-0.379,0.933-0.671,1.402-1.002
		c4.116-2.9,7.525-6.536,10.641-10.44c1.124-1.41,1.962-3.052,2.898-4.606c1.188-1.97,2.371-3.943,3.497-5.947
		c0.511-0.909,1.168-1.875,1.247-2.856c0.133-1.655,0.754-3.167,0.999-4.765c0.275-1.793,0.327-3.621,0.458-5.434
		c0.075-1.037-0.154-2.097,0.148-3.046c0.258-0.164,0.406-0.304,0.581-0.359c0.271-0.087,0.559-0.164,0.839-0.163
		c10.242,0.061,20.484,0.128,30.726,0.21c0.369,0.003,0.735,0.156,1.265,0.276c0.316,3.141,0.698,6.239-0.34,9.322
		c-0.214,0.632-0.401,1.307-0.415,1.965c-0.053,2.386-1.055,4.423-2.113,6.481c-1.262,2.457-2.642,4.846-3.629,7.458
		c-0.663,1.758-1.852,3.339-2.928,4.916c-1.898,2.78-4.098,5.306-6.763,7.395c-0.301,0.237-0.603,0.481-0.854,0.767
		c-0.939,1.066-0.979,1.9-0.189,3.121c1.189,1.837,2.973,3.103,4.837,3.97c3.746,1.744,6.99,4.333,10.737,6.046
		c0.419,0.192,0.772,0.544,1.132,0.851c1.744,1.489,1.803,1.91,0.572,3.806c-1.526,2.352-0.976,4.27,1.535,5.591
		c2.123,1.116,4.356,1.88,6.693,2.402c0.623,0.138,1.22,0.501,1.765,0.858c0.919,0.602,1.916,0.883,2.989,0.894
		c1.907,0.02,3.814,0.006,5.723-0.091c0.716,0.079,0.063-1.485,1.085-0.943c0.489,0.26,1.126,0.169,1.249-0.29
		c0.267-1.002,1.005-1.416,1.812-1.662c0.992-0.304,1.284-1.024,1.542-1.98c-1.041-2.092-2.274-4.027-4.583-5.159
		c-1.552-0.761-1.558-2.098-0.22-3.144c1.095-0.853,2.145-1.735,3.46-2.297c1.044-0.444,1.953-1.204,2.929-1.815
		c1.21-0.759,2.357-1.667,3.656-2.229c2.474-1.071,4.415-2.758,5.855-4.938c1.214-1.837,2.812-3.125,4.668-4.151
		c4.717-2.611,9.033-5.791,13.132-9.266c2.425-2.057,4.336-4.589,6.072-7.246c0.209-0.321,0.335-0.709,0.587-0.987
		c2.643-2.902,3.362-6.498,4.052-10.222c0.855-4.628-0.484-8.317-3.847-11.373c-2.941-2.675-6.355-4.544-10.146-5.797
		c-5.378-1.777-10.896-2.93-16.439-4.008c-2.439-0.475-4.845-1.129-7.284-1.612c-5.356-1.06-10.729-2.034-16.084-3.097
		c-3.38-0.672-6.737-1.444-10.106-2.165c-1.401-0.301-2.801-0.618-4.212-0.875c-4.647-0.845-8.925-2.864-13.419-4.187
		c-1.546-0.453-2.662-1.509-3.814-2.499c-0.812-0.696-1.291-1.692-1.047-2.812c0.246-1.123-0.161-2.034-0.584-3.024
		c-0.755-1.764-1.625-3.392-2.891-4.89c-1.24-1.47-1.805-3.416-1.85-5.352c-0.04-1.722-0.679-3.15-1.491-4.573
		c-0.759-1.331-1.476-2.687-2.256-4.005c-1.181-1.995-2.597-3.782-4.521-5.145c-0.934-0.661-1.739-1.498-2.623-2.232
		c-1.545-1.286-3.105-2.554-4.657-3.831c-0.961-0.791-1.872-1.651-2.885-2.367c-2.072-1.466-3.094-3.574-3.861-5.884
		c-0.574-1.727-0.59-3.407,0.359-4.986c1.592-2.646,3.331-5.169,6.275-6.528c0.434-0.201,0.855-0.439,1.248-0.712
		c2.26-1.562,4.661-2.604,7.503-2.221c0.354,0.048,0.739-0.126,1.017-0.179c0.204-0.233,0.39-0.355,0.443-0.521
		c1.137-3.446,2.28-6.892,3.36-10.357c0.193-0.622,0.144-1.33,0.154-2c0.048-2.877,0.067-5.753,0.114-8.63
		c0.028-1.723,0.17-3.439-0.14-5.16c-0.311-1.729,0.384-2.989,2.009-3.71c3.69-1.637,7.468-2.979,11.511-3.431
		c5.436-0.607,10.896-0.867,16.351-1.241c8.825-0.604,17.646-0.567,26.464-0.218c4.781,0.188,9.583,0.442,14.297,1.416
		c1.589,0.328,3.189,0.668,4.729,1.177c5.19,1.717,10.482,3.012,15.84,4.083c4.323,0.863,8.569,2.031,12.741,3.484
		c5.177,1.801,8.412,5.504,10.477,10.395c0.246,0.583,0.322,1.319,0.229,1.948c-0.32,2.194-0.366,4.378-0.234,6.59
		c0.129,2.171-0.725,4.109-1.71,6.169c-1.939,0.015-3.843,0.036-5.748,0.043c-1.92,0.007-3.839,0-5.759,0
		c-1.919-0.001-3.839-0.004-5.76,0c-1.878,0.005-3.761-0.042-5.554,0.04c-0.202,1.016,0.359,1.348,0.727,1.736
		c3.504,3.701,6.369,7.905,9.453,11.939c0.93,1.216,1.802,2.48,2.779,3.657c0.957,1.154,2.017,2.226,3.175,3.488
		c-2.657,0.453-5.134,0.301-7.591,0.321c-7.197,0.062-14.4-0.136-21.588,0.136c-3.345,0.127-5.65-1.188-7.816-3.394
		c-1.54-1.567-3.178-3.044-4.841-4.481c-2.739-2.367-6.046-3.692-9.427-4.771c-4.771-1.523-9.68-2.248-14.708-2.386
		c-3.358-0.093-6.706-0.171-10.053,0.101c-4.521,0.365-8.915,1.267-12.989,3.362c-0.848,0.436-1.695,0.925-2.421,1.536
		c-1.189,1.002-1.673,2.291-1.177,3.862c0.562,1.779,1.446,3.302,2.988,4.442c3.199,2.369,6.747,3.993,10.517,5.213
		c5.561,1.801,11.208,3.245,16.903,4.563c9.794,2.267,19.523,4.808,29.287,7.203c4.096,1.006,8.184,2.025,12.158,3.46
		c1.638,0.59,3.191,1.297,4.574,2.369c0.757,0.586,1.53,1.155,2.334,1.676c1.21,0.783,2.382,1.583,3.32,2.717
		c0.477,0.576,1.124,1.043,1.762,1.454c1.762,1.137,2.941,2.679,3.648,4.654c0.331,0.924,0.625,1.799,0.408,2.782
		c-0.544,2.469,0.326,4.493,1.932,6.323c1.401,1.6,2.925,3.029,4.812,4.047c2.362,1.273,4.724,2.552,7.063,3.866
		c3.343,1.876,6.642,3.832,10.008,5.662c1.379,0.75,2.186,1.797,2.476,3.298c0.219,1.127,0.478,2.249,0.64,3.386
		c0.228,1.608,0.38,3.229,0.567,4.844C219.369,155.019,218.807,157.267,218.368,159.519z"/>
</g>
</svg>
