<?xml version="1.0" encoding="utf-8"?>
<!-- Generator: Adobe Illustrator 16.0.0, SVG Export Plug-In . SVG Version: 6.00 Build 0)  -->
<!DOCTYPE svg PUBLIC "-//W3C//DTD SVG 1.1//EN" "http://www.w3.org/Graphics/SVG/1.1/DTD/svg11.dtd">
<svg version="1.1" id="Calque_1" xmlns="http://www.w3.org/2000/svg" xmlns:xlink="http://www.w3.org/1999/xlink" x="0px" y="0px"
	 width="283px" height="283px" viewBox="0 0 283 283" enable-background="new 0 0 283 283" xml:space="preserve">
<g>
	<path d="M0,0v283h283V0H0z M214.349,105.177c-2.768,0.278-5.545,0.435-8.313,0.697c-3.433,0.325-6.861,0.704-10.288,1.084
		c-0.465,0.052-0.939,0.195-1.359,0.399c-0.198,0.096-0.334,0.424-0.392,0.672c-0.03,0.135,0.128,0.416,0.263,0.469
		c0.884,0.342,1.763,0.745,2.682,0.927c1.502,0.298,3.033,0.44,4.554,0.646c1.232,0.168,1.232,0.167,2.329,1.493
		c-0.347,0.181-0.658,0.45-1,0.499c-1.614,0.234-3.234,0.548-4.856,0.572c-2.719,0.04-5.3,0.806-7.944,1.236
		c-0.887,0.144-1.396,0.573-1.225,1.606c1.654,1.202,3.661,0.82,5.524,1.079c1.799,0.25,3.616,0.362,5.44,0.729
		c-0.646,0.06-1.291,0.171-1.937,0.172c-7.967,0.016-15.938,0.134-23.901-0.029c-4.498-0.093-8.986-0.652-13.479-1.003
		c-1.052-0.082-2.103-0.182-3.154-0.255c-1.058-0.074-2.062-0.281-2.886-0.894c-0.147-0.665,0.091-1.054,0.629-1.165
		c2.341-0.486,4.633-1.186,7.059-1.271c1.721-0.06,3.432-0.346,5.143-0.564c0.251-0.032,0.479-0.249,0.663-0.351
		c0.239-0.666-0.143-1.043-0.546-1.24c-0.678-0.329-1.406-0.633-2.145-0.745c-1.894-0.286-3.807-0.444-5.707-0.687
		c-1.313-0.169-2.637-0.352-3.797-1.523c0.438-0.224,0.736-0.487,1.06-0.523c3.712-0.416,7.427-0.826,11.146-1.178
		c2.672-0.254,5.354-0.41,8.031-0.624c0.763-0.06,1.531-0.146,2.08-1.003c-0.844-1.654-2.253-2.437-4.091-2.57
		c-2.774-0.201-5.549-0.39-8.32-0.611c-0.761-0.061-1.523-0.176-2.268-0.346c-0.535-0.122-1.041-0.377-1.85-0.682
		c1.324-1.16,2.814-1.081,4.066-1.541c1.24-0.457,2.592-0.612,4.137-0.953c-0.292-0.527-0.432-0.956-0.71-1.253
		c-0.884-0.937-1.974-1.473-3.278-1.606c-1.047-0.106-2.08-0.387-3.129-0.467c-3.441-0.265-6.886-0.511-10.332-0.697
		c-5.269-0.283-10.54-0.519-15.809-0.757c-0.998-0.046-2.027-0.229-3.656,0.374c2.303,0.649,3.98,1.123,5.736,1.617
		c-1.934,1.776-3.282,2.473-5.298,2.854c-1.979,0.373-3.953,0.761-5.921,1.177c-0.748,0.158-1.504,0.351-2.203,0.65
		c-0.396,0.171-0.938,0.573-0.968,0.91c-0.067,0.763,0.675,0.796,1.229,0.843c2.674,0.229,5.351,0.432,8.027,0.635
		c0.65,0.051,1.303,0.076,1.995,0.115c-0.751,1.922-1.73,2.835-3.432,3.063c-1.9,0.255-3.812,0.434-5.724,0.593
		c-2.963,0.248-5.933,0.41-8.892,0.691c-1.33,0.125-2.646,0.427-3.959,0.696c-0.361,0.075-0.752,0.26-1.01,0.516
		c-0.237,0.234-0.411,0.626-0.426,0.956c-0.011,0.204,0.294,0.558,0.517,0.615c1.203,0.315,2.437,0.52,3.635,0.849
		c0.492,0.135,0.926,0.487,1.441,0.772c-0.431,0.975-1.118,1.221-1.898,1.303c-1.525,0.162-3.052,0.403-4.579,0.439
		c-3.188,0.076-6.266,0.854-9.39,1.32c-0.851,0.127-1.47,0.465-1.306,1.503c0.629,0.673,1.47,0.832,2.337,0.907
		c4.681,0.407,9.361,0.804,14.042,1.216c2.293,0.202,4.591,0.369,6.871,0.667c1.814,0.235,3.592,0.71,5.072,1.87
		c1.469,1.151,3.152,1.817,4.917,2.308c6.823,1.897,13.636,3.834,20.484,5.642c5.937,1.565,11.977,2.624,18.071,3.393
		c2.278,0.288,4.551,0.688,6.793,1.185c2.438,0.541,4.811,1.332,6.934,2.707c2.65,1.716,5.344,3.377,7.915,5.207
		c1.142,0.812,2.032,1.979,3.194,3.143c-0.581,0.355-0.926,0.686-1.329,0.789c-1.481,0.383-2.965,0.842-4.478,0.998
		c-4.67,0.484-9.348,0.945-14.033,1.221c-6.031,0.354-12.075,0.491-18.11,0.773c-6.802,0.319-13.605,0.633-20.398,1.075
		c-3.728,0.242-7.444,0.712-11.156,1.15c-1.708,0.202-2.242,0.531-3.626,1.709c1.027,1.78,2.39,3.21,4.492,3.598
		c2.539,0.469,5.102,0.913,7.673,1.081c5.168,0.342,10.348,0.491,15.521,0.717c5.175,0.225,10.35,0.408,15.522,0.677
		c5.745,0.298,11.491,0.604,17.228,1.029c5.952,0.441,11.747,1.758,17.428,3.554c1.942,0.614,3.651,1.689,4.96,3.311
		c0.3,0.372,0.571,0.799,0.95,1.065c1.974,1.39,2.379,3.37,2.203,5.59c-0.021,0.281-0.073,0.562-0.125,0.943
		c-0.769,0.546-1.695,0.726-2.641,0.838c-1.809,0.216-3.618,0.42-5.429,0.626c-0.191,0.022-0.386,0.012-0.573,0.047
		c-1.032,0.188-1.622,0.762-1.709,1.652c-0.133,1.355,0.284,2.189,1.441,2.432c2.156,0.45,4.34,0.767,6.506,1.174
		c0.939,0.178,1.869,0.421,2.791,0.674c0.526,0.145,0.801,0.579,0.714,1.093c-0.059,0.336-0.27,0.78-0.544,0.919
		c-0.586,0.294-1.244,0.495-1.896,0.602c-2.363,0.387-4.737,0.714-7.105,1.072c-0.375,0.058-0.742,0.16-1.199,0.26
		c-0.163,0.446-0.376,0.874-0.473,1.326c-0.178,0.849,0.049,1.322,0.837,1.557c0.914,0.27,1.861,0.44,2.801,0.604
		c2.171,0.38,4.347,0.729,6.52,1.095c0.486,0.083,0.987,0.234,1.049,0.803c0.076,0.729-0.534,1.046-1.069,1.137
		c-1.887,0.322-3.791,0.553-5.69,0.8c-1.8,0.234-3.604,0.445-5.56,0.685c-0.424,0.991-0.944,1.912-1.219,2.901
		c-0.769,2.784-1.958,5.397-3.191,7.986c-0.961,2.015-2.469,3.642-4.162,5.073c-1.461,1.235-2.988,2.395-4.478,3.598
		c-2.929,2.368-6.07,4.402-9.688,5.509c-2.375,0.727-4.819,1.319-7.275,1.671c-2.766,0.396-5.438,1.107-8.146,1.727
		c-3.261,0.745-6.572,1.303-9.884,1.791c-5.221,0.769-10.487,0.985-15.763,1.027c-6.062,0.048-12.067-0.556-18.026-1.617
		c-2.637-0.47-5.241-1.119-7.868-1.65c-3.662-0.739-7.322-1.489-11-2.152c-5.262-0.951-10.214-2.674-14.474-5.972
		c-1.958-1.517-3.702-3.314-5.523-5.004c-1.055-0.978-2.114-1.955-3.09-3.009c-0.709-0.765-1.41-1.585-1.893-2.499
		c-1.071-2.032-2.003-4.136-2.988-6.212c-0.417-0.879-0.712-1.774-0.302-2.85c3.963-1.23,8.338-0.49,12.24-2.045
		c0.087-1.111-0.325-1.67-1.208-1.808c-2.556-0.403-5.117-0.768-7.675-1.161c-1.04-0.16-2.089-0.297-3.109-0.548
		c-1.367-0.336-1.356-0.38-1.416-2.474c1.399-0.443,2.881-0.678,4.381-0.851c1.713-0.197,3.426-0.416,5.133-0.672
		c1.097-0.165,1.604-0.604,1.666-1.289c0.077-0.837-0.356-1.429-1.59-1.696c-2.057-0.447-4.146-0.748-6.22-1.119
		c-1.132-0.203-2.272-0.372-3.387-0.647c-1.087-0.269-1.458-0.817-1.43-1.845c0.03-1.07,0.585-1.705,1.791-1.873
		c1.802-0.252,3.621-0.398,5.422-0.665c1.019-0.151,2.017-0.448,2.945-0.662c0.731-1.671,0.052-3.229,0.3-4.669
		c0.241-0.131,0.405-0.296,0.569-0.297c10.364-0.038,20.73-0.066,31.095-0.082c0.469,0,0.938,0.101,1.393,0.153
		c0.687,1.497,0.996,2.949,0.716,4.427c-0.983,0.762-2.025,0.859-3.079,0.969c-1.812,0.186-3.623,0.387-5.426,0.65
		c-1.506,0.22-2.172,1.312-1.75,2.687c0.218,0.714,0.739,1.157,1.396,1.327c1.108,0.287,2.246,0.475,3.38,0.664
		c2.267,0.379,4.536,0.736,6.806,1.09c1.16,0.182,1.942,0.748,2.172,2.103c-0.498,0.207-0.988,0.53-1.513,0.606
		c-1.896,0.277-3.808,0.453-5.71,0.699c-1.415,0.184-2.824,0.419-4.314,0.643c-0.259,1.488,0.375,2.39,1.549,2.777
		c1.171,0.389,2.424,0.555,3.654,0.73c2.941,0.421,5.89,0.79,8.836,1.179c0.803,0.105,1.478,0.393,1.812,1.266
		c-0.371,0.844-1.173,0.767-1.903,0.849c-3.141,0.357-6.282,0.713-9.422,1.085c-0.367,0.044-0.724,0.185-1.02,0.262
		c-0.372,0.853-0.003,1.412,0.492,1.89c2.705,2.615,5.605,4.948,9.201,6.256c0.721,0.262,1.471,0.462,2.16,0.789
		c3.629,1.724,7.54,2.236,11.458,2.452c3.921,0.216,7.868,0.183,11.794,0.024c5.245-0.212,10.158-1.811,14.812-4.182
		c2.613-1.333,4.604-3.443,6.419-5.682c0.786-0.969,1.604-1.51,2.853-1.641c2.762-0.288,5.518-0.672,8.262-1.095
		c0.73-0.112,1.467-0.429,2.103-0.813c0.325-0.196,0.436-0.748,0.692-1.233c-3.457-1.453-7.171-0.994-10.564-2.368
		c0-0.703,0-1.341,0-2.077c1.355-0.568,2.754-0.784,4.168-0.952c1.619-0.192,3.236-0.4,4.846-0.645
		c0.465-0.07,1.025-0.17,1.327-0.473c0.368-0.369,0.67-0.959,0.693-1.466c0.015-0.326-0.474-0.896-0.825-0.979
		c-1.954-0.463-3.933-0.82-5.907-1.194c-1.222-0.231-2.464-0.373-3.673-0.663c-0.524-0.127-1.093-0.427-1.453-0.82
		c-0.979-1.069-0.481-2.63,0.934-2.857c1.893-0.304,3.805-0.492,5.715-0.663c1.159-0.104,2.268-0.298,3.321-0.87
		c0.328-1.338-0.504-2.222-1.091-3.167c-0.677-1.091-1.614-1.938-2.85-2.307c-1.559-0.465-3.133-0.945-4.734-1.179
		c-4.837-0.704-9.684-1.361-14.54-1.904c-5.526-0.619-11.065-1.112-16.604-1.624c-3.055-0.281-6.119-0.47-9.176-0.738
		c-5.634-0.492-11.263-1.059-16.899-1.509c-4.689-0.373-9.333-1.058-13.953-1.905c-1.597-0.293-3.169-0.728-4.744-1.132
		c-1.142-0.294-2.104-0.897-2.846-1.785c0.135-1.447,0.099-2.89,0.439-4.236c0.426-1.679,1.239-3.264,2.945-4.029
		c1.127-0.508,2.33-0.894,3.534-1.178c2.144-0.508,4.321-0.872,6.473-1.35c1.085-0.24,2.311-0.249,3.093-1.516
		c-1.172-1.271-2.558-2.262-4.014-3.126c-2.482-1.47-4.846-3.093-7.065-4.935c-1.055-0.874-1.874-1.879-2.377-3.18
		c-0.787-2.043-0.396-3.492,1.47-4.672c0.725-0.459,1.518-0.818,2.299-1.182c1.299-0.601,1.96-1.501,1.452-3.194
		c-0.321-0.211-0.756-0.594-1.262-0.813c-1.532-0.665-2.86-1.533-3.729-3.023c-0.588-1.01-1.646-1.268-2.699-1.431
		c-1.423-0.22-2.848-0.436-4.28-0.565c-4.87-0.441-9.743-0.844-14.615-1.264c-0.947-0.082-1.937-0.035-2.693-0.78
		c-0.054-0.65,0.155-1.175,0.837-1.28c2.837-0.44,5.677-0.873,8.523-1.254c1.899-0.253,3.812-0.405,5.717-0.623
		c0.277-0.031,0.617-0.099,0.795-0.28c0.246-0.247,0.455-0.605,0.509-0.943c0.03-0.198-0.221-0.557-0.432-0.652
		c-0.513-0.233-1.068-0.403-1.624-0.514c-1.127-0.224-2.268-0.384-3.399-0.588c-0.374-0.067-0.782-0.112-1.094-0.303
		c-0.29-0.177-0.646-0.529-0.651-0.81c-0.005-0.279,0.354-0.756,0.623-0.813c1.496-0.316,3.006-0.618,4.526-0.763
		c4.485-0.423,8.979-0.77,13.47-1.147c0.478-0.04,0.962-0.047,1.432-0.131c1.633-0.293,2.056-0.854,2.344-3.21
		c-2.018-0.553-4.16-0.099-6.182-0.521c-2.037-0.427-4.226,0.055-6.409-1.089c0.495-0.366,0.802-0.759,1.182-0.851
		c2.51-0.607,5.027-1.191,7.561-1.695c1.329-0.267,2.332-0.838,2.795-2.156c0.06-0.169,0.009-0.375,0.009-0.736
		c-0.671-0.209-1.369-0.549-2.1-0.635c-3.807-0.453-7.623-0.837-11.434-1.252c-1.906-0.207-3.816-0.389-5.715-0.658
		c-1.6-0.227-1.903-0.727-1.607-2.344c0.033-0.188,0.102-0.372,0.173-0.549c0.032-0.083,0.112-0.146,0.16-0.206
		c1.208-0.606,2.392-1.229,3.603-1.793c0.516-0.24,1.076-0.449,1.636-0.521c1.997-0.257,4.001-0.457,6.003-0.663
		c3.909-0.404,7.816-0.827,11.728-1.184c1.75-0.159,3.206-0.876,4.085-2.335c0.561-0.93,0.688-2.119,0.982-3.103
		c-2.145-1.888-5.021-1.726-7.261-3.287c0.171-0.823,0.827-1.286,1.256-1.862c0.396-0.533,0.882-1.004,1.36-1.47
		c1.096-1.067,2.294-2.044,3.292-3.193c0.731-0.843,1.483-1.386,2.602-1.594c3.51-0.655,6.823-1.888,9.941-3.639
		c0.415-0.231,0.87-0.413,1.329-0.542c5.897-1.658,11.775-3.413,17.886-4.165c0.095-0.012,0.188-0.053,0.282-0.056
		c4.307-0.079,8.601-0.908,12.904-0.535c5.323,0.459,10.701,0.476,15.933,1.838c3.802,0.988,7.652,1.784,11.462,2.742
		c1.103,0.276,2.149,0.787,3.205,1.231c1.057,0.445,2.113,0.905,3.136,1.423c1.709,0.863,3.403,1.758,5.081,2.676
		c1.006,0.551,1.931,1.26,2.962,1.749c1.761,0.834,3.334,1.878,4.569,3.403c1.496,1.844,3.288,3.145,5.742,3.482
		c1.321,0.182,1.303,0.329,2.299,1.495c-0.576,1.346-2.227,1.375-3.183,2.503c0.568,0.742,1.125,1.47,1.823,2.382
		c-0.579,0.254-1.037,0.576-1.535,0.656c-3.783,0.608-7.575,1.167-11.365,1.746c-0.564,0.087-1.126,0.19-1.782,0.304
		c-0.348,0.771-0.696,1.541-0.999,2.213c0.107,0.321,0.161,0.506,0.229,0.684c0.696,1.826,2.071,2.582,3.978,2.73
		c4.588,0.358,9.177,0.731,13.748,1.248c2.646,0.3,5.349,0.356,8.011,1.227c0.083,0.39,0.222,0.749,0.227,1.11
		c0.009,0.756-0.339,1.257-1.136,1.415c-1.973,0.392-3.945,0.784-5.908,1.224c-0.906,0.204-1.887,0.299-2.669,1.196
		c0.455,0.913,1.313,1.053,2.125,1.141c2.287,0.246,4.582,0.44,6.876,0.627c0.86,0.069,1.728,0.04,2.589,0.093
		c1.731,0.107,1.855,0.258,2.102,2.503C215.552,104.737,214.966,105.114,214.349,105.177z"/>
</g>
</svg>
